<svg xmlns="http://www.w3.org/2000/svg" width="400" height="224.81" viewBox = "0, 0, 1306, 734" style="shape-rendering:geometricPrecision;text-rendering:geometricPrecision;image-rendering:optimizeQuality;fill-rule:evenodd;clip-rule:evenodd"><path style="opacity:1" fill="#fefefe" d="M-.5-.5h1306v734H-.5V-.5z"/><path style="opacity:1" fill="#444" d="M913.5 116.5c3.424 5.187 6.091 10.854 8 17-1.895 6.12-4.562 11.786-8 17 .572-5.743 2.238-11.409 5-17a144.874 144.874 0 0 0-6-15.5c.556-.383.889-.883 1-1.5z"/><path style="opacity:1" fill="#434343" d="M1007.5 116.5c3.42 5.187 6.09 10.854 8 17a96.255 96.255 0 0 1-7.5 17l-1.5-1.5a454.19 454.19 0 0 1 6-15.5 144.451 144.451 0 0 0-6-15.5c.56-.383.89-.883 1-1.5z"/><path style="opacity:1" fill="#444" d="M822.5 119.5a72.367 72.367 0 0 1 12 .5c1.978 2.497 2.478 5.331 1.5 8.5l-4.5 4.5a25.05 25.05 0 0 1 2.5 8.5 9.454 9.454 0 0 0 2.5 1.5 18.453 18.453 0 0 1-6 .5l-1.5-9c-1.444-1.655-3.278-2.322-5.5-2-.766 3.582-.766 7.082 0 10.5-2 .667-4 .667-6 0a83.786 83.786 0 0 0 5-23.5z"/><path style="opacity:1" fill="#4d4d4d" d="M876.5 118.5h16c.253 2.327-.414 4.327-2 6-.929-1.189-1.262-2.522-1-4h-8a41.73 41.73 0 0 0-1 9c2.544.396 4.711-.271 6.5-2 .306 2.451-.194 4.784-1.5 7-.886-.825-1.219-1.825-1-3-1.967-.239-3.801.094-5.5 1a70.523 70.523 0 0 0-1.5 9 32.462 32.462 0 0 0 8-.5c.576-2.268 1.91-3.268 4-3l-2 5c-5 .667-10 .667-15 0 3.224-7.939 4.557-16.106 4-24.5zm119 0c1.805 7.268 2.639 14.935 2.5 23 1.399.727 2.9 1.227 4.5 1.5a49.226 49.226 0 0 1-14 0 15.256 15.256 0 0 0 4.5-1.5c.499-5.991.666-11.991.5-18-1.831.552-3.497.552-5 0a38.252 38.252 0 0 0 7-5z"/><path style="opacity:1" fill="#434343" d="M319.5 121.5c.876-.131 1.543.202 2 1a152.163 152.163 0 0 1 7 15.5 172.17 172.17 0 0 1-8 16.5l-1-2a258.684 258.684 0 0 0 5-14.5 475.95 475.95 0 0 0-5-16.5z"/><path style="opacity:1" fill="#f5f5f5" d="M826.5 120.5c4.065-.922 6.398.578 7 4.5.146 2.034-.52 3.701-2 5-2.402.814-4.735.647-7-.5a54.293 54.293 0 0 0 2-9z"/><path style="opacity:1" fill="#454545" d="M289.5 122.5h3v33h-3v-33z"/><path style="opacity:1" fill="#393939" d="M307.5 123.5c1.804 6.932 2.637 14.265 2.5 22a15.256 15.256 0 0 0 4.5 1.5 42.479 42.479 0 0 1-13 0 15.256 15.256 0 0 0 4.5-1.5c.499-5.991.666-11.991.5-18-1.984-.117-3.65.55-5 2l-1-1a38.252 38.252 0 0 0 7-5z"/><path style="opacity:1" fill="#343534" d="M937.5 128.5c7.363-.331 14.697.003 22 1l-11 1c-4.065-.011-7.732-.678-11-2z"/><path style="opacity:1" fill="#a7a7a7" d="M865.5 151.5c-.667-44-1.333-44-2 0-.995-11.154-1.328-22.488-1-34h4c.328 11.512-.005 22.846-1 34z"/><path style="opacity:1" fill="#343534" d="M865.5 151.5h-2c.667-44 1.333-44 2 0z"/><path style="opacity:1" fill="#a7a7a7" d="M979.5 151.5c-.667-44-1.333-44-2 0-.995-11.154-1.328-22.488-1-34h4c.328 11.512-.005 22.846-1 34z"/><path style="opacity:1" fill="#343534" d="M979.5 151.5h-2c.667-44 1.333-44 2 0zm-42-16c7.363-.331 14.697.003 22 1l-11 1c-4.065-.011-7.732-.678-11-2zm-539 2c1.329 5.124 1.995 10.624 2 16.5l-1 16.5a273.104 273.104 0 0 1-1-33z"/><path style="opacity:1" fill="#424242" d="M448.5 136.5c3.835 4.839 6.502 10.339 8 16.5-1.583 5.993-4.083 11.493-7.5 16.5l-1.5-.5a146.744 146.744 0 0 0 6-15.5 166.472 166.472 0 0 1-5-17z"/><path style="opacity:1" fill="#484848" d="M841.5 138.5c1.644-.214 3.144.12 4.5 1a43.073 43.073 0 0 1 2 9c2.826-2.77 3.659-5.937 2.5-9.5a8.43 8.43 0 0 1 4-.5c-1.791 6.969-5.458 12.802-11 17.5a8.43 8.43 0 0 1-4 .5 4.934 4.934 0 0 1 .5-3c3.526 1.332 5.359-.001 5.5-4a169.595 169.595 0 0 0-1.5-8c-1.425-.712-2.925-.879-4.5-.5.881-.708 1.547-1.542 2-2.5z"/><path style="opacity:1" fill="#464646" d="M899.5 140.5c2.04-2.634 4.207-2.634 6.5 0 .108 8.388-4.059 12.054-12.5 11a80.336 80.336 0 0 1 3-15c-1.246-2.99-.246-3.657 3-2-1.254 2.143-1.254 4.143 0 6z"/><path style="opacity:1" fill="#4d4d4d" d="M411.5 139.5c5.513-1.316 11.18-1.316 17 0-.95 5.259-2.284 5.759-4 1.5-7.675-2.158-10.675.675-9 8.5 2.544.396 4.711-.271 6.5-2 .82 2.228.487 4.228-1 6-1.789-1.729-3.956-2.396-6.5-2a28.789 28.789 0 0 0-2 10 32.462 32.462 0 0 0 8-.5 32.367 32.367 0 0 1 3-4.5c.883 2.238.55 4.405-1 6.5a64.218 64.218 0 0 1-16 0c2.481-2.993 3.981-6.493 4.5-10.5a282.042 282.042 0 0 0 1.5-9.5c-.014-1.385-.348-2.551-1-3.5z"/><path style="opacity:1" fill="#f2f2f2" d="M899.5 140.5h4c.88 4.522-.62 7.855-4.5 10-1.732-.234-2.566-1.234-2.5-3a32.8 32.8 0 0 1 3-7z"/><path style="opacity:1" fill="#343534" d="M1078.5 152.5c1.33 5.124 2 10.624 2 16.5-.33 5.5-.67 11-1 16.5-1-10.98-1.33-21.98-1-33z"/><path style="opacity:1" fill="#444" d="M1115.5 151.5c1-.086 1.83.248 2.5 1a311.219 311.219 0 0 1 6.5 15.5 81.208 81.208 0 0 1-7.5 17.5l-1.5-1.5c2-5.317 4-10.65 6-16a473.526 473.526 0 0 1-6-16.5z"/><path style="opacity:1" fill="#484848" d="M1036.5 154.5c4.57-1.335 9.24-1.168 14 .5 2.88 5.671 1.21 9.671-5 12a76.483 76.483 0 0 0 6 11c-1.67.667-3.33.667-5 0a87.033 87.033 0 0 0-3-9.5c-1.55-.952-3.21-1.285-5-1-.33 1.988-.66 3.988-1 6-.11 1.874.56 3.374 2 4.5-2.67.667-5.33.667-8 0 .83-.833 1.67-1.667 2.5-2.5 1.23-5.988 2.4-11.988 3.5-18-.02-1.226-.35-2.226-1-3z"/><path style="opacity:1" fill="#f7f7f7" d="M1041.5 155.5c6.17-1.327 8.34 1.006 6.5 7-2.15 2.624-4.99 3.624-8.5 3a82.757 82.757 0 0 1 2-10z"/><path style="opacity:1" fill="#363636" d="M1098.5 156.5c1.9 2.837 2.57 6.171 2 10 13.33.667 13.33 1.333 0 2-.67 14.667-1.33 14.667-2 0-13.33-.667-13.33-1.333 0-2v-10z"/><path style="opacity:1" fill="#474747" d="M434.5 160.5c1.511-1.941 3.511-2.441 6-1.5 1.86 4.969.527 8.969-4 12-2.495.157-4.828.324-7 .5-.404-5.019.262-10.019 2-15-1.388-2.665-.388-3.665 3-3-.917 2.505-.917 4.838 0 7z"/><path style="opacity:1" fill="#ececec" d="M434.5 160.5c2.859-1.501 4.192-.501 4 3-.006 3.357-1.506 5.69-4.5 7-1.732-.234-2.566-1.234-2.5-3 .43-2.638 1.43-4.971 3-7z"/><path style="opacity:1" fill="#fefefe" d="M307.5 381.5a5.727 5.727 0 0 1-1 3 5279.743 5279.743 0 0 1-205-2 43.718 43.718 0 0 0-5.5 3c2.297-82.466 38.464-144.966 108.5-187.5 32.37-18.005 67.037-27.005 104-27a660.832 660.832 0 0 0-3 5 5319.006 5319.006 0 0 1 2 205.5z"/><path style="opacity:1" fill="#484848" d="M1056.5 173.5c1.64-.214 3.14.12 4.5 1a29.957 29.957 0 0 1 2 9c2.58-2.836 3.75-6.169 3.5-10h3c-1.91 6.315-5.24 11.815-10 16.5a8.78 8.78 0 0 1-5 1.5c-.41-2.776.42-3.443 2.5-2 2.88-.924 4.05-2.924 3.5-6a19.879 19.879 0 0 0-2.5-9c-3.53 2.661-4.03 2.327-1.5-1z"/><path style="opacity:1" fill="#ff1e15" d="M314.5 376.5c-5.161 6.681-3.494 10.347 5 11a1236.66 1236.66 0 0 0 58.5 25c8.132-3.568 12.299-9.902 12.5-19a36.945 36.945 0 0 0-1-6c1.333-1.333 2.667-1.333 4 0 2.491 11.366-.842 20.533-10 27.5a4688 4688 0 0 0 112 46.5c-.219-1.175.114-2.175 1-3a108.03 108.03 0 0 1 8 9.5c-4.028.392-8.028.892-12 1.5-.17-1.322.163-2.489 1-3.5-61.026-25.848-122.026-51.682-183-77.5l-4-4a5.727 5.727 0 0 0 1-3c1.767-2.292 2.767-4.958 3-8a49050.161 49050.161 0 0 0 70.5-173c.825-2.201.325-4.034-1.5-5.5a45.255 45.255 0 0 1 8.5-7.5c1.606 3.95 1.773 7.95.5 12l-2-1a10239.225 10239.225 0 0 0-72 178z"/><path style="opacity:1" fill="#fefdfd" d="M387.5 185.5c27.374 11.015 51.374 27.015 72 48-4.149.278-7.816 1.611-11 4a7.248 7.248 0 0 0 2 2.5 4312.502 4312.502 0 0 0-95 96.5l-41 40a10239.225 10239.225 0 0 1 72-178l2 1c1.273-4.05 1.106-8.05-.5-12a45.255 45.255 0 0 0-8.5 7.5c1.825 1.466 2.325 3.299 1.5 5.5a49050.161 49050.161 0 0 1-70.5 173c-.658-65.813.008-131.48 2-197a43.725 43.725 0 0 0-3-5.5c26.908-.087 52.908 4.746 78 14.5z"/><path style="opacity:1" fill="#424242" d="M526.5 200.5c.996-.086 1.829.248 2.5 1a63.116 63.116 0 0 1 6.5 15.5c-1.627 6.07-4.293 11.57-8 16.5.873-5.474 2.539-10.974 5-16.5a356.712 356.712 0 0 0-6-16.5z"/><path style="opacity:1" fill="#353535" d="M509.5 204.5c1.914 3.184 2.58 6.851 2 11 13.333.667 13.333 1.333 0 2-.667 13.333-1.333 13.333-2 0-13.333-.667-13.333-1.333 0-2v-11z"/><path style="opacity:1" fill="#a1a1a1" d="M491.5 234.5c-.667-44-1.333-44-2 0-.995-11.154-1.328-22.488-1-34h4c.328 11.512-.005 22.846-1 34z"/><path style="opacity:1" fill="#343534" d="M491.5 234.5h-2c.667-44 1.333-44 2 0z"/><path style="opacity:1" fill="#fefefe" d="M459.5 233.5c41.777 41.663 62.443 91.996 62 151a54.713 54.713 0 0 0-9-4c-.886.825-1.219 1.825-1 3-66.001.167-132.001 0-198-.5a3025.687 3025.687 0 0 0 46-46.5 4012.133 4012.133 0 0 0 92-92.5c1.867-.711 3.367-.211 4.5 1.5a82.093 82.093 0 0 0 3.5-12z"/><path style="opacity:1" fill="#152c5a" d="M459.5 233.5a82.093 82.093 0 0 1-3.5 12c-1.133-1.711-2.633-2.211-4.5-1.5a4012.133 4012.133 0 0 1-92 92.5h-4a4312.502 4312.502 0 0 1 95-96.5 7.248 7.248 0 0 1-2-2.5c3.184-2.389 6.851-3.722 11-4z"/><path style="opacity:1" fill="#404040" d="M1184.5 260.5h3v34h-3v-34z"/><path style="opacity:1" fill="#464646" d="M1214.5 259.5c.88-.131 1.54.202 2 1 2.34 5.338 4.67 10.672 7 16a197.782 197.782 0 0 1-8 17c-.33-.667-.67-1.333-1-2 1.87-4.943 3.54-9.943 5-15a248.864 248.864 0 0 0-5-17z"/><path style="opacity:1" fill="#444" d="M1143.5 261.5c3.68-.165 7.35.001 11 .5 3.71 1.691 4.88 4.525 3.5 8.5-1.28 2.231-3.11 3.898-5.5 5 1.44 3.61 3.11 7.11 5 10.5-1.63.494-3.3.66-5 .5a33.486 33.486 0 0 0-2.5-10c-2.02-1.491-3.69-1.158-5 1-.78 2.929-.61 5.763.5 8.5-2.33.667-4.67.667-7 0a76.446 76.446 0 0 0 5.5-17.5c.56-2.385.39-4.718-.5-7z"/><path style="opacity:1" fill="#f4f4f4" d="M1147.5 263.5c8.27-.32 9.94 2.846 5 9.5a18.44 18.44 0 0 1-6 .5c.12-3.36.45-6.693 1-10z"/><path style="opacity:1" fill="#474747" d="M1199.5 261.5c4.92-.457 8.42 1.543 10.5 6 .67 4 .67 8 0 12-1.51 6.172-5.34 8.339-11.5 6.5-5.67-8.471-5.33-16.638 1-24.5z"/><path style="opacity:1" fill="#f9f9f9" d="M1200.5 263.5c2.74-.535 4.57.465 5.5 3 .67 5 .67 10 0 15-2.2 5.169-4.53 5.169-7 0a63.933 63.933 0 0 1 0-16c.72-.544 1.22-1.211 1.5-2z"/><path style="opacity:1" fill="#1a7cd7" d="M390.5 184.5c-.709.904-1.709 1.237-3 1-25.092-9.754-51.092-14.587-78-14.5a43.725 43.725 0 0 1 3 5.5 4877.408 4877.408 0 0 0-2 197c-.233 3.042-1.233 5.708-3 8a5319.006 5319.006 0 0 0-2-205.5 660.832 660.832 0 0 1 3-5c-36.963-.005-71.63 8.995-104 27C134.464 240.534 98.297 303.034 96 385.5a43.718 43.718 0 0 1 5.5-3 5279.743 5279.743 0 0 0 205 2l4 4v204c1.175-.219 2.175.114 3 1a12.805 12.805 0 0 0-3 6h-2a525.082 525.082 0 0 1-4-6c.825-.886 1.825-1.219 3-1v-205h-204c.219 1.175-.114 2.175-1 3l-6-3a148.72 148.72 0 0 0 1.5 32c4.679 25.205 12.846 49.205 24.5 72l-1 2c-33.203-59.947-38.036-122.281-14.5-187 35.262-81.577 97.096-127.744 185.5-138.5 26.079-1.376 51.746 1.29 77 8a158.63 158.63 0 0 1 21 8.5z"/><path style="opacity:1" fill="#484848" d="M1163.5 282.5c1.21-1.282 2.54-1.282 4 0 .99 2.95 1.82 5.95 2.5 9 1.3-2.44 2.47-4.94 3.5-7.5a3.92 3.92 0 0 0-1-2c1.44-.781 2.78-.614 4 .5-2.68 6.551-6.68 12.051-12 16.5a8.43 8.43 0 0 1-4 .5c-.22-1.175.11-2.175 1-3 3.21 1.225 5.21.058 6-3.5a59.53 59.53 0 0 1-1.5-7.5c-.38-1.442-1.21-2.442-2.5-3z"/><path style="opacity:1" fill="#2480d8" d="M910.5 167.5c90.2-2.331 158.7 34.669 205.5 111 32.91 62.773 36.24 127.106 10 193-34.15 73.467-91.32 116.633-171.5 129.5-91.371 7.69-162.205-26.477-212.5-102.5-32.564-56.17-39.897-115.503-22-178 25.029-72.362 73.862-120.529 146.5-144.5 14.578-4.037 29.245-6.871 44-8.5z"/><path style="opacity:1" fill="#fdfdfe" d="M1140.5 383.5a30.483 30.483 0 0 1-10.5-5 8.394 8.394 0 0 0-.5 4h-117c2.2-8.566 1.04-16.566-3.5-24-1.45-1.964-3.28-3.297-5.5-4a4040.36 4040.36 0 0 1 110-47c-.23 1.855.44 2.688 2 2.5 2.33-3 4.67-6 7-9a72.403 72.403 0 0 0-12-.5v4a10320.892 10320.892 0 0 0-177 75.5c-1.135.749-2.135.583-3-.5l74-183c.89-1.09 1.89-1.09 3 0 .95-1.545 1.29-3.212 1-5v-4c53.5 22.665 92 60.665 115.5 114 10.56 26.291 16.06 53.624 16.5 82z"/><path style="opacity:1" fill="#fefefe" d="M927.5 170.5c25.48.101 50.147 4.601 74 13.5 1.44.377 2.44 1.21 3 2.5a25.733 25.733 0 0 0-6 6c2.19 2.059 2.35 4.392.5 7a20791.794 20791.794 0 0 1-70.5 174v-193a8.43 8.43 0 0 0 4-.5 129.747 129.747 0 0 1-5-9.5zm-2 0a129.747 129.747 0 0 1-5 9.5 8.43 8.43 0 0 0 4 .5v203h-203c.219-1.175-.114-2.175-1-3a64.501 64.501 0 0 1-6.5 4c2.564-81.991 38.731-144.158 108.5-186.5 32.059-17.711 66.393-26.878 103-27.5z"/><path style="opacity:1" fill="#fe0502" d="M927.5 170.5a129.747 129.747 0 0 0 5 9.5 8.43 8.43 0 0 1-4 .5v202h9c23.336.167 46.669 0 70-.5 3.78-9.525 2.12-18.025-5-25.5.36-.683.7-1.35 1-2 2.22.703 4.05 2.036 5.5 4 4.54 7.434 5.7 15.434 3.5 24h117a8.394 8.394 0 0 1 .5-4 30.483 30.483 0 0 0 10.5 5c-.28 1.278-.95 2.278-2 3-3.01.92-5.84 2.254-8.5 4a8.394 8.394 0 0 1-.5-4h-201a8.941 8.941 0 0 1-4-3v-203a8.43 8.43 0 0 1-4-.5 129.747 129.747 0 0 0 5-9.5c.667-1.333 1.333-1.333 2 0z"/><path style="opacity:1" fill="#fbfbfb" d="M1003.5 354.5c-.3.65-.64 1.317-1 2 7.12 7.475 8.78 15.975 5 25.5-23.331.5-46.664.667-70 .5a1453.823 1453.823 0 0 1 66-28z"/><path style="opacity:1" fill="#ff2f23" d="M1040.5 354.5c3.28-.231 5.78 1.103 7.5 4 .72-2.734 2.22-3.4 4.5-2a39.713 39.713 0 0 0-4.5 6c-.82 2.727-.65 5.394.5 8 3.35-1.33 3.68-.83 1 1.5-3.87 1.137-5.7-.363-5.5-4.5-2.36 4.866-5.69 5.866-10 3-1.78-7.02.39-12.353 6.5-16z"/><path style="opacity:1" fill="#fff5f5" d="M1040.5 356.5h4c1.34 6.096-.49 10.763-5.5 14-1.99-.729-2.83-2.229-2.5-4.5.08-3.762 1.42-6.929 4-9.5z"/><path style="opacity:1" fill="#0e2755" d="M1008.5 191.5c.29 1.788-.05 3.455-1 5-1.11-1.09-2.11-1.09-3 0l-74 183c.865 1.083 1.865 1.249 3 .5a10320.892 10320.892 0 0 1 177-75.5v-4c4.01-.166 8.01.001 12 .5-2.33 3-4.67 6-7 9-1.56.188-2.23-.645-2-2.5a4040.36 4040.36 0 0 0-110 47 1453.823 1453.823 0 0 0-66 28h-9v-9a20791.794 20791.794 0 0 0 70.5-174c1.85-2.608 1.69-4.941-.5-7a25.733 25.733 0 0 1 6-6c.65-.591 1.32-1.257 2-2a237.14 237.14 0 0 0 2 7z"/><path style="opacity:1" fill="#414141" d="M537.5 371.5h3v34h-3v-34z"/><path style="opacity:1" fill="#434343" d="M567.5 370.5c.996-.086 1.829.248 2.5 1l6.5 15.5c-2.035 5.902-4.702 11.402-8 16.5l-1-1.5a99.004 99.004 0 0 0 5-15 467.744 467.744 0 0 0-5-16.5z"/><path style="opacity:1" fill="#474747" d="M552.5 372.5c5.507-1.395 9.007.605 10.5 6a35.063 35.063 0 0 1-1 15c-3.07 4.207-6.903 5.04-11.5 2.5-4.574-8.415-3.907-16.249 2-23.5z"/><path style="opacity:1" fill="#fbfbfb" d="M553.5 374.5c2.222-.322 4.056.345 5.5 2a64.218 64.218 0 0 1 0 16c-1.224 2.973-3.224 3.64-6 2-2.146-6.853-1.979-13.519.5-20z"/><path style="opacity:1" fill="#05204e" d="M355.5 336.5h4a3025.687 3025.687 0 0 1-46 46.5c65.999.5 131.999.667 198 .5-.219-1.175.114-2.175 1-3a54.713 54.713 0 0 1 9 4l1 2a151.567 151.567 0 0 1-10.5 5 8.43 8.43 0 0 1-.5-4h-118c-1.333-1.333-2.667-1.333-4 0h-70c-8.494-.653-10.161-4.319-5-11l41-40z"/><path style="opacity:1" fill="#fefefe" d="M713.5 386.5a32.128 32.128 0 0 1 7 3c.886-.825 1.219-1.825 1-3h204v206c-1.175-.219-2.175.114-3 1a18.924 18.924 0 0 1 3 5c-77.993-2.074-138.159-35.74-180.5-101-19.985-34.269-30.485-71.269-31.5-111zm215 0h201a8.394 8.394 0 0 0 .5 4 32.984 32.984 0 0 1 8.5-4c1.68 28.868-3.48 56.868-15.5 84-37.36 78.462-99.53 121.462-186.5 129l-8-1a18.924 18.924 0 0 1 3-5c-.825-.886-1.825-1.219-3-1v-206zm-620 213c-70.573-.703-127.406-29.037-170.5-85a7312.823 7312.823 0 0 0-15.5-23c-11.654-22.795-19.821-46.795-24.5-72a148.72 148.72 0 0 1-1.5-32l6 3c.886-.825 1.219-1.825 1-3h204v205c-1.175-.219-2.175.114-3 1a525.082 525.082 0 0 0 4 6z"/><path style="opacity:1" fill="#fffcfb" d="M319.5 387.5h70a36.945 36.945 0 0 1 1 6c-.201 9.098-4.368 15.432-12.5 19a1236.66 1236.66 0 0 1-58.5-25z"/><path style="opacity:1" fill="#fefefe" d="M522.5 386.5c-2.231 73.301-32.564 131.801-91 175.5-36.59 25.145-76.923 37.645-121 37.5a12.805 12.805 0 0 1 3-6c-.825-.886-1.825-1.219-3-1v-204c60.974 25.818 121.974 51.652 183 77.5-.837 1.011-1.17 2.178-1 3.5a220.352 220.352 0 0 1 12-1.5 108.03 108.03 0 0 0-8-9.5c-.886.825-1.219 1.825-1 3a4688 4688 0 0 1-112-46.5c9.158-6.967 12.491-16.134 10-27.5h118a8.43 8.43 0 0 0 .5 4 151.567 151.567 0 0 0 10.5-5z"/><path style="opacity:1" fill="#ff392c" d="M412.5 396.5c3.255-.486 5.922.514 8 3 1.015-2.668 2.682-3.334 5-2-2.803 2.967-4.47 6.467-5 10.5l1 3.5c2.436-1.391 3.102-.891 2 1.5-4.155 2.612-6.322 1.445-6.5-3.5-2.002 3.387-4.835 4.887-8.5 4.5-3.587-7.024-2.254-12.857 4-17.5z"/><path style="opacity:1" fill="#fff6f5" d="M414.5 397.5c.996-.086 1.829.248 2.5 1 1.369 4.937.203 9.104-3.5 12.5a8.43 8.43 0 0 1-4 .5c-1.054-5.801.613-10.468 5-14z"/><path style="opacity:1" fill="#3f3f3f" d="M1073.5 403.5h3v33h-3v-33z"/><path style="opacity:1" fill="#454545" d="M1124.5 402.5c.88-.131 1.54.202 2 1a464.175 464.175 0 0 0 7 15.5c-2.04 5.902-4.7 11.402-8 16.5-.33-.5-.67-1-1-1.5 1.67-5.002 3.33-10.002 5-15a482.603 482.603 0 0 0-5-16.5z"/><path style="opacity:1" fill="#3f3f3f" d="M1187.5 403.5h3v33h-3v-33z"/><path style="opacity:1" fill="#454545" d="M1217.5 402.5c.88-.131 1.54.202 2 1a464.175 464.175 0 0 0 7 15.5c-2.04 5.902-4.7 11.402-8 16.5-.33-.5-.67-1-1-1.5 1.67-5.012 3.34-10.012 5-15a476.549 476.549 0 0 0-5-16.5z"/><path style="opacity:1" fill="#494949" d="M1031.5 405.5c4.15-1.147 8.48-1.314 13-.5 4.54 5.584 3.54 10.084-3 13.5 1.44 3.61 3.11 7.11 5 10.5-1.76.798-3.43.631-5-.5-.99-2.95-1.82-5.95-2.5-9-1.67-1.333-3.33-1.333-5 0-.78 3.26-.62 6.427.5 9.5-2.33.667-4.67.667-7 0 1.39-1.171 2.23-2.671 2.5-4.5.93-5.552 2.1-11.052 3.5-16.5-.14-1.301-.81-2.134-2-2.5z"/><path style="opacity:1" fill="#4b4b4b" d="M1086.5 405.5c5.48-.989 11.14-1.322 17-1-.07 2.196-.73 4.196-2 6a26.698 26.698 0 0 1-2-3.5 32.465 32.465 0 0 0-8-.5c-.46 2.982-.8 5.982-1 9 2.93.046 5.6-.454 8-1.5a97.841 97.841 0 0 1-2 5.5c-2.02-1.673-4.36-2.34-7-2a82.757 82.757 0 0 1-2 10c4.66.986 8.32-.348 11-4 .42 1.826.42 3.826 0 6-5.34.166-10.68-.001-16-.5 1.39-1.171 2.23-2.671 2.5-4.5.93-5.552 2.1-11.052 3.5-16.5-.14-1.301-.81-2.134-2-2.5z"/><path style="opacity:1" fill="#454545" d="M1202.5 404.5c5.06-.783 8.56 1.217 10.5 6 1.75 7.064.25 13.231-4.5 18.5-5.09 1.251-8.59-.582-10.5-5.5-1.72-7.255-.22-13.589 4.5-19z"/><path style="opacity:1" fill="#f5f5f5" d="M1036.5 406.5c8.27-.32 9.94 2.846 5 9.5a18.44 18.44 0 0 1-6 .5c.12-3.36.45-6.693 1-10z"/><path style="opacity:1" fill="#fafafa" d="M1203.5 406.5c2.74-.535 4.57.465 5.5 3 .67 5.333.67 10.667 0 16-2.84 2.871-5.17 2.537-7-1a63.933 63.933 0 0 1 0-16c.72-.544 1.22-1.211 1.5-2z"/><path style="opacity:1" fill="#5c5c5c" d="M1147.5 413.5h23v3h-23v-3z"/><path style="opacity:1" fill="#3a3a3a" d="M1147.5 421.5c7.7-.331 15.36.003 23 1l-11.5 1c-4.23-.01-8.06-.677-11.5-2z"/><path style="opacity:1" fill="#525252" d="M1061.5 423.5h4c-1.86 9.456-7.19 15.789-16 19-.22-1.175.11-2.175 1-3 3.18.861 5.18-.472 6-4-.36-3.664-1.53-6.997-3.5-10-1.61 2.405-2.28 2.405-2 0 1.73-1.076 3.56-1.243 5.5-.5.83 2.802 1.66 5.635 2.5 8.5 2.97-2.896 3.8-6.23 2.5-10z"/><path style="opacity:1" fill="#464646" d="M1110.5 435.5c-1.43 2.147-3.27 2.48-5.5 1-1.97-9.857 1.86-13.857 11.5-12a38.8 38.8 0 0 1-2 9.5c.33.5.67 1 1 1.5.95-.826 1.95-.992 3-.5-2.54 3.479-4.7 3.312-6.5-.5-.38.556-.88.889-1.5 1z"/><path style="opacity:1" fill="#f2f2f2" d="M1110.5 435.5h-4c-1.04-5.968 1.29-9.301 7-10 .13 3.721-.87 7.054-3 10z"/><path style="opacity:1" fill="#414141" d="M578.5 461.5c.876-.131 1.543.202 2 1a103.718 103.718 0 0 1 6 15 85.422 85.422 0 0 1-7 16l-1-2c1.764-4.79 3.43-9.624 5-14.5a276.635 276.635 0 0 1-5-15.5z"/><path style="opacity:1" fill="#343534" d="M527.5 462.5c1.328 4.956 1.995 10.289 2 16-.005 5.711-.672 11.044-2 16v-32z"/><path style="opacity:1" fill="#7a7a7a" d="M527.5 462.5c.709-.904 1.709-1.237 3-1v34c-1.291.237-2.291-.096-3-1 1.328-4.956 1.995-10.289 2-16-.005-5.711-.672-11.044-2-16z"/><path style="opacity:1" fill="#4c4c4c" d="M540.5 462.5a73.133 73.133 0 0 1 17 1 29.825 29.825 0 0 1-2 5 26.585 26.585 0 0 1-2-3.5 32.462 32.462 0 0 0-8-.5 41.73 41.73 0 0 0-1 9c2.544.396 4.711-.271 6.5-2 .484 2.413.15 4.746-1 7-1.581-3.053-3.914-3.72-7-2a30.465 30.465 0 0 0-1.5 9 32.462 32.462 0 0 0 8-.5c.655-1.487 1.655-2.653 3-3.5.246 1.72.246 3.72 0 6a128.507 128.507 0 0 1-16-.5c3.573-7.858 4.906-16.025 4-24.5z"/><path style="opacity:1" fill="#474747" d="M561.5 482.5a40.914 40.914 0 0 1 9 .5 141.693 141.693 0 0 0-2 9c.884 1.098 1.884 1.598 3 1.5-1.168 1.717-2.835 2.384-5 2a4.934 4.934 0 0 0-.5-3c-2.429 3.36-5.095 3.693-8 1-.568-4.202.599-7.869 3.5-11z"/><path style="opacity:1" fill="#f4f4f4" d="M563.5 483.5c2.135-.353 3.468.48 4 2.5-.502 4.332-2.835 6.832-7 7.5-.643-3.933.357-7.266 3-10z"/><path style="opacity:1" fill="#2581d9" d="M390.5 184.5c58.919 24.755 99.752 67.088 122.5 127 23.42 72.469 13.754 140.135-29 203-56.492 71.622-129.992 99.788-220.5 84.5-62.654-14.856-109.988-50.023-142-105.5l1-2a7312.823 7312.823 0 0 1 15.5 23c43.094 55.963 99.927 84.297 170.5 85h2c44.077.145 84.41-12.355 121-37.5 58.436-43.699 88.769-102.199 91-175.5l-1-2c.443-59.004-20.223-109.337-62-151-20.626-20.985-44.626-36.985-72-48 1.291.237 2.291-.096 3-1z"/></svg>