<svg viewBox="-5 -3 24 24" xmlns="http://www.w3.org/2000/svg">
    <g>
        <path d="M14.6 18c-.1 0-.1 0 0 0L11 15.9l-1.8 1-7.3-4.2V4.2L9.1 0l7.3 4.2v8.6l-1.7 1 1.7 1v2.3l-1.8.9z" fill="#8bc0e8"></path>
        <path
            d="M16.5 12.7V4.2L9.1 0H9L1.8 4.2v8.6L9.1 17l1.8-1 1.8 1 1.8 1 1.8-1v-2.3l-1.7-1 1.9-1c-.1 0 0 0 0 0zm-3.7 1.9v-1.8l1.6.9-1.6.9zM9 8.3l-1.5-.9L9 6.5v1.8zm.2-1.8 1.6.9-1.6.9V6.5zm-.3 2-1.5.9V7.6l1.5.9zm.1.1v1.8l-1.5-.9L9 8.6zm.2 0 1.6.9-1.6.9V8.6zm.1-.1 1.6-.9v1.8l-1.6-.9zm0-2.1 1.6-.9v1.8l-1.6-.9zm-1.9.9V5.5l1.6.9-1.6.9zm-.2 2.1-1.6-.9 1.6-.9v1.8zm1.7 1.2-1.6.9V9.7l1.6.9zm1.9-.9v1.8l-1.6-.9 1.6-.9zm.2-2.1 1.6.9-1.6.9V7.6zm.1-.2 1.6-.9v1.8l-1.6-.9zm-.1-.1V5.5l1.6.9-1.6.9zM9.2 6.2V4.4l1.6.9-1.6.9zm-.2 0-1.5-.9L9 4.4v1.8zM7.2 7.3l-1.6-.9 1.6-.9v1.8zm-.1.1-1.5.9V6.5l1.5.9zm0 2.1-1.6.9V8.6l1.6.9zm.1.2v1.8l-1.6-.9 1.6-.9zm1.8 1v1.8l-1.6-.9 1.6-.9zm.2 0 1.6.9-1.6.9v-1.8zm1.8-1 1.6.9-1.6.9V9.7zm.1-.2 1.6-.9v1.8l-1.6-.9zm1.7-3 1.6.9-1.6.9V6.5zm-1.7-1.2 1.6-.9v1.8l-1.6-.9zm-1.8-1 1.6-.9v1.8l-1.6-.9zm-1.9.9V3.4l1.6.9-1.6.9zm-1.8 1V4.4l1.6.9-1.6.9zm-.2 2.1-1.6-.9 1.6-.9v1.8zm0 2.1-1.6-.9 1.6-.9v1.8zm1.7 1.2-1.6.9v-1.8l1.6.9zm1.8 1.1-1.6.9v-1.8l1.6.9zm1.9-.9v1.8l-1.6-.9 1.6-.9zm1.9-1.1v1.8l-1.6-.9 1.6-.9zm.1-2.1 1.6.9-1.6.9V8.6zm.1-.1 1.6-.9v1.8l-1.6-.9zm0-2.1 1.6-.9v1.8l-1.6-.9zm-.1-.2V4.4l1.6.9-1.6.9zm-1.8-1V3.4l1.6.9-1.6.9zM9.2 4.1V2.3l1.6.9-1.6.9zm-.2 0-1.5-.9L9 2.3v1.8zM7.2 5.2l-1.6-.9 1.6-.9v1.8zm-1.8 1-1.6-.9 1.6-.9v1.8zm-.1.2-1.6.9V5.5l1.6.9zm0 2.1-1.6.9V7.6l1.6.9zm0 2.1-1.6.9V9.7l1.6.9zm.1.1v1.8l-1.6-.9 1.6-.9zm1.8 1.1v1.8l-1.6-.9 1.6-.9zm1.8 1v1.8l-1.6-.9 1.6-.9zm.2 0 1.6.9-1.6.9v-1.8zm1.8-1 1.6.9-1.6.9v-1.8zm1.8-1.1 1.6.9-1.6.9v-1.8zm.1-.1 1.6-.9v1.8l-1.6-.9zm1.7-3 1.6.9-1.6.9V7.6zm0-2.1 1.6.9-1.6.9V5.5zm-1.7-1.2 1.6-.9v1.8l-1.6-.9zm-1.8-1.1 1.6-.9v1.8l-1.6-.9zm-1.8-1 1.6-.9v1.8l-1.6-.9zm-1.9.9V1.3l1.6.9-1.6.9zm-1.8 1V2.3l1.6.9-1.6.9zM3.7 5.2V3.4l1.6.9-1.6.9zm-.1 2.1L2 6.4l1.6-.9v1.8zm0 2.1L2 8.5l1.6-.9v1.8zm0 2.1L2 10.6l1.6-.9v1.8zm1.7 1.2-1.6.9v-1.8l1.6.9zm1.8 1-1.6.9v-1.8l1.6.9zm1.8 1.1-1.6.9v-1.8l1.6.9zm1.9-.9v1.8l-1.6-.9 1.6-.9zm1.9-1.1v1.8l-1.6-.9 1.6-.9zm1.8 1.1v1.8l-1.6-.9 1.6-.9zm-1.6-1.2 1.6-.9v1.8l-1.6-.9zm1.7-3 1.6.9-1.6.9V9.7zm.1-.2 1.6-.9v1.8l-1.6-.9zm0-2.1 1.6-.9v1.8l-1.6-.9zm0-2.1 1.6-.9v1.8l-1.6-.9zm-.1-.1V3.4l1.6.9-1.6.9zm-1.8-1.1V2.3l1.6.9-1.6.9zm-1.8-1V1.3l1.6.9-1.6.9zM9.2 2V.2l1.6.9-1.6.9zM9 2l-1.5-.9L9 .2V2zM7.2 3.1l-1.6-.9 1.6-.9v1.8zm-1.8 1-1.6-.9 1.6-.9v1.8zM3.6 5.2 2 4.3l1.6-.9v1.8zm-.1.1-1.6.9V4.4l1.6.9zm0 2.1-1.6.9V6.5l1.6.9zm0 2.1-1.6.9V8.6l1.6.9zm0 2.1-1.6.9v-1.8l1.6.9zm.1.2v1.8L2 12.7l1.6-.9zm1.8 1v1.8l-1.6-.9 1.6-.9zm1.8 1.1v1.8l-1.6-.9 1.6-.9zm1.8 1v1.8l-1.6-.9 1.6-.9zm.2 0 1.6.9-1.6.9v-1.8zm1.8-1 1.6.9-1.6.9v-1.8zm3.4 1.9-1.6.9v-1.8l1.6.9zm.1.2v1.8l-1.6-.9 1.6-.9zm.1 0 1.6.9-1.6.9V16zm.1-.2 1.6-.9v1.8l-1.6-.9zm-.1-.1v-1.8l1.6.9-1.6.9zm0-3.9 1.6.9-1.6.9v-1.8zm.1-.2 1.6-.9v1.8l-1.6-.9zm-2 3.3v1.8l-1.6-.9 1.6-.9z">
        </path>
    </g>
</svg>
