<svg width="61" height="60" viewBox="0 0 61 60" fill="none" xmlns="http://www.w3.org/2000/svg">
<path d="M52.0728 4.5H8.60986C7.78144 4.5 7.10986 5.17157 7.10986 6V54.0428C7.10986 54.8712 7.78144 55.5428 8.60986 55.5428H52.0728C52.9012 55.5428 53.5728 54.8712 53.5728 54.0428V6C53.5728 5.17157 52.9012 4.5 52.0728 4.5Z" stroke="url(#paint0_linear_144_946)" stroke-width="3"/>
<path d="M7.44189 11.5767H54.1569" stroke="url(#paint5_linear_144_946)" stroke-width="3"/>
<path d="M10.6484 9.41176C11.4072 9.41176 12.0224 8.79661 12.0224 8.03779C12.0224 7.27897 11.4072 6.66382 10.6484 6.66382C9.88956 6.66382 9.27441 7.27897 9.27441 8.03779C9.27441 8.79661 9.88956 9.41176 10.6484 9.41176Z" fill="url(#paint2_linear_144_946)"/>
<path d="M15.228 9.41176C15.9868 9.41176 16.6019 8.79661 16.6019 8.03779C16.6019 7.27897 15.9868 6.66382 15.228 6.66382C14.4692 6.66382 13.854 7.27897 13.854 8.03779C13.854 8.79661 14.4692 9.41176 15.228 9.41176Z" fill="url(#paint3_linear_144_946)"/>
<path d="M19.8076 9.41176C20.5664 9.41176 21.1815 8.79661 21.1815 8.03779C21.1815 7.27897 20.5664 6.66382 19.8076 6.66382C19.0487 6.66382 18.4336 7.27897 18.4336 8.03779C18.4336 8.79661 19.0487 9.41176 19.8076 9.41176Z" fill="url(#paint4_linear_144_946)"/>
<path d="M21.6099 18L16.6099 21.1818L21.6099 25" stroke="url(#paint5_linear_144_946)" stroke-width="2" stroke-linecap="round"/>
<path d="M32.6099 25L36.6099 21.8182L32.6099 18" stroke="url(#paint6_linear_144_946)" stroke-width="2" stroke-linecap="round"/>
<path d="M25.1816 16.5952L28.3165 26" stroke="url(#paint7_linear_144_946)" stroke-width="2" stroke-linecap="round"/>
<path d="M15.6934 33.8157L20.8201 33.8552" stroke="url(#paint8_linear_144_946)" stroke-width="2" stroke-linecap="round"/>
<path d="M15.6177 39L20.7443 39.0395" stroke="url(#paint9_linear_144_946)" stroke-width="2" stroke-linecap="round"/>
<path d="M15.6177 44L20.7443 44.0395" stroke="url(#paint10_linear_144_946)" stroke-width="2" stroke-linecap="round"/>
<path d="M23.6099 33.8684L39.6232 34.0001" stroke="url(#paint11_linear_144_946)" stroke-width="2" stroke-linecap="round"/>
<path d="M23.6934 39L39.7067 39.1317" stroke="url(#paint12_linear_144_946)" stroke-width="2" stroke-linecap="round"/>
<path d="M23.6934 44L39.7067 44.1317" stroke="url(#paint13_linear_144_946)" stroke-width="2" stroke-linecap="round"/>
<defs>
<linearGradient id="paint0_linear_144_946" x1="30.3414" y1="3" x2="30.3414" y2="57.0428" gradientUnits="userSpaceOnUse">
<stop stop-color="#228BE3"/>
<stop offset="1" stop-color="#46CEA4"/>
</linearGradient>
<linearGradient id="paint2_linear_144_946" x1="10.6484" y1="6.66382" x2="10.6484" y2="9.41176" gradientUnits="userSpaceOnUse">
<stop stop-color="#2390DF"/>
<stop offset="1" stop-color="#49CFA2"/>
</linearGradient>
<linearGradient id="paint3_linear_144_946" x1="15.228" y1="6.66382" x2="15.228" y2="9.41176" gradientUnits="userSpaceOnUse">
<stop stop-color="#2390DF"/>
<stop offset="1" stop-color="#49CFA2"/>
</linearGradient>
<linearGradient id="paint4_linear_144_946" x1="19.8076" y1="6.66382" x2="19.8076" y2="9.41176" gradientUnits="userSpaceOnUse">
<stop stop-color="#2390DF"/>
<stop offset="1" stop-color="#49CFA2"/>
</linearGradient>
<linearGradient id="paint5_linear_144_946" x1="19.1099" y1="18" x2="19.1099" y2="25" gradientUnits="userSpaceOnUse">
<stop stop-color="#228BE3"/>
<stop offset="1" stop-color="#44CDA6"/>
</linearGradient>
<linearGradient id="paint6_linear_144_946" x1="34.6099" y1="25" x2="34.6099" y2="18" gradientUnits="userSpaceOnUse">
<stop stop-color="#218AE4"/>
<stop offset="1" stop-color="#43CDA6"/>
</linearGradient>
<linearGradient id="paint7_linear_144_946" x1="26.749" y1="21.2976" x2="25.8004" y2="21.6138" gradientUnits="userSpaceOnUse">
<stop stop-color="#228DE1"/>
<stop offset="1" stop-color="#48CFA3"/>
</linearGradient>
<linearGradient id="paint8_linear_144_946" x1="18.2491" y1="34.8354" x2="18.2414" y2="35.8354" gradientUnits="userSpaceOnUse">
<stop stop-color="#238EE0"/>
<stop offset="1" stop-color="#46CEA4"/>
</linearGradient>
<linearGradient id="paint9_linear_144_946" x1="18.1733" y1="40.0197" x2="18.1656" y2="41.0198" gradientUnits="userSpaceOnUse">
<stop stop-color="#228AE3"/>
<stop offset="1" stop-color="#46CEA4"/>
</linearGradient>
<linearGradient id="paint10_linear_144_946" x1="18.1733" y1="45.0197" x2="18.1656" y2="46.0198" gradientUnits="userSpaceOnUse">
<stop stop-color="#228AE3"/>
<stop offset="1" stop-color="#46CEA4"/>
</linearGradient>
<linearGradient id="paint11_linear_144_946" x1="31.6093" y1="34.9342" x2="31.6011" y2="35.9342" gradientUnits="userSpaceOnUse">
<stop stop-color="#218AE4"/>
<stop offset="1" stop-color="#48CFA3"/>
</linearGradient>
<linearGradient id="paint12_linear_144_946" x1="31.6928" y1="40.0658" x2="31.6846" y2="41.0658" gradientUnits="userSpaceOnUse">
<stop stop-color="#218AE4"/>
<stop offset="1" stop-color="#48CFA3"/>
</linearGradient>
<linearGradient id="paint13_linear_144_946" x1="31.6928" y1="45.0658" x2="31.6846" y2="46.0658" gradientUnits="userSpaceOnUse">
<stop stop-color="#218AE4"/>
<stop offset="1" stop-color="#48CFA3"/>
</linearGradient>
</defs>
</svg>
