<svg width="800px" height="800px" viewBox="0 0 48 48" fill="#c5c5c5" xmlns="http://www.w3.org/2000/svg">
        <path d="M25.4,5.5a1.9,1.9,0,0,0-2.8.2,2,2,0,1,0,2.8-.2Z"/>
        <path d="M31.5,8.4a2.2,2.2,0,0,0,.2,3.1,2.3,2.3,0,1,0,3-3.4A2.2,2.2,0,0,0,31.5,8.4Z"/>
        <path d="M41.9,19.2a2.7,2.7,0,1,0-3.9.3A2.7,2.7,0,0,0,41.9,19.2Z"/>
        <path d="M42,27.6a3.5,3.5,0,1,0-4.5,5.3A3.5,3.5,0,0,0,42,27.6Z"/>
        <path d="M26.1,37.1a4.5,4.5,0,1,0,6.3-.5A4.4,4.4,0,0,0,26.1,37.1Z"/>
        <path d="M9.9,34.3a5.1,5.1,0,0,0,.5,7.1,5,5,0,1,0-.5-7.1Z"/>
        <circle cx="7.2" cy="22.1" r="5.5" transform="matrix(1, -0.08, 0.08, 1, -1.68, 0.62)"/>
</svg>
