<?xml version="1.0" encoding="UTF-8"?>
<svg width="447" height="370" overflow="hidden" version="1.1" xml:space="preserve" xmlns="http://www.w3.org/2000/svg">
<style>
/* Default values, or theme set explicitly to light */
:root, [data-theme="light"] {
    --kata-svg-stroke: #222;
    --kata-svg-fill: #fff;
    --kata-svg-path: #777;
    --kata-svg-accent: #06c;
}
/* User has set OS preference for dark. (An explict light theme will override) */
@media(prefers-color-scheme: dark) {
    :root {
        --kata-svg-stroke: #eee;
        --kata-svg-fill: #111;
        --kata-svg-path: #bbb;
        --kata-svg-accent: #08f;
    }
}
/* Explicit dark theme set (should match above dark preference values) */
[data-theme="dark"] {
    --kata-svg-stroke: #eee;
    --kata-svg-fill: #111;
    --kata-svg-path: #bbb;
    --kata-svg-accent: #08f;
}
/*** Kata specific styles ***/
.kata_svg_path {
    stroke: var(--kata-svg-path);
    stroke-width: 2;
    stroke-linecap: round;
    fill: none;
}
.kata_svg_text {
    fill: var(--kata-svg-stroke);
}
.kata_svg_point {
    fill: var(--kata-svg-fill);
    stroke: var(--kata-svg-stroke);
}
.kata_svg_fill_accent {
    fill: var(--kata-svg-accent);
}
.kata_svg_stroke_accent {
    stroke: var(--kata-svg-accent);
}
</style>
    <g transform="matrix(.25 0 0 .25 -333 -132)">
        <g class="kata_svg_path">
            <!-- Main circle -->
            <circle cx="2020" cy="1310" r="670" />
            <!-- x axis -->
            <path d="M2685 1310 h-1335 m1335 0 l-32 -32 m32 32 l-32 32" />
            <!-- y axis -->
            <path d="m2020 645 v1323 m0 -1323 l-32 32 m32 -32 l32 32" />
            <!-- Angle line -->
            <path d="m2665 1145 l-645 165 m645 -165 l-32 45 m32 -45 l -45 -25" />
            <path d="m2357 1225c6.73 27 10.1 54.7 10.1 82.5" fill-rule="evenodd" />
        </g>
        <g class="kata_svg_text">
            <!-- |all> ket -->
            <path d="m2735 1098h6.92v83.6h-6.92z" />
            <path d="m2782 1122c-3.09 0-5.86 1.25-8.31 3.73-2.46 2.49-4.37 5.82-5.75 10s-2.07 8.35-2.07 12.5c0 3.11 0.43 5.44 1.28 6.98 0.86 1.55 2.29 2.32 4.29 2.32 1.98 0 3.92-0.86 5.82-2.56 1.9-1.71 3.86-4.14 5.88-7.3 2.03-3.16 3.46-6.81 4.29-10.9l0.41-1.93c0.27-1.23 0.45-2.29 0.54-3.19s0.13-1.87 0.13-2.92c0-2.31-0.49-4-1.48-5.08s-2.66-1.62-5.03-1.62zm-0.9-3.54c1.95 0 3.77 0.21 5.46 0.65 1.69 0.43 3.44 1.2 5.23 2.31l4.14-2.96 2.87 0.71-6.6 28.5c-0.66 2.85-0.99 5.07-0.99 6.65 0 1.2 0.19 2.07 0.58 2.61s1.01 0.81 1.84 0.81c0.9 0 1.86-0.37 2.88-1.1 1.02-0.74 2.45-2.14 4.31-4.2l2.56 2.51c-2.69 2.88-4.99 4.92-6.89 6.13-1.9 1.22-3.96 1.82-6.18 1.82-1.86 0-3.34-0.61-4.45-1.84s-1.66-2.86-1.66-4.9c0-1.64 0.34-3.39 1.03-5.25l-0.58-0.18c-2.88 4.19-5.6 7.26-8.18 9.21-2.57 1.94-5.3 2.92-8.17 2.92-3.3 0-5.85-1.24-7.66-3.73s-2.72-5.98-2.72-10.5c0-5.15 1.01-10.1 3.03-14.8 2.02-4.75 4.8-8.49 8.34-11.2 3.53-2.74 7.47-4.11 11.8-4.11zm75.2-20.5h2.65l-11 49.7c-0.66 2.97-0.99 5.19-0.99 6.65 0 1.2 0.2 2.07 0.58 2.61 0.39 0.54 1.01 0.81 1.85 0.81 0.89 0 1.85-0.37 2.87-1.1 1.02-0.74 2.46-2.14 4.31-4.2l2.56 2.51c-2.9 3.06-5.27 5.15-7.12 6.27-1.84 1.12-3.9 1.68-6.17 1.68-1.95 0-3.51-0.71-4.67-2.13-1.17-1.42-1.76-3.24-1.76-5.46 0-2.01 0.42-4.91 1.26-8.71l8.04-36c0.36-1.58 0.62-2.85 0.77-3.79 0.15-0.95 0.22-1.82 0.22-2.63 0-0.9-0.16-1.58-0.49-2.04-0.33-0.47-0.8-0.81-1.42-1.01-0.61-0.21-1.71-0.36-3.3-0.45l0.54-2.34zm-29 0h2.65l-11 49.7c-0.66 2.97-0.99 5.19-0.99 6.65 0 1.2 0.2 2.07 0.58 2.61 0.39 0.54 1.01 0.81 1.85 0.81 0.89 0 1.85-0.37 2.87-1.1 1.02-0.74 2.46-2.14 4.31-4.2l2.56 2.51c-2.9 3.06-5.27 5.15-7.12 6.27-1.84 1.12-3.9 1.68-6.17 1.68-1.95 0-3.51-0.71-4.67-2.13-1.17-1.42-1.76-3.24-1.76-5.46 0-2.01 0.42-4.91 1.26-8.71l8.04-36c0.36-1.58 0.62-2.85 0.77-3.79 0.15-0.95 0.22-1.82 0.22-2.63 0-0.9-0.16-1.58-0.49-2.04-0.33-0.47-0.8-0.81-1.42-1.01-0.61-0.21-1.71-0.36-3.3-0.45l0.54-2.34z" />
            <path d="m2875 1098 17.9 40.3v3.32l-17.9 40.4-4.81-1.71 14.4-40.3-14.4-40.4z" />
            <!-- |good> ket -->
            <path d="m1889 530h6.91v83.6h-6.91z" />
            <path d="m2040 554c-3.11 0-5.83 1.3-8.15 3.91-2.32 2.6-4.15 6.33-5.48 11.2-1.33 4.85-2 9.03-2 12.5 0 3.29 0.68 5.73 2.05 7.3 1.36 1.57 3.42 2.36 6.17 2.36 2.94 0 5.54-1.32 7.82-3.95 2.28-2.64 4.07-6.33 5.39-11.1 1.32-4.75 1.98-8.92 1.98-12.5 0-3.24-0.63-5.67-1.89-7.3s-3.22-2.45-5.89-2.45zm-49 0c-3.11 0-5.83 1.3-8.15 3.91-2.32 2.6-4.15 6.33-5.48 11.2-1.33 4.85-2 9.03-2 12.5 0 3.29 0.68 5.73 2.05 7.3 1.36 1.57 3.42 2.36 6.17 2.36 2.94 0 5.54-1.32 7.82-3.95 2.28-2.64 4.07-6.33 5.39-11.1 1.32-4.75 1.98-8.92 1.98-12.5 0-3.24-0.63-5.67-1.89-7.3s-3.22-2.45-5.89-2.45zm98.3-0.09c-3.05 0-5.79 1.24-8.22 3.71-2.42 2.47-4.33 5.8-5.72 10-1.4 4.19-2.09 8.37-2.09 12.5 0 3.12 0.42 5.44 1.28 6.99 0.85 1.54 2.28 2.31 4.29 2.31 0.93 0 1.87-0.202 2.83-0.606 0.96-0.405 1.95-1.06 2.99-1.96 1.03-0.898 2.05-1.99 3.05-3.28s1.92-2.58 2.76-3.89c0.84-1.3 1.62-2.84 2.34-4.63 0.72-1.78 1.33-3.93 1.84-6.45l0.4-1.93c0.45-2.16 0.68-4.19 0.68-6.11 0-2.34-0.5-4.04-1.48-5.1-0.99-1.06-2.64-1.6-4.95-1.6zm-148 0c-3.05 0-5.79 1.24-8.22 3.71-2.42 2.47-4.33 5.8-5.72 10-1.4 4.19-2.09 8.37-2.09 12.5 0 3.12 0.45 5.44 1.35 6.99 0.89 1.54 2.3 2.31 4.22 2.31 1.53 0 3.05-0.524 4.56-1.57s3.13-2.71 4.85-4.99 3.06-4.45 4.02-6.51c0.96-2.07 1.77-4.64 2.45-7.73 0.67-3.08 1.01-5.76 1.01-8.04 0-2.34-0.5-4.04-1.48-5.1-0.99-1.06-2.64-1.6-4.95-1.6zm100-3.5c4.8 0 8.45 1.31 11 3.93 2.52 2.62 3.78 6.37 3.78 11.3 0 3.47-0.61 7.19-1.82 11.1s-2.88 7.28-4.99 9.97c-2.11 2.7-4.63 4.72-7.57 6.09-2.93 1.36-6.3 2.04-10.1 2.04-4.65 0-8.25-1.3-10.8-3.91-2.56-2.6-3.84-6.35-3.84-11.2 0-2.4 0.36-5.17 1.08-8.31 0.93-4.25 2.48-7.97 4.67-11.1 2.19-3.18 4.88-5.61 8.09-7.3 3.2-1.69 6.72-2.54 10.6-2.54zm-49 0c4.8 0 8.45 1.31 11 3.93 2.52 2.62 3.78 6.37 3.78 11.3 0 3.47-0.61 7.19-1.82 11.1s-2.88 7.28-4.99 9.97c-2.11 2.7-4.63 4.72-7.57 6.09-2.93 1.36-6.3 2.04-10.1 2.04-4.65 0-8.25-1.3-10.8-3.91-2.56-2.6-3.84-6.35-3.84-11.2 0-2.4 0.36-5.17 1.08-8.31 0.93-4.25 2.48-7.97 4.67-11.1 2.19-3.18 4.88-5.61 8.09-7.3 3.2-1.69 6.72-2.54 10.6-2.54zm-51.7-0.045c1.88 0 3.66 0.225 5.34 0.674s3.37 1.21 5.08 2.29l4.13-2.96 2.88 0.719-4.63 20.9c-0.33 1.47-1.08 5.17-2.25 11.1-1.23 6.29-2.22 10.7-2.98 13.3-0.77 2.6-1.72 4.98-2.86 7.12s-2.6 4-4.4 5.59c-1.8 1.59-3.98 2.82-6.54 3.68-2.56 0.869-5.59 1.3-9.09 1.3-11.3 0-17-3.29-17-9.88 0-1.68 0.51-3.2 1.52-4.58 1.02-1.38 2.65-2.83 4.9-4.36l3.24 2.6c-0.57 0.689-1.05 1.37-1.44 2.04s-0.67 1.32-0.83 1.95c-0.17 0.629-0.25 1.38-0.25 2.25 0 2.25 0.81 3.89 2.43 4.92 1.61 1.03 4.05 1.55 7.32 1.55 3.68 0 6.64-0.831 8.87-2.49s4.14-4.34 5.73-8.02c1.58-3.68 3.13-9.25 4.62-16.7l-0.62-0.134c-2.91 3.98-5.6 6.89-8.09 8.72-2.49 1.83-5.17 2.74-8.04 2.74-3.27 0-5.8-1.23-7.62-3.68-1.81-2.46-2.71-5.96-2.71-10.5 0-5.12 1-10 3.01-14.8 2-4.72 4.79-8.47 8.35-11.3 3.57-2.78 7.53-4.18 11.9-4.18zm168-20.5h2.65l-11.2 49.7c-0.66 2.94-0.99 5.15-0.99 6.65 0 1.2 0.2 2.07 0.59 2.6s1 0.809 1.84 0.809c0.9 0 1.86-0.367 2.87-1.1 1.02-0.734 2.46-2.13 4.32-4.2l2.56 2.52c-2.76 2.9-5.08 4.96-6.97 6.15-1.88 1.2-3.92 1.8-6.1 1.8-1.86 0-3.34-0.614-4.45-1.84s-1.66-2.86-1.66-4.9c0-1.65 0.34-3.4 1.03-5.26l-0.59-0.18c-2.87 4.19-5.6 7.26-8.17 9.21-2.58 1.95-5.3 2.92-8.18 2.92-3.29 0-5.84-1.24-7.66-3.73-1.81-2.48-2.71-5.97-2.71-10.5 0-5.15 1.01-10.1 3.03-14.8s4.8-8.49 8.33-11.2c3.54-2.74 7.47-4.11 11.8-4.11 1.82 0 3.51 0.187 5.05 0.562 1.54 0.374 3.12 1.02 4.74 1.95l2.33-10.4c0.24-0.989 0.45-2.08 0.63-3.28s0.27-2.25 0.27-3.14c0-0.899-0.16-1.58-0.49-2.04s-0.8-0.801-1.42-1.01c-0.61-0.209-1.71-0.359-3.3-0.449l0.54-2.34z" />
            <path d="m2126 529 17.9 40.3v3.32l-17.9 40.4-4.81-1.71 14.4-40.3-14.4-40.4z" />
            <!-- |bad> ket -->
            <path d="m2766 1275h6.92v83.6h-6.92z" />
            <path d="m2816 1301c-1.43 0-2.85 0.46-4.24 1.37s-2.94 2.43-4.65 4.54-3.1 4.27-4.18 6.49-1.99 5.05-2.74 8.49l-0.4 1.89c-0.45 2.09-0.68 4.13-0.68 6.11 0 2.36 0.52 4.07 1.55 5.12 1.04 1.05 2.75 1.57 5.15 1.57 1.22 0 2.39-0.2 3.5-0.61 1.11-0.4 2.24-1.07 3.39-2 1.15-0.92 2.25-2.14 3.28-3.66 1.03-1.51 1.99-3.37 2.85-5.59 0.87-2.22 1.55-4.59 2.03-7.12 0.47-2.53 0.71-4.95 0.71-7.25 0-3.12-0.44-5.46-1.32-7.01-0.88-1.56-2.3-2.34-4.25-2.34zm97.4-1.75c-3.06 0-5.8 1.23-8.22 3.71-2.43 2.47-4.34 5.8-5.73 9.99s-2.09 8.37-2.09 12.5c0 3.12 0.43 5.45 1.28 6.99s2.29 2.31 4.29 2.31c0.93 0 1.87-0.2 2.83-0.6 0.96-0.41 1.96-1.06 2.99-1.96s2.05-1.99 3.05-3.28c1.01-1.29 1.93-2.58 2.77-3.88 0.83-1.31 1.61-2.85 2.33-4.63s1.33-3.93 1.84-6.45l0.41-1.93c0.45-2.15 0.67-4.19 0.67-6.11 0-2.33-0.49-4.03-1.48-5.1-0.99-1.06-2.64-1.59-4.94-1.59zm-50.9 0c-3.09 0-5.86 1.24-8.31 3.73-2.46 2.48-4.37 5.82-5.75 9.99-1.38 4.18-2.07 8.35-2.07 12.5 0 3.12 0.43 5.45 1.28 6.99s2.29 2.31 4.29 2.31c1.98 0 3.92-0.85 5.82-2.56 1.9-1.7 3.86-4.14 5.88-7.3 2.03-3.16 3.46-6.8 4.29-10.9l0.41-1.93c0.27-1.23 0.45-2.29 0.54-3.19s0.13-1.87 0.13-2.92c0-2.3-0.49-4-1.48-5.07-0.99-1.08-2.67-1.62-5.03-1.62zm-0.9-3.55c1.95 0 3.77 0.22 5.46 0.65 1.69 0.44 3.43 1.21 5.23 2.32l4.13-2.97 2.88 0.72-6.6 28.5c-0.66 2.84-0.99 5.06-0.99 6.65 0 1.2 0.19 2.06 0.58 2.6s1 0.81 1.84 0.81c0.9 0 1.86-0.36 2.88-1.1 1.02-0.73 2.45-2.13 4.31-4.2l2.56 2.52c-2.69 2.87-4.99 4.92-6.89 6.13-1.91 1.21-3.97 1.82-6.18 1.82-1.86 0-3.34-0.62-4.45-1.84-1.11-1.23-1.66-2.86-1.66-4.9 0-1.65 0.34-3.4 1.03-5.26l-0.58-0.18c-2.88 4.2-5.6 7.27-8.18 9.21-2.57 1.95-5.3 2.92-8.17 2.92-3.3 0-5.85-1.24-7.66-3.73-1.81-2.48-2.72-5.97-2.72-10.5 0-5.15 1.01-10.1 3.03-14.8s4.8-8.49 8.34-11.2c3.53-2.74 7.47-4.11 11.8-4.11zm70.6-20.5h2.65l-11.2 49.7c-0.66 2.93-0.99 5.15-0.99 6.65 0 1.2 0.19 2.06 0.58 2.6s1 0.81 1.84 0.81c0.9 0 1.86-0.36 2.88-1.1 1.02-0.73 2.45-2.13 4.31-4.2l2.56 2.52c-2.75 2.9-5.08 4.95-6.96 6.15-1.89 1.2-3.93 1.8-6.11 1.8-1.86 0-3.34-0.62-4.45-1.84-1.11-1.23-1.66-2.86-1.66-4.9 0-1.65 0.34-3.4 1.03-5.26l-0.58-0.18c-2.88 4.2-5.6 7.27-8.18 9.21-2.57 1.95-5.3 2.92-8.17 2.92-3.3 0-5.85-1.24-7.66-3.73-1.81-2.48-2.72-5.97-2.72-10.5 0-5.15 1.01-10.1 3.03-14.8s4.8-8.49 8.34-11.2c3.53-2.74 7.47-4.11 11.8-4.11 1.83 0 3.51 0.19 5.05 0.56 1.55 0.38 3.13 1.03 4.74 1.96l2.34-10.4c0.24-0.99 0.45-2.08 0.63-3.28s0.27-2.25 0.27-3.14c0-0.9-0.17-1.58-0.5-2.05-0.33-0.46-0.8-0.8-1.41-1.01-0.62-0.21-1.72-0.36-3.3-0.45l0.54-2.33zm-124 0h2.61l-7.91 31.4 0.59 0.18c2.9-3.9 5.63-6.71 8.17-8.45 2.55-1.74 5.09-2.6 7.64-2.6 3.26 0 5.8 1.24 7.61 3.72 1.81 2.49 2.72 5.99 2.72 10.5 0 4.94-1 9.8-2.99 14.6-1.99 4.78-4.75 8.57-8.29 11.4-3.53 2.8-7.48 4.2-11.8 4.2-3.99 0-7.52-0.98-10.6-2.92l-4.13 2.92-2.87-0.72 11.6-51.4c0.69-3.05 1.03-5.27 1.03-6.64 0-1.26-0.38-2.15-1.14-2.66-0.77-0.5-2.14-0.79-4.11-0.85l0.54-2.33z" />
            <path d="m2950 1275 17.9 40.3v3.33l-17.9 40.4-4.8-1.71 14.4-40.3-14.4-40.4z" />
            <!-- theta-->
            <path d="m2414 1260c-1.4 6.49-2.11 12-2.11 16.4 0 3.36 0.51 5.82 1.53 7.39s2.67 2.36 4.94 2.36c3.36 0 6.54-2.25 9.55-6.76s5.56-11 7.66-19.4zm18.4-30.3c-3.5 0-6.74 2.22-9.72 6.65s-5.52 10.8-7.62 19h21.5c1.41-6.31 2.11-11.8 2.11-16.3 0-3.15-0.51-5.5-1.53-7.06-1.01-1.55-2.6-2.33-4.76-2.33zm0.54-3.64c8.69 0 13 5.51 13 16.5 0 3.12-0.35 6.84-1.06 11.2-0.7 4.33-1.82 8.74-3.34 13.2-1.53 4.5-3.46 8.47-5.8 11.9-2.33 3.46-5.03 6.13-8.08 8.02-3.06 1.89-6.35 2.83-9.89 2.83-4.46 0-7.78-1.36-9.97-4.09-2.19-2.72-3.28-6.81-3.28-12.3 0-2.97 0.33-6.62 0.99-11 0.66-4.35 1.74-8.79 3.26-13.3 1.51-4.54 3.45-8.57 5.84-12.1 2.38-3.52 5.12-6.23 8.22-8.13s6.46-2.85 10.1-2.85z" fill-rule="evenodd" />
        </g>
        <g class="kata_svg_fill_accent kata_svg_stroke_accent">
            <!-- Started state square braket -->
            <path d="m2722 1082v-49h89v-49 49h89v49" fill="none" stroke-width="6" />
            <text transform="translate(2605 952)" font-family="sans-serif" font-size="64px" font-weight="400">The starting state</text>
        </g>
    </g>
</svg>
