<svg width="800px" height="800px" viewBox="0 0 24 24" fill="none" xmlns="http://www.w3.org/2000/svg">
  <path d="M12.0001 12.0001H12.0101M12.5001 12.0001C12.5001 12.2762 12.2762 12.5001 12.0001 12.5001C11.7239 12.5001 11.5001 12.2762 11.5001 12.0001C11.5001 11.7239 11.7239 11.5001 12.0001 11.5001C12.2762 11.5001 12.5001 11.7239 12.5001 12.0001ZM15.1821 8.8181C19.4778 13.1139 21.5356 18.0209 19.7782 19.7782C18.0209 21.5356 13.1139 19.4778 8.8181 15.1821C4.52233 10.8863 2.46454 5.97926 4.2219 4.2219C5.97926 2.46454 10.8863 4.52233 15.1821 8.8181ZM8.81839 8.8181C4.52262 13.1139 2.46484 18.0209 4.2222 19.7783C5.97955 21.5356 10.8866 19.4778 15.1824 15.1821C19.4781 10.8863 21.5359 5.97926 19.7785 4.2219C18.0212 2.46454 13.1142 4.52233 8.81839 8.8181Z" stroke="#424242" stroke-width="2" stroke-linecap="round" stroke-linejoin="round"/>
</svg>
