<svg width="3294" height="1662" xmlns="http://www.w3.org/2000/svg" xmlns:xlink="http://www.w3.org/1999/xlink" xml:space="preserve" overflow="hidden"><g transform="translate(-220 -306)"><path d="M3113.01 1014.69 3117.07 1014.69 3117.07 1063.76 3113.01 1063.76Z" fill-rule="evenodd"/><text fill="#000000" fill-opacity="0" font-family="Arial,Arial_MSFontService,sans-serif" font-size="49.0693" x="3113.01" y="1057.63">|</text><path d="M3138.63 1018.25C3137.42 1018.25 3136.41 1018.61 3135.59 1019.33 3134.77 1020.05 3134.11 1021.09 3133.61 1022.45 3133.11 1023.8 3132.75 1025.45 3132.54 1027.39 3132.33 1029.33 3132.23 1031.52 3132.23 1033.97 3132.23 1039.7 3132.76 1043.9 3133.82 1046.58 3134.89 1049.27 3136.53 1050.61 3138.77 1050.61 3140.89 1050.61 3142.47 1049.34 3143.5 1046.82 3144.53 1044.3 3145.04 1040.39 3145.04 1035.1 3145.04 1031.06 3144.78 1027.78 3144.25 1025.28 3143.72 1022.77 3142.99 1020.98 3142.05 1019.89 3141.11 1018.8 3139.97 1018.25 3138.63 1018.25ZM3138.77 1016.01C3142.61 1016.01 3145.48 1017.5 3147.36 1020.47 3149.24 1023.44 3150.18 1027.93 3150.18 1033.94 3150.18 1040.16 3149.18 1044.87 3147.16 1048.06 3145.15 1051.25 3142.21 1052.85 3138.34 1052.85 3134.55 1052.85 3131.72 1051.35 3129.87 1048.36 3128.01 1045.38 3127.08 1040.84 3127.08 1034.76 3127.08 1031.52 3127.37 1028.73 3127.94 1026.37 3128.51 1024.02 3129.31 1022.07 3130.34 1020.53 3131.37 1019 3132.6 1017.86 3134.05 1017.12 3135.49 1016.38 3137.06 1016.01 3138.77 1016.01Z" fill-rule="evenodd"/><text fill="#000000" fill-opacity="0" font-family="Arial,Arial_MSFontService,sans-serif" font-size="36.835" x="3127.08" y="1048.24">0</text><path d="M3159.09 1012.36 3169.61 1036.04 3169.61 1037.99 3159.09 1061.69 3156.27 1060.69 3164.73 1037.01 3156.27 1013.31Z" fill-rule="evenodd"/><text fill="#000000" fill-opacity="0" font-family="Arial,Arial_MSFontService,sans-serif" font-size="49.333" x="3156.27" y="1055.53">ۧ</text><path d="M3191.73 1040.72 3224.22 1040.72 3224.22 1044.22 3191.73 1044.22ZM3191.73 1029.78 3224.22 1029.78 3224.22 1033.28 3191.73 1033.28Z" fill-rule="evenodd"/><text fill="#000000" fill-opacity="0" font-family="Arial,Arial_MSFontService,sans-serif" font-size="14.4492" x="3191.73" y="1042.42">=</text><path d="M3306.56 968.198C3313.78 974.385 3319.52 983.614 3323.76 995.883 3328.01 1008.15 3330.13 1021.85 3330.13 1036.96 3330.13 1051.85 3328.01 1065.52 3323.76 1077.98 3319.52 1090.43 3313.78 1099.73 3306.56 1105.89L3305.32 1103.94C3311.56 1097.59 3316.37 1088.41 3319.74 1076.38 3323.12 1064.36 3324.8 1051.23 3324.8 1036.99 3324.8 1022.42 3323.11 1009.22 3319.72 997.412 3316.32 985.6 3311.52 976.521 3305.32 970.175ZM3270.87 968.198 3272.11 970.175C3265.89 976.521 3261.09 985.6 3257.7 997.412 3254.32 1009.22 3252.63 1022.42 3252.63 1036.99 3252.63 1051.23 3254.32 1064.36 3257.69 1076.38 3261.07 1088.41 3265.87 1097.59 3272.11 1103.94L3270.87 1105.89C3263.65 1099.73 3257.92 1090.43 3253.67 1077.98 3249.43 1065.52 3247.3 1051.85 3247.3 1036.96 3247.3 1021.85 3249.43 1008.15 3253.67 995.883 3257.92 983.614 3263.65 974.385 3270.87 968.198Z" fill-rule="evenodd"/><path d="M3290.82 975.243 3292.27 975.243C3292.17 976.93 3292.11 979.268 3292.11 982.257L3292.11 1004.77C3292.11 1005.79 3292.17 1006.56 3292.28 1007.08 3292.4 1007.6 3292.6 1008.02 3292.89 1008.35 3293.18 1008.67 3293.6 1008.93 3294.14 1009.11 3294.69 1009.3 3295.37 1009.44 3296.2 1009.53 3297.03 1009.63 3298.12 1009.7 3299.47 1009.73L3299.47 1011.66 3279.98 1011.66 3279.98 1009.73C3281.94 1009.64 3283.33 1009.52 3284.16 1009.38 3285 1009.23 3285.64 1009 3286.07 1008.7 3286.51 1008.4 3286.83 1007.98 3287.04 1007.44 3287.24 1006.89 3287.34 1006 3287.34 1004.77L3287.34 983.39C3287.34 982.687 3287.22 982.173 3286.97 981.848 3286.73 981.523 3286.36 981.36 3285.89 981.36 3285.33 981.36 3284.53 981.65 3283.49 982.23 3282.45 982.81 3281.17 983.61 3279.64 984.63L3278.48 982.599Z" fill-rule="evenodd"/><text fill="#000000" fill-opacity="0" font-family="Arial,Arial_MSFontService,sans-serif" font-size="36.4131" x="3278.48" y="1007.1">1</text><path d="M3288.74 1054.28C3287.52 1054.28 3286.51 1054.64 3285.69 1055.36 3284.88 1056.08 3284.22 1057.12 3283.71 1058.47 3283.21 1059.82 3282.86 1061.47 3282.65 1063.41 3282.44 1065.36 3282.33 1067.55 3282.33 1069.99 3282.33 1075.72 3282.86 1079.93 3283.93 1082.61 3284.99 1085.29 3286.64 1086.63 3288.87 1086.63 3291 1086.63 3292.57 1085.37 3293.6 1082.85 3294.63 1080.32 3295.15 1076.42 3295.15 1071.13 3295.15 1067.08 3294.88 1063.81 3294.35 1061.3 3293.83 1058.8 3293.09 1057 3292.15 1055.91 3291.21 1054.82 3290.07 1054.28 3288.74 1054.28ZM3288.87 1052.04C3292.72 1052.04 3295.58 1053.52 3297.47 1056.49 3299.35 1059.46 3300.29 1063.95 3300.29 1069.97 3300.29 1076.19 3299.28 1080.9 3297.27 1084.09 3295.25 1087.28 3292.31 1088.87 3288.45 1088.87 3284.65 1088.87 3281.83 1087.38 3279.97 1084.39 3278.12 1081.4 3277.19 1076.87 3277.19 1070.78 3277.19 1067.55 3277.47 1064.75 3278.05 1062.4 3278.62 1060.04 3279.42 1058.1 3280.45 1056.56 3281.47 1055.02 3282.71 1053.88 3284.15 1053.14 3285.59 1052.41 3287.16 1052.04 3288.87 1052.04Z" fill-rule="evenodd"/><text fill="#000000" fill-opacity="0" font-family="Arial,Arial_MSFontService,sans-serif" font-size="36.835" x="3277.19" y="1084.27">0</text><path d="M2513.3 451.551 2517.36 451.551 2517.36 500.62 2513.3 500.62Z" fill-rule="evenodd"/><text fill="#000000" fill-opacity="0" font-family="Arial,Arial_MSFontService,sans-serif" font-size="49.0693" x="2513.3" y="494.486">|</text><path d="M2541.01 452.869 2542.46 452.869C2542.35 454.557 2542.3 456.894 2542.3 459.883L2542.3 482.4C2542.3 483.42 2542.36 484.189 2542.47 484.707 2542.59 485.226 2542.79 485.648 2543.08 485.973 2543.37 486.298 2543.79 486.553 2544.33 486.738 2544.88 486.922 2545.56 487.063 2546.39 487.16 2547.21 487.256 2548.3 487.322 2549.66 487.357L2549.66 489.282 2530.17 489.282 2530.17 487.357C2532.12 487.269 2533.52 487.151 2534.35 487.001 2535.19 486.852 2535.82 486.628 2536.26 486.329 2536.7 486.03 2537.02 485.608 2537.23 485.063 2537.43 484.518 2537.53 483.631 2537.53 482.4L2537.53 461.017C2537.53 460.313 2537.41 459.799 2537.16 459.474 2536.91 459.149 2536.55 458.986 2536.08 458.986 2535.52 458.986 2534.72 459.276 2533.68 459.856 2532.64 460.436 2531.36 461.236 2529.83 462.256L2528.67 460.226Z" fill-rule="evenodd"/><text fill="#000000" fill-opacity="0" font-family="Arial,Arial_MSFontService,sans-serif" font-size="36.4131" x="2528.67" y="484.731">1</text><path d="M2559.38 449.219 2569.9 472.897 2569.9 474.848 2559.38 498.552 2556.56 497.55 2565.03 473.872 2556.56 450.168Z" fill-rule="evenodd"/><text fill="#000000" fill-opacity="0" font-family="Arial,Arial_MSFontService,sans-serif" font-size="49.333" x="2556.56" y="492.385">ۧ</text><path d="M2592.03 477.575 2624.51 477.575 2624.51 481.082 2592.03 481.082ZM2592.03 466.633 2624.51 466.633 2624.51 470.14 2592.03 470.14Z" fill-rule="evenodd"/><text fill="#000000" fill-opacity="0" font-family="Arial,Arial_MSFontService,sans-serif" font-size="14.4492" x="2592.03" y="479.276">=</text><path d="M2718.88 405.055C2726.11 411.243 2731.84 420.471 2736.09 432.741 2740.33 445.01 2742.46 458.703 2742.46 473.821 2742.46 488.709 2740.33 502.381 2736.09 514.835 2731.84 527.289 2726.11 536.592 2718.88 542.744L2717.64 540.793C2723.88 534.448 2728.69 525.263 2732.07 513.24 2735.44 501.216 2737.13 488.085 2737.13 473.847 2737.13 459.275 2735.43 446.082 2732.04 434.27 2728.65 422.457 2723.85 413.378 2717.64 407.033ZM2683.2 405.055 2684.44 407.033C2678.22 413.378 2673.41 422.457 2670.03 434.27 2666.64 446.082 2664.95 459.275 2664.95 473.847 2664.95 488.085 2666.64 501.216 2670.02 513.24 2673.39 525.263 2678.2 534.448 2684.44 540.793L2683.2 542.744C2675.97 536.592 2670.24 527.289 2665.99 514.835 2661.75 502.381 2659.63 488.709 2659.63 473.821 2659.63 458.703 2661.75 445.01 2665.99 432.741 2670.24 420.471 2675.97 411.243 2683.2 405.055Z" fill-rule="evenodd"/><path d="M2701.06 414.342C2699.85 414.342 2698.83 414.702 2698.02 415.423 2697.2 416.143 2696.54 417.18 2696.04 418.534 2695.54 419.887 2695.18 421.535 2694.97 423.478 2694.76 425.42 2694.65 427.613 2694.65 430.056 2694.65 435.787 2695.19 439.992 2696.25 442.673 2697.31 445.354 2698.96 446.694 2701.19 446.694 2703.32 446.694 2704.9 445.433 2705.93 442.91 2706.95 440.388 2707.47 436.481 2707.47 431.19 2707.47 427.147 2707.21 423.873 2706.68 421.368 2706.15 418.864 2705.42 417.066 2704.48 415.976 2703.54 414.886 2702.4 414.342 2701.06 414.342ZM2701.19 412.1C2705.04 412.1 2707.91 413.586 2709.79 416.556 2711.67 419.527 2712.61 424.018 2712.61 430.03 2712.61 436.253 2711.6 440.959 2709.59 444.15 2707.58 447.34 2704.64 448.935 2700.77 448.935 2696.97 448.935 2694.15 447.441 2692.29 444.453 2690.44 441.465 2689.51 436.929 2689.51 430.847 2689.51 427.613 2689.8 424.818 2690.37 422.463 2690.94 420.107 2691.74 418.16 2692.77 416.622 2693.8 415.084 2695.03 413.946 2696.47 413.208 2697.92 412.469 2699.49 412.1 2701.19 412.1Z" fill-rule="evenodd"/><text fill="#000000" fill-opacity="0" font-family="Arial,Arial_MSFontService,sans-serif" font-size="36.835" x="2689.51" y="444.331">0</text><path d="M2703.14 488.894 2704.59 488.894C2704.49 490.582 2704.44 492.919 2704.44 495.908L2704.44 518.425C2704.44 519.445 2704.49 520.214 2704.61 520.732 2704.72 521.251 2704.92 521.673 2705.21 521.998 2705.5 522.323 2705.92 522.578 2706.47 522.763 2707.01 522.947 2707.7 523.088 2708.52 523.185 2709.35 523.281 2710.44 523.347 2711.79 523.382L2711.79 525.307 2692.31 525.307 2692.31 523.382C2694.26 523.294 2695.65 523.176 2696.49 523.026 2697.32 522.877 2697.96 522.653 2698.4 522.354 2698.84 522.055 2699.16 521.633 2699.36 521.088 2699.56 520.544 2699.66 519.656 2699.66 518.425L2699.66 497.042C2699.66 496.338 2699.54 495.824 2699.3 495.499 2699.05 495.174 2698.69 495.011 2698.21 495.011 2697.65 495.011 2696.85 495.301 2695.81 495.881 2694.78 496.461 2693.49 497.261 2691.97 498.281L2690.8 496.251Z" fill-rule="evenodd"/><text fill="#000000" fill-opacity="0" font-family="Arial,Arial_MSFontService,sans-serif" font-size="36.4131" x="2690.8" y="520.756">1</text><path d="M2876.38 658.792 2880.45 658.792 2880.45 707.861 2876.38 707.861Z" fill-rule="evenodd"/><text fill="#000000" fill-opacity="0" font-family="Arial,Arial_MSFontService,sans-serif" font-size="49.0693" x="2876.38" y="701.727">|</text><path d="M2905.36 664.144 2909.1 664.144 2909.1 679.332 2923.47 679.332 2923.47 682.838 2909.1 682.838 2909.1 698.026 2905.36 698.026 2905.36 682.838 2890.99 682.838 2890.99 679.332 2905.36 679.332Z" fill-rule="evenodd"/><text fill="#000000" fill-opacity="0" font-family="Arial,Arial_MSFontService,sans-serif" font-size="33.8818" x="2890.99" y="693.791">+</text><path d="M2932.78 656.46 2943.3 680.137 2943.3 682.089 2932.78 705.793 2929.96 704.791 2938.42 681.113 2929.96 657.409Z" fill-rule="evenodd"/><text fill="#000000" fill-opacity="0" font-family="Arial,Arial_MSFontService,sans-serif" font-size="49.333" x="2929.96" y="699.626">ۧ</text><path d="M2965.42 684.816 2997.91 684.816 2997.91 688.323 2965.42 688.323ZM2965.42 673.874 2997.91 673.874 2997.91 677.38 2965.42 677.38Z" fill-rule="evenodd"/><text fill="#000000" fill-opacity="0" font-family="Arial,Arial_MSFontService,sans-serif" font-size="14.4492" x="2965.42" y="686.517">=</text><path d="M3125.49 560.364C3135.14 572.915 3142.86 589.57 3148.65 610.33 3153.72 628.495 3156.58 647.844 3157.23 668.377L3157.36 676.941 3157.37 676.941 3157.37 677.25 3157.37 684.825 3157.37 685.133 3157.36 685.133 3157.23 693.697C3156.58 714.231 3153.72 733.58 3148.65 751.745 3142.86 772.504 3135.14 789.16 3125.49 801.71L3123.43 799.997C3132.5 787.165 3139.48 770.439 3144.36 749.82 3149.23 729.201 3151.69 707.544 3151.73 684.851L3151.73 677.223C3151.69 654.53 3149.23 632.874 3144.36 612.255 3139.48 591.635 3132.5 574.91 3123.43 562.078ZM3054.66 560.341 3056.72 562.055C3047.65 574.887 3040.67 591.612 3035.8 612.232 3030.92 632.851 3028.46 654.507 3028.43 677.2L3028.43 684.855C3028.46 707.548 3030.92 729.204 3035.8 749.823 3040.67 770.442 3047.65 787.168 3056.72 800L3054.66 801.714C3045.01 789.163 3037.29 772.508 3031.5 751.748 3026.43 733.583 3023.57 714.234 3022.93 693.701L3022.79 685.11 3022.78 685.11 3022.78 684.828 3022.78 677.227 3022.78 676.944 3022.79 676.944 3022.93 668.354C3023.57 647.821 3026.43 628.472 3031.5 610.307 3037.29 589.547 3045.01 572.892 3054.66 560.341Z" fill-rule="evenodd"/><path d="M3092.17 560.927 3093.62 560.927C3093.51 562.614 3093.46 564.952 3093.46 567.94L3093.46 590.458C3093.46 591.477 3093.52 592.246 3093.63 592.765 3093.75 593.284 3093.95 593.705 3094.24 594.031 3094.53 594.356 3094.95 594.611 3095.49 594.795 3096.04 594.98 3096.72 595.12 3097.55 595.217 3098.37 595.314 3099.46 595.38 3100.82 595.415L3100.82 597.34 3081.33 597.34 3081.33 595.415C3083.28 595.327 3084.68 595.208 3085.51 595.059 3086.35 594.909 3086.98 594.685 3087.42 594.387 3087.86 594.088 3088.18 593.666 3088.39 593.121 3088.59 592.576 3088.69 591.688 3088.69 590.458L3088.69 569.074C3088.69 568.371 3088.57 567.857 3088.32 567.532 3088.07 567.206 3087.71 567.044 3087.24 567.044 3086.68 567.044 3085.88 567.334 3084.84 567.914 3083.8 568.494 3082.52 569.294 3080.99 570.313L3079.83 568.283Z" fill-rule="evenodd"/><text fill="#000000" fill-opacity="0" font-family="Arial,Arial_MSFontService,sans-serif" font-size="36.4131" x="3079.83" y="592.788">1</text><path d="M3089.35 622.205 3096.07 622.205 3096.07 622.515 3122.74 622.515 3122.74 626.515 3092.74 626.515 3092.74 625.712 3091.3 625.712 3077.11 674.175 3074.56 674.175 3063.64 650.708 3059.19 652.685 3058.37 650.708 3067.02 646.753 3076.32 667.214Z" fill-rule="evenodd"/><path d="M3108.01 633.504C3111.28 633.504 3113.75 634.22 3115.42 635.653 3117.09 637.085 3117.93 639.164 3117.93 641.888 3117.93 642.82 3117.83 643.677 3117.65 644.459 3117.46 645.241 3117.17 646.015 3116.78 646.78 3116.38 647.544 3115.85 648.366 3115.18 649.245 3114.52 650.124 3113.78 651.016 3112.97 651.921 3112.16 652.826 3110.76 654.334 3108.78 656.443 3105.44 659.976 3102.98 663.061 3101.42 665.698L3111.36 665.698C3112.22 665.698 3112.92 665.645 3113.44 665.54 3113.97 665.434 3114.39 665.259 3114.71 665.012 3115.03 664.766 3115.28 664.446 3115.46 664.05 3115.65 663.655 3115.88 663.044 3116.16 662.218L3118.4 662.218 3117.95 669.917 3096.25 669.917 3096.25 668.651C3097.01 666.805 3098.03 664.916 3099.31 662.982 3100.59 661.049 3102.41 658.772 3104.77 656.153 3106.81 653.903 3108.28 652.198 3109.17 651.038 3110.16 649.772 3110.89 648.678 3111.37 647.755 3111.86 646.832 3112.2 645.962 3112.42 645.145 3112.63 644.327 3112.73 643.506 3112.73 642.679 3112.73 641.361 3112.52 640.197 3112.1 639.186 3111.68 638.175 3111.03 637.38 3110.16 636.8 3109.29 636.219 3108.2 635.929 3106.88 635.929 3103.59 635.929 3101.38 637.758 3100.23 641.414L3097.04 641.414 3097.04 636.351C3099.17 635.349 3101.16 634.624 3103.02 634.176 3104.87 633.728 3106.54 633.504 3108.01 633.504Z" fill-rule="evenodd"/><text fill="#000000" fill-opacity="0" font-family="Arial,Arial_MSFontService,sans-serif" font-size="36.4131" x="3096.25" y="665.365">2</text><path d="M3057.74 611.515 3122.74 611.515 3122.74 615.515 3057.74 615.515Z" fill-rule="evenodd"/><path d="M3092.17 691.46 3093.62 691.46C3093.51 693.147 3093.46 695.485 3093.46 698.474L3093.46 720.991C3093.46 722.011 3093.52 722.78 3093.63 723.298 3093.75 723.817 3093.95 724.239 3094.24 724.564 3094.53 724.889 3094.95 725.144 3095.49 725.329 3096.04 725.513 3096.72 725.654 3097.55 725.75 3098.37 725.847 3099.46 725.913 3100.82 725.948L3100.82 727.873 3081.33 727.873 3081.33 725.948C3083.28 725.86 3084.68 725.742 3085.51 725.592 3086.35 725.443 3086.98 725.219 3087.42 724.92 3087.86 724.621 3088.18 724.199 3088.39 723.654 3088.59 723.109 3088.69 722.222 3088.69 720.991L3088.69 699.607C3088.69 698.904 3088.57 698.39 3088.32 698.065 3088.07 697.74 3087.71 697.577 3087.24 697.577 3086.68 697.577 3085.88 697.867 3084.84 698.447 3083.8 699.027 3082.52 699.827 3080.99 700.847L3079.83 698.816Z" fill-rule="evenodd"/><text fill="#000000" fill-opacity="0" font-family="Arial,Arial_MSFontService,sans-serif" font-size="36.4131" x="3079.83" y="723.321">1</text><path d="M3092.74 752.515 3122.74 752.515 3122.74 756.515 3092.74 756.515 3092.74 756.245 3091.3 756.245 3077.11 804.708 3074.56 804.708 3063.64 781.241 3059.19 783.219 3058.37 781.241 3067.02 777.286 3076.32 797.747 3089.35 752.738 3092.74 752.738Z" fill-rule="evenodd"/><path d="M3108.01 764.037C3111.28 764.037 3113.75 764.753 3115.42 766.186 3117.09 767.619 3117.93 769.697 3117.93 772.422 3117.93 773.353 3117.83 774.21 3117.65 774.993 3117.46 775.775 3117.17 776.548 3116.78 777.313 3116.38 778.078 3115.85 778.899 3115.18 779.778 3114.52 780.657 3113.78 781.549 3112.97 782.454 3112.16 783.36 3110.76 784.867 3108.78 786.976 3105.44 790.51 3102.98 793.595 3101.42 796.231L3111.36 796.231C3112.22 796.231 3112.92 796.179 3113.44 796.073 3113.97 795.968 3114.39 795.792 3114.71 795.546 3115.03 795.3 3115.28 794.979 3115.46 794.583 3115.65 794.188 3115.88 793.577 3116.16 792.751L3118.4 792.751 3117.95 800.45 3096.25 800.45 3096.25 799.184C3097.01 797.339 3098.03 795.449 3099.31 793.516 3100.59 791.582 3102.41 789.306 3104.77 786.686 3106.81 784.436 3108.28 782.731 3109.17 781.571 3110.16 780.306 3110.89 779.211 3111.37 778.288 3111.86 777.366 3112.2 776.495 3112.42 775.678 3112.63 774.861 3112.73 774.039 3112.73 773.213 3112.73 771.894 3112.52 770.73 3112.1 769.719 3111.68 768.708 3111.03 767.913 3110.16 767.333 3109.29 766.753 3108.2 766.463 3106.88 766.463 3103.59 766.463 3101.38 768.291 3100.23 771.947L3097.04 771.947 3097.04 766.885C3099.17 765.883 3101.16 765.158 3103.02 764.709 3104.87 764.261 3106.54 764.037 3108.01 764.037Z" fill-rule="evenodd"/><text fill="#000000" fill-opacity="0" font-family="Arial,Arial_MSFontService,sans-serif" font-size="36.4131" x="3096.25" y="795.898">2</text><path d="M3057.74 742.515 3122.74 742.515 3122.74 746.515 3057.74 746.515Z" fill-rule="evenodd"/><path d="M2876.86 1356.42 2880.92 1356.42 2880.92 1405.48 2876.86 1405.48Z" fill-rule="evenodd"/><text fill="#000000" fill-opacity="0" font-family="Arial,Arial_MSFontService,sans-serif" font-size="49.0693" x="2876.86" y="1399.35">|</text><path d="M2891.46 1376.96 2923.95 1376.96 2923.95 1380.46 2891.46 1380.46Z" fill-rule="evenodd"/><text fill="#000000" fill-opacity="0" font-family="Arial,Arial_MSFontService,sans-serif" font-size="3.50684" x="2891.46" y="1380.02">−</text><path d="M2933.25 1354.08 2943.77 1377.76 2943.77 1379.71 2933.25 1403.42 2930.43 1402.41 2938.9 1378.74 2930.43 1355.03Z" fill-rule="evenodd"/><text fill="#000000" fill-opacity="0" font-family="Arial,Arial_MSFontService,sans-serif" font-size="49.333" x="2930.43" y="1397.25">ۧ</text><path d="M2965.9 1382.44 2998.38 1382.44 2998.38 1385.95 2965.9 1385.95ZM2965.9 1371.5 2998.38 1371.5 2998.38 1375 2965.9 1375Z" fill-rule="evenodd"/><text fill="#000000" fill-opacity="0" font-family="Arial,Arial_MSFontService,sans-serif" font-size="14.4492" x="2965.9" y="1384.14">=</text><path d="M3130.66 1257.99C3140.31 1270.54 3148.03 1287.19 3153.83 1307.95 3158.89 1326.12 3161.75 1345.47 3162.4 1366L3162.54 1374.57 3162.54 1374.57 3162.54 1374.87 3162.54 1382.45 3162.54 1382.76 3162.54 1382.76 3162.4 1391.32C3161.75 1411.85 3158.89 1431.2 3153.83 1449.37 3148.03 1470.13 3140.31 1486.78 3130.66 1499.33L3128.61 1497.62C3137.68 1484.79 3144.65 1468.06 3149.53 1447.44 3154.41 1426.82 3156.86 1405.17 3156.9 1382.48L3156.9 1374.85C3156.86 1352.15 3154.41 1330.5 3149.53 1309.88 3144.65 1289.26 3137.68 1272.53 3128.61 1259.7ZM3055.14 1257.97 3057.19 1259.68C3048.12 1272.51 3041.15 1289.24 3036.27 1309.86 3031.39 1330.47 3028.94 1352.13 3028.9 1374.82L3028.9 1382.48C3028.94 1405.17 3031.39 1426.83 3036.27 1447.45 3041.15 1468.07 3048.12 1484.79 3057.19 1497.62L3055.14 1499.34C3045.49 1486.79 3037.77 1470.13 3031.97 1449.37 3026.91 1431.21 3024.05 1411.86 3023.4 1391.32L3023.26 1382.73 3023.26 1382.73 3023.26 1382.45 3023.26 1374.85 3023.26 1374.57 3023.26 1374.57 3023.4 1365.98C3024.05 1345.44 3026.91 1326.1 3031.97 1307.93 3037.77 1287.17 3045.49 1270.52 3055.14 1257.97Z" fill-rule="evenodd"/><path d="M3094.98 1258.55 3096.43 1258.55C3096.33 1260.24 3096.27 1262.58 3096.27 1265.56L3096.27 1288.08C3096.27 1289.1 3096.33 1289.87 3096.45 1290.39 3096.56 1290.91 3096.76 1291.33 3097.05 1291.65 3097.34 1291.98 3097.76 1292.23 3098.3 1292.42 3098.85 1292.6 3099.53 1292.74 3100.36 1292.84 3101.19 1292.94 3102.28 1293 3103.63 1293.04L3103.63 1294.96 3084.15 1294.96 3084.15 1293.04C3086.1 1292.95 3087.49 1292.83 3088.32 1292.68 3089.16 1292.53 3089.8 1292.31 3090.24 1292.01 3090.68 1291.71 3091 1291.29 3091.2 1290.74 3091.4 1290.2 3091.5 1289.31 3091.5 1288.08L3091.5 1266.7C3091.5 1265.99 3091.38 1265.48 3091.13 1265.16 3090.89 1264.83 3090.53 1264.67 3090.05 1264.67 3089.49 1264.67 3088.69 1264.96 3087.65 1265.54 3086.61 1266.12 3085.33 1266.92 3083.8 1267.94L3082.64 1265.91Z" fill-rule="evenodd"/><text fill="#000000" fill-opacity="0" font-family="Arial,Arial_MSFontService,sans-serif" font-size="36.4131" x="3082.64" y="1290.41">1</text><path d="M3092.16 1319.83 3098.89 1319.83 3098.89 1320.14 3125.41 1320.14 3125.41 1324.14 3095.41 1324.14 3095.41 1323.34 3094.11 1323.34 3079.93 1371.8 3077.37 1371.8 3066.45 1348.33 3062 1350.31 3061.18 1348.33 3069.83 1344.38 3079.14 1364.84Z" fill-rule="evenodd"/><path d="M3110.82 1331.13C3114.09 1331.13 3116.56 1331.84 3118.23 1333.28 3119.9 1334.71 3120.74 1336.79 3120.74 1339.51 3120.74 1340.44 3120.65 1341.3 3120.46 1342.08 3120.28 1342.87 3119.99 1343.64 3119.59 1344.4 3119.2 1345.17 3118.66 1345.99 3118 1346.87 3117.33 1347.75 3116.59 1348.64 3115.78 1349.55 3114.97 1350.45 3113.58 1351.96 3111.59 1354.07 3108.25 1357.6 3105.8 1360.69 3104.23 1363.32L3114.17 1363.32C3115.03 1363.32 3115.73 1363.27 3116.26 1363.16 3116.78 1363.06 3117.21 1362.88 3117.52 1362.64 3117.84 1362.39 3118.09 1362.07 3118.27 1361.67 3118.46 1361.28 3118.69 1360.67 3118.97 1359.84L3121.21 1359.84 3120.76 1367.54 3099.06 1367.54 3099.06 1366.28C3099.82 1364.43 3100.84 1362.54 3102.12 1360.61 3103.41 1358.67 3105.23 1356.4 3107.58 1353.78 3109.62 1351.53 3111.09 1349.82 3111.98 1348.66 3112.97 1347.4 3113.7 1346.3 3114.19 1345.38 3114.67 1344.46 3115.02 1343.59 3115.23 1342.77 3115.44 1341.95 3115.54 1341.13 3115.54 1340.3 3115.54 1338.99 3115.33 1337.82 3114.91 1336.81 3114.49 1335.8 3113.84 1335 3112.97 1334.42 3112.1 1333.84 3111.01 1333.55 3109.69 1333.55 3106.4 1333.55 3104.19 1335.38 3103.05 1339.04L3099.86 1339.04 3099.86 1333.98C3101.98 1332.97 3103.97 1332.25 3105.83 1331.8 3107.68 1331.35 3109.35 1331.13 3110.82 1331.13Z" fill-rule="evenodd"/><text fill="#000000" fill-opacity="0" font-family="Arial,Arial_MSFontService,sans-serif" font-size="36.4131" x="3099.06" y="1362.99">2</text><path d="M3060.41 1309.14 3125.41 1309.14 3125.41 1313.14 3060.41 1313.14Z" fill-rule="evenodd"/><path d="M3061.85 1408.31 3094.33 1408.31 3094.33 1411.81 3061.85 1411.81Z" fill-rule="evenodd"/><text fill="#000000" fill-opacity="0" font-family="Arial,Arial_MSFontService,sans-serif" font-size="3.50684" x="3061.85" y="1411.37">−</text><path d="M3115.06 1389.08 3116.51 1389.08C3116.4 1390.77 3116.35 1393.11 3116.35 1396.1L3116.35 1418.62C3116.35 1419.63 3116.41 1420.4 3116.52 1420.92 3116.63 1421.44 3116.84 1421.86 3117.13 1422.19 3117.42 1422.51 3117.83 1422.77 3118.38 1422.95 3118.92 1423.14 3119.61 1423.28 3120.44 1423.37 3121.26 1423.47 3122.35 1423.54 3123.71 1423.57L3123.71 1425.5 3104.22 1425.5 3104.22 1423.57C3106.17 1423.48 3107.56 1423.37 3108.4 1423.22 3109.23 1423.07 3109.87 1422.84 3110.31 1422.54 3110.75 1422.25 3111.07 1421.82 3111.27 1421.28 3111.48 1420.73 3111.58 1419.85 3111.58 1418.62L3111.58 1397.23C3111.58 1396.53 3111.45 1396.01 3111.21 1395.69 3110.96 1395.36 3110.6 1395.2 3110.13 1395.2 3109.56 1395.2 3108.76 1395.49 3107.73 1396.07 3106.69 1396.65 3105.41 1397.45 3103.88 1398.47L3102.72 1396.44Z" fill-rule="evenodd"/><text fill="#000000" fill-opacity="0" font-family="Arial,Arial_MSFontService,sans-serif" font-size="36.4131" x="3102.72" y="1420.95">1</text><path d="M3095.41 1450.14 3125.41 1450.14 3125.41 1454.14 3095.41 1454.14 3095.41 1453.87 3094.11 1453.87 3079.93 1502.33 3077.37 1502.33 3066.45 1478.87 3062 1480.84 3061.18 1478.87 3069.83 1474.91 3079.14 1495.37 3092.16 1450.36 3095.41 1450.36Z" fill-rule="evenodd"/><path d="M3110.82 1461.66C3114.09 1461.66 3116.56 1462.38 3118.23 1463.81 3119.9 1465.24 3120.74 1467.32 3120.74 1470.05 3120.74 1470.98 3120.65 1471.83 3120.46 1472.62 3120.28 1473.4 3119.99 1474.17 3119.59 1474.94 3119.2 1475.7 3118.66 1476.52 3118 1477.4 3117.33 1478.28 3116.59 1479.17 3115.78 1480.08 3114.97 1480.98 3113.58 1482.49 3111.59 1484.6 3108.25 1488.13 3105.8 1491.22 3104.23 1493.86L3114.17 1493.86C3115.03 1493.86 3115.73 1493.8 3116.26 1493.7 3116.78 1493.59 3117.21 1493.42 3117.52 1493.17 3117.84 1492.92 3118.09 1492.6 3118.27 1492.21 3118.46 1491.81 3118.69 1491.2 3118.97 1490.37L3121.21 1490.37 3120.76 1498.07 3099.06 1498.07 3099.06 1496.81C3099.82 1494.96 3100.84 1493.07 3102.12 1491.14 3103.41 1489.21 3105.23 1486.93 3107.58 1484.31 3109.62 1482.06 3111.09 1480.36 3111.98 1479.2 3112.97 1477.93 3113.7 1476.84 3114.19 1475.91 3114.67 1474.99 3115.02 1474.12 3115.23 1473.3 3115.44 1472.48 3115.54 1471.66 3115.54 1470.84 3115.54 1469.52 3115.33 1468.35 3114.91 1467.34 3114.49 1466.33 3113.84 1465.54 3112.97 1464.96 3112.1 1464.38 3111.01 1464.09 3109.69 1464.09 3106.4 1464.09 3104.19 1465.91 3103.05 1469.57L3099.86 1469.57 3099.86 1464.51C3101.98 1463.51 3103.97 1462.78 3105.83 1462.33 3107.68 1461.89 3109.35 1461.66 3110.82 1461.66Z" fill-rule="evenodd"/><text fill="#000000" fill-opacity="0" font-family="Arial,Arial_MSFontService,sans-serif" font-size="36.4131" x="3099.06" y="1493.52">2</text><path d="M3058.41 1440.14 3128.41 1440.14 3128.41 1444.14 3058.41 1444.14Z" fill-rule="evenodd"/><path d="M252.5 1034C252.5 649.886 563.886 338.5 948 338.5 1332.11 338.5 1643.5 649.886 1643.5 1034 1643.5 1418.11 1332.11 1729.5 948 1729.5 563.886 1729.5 252.5 1418.11 252.5 1034Z" stroke="#747474" stroke-width="6.875" stroke-miterlimit="8" fill="none" fill-rule="evenodd"/><path d="M1613.5 1035C1613.5 1018.71 1626.93 1005.5 1643.5 1005.5 1660.07 1005.5 1673.5 1018.71 1673.5 1035 1673.5 1051.29 1660.07 1064.5 1643.5 1064.5 1626.93 1064.5 1613.5 1051.29 1613.5 1035Z" stroke="#0070C0" stroke-width="6.875" stroke-miterlimit="8" fill="#FFFFFF" fill-rule="evenodd"/><path d="M918.5 339C918.5 322.708 931.708 309.5 948 309.5 964.292 309.5 977.5 322.708 977.5 339 977.5 355.292 964.292 368.5 948 368.5 931.708 368.5 918.5 355.292 918.5 339Z" stroke="#000000" stroke-width="6.875" stroke-miterlimit="8" fill="#FFFFFF" fill-rule="evenodd"/><path d="M223.5 1035C223.5 1018.71 236.708 1005.5 253 1005.5 269.292 1005.5 282.5 1018.71 282.5 1035 282.5 1051.29 269.292 1064.5 253 1064.5 236.708 1064.5 223.5 1051.29 223.5 1035Z" stroke="#000000" stroke-width="6.875" stroke-miterlimit="8" fill="#FFFFFF" fill-rule="evenodd"/><path d="M918.5 1730C918.5 1713.71 931.708 1700.5 948 1700.5 964.292 1700.5 977.5 1713.71 977.5 1730 977.5 1746.29 964.292 1759.5 948 1759.5 931.708 1759.5 918.5 1746.29 918.5 1730Z" stroke="#000000" stroke-width="6.875" stroke-miterlimit="8" fill="#FFFFFF" fill-rule="evenodd"/><path d="M1417 552.5C1417 536.207 1430.43 523 1447 523 1463.57 523 1477 536.207 1477 552.5 1477 568.792 1463.57 582 1447 582 1430.43 582 1417 568.792 1417 552.5Z" fill="#0070C0" fill-rule="evenodd"/><path d="M1417.5 1518C1417.5 1501.71 1430.93 1488.5 1447.5 1488.5 1464.07 1488.5 1477.5 1501.71 1477.5 1518 1477.5 1534.29 1464.07 1547.5 1447.5 1547.5 1430.93 1547.5 1417.5 1534.29 1417.5 1518Z" stroke="#000000" stroke-width="6.875" stroke-miterlimit="8" fill="#FFFFFF" fill-rule="evenodd"/><path d="M418.5 553C418.5 536.708 431.931 523.5 448.5 523.5 465.069 523.5 478.5 536.708 478.5 553 478.5 569.293 465.069 582.5 448.5 582.5 431.931 582.5 418.5 569.293 418.5 553Z" stroke="#000000" stroke-width="6.875" stroke-miterlimit="8" fill="#FFFFFF" fill-rule="evenodd"/><path d="M418.5 1518C418.5 1501.71 431.931 1488.5 448.5 1488.5 465.069 1488.5 478.5 1501.71 478.5 1518 478.5 1534.29 465.069 1547.5 448.5 1547.5 431.931 1547.5 418.5 1534.29 418.5 1518Z" stroke="#000000" stroke-width="6.875" stroke-miterlimit="8" fill="#FFFFFF" fill-rule="evenodd"/><path d="M415.737 968.991C422.962 975.178 428.696 984.407 432.942 996.676 437.187 1008.95 439.309 1022.64 439.309 1037.76 439.309 1052.65 437.187 1066.32 432.942 1078.77 428.696 1091.22 422.962 1100.53 415.737 1106.68L414.498 1104.73C420.738 1098.38 425.546 1089.2 428.921 1077.18 432.296 1065.15 433.983 1052.02 433.983 1037.78 433.983 1023.21 432.287 1010.02 428.894 998.206 425.502 986.393 420.703 977.314 414.498 970.968ZM339.949 968.991 341.188 970.968C334.966 977.314 330.162 986.393 326.779 998.206 323.395 1010.02 321.703 1023.21 321.703 1037.78 321.703 1052.02 323.39 1065.15 326.765 1077.18 330.14 1089.2 334.948 1098.38 341.188 1104.73L339.949 1106.68C332.724 1100.53 326.99 1091.22 322.744 1078.77 318.499 1066.32 316.377 1052.65 316.377 1037.76 316.377 1022.64 318.499 1008.95 322.744 996.676 326.99 984.407 332.724 975.178 339.949 968.991Z" fill-rule="evenodd"/><path d="M346.79 995.258 379.275 995.258 379.275 998.765 346.79 998.765Z" fill-rule="evenodd"/><text fill="#000000" fill-opacity="0" font-family="Arial,Arial_MSFontService,sans-serif" font-size="3.50684" x="346.79" y="998.326">−</text><path d="M399.999 976.036 401.449 976.036C401.344 977.724 401.291 980.062 401.291 983.05L401.291 1005.57C401.291 1006.59 401.348 1007.36 401.462 1007.87 401.577 1008.39 401.779 1008.82 402.069 1009.14 402.359 1009.47 402.776 1009.72 403.321 1009.9 403.866 1010.09 404.552 1010.23 405.378 1010.33 406.204 1010.42 407.294 1010.49 408.647 1010.52L408.647 1012.45 389.162 1012.45 389.162 1010.52C391.113 1010.44 392.506 1010.32 393.341 1010.17 394.176 1010.02 394.813 1009.79 395.253 1009.5 395.692 1009.2 396.013 1008.78 396.215 1008.23 396.417 1007.69 396.519 1006.8 396.519 1005.57L396.519 984.184C396.519 983.481 396.396 982.966 396.149 982.641 395.903 982.316 395.543 982.153 395.068 982.153 394.506 982.153 393.706 982.443 392.669 983.023 391.632 983.604 390.349 984.403 388.819 985.423L387.659 983.393Z" fill-rule="evenodd"/><text fill="#000000" fill-opacity="0" font-family="Arial,Arial_MSFontService,sans-serif" font-size="36.4131" x="387.659" y="1007.9">1</text><path d="M377.864 1055.07C376.651 1055.07 375.636 1055.43 374.819 1056.15 374.001 1056.87 373.342 1057.91 372.841 1059.26 372.34 1060.62 371.984 1062.27 371.773 1064.21 371.562 1066.15 371.457 1068.34 371.457 1070.79 371.457 1076.52 371.988 1080.72 373.052 1083.4 374.115 1086.08 375.763 1087.42 377.996 1087.42 380.123 1087.42 381.7 1086.16 382.729 1083.64 383.757 1081.12 384.271 1077.21 384.271 1071.92 384.271 1067.88 384.007 1064.6 383.48 1062.1 382.953 1059.59 382.219 1057.8 381.278 1056.71 380.338 1055.62 379.2 1055.07 377.864 1055.07ZM377.996 1052.83C381.845 1052.83 384.711 1054.32 386.591 1057.29 388.472 1060.26 389.413 1064.75 389.413 1070.76 389.413 1076.98 388.406 1081.69 386.394 1084.88 384.381 1088.07 381.441 1089.66 377.574 1089.66 373.777 1089.66 370.951 1088.17 369.097 1085.18 367.242 1082.19 366.315 1077.66 366.315 1071.58 366.315 1068.34 366.601 1065.55 367.172 1063.19 367.743 1060.84 368.543 1058.89 369.571 1057.35 370.6 1055.81 371.835 1054.68 373.276 1053.94 374.717 1053.2 376.291 1052.83 377.996 1052.83Z" fill-rule="evenodd"/><text fill="#000000" fill-opacity="0" font-family="Arial,Arial_MSFontService,sans-serif" font-size="36.835" x="366.315" y="1085.06">0</text><path d="M980.465 1531.34C987.689 1537.53 993.424 1546.76 997.669 1559.03 1001.91 1571.3 1004.04 1584.99 1004.04 1600.11 1004.04 1615 1001.91 1628.67 997.669 1641.12 993.424 1653.58 987.689 1662.88 980.465 1669.03L979.225 1667.08C985.466 1660.74 990.273 1651.55 993.648 1639.53 997.023 1627.5 998.711 1614.37 998.711 1600.13 998.711 1585.56 997.014 1572.37 993.622 1560.56 990.229 1548.75 985.43 1539.67 979.225 1533.32ZM904.677 1531.34 905.916 1533.32C899.693 1539.67 894.89 1548.75 891.506 1560.56 888.122 1572.37 886.431 1585.56 886.431 1600.13 886.431 1614.37 888.118 1627.5 891.493 1639.53 894.868 1651.55 899.676 1660.74 905.916 1667.08L904.677 1669.03C897.452 1662.88 891.717 1653.58 887.472 1641.12 883.227 1628.67 881.104 1615 881.104 1600.11 881.104 1584.99 883.227 1571.3 887.472 1559.03 891.717 1546.76 897.452 1537.53 904.677 1531.34Z" fill-rule="evenodd"/><path d="M942.592 1540.63C941.379 1540.63 940.364 1540.99 939.546 1541.71 938.729 1542.43 938.07 1543.47 937.569 1544.82 937.068 1546.18 936.712 1547.82 936.501 1549.77 936.29 1551.71 936.184 1553.9 936.184 1556.34 936.184 1562.07 936.716 1566.28 937.78 1568.96 938.843 1571.64 940.491 1572.98 942.723 1572.98 944.85 1572.98 946.428 1571.72 947.456 1569.2 948.485 1566.68 948.999 1562.77 948.999 1557.48 948.999 1553.43 948.735 1550.16 948.208 1547.66 947.68 1545.15 946.947 1543.35 946.006 1542.26 945.066 1541.17 943.927 1540.63 942.592 1540.63ZM942.723 1538.39C946.573 1538.39 949.438 1539.87 951.319 1542.84 953.2 1545.81 954.14 1550.31 954.14 1556.32 954.14 1562.54 953.134 1567.25 951.121 1570.44 949.109 1573.63 946.169 1575.22 942.302 1575.22 938.505 1575.22 935.679 1573.73 933.824 1570.74 931.97 1567.75 931.043 1563.22 931.043 1557.14 931.043 1553.9 931.328 1551.11 931.9 1548.75 932.471 1546.39 933.271 1544.45 934.299 1542.91 935.327 1541.37 936.562 1540.23 938.004 1539.5 939.445 1538.76 941.018 1538.39 942.723 1538.39Z" fill-rule="evenodd"/><text fill="#000000" fill-opacity="0" font-family="Arial,Arial_MSFontService,sans-serif" font-size="36.835" x="931.043" y="1570.62">0</text><path d="M911.518 1634.4 944.002 1634.4 944.002 1637.91 911.518 1637.91Z" fill-rule="evenodd"/><text fill="#000000" fill-opacity="0" font-family="Arial,Arial_MSFontService,sans-serif" font-size="3.50684" x="911.518" y="1637.47">−</text><path d="M964.727 1615.18 966.177 1615.18C966.071 1616.87 966.019 1619.21 966.019 1622.2L966.019 1644.71C966.019 1645.73 966.076 1646.5 966.19 1647.02 966.304 1647.54 966.506 1647.96 966.796 1648.29 967.086 1648.61 967.504 1648.87 968.049 1649.05 968.594 1649.23 969.279 1649.38 970.106 1649.47 970.932 1649.57 972.022 1649.63 973.375 1649.67L973.375 1651.59 953.89 1651.59 953.89 1649.67C955.841 1649.58 957.234 1649.46 958.069 1649.31 958.904 1649.16 959.541 1648.94 959.981 1648.64 960.42 1648.34 960.741 1647.92 960.943 1647.38 961.145 1646.83 961.246 1645.94 961.246 1644.71L961.246 1623.33C961.246 1622.63 961.123 1622.11 960.877 1621.79 960.631 1621.46 960.271 1621.3 959.796 1621.3 959.233 1621.3 958.434 1621.59 957.397 1622.17 956.359 1622.75 955.076 1623.55 953.547 1624.57L952.387 1622.54Z" fill-rule="evenodd"/><text fill="#000000" fill-opacity="0" font-family="Arial,Arial_MSFontService,sans-serif" font-size="36.4131" x="952.387" y="1647.04">1</text><path d="M1358.52 1014.69 1362.58 1014.69 1362.58 1063.76 1358.52 1063.76Z" fill-rule="evenodd"/><text fill="#000000" fill-opacity="0" font-family="Arial,Arial_MSFontService,sans-serif" font-size="49.0693" x="1358.52" y="1057.63">|</text><path d="M1384.15 1018.25C1382.93 1018.25 1381.92 1018.61 1381.1 1019.33 1380.28 1020.05 1379.62 1021.09 1379.12 1022.45 1378.62 1023.8 1378.27 1025.45 1378.06 1027.39 1377.84 1029.33 1377.74 1031.52 1377.74 1033.97 1377.74 1039.7 1378.27 1043.9 1379.33 1046.58 1380.4 1049.27 1382.05 1050.61 1384.28 1050.61 1386.41 1050.61 1387.98 1049.34 1389.01 1046.82 1390.04 1044.3 1390.55 1040.39 1390.55 1035.1 1390.55 1031.06 1390.29 1027.78 1389.76 1025.28 1389.24 1022.77 1388.5 1020.98 1387.56 1019.89 1386.62 1018.8 1385.48 1018.25 1384.15 1018.25ZM1384.28 1016.01C1388.13 1016.01 1390.99 1017.5 1392.87 1020.47 1394.75 1023.44 1395.7 1027.93 1395.7 1033.94 1395.7 1040.16 1394.69 1044.87 1392.68 1048.06 1390.66 1051.25 1387.72 1052.85 1383.86 1052.85 1380.06 1052.85 1377.23 1051.35 1375.38 1048.36 1373.52 1045.38 1372.6 1040.84 1372.6 1034.76 1372.6 1031.52 1372.88 1028.73 1373.45 1026.37 1374.03 1024.02 1374.83 1022.07 1375.85 1020.53 1376.88 1019 1378.12 1017.86 1379.56 1017.12 1381 1016.38 1382.57 1016.01 1384.28 1016.01Z" fill-rule="evenodd"/><text fill="#000000" fill-opacity="0" font-family="Arial,Arial_MSFontService,sans-serif" font-size="36.835" x="1372.6" y="1048.24">0</text><path d="M1404.6 1012.36 1415.12 1036.04 1415.12 1037.99 1404.6 1061.69 1401.78 1060.69 1410.25 1037.01 1401.78 1013.31Z" fill-rule="evenodd"/><text fill="#000000" fill-opacity="0" font-family="Arial,Arial_MSFontService,sans-serif" font-size="49.333" x="1401.78" y="1055.53">ۧ</text><path d="M1437.25 1040.72 1469.73 1040.72 1469.73 1044.22 1437.25 1044.22ZM1437.25 1029.78 1469.73 1029.78 1469.73 1033.28 1437.25 1033.28Z" fill-rule="evenodd"/><text fill="#000000" fill-opacity="0" font-family="Arial,Arial_MSFontService,sans-serif" font-size="14.4492" x="1437.25" y="1042.42">=</text><path d="M1552.07 968.198C1559.3 974.385 1565.03 983.614 1569.28 995.883 1573.52 1008.15 1575.64 1021.85 1575.64 1036.96 1575.64 1051.85 1573.52 1065.52 1569.28 1077.98 1565.03 1090.43 1559.3 1099.73 1552.07 1105.89L1550.83 1103.94C1557.07 1097.59 1561.88 1088.41 1565.26 1076.38 1568.63 1064.36 1570.32 1051.23 1570.32 1036.99 1570.32 1022.42 1568.62 1009.22 1565.23 997.412 1561.84 985.6 1557.04 976.521 1550.83 970.175ZM1516.39 968.198 1517.63 970.175C1511.4 976.521 1506.6 985.6 1503.22 997.412 1499.83 1009.22 1498.14 1022.42 1498.14 1036.99 1498.14 1051.23 1499.83 1064.36 1503.2 1076.38 1506.58 1088.41 1511.39 1097.59 1517.63 1103.94L1516.39 1105.89C1509.16 1099.73 1503.43 1090.43 1499.18 1077.98 1494.94 1065.52 1492.82 1051.85 1492.82 1036.96 1492.82 1021.85 1494.94 1008.15 1499.18 995.883 1503.43 983.614 1509.16 974.385 1516.39 968.198Z" fill-rule="evenodd"/><path d="M1536.33 975.243 1537.78 975.243C1537.68 976.93 1537.63 979.268 1537.63 982.257L1537.63 1004.77C1537.63 1005.79 1537.68 1006.56 1537.8 1007.08 1537.91 1007.6 1538.11 1008.02 1538.4 1008.35 1538.69 1008.67 1539.11 1008.93 1539.66 1009.11 1540.2 1009.3 1540.89 1009.44 1541.71 1009.53 1542.54 1009.63 1543.63 1009.7 1544.98 1009.73L1544.98 1011.66 1525.5 1011.66 1525.5 1009.73C1527.45 1009.64 1528.84 1009.52 1529.68 1009.38 1530.51 1009.23 1531.15 1009 1531.59 1008.7 1532.03 1008.4 1532.35 1007.98 1532.55 1007.44 1532.75 1006.89 1532.85 1006 1532.85 1004.77L1532.85 983.39C1532.85 982.687 1532.73 982.173 1532.48 981.848 1532.24 981.523 1531.88 981.36 1531.4 981.36 1530.84 981.36 1530.04 981.65 1529 982.23 1527.97 982.81 1526.68 983.61 1525.15 984.63L1523.99 982.599Z" fill-rule="evenodd"/><text fill="#000000" fill-opacity="0" font-family="Arial,Arial_MSFontService,sans-serif" font-size="36.4131" x="1523.99" y="1007.1">1</text><path d="M1534.25 1054.28C1533.04 1054.28 1532.02 1054.64 1531.2 1055.36 1530.39 1056.08 1529.73 1057.12 1529.23 1058.47 1528.73 1059.82 1528.37 1061.47 1528.16 1063.41 1527.95 1065.36 1527.84 1067.55 1527.84 1069.99 1527.84 1075.72 1528.37 1079.93 1529.44 1082.61 1530.5 1085.29 1532.15 1086.63 1534.38 1086.63 1536.51 1086.63 1538.09 1085.37 1539.12 1082.85 1540.14 1080.32 1540.66 1076.42 1540.66 1071.13 1540.66 1067.08 1540.39 1063.81 1539.87 1061.3 1539.34 1058.8 1538.61 1057 1537.66 1055.91 1536.72 1054.82 1535.59 1054.28 1534.25 1054.28ZM1534.38 1052.04C1538.23 1052.04 1541.1 1053.52 1542.98 1056.49 1544.86 1059.46 1545.8 1063.95 1545.8 1069.97 1545.8 1076.19 1544.79 1080.9 1542.78 1084.09 1540.77 1087.28 1537.83 1088.87 1533.96 1088.87 1530.16 1088.87 1527.34 1087.38 1525.48 1084.39 1523.63 1081.4 1522.7 1076.87 1522.7 1070.78 1522.7 1067.55 1522.99 1064.75 1523.56 1062.4 1524.13 1060.04 1524.93 1058.1 1525.96 1056.56 1526.99 1055.02 1528.22 1053.88 1529.66 1053.14 1531.1 1052.41 1532.68 1052.04 1534.38 1052.04Z" fill-rule="evenodd"/><text fill="#000000" fill-opacity="0" font-family="Arial,Arial_MSFontService,sans-serif" font-size="36.835" x="1522.7" y="1084.27">0</text><path d="M758.814 451.551 762.875 451.551 762.875 500.62 758.814 500.62Z" fill-rule="evenodd"/><text fill="#000000" fill-opacity="0" font-family="Arial,Arial_MSFontService,sans-serif" font-size="49.0693" x="758.814" y="494.486">|</text><path d="M786.522 452.869 787.972 452.869C787.867 454.557 787.814 456.894 787.814 459.883L787.814 482.4C787.814 483.42 787.871 484.189 787.986 484.707 788.1 485.226 788.302 485.648 788.592 485.973 788.882 486.298 789.299 486.553 789.844 486.738 790.389 486.922 791.075 487.063 791.901 487.16 792.727 487.256 793.817 487.322 795.171 487.357L795.171 489.282 775.685 489.282 775.685 487.357C777.636 487.269 779.029 487.151 779.864 487.001 780.699 486.852 781.337 486.628 781.776 486.329 782.216 486.03 782.536 485.608 782.738 485.063 782.941 484.518 783.042 483.631 783.042 482.4L783.042 461.017C783.042 460.313 782.919 459.799 782.673 459.474 782.426 459.149 782.066 458.986 781.591 458.986 781.029 458.986 780.229 459.276 779.192 459.856 778.155 460.436 776.872 461.236 775.342 462.256L774.182 460.226Z" fill-rule="evenodd"/><text fill="#000000" fill-opacity="0" font-family="Arial,Arial_MSFontService,sans-serif" font-size="36.4131" x="774.182" y="484.731">1</text><path d="M804.897 449.219 815.417 472.897 815.417 474.848 804.897 498.552 802.076 497.55 810.539 473.872 802.076 450.168Z" fill-rule="evenodd"/><text fill="#000000" fill-opacity="0" font-family="Arial,Arial_MSFontService,sans-serif" font-size="49.333" x="802.076" y="492.385">ۧ</text><path d="M837.538 477.575 870.023 477.575 870.023 481.082 837.538 481.082ZM837.538 466.633 870.023 466.633 870.023 470.14 837.538 470.14Z" fill-rule="evenodd"/><text fill="#000000" fill-opacity="0" font-family="Arial,Arial_MSFontService,sans-serif" font-size="14.4492" x="837.538" y="479.276">=</text><path d="M964.396 405.055C971.62 411.243 977.355 420.471 981.6 432.741 985.845 445.01 987.968 458.703 987.968 473.821 987.968 488.709 985.845 502.381 981.6 514.835 977.355 527.289 971.62 536.592 964.396 542.744L963.156 540.793C969.396 534.448 974.204 525.263 977.579 513.24 980.954 501.216 982.642 488.085 982.642 473.847 982.642 459.275 980.945 446.082 977.553 434.27 974.16 422.457 969.361 413.378 963.156 407.033ZM928.712 405.055 929.951 407.033C923.728 413.378 918.925 422.457 915.541 434.27 912.158 446.082 910.466 459.275 910.466 473.847 910.466 488.085 912.153 501.216 915.528 513.24 918.903 525.263 923.711 534.448 929.951 540.793L928.712 542.744C921.487 536.592 915.752 527.289 911.507 514.835 907.262 502.381 905.139 488.709 905.139 473.821 905.139 458.703 907.262 445.01 911.507 432.741 915.752 420.471 921.487 411.243 928.712 405.055Z" fill-rule="evenodd"/><path d="M946.575 414.342C945.362 414.342 944.346 414.702 943.529 415.423 942.712 416.143 942.053 417.18 941.552 418.534 941.051 419.887 940.695 421.535 940.484 423.478 940.273 425.42 940.167 427.613 940.167 430.056 940.167 435.787 940.699 439.992 941.763 442.673 942.826 445.354 944.474 446.694 946.706 446.694 948.833 446.694 950.411 445.433 951.439 442.91 952.468 440.388 952.982 436.481 952.982 431.19 952.982 427.147 952.718 423.873 952.191 421.368 951.663 418.864 950.93 417.066 949.989 415.976 949.049 414.886 947.91 414.342 946.575 414.342ZM946.706 412.1C950.556 412.1 953.421 413.586 955.302 416.556 957.183 419.527 958.123 424.018 958.123 430.03 958.123 436.253 957.117 440.959 955.104 444.15 953.092 447.34 950.152 448.935 946.284 448.935 942.488 448.935 939.662 447.441 937.807 444.453 935.953 441.465 935.026 436.929 935.026 430.847 935.026 427.613 935.311 424.818 935.883 422.463 936.454 420.107 937.254 418.16 938.282 416.622 939.31 415.084 940.545 413.946 941.987 413.208 943.428 412.469 945.001 412.1 946.706 412.1Z" fill-rule="evenodd"/><text fill="#000000" fill-opacity="0" font-family="Arial,Arial_MSFontService,sans-serif" font-size="36.835" x="935.026" y="444.331">0</text><path d="M948.658 488.894 950.108 488.894C950.002 490.582 949.95 492.919 949.95 495.908L949.95 518.425C949.95 519.445 950.007 520.214 950.121 520.732 950.235 521.251 950.437 521.673 950.727 521.998 951.017 522.323 951.435 522.578 951.98 522.763 952.525 522.947 953.21 523.088 954.036 523.185 954.863 523.281 955.952 523.347 957.306 523.382L957.306 525.307 937.821 525.307 937.821 523.382C939.772 523.294 941.165 523.176 942 523.026 942.835 522.877 943.472 522.653 943.911 522.354 944.351 522.055 944.672 521.633 944.874 521.088 945.076 520.544 945.177 519.656 945.177 518.425L945.177 497.042C945.177 496.338 945.054 495.824 944.808 495.499 944.562 495.174 944.201 495.011 943.727 495.011 943.164 495.011 942.365 495.301 941.327 495.881 940.29 496.461 939.007 497.261 937.478 498.281L936.318 496.251Z" fill-rule="evenodd"/><text fill="#000000" fill-opacity="0" font-family="Arial,Arial_MSFontService,sans-serif" font-size="36.4131" x="936.318" y="520.756">1</text><path d="M1121.9 658.792 1125.96 658.792 1125.96 707.861 1121.9 707.861Z" fill-rule="evenodd"/><text fill="#000000" fill-opacity="0" font-family="Arial,Arial_MSFontService,sans-serif" font-size="49.0693" x="1121.9" y="701.727">|</text><path d="M1150.87 664.144 1154.62 664.144 1154.62 679.332 1168.99 679.332 1168.99 682.838 1154.62 682.838 1154.62 698.026 1150.87 698.026 1150.87 682.838 1136.5 682.838 1136.5 679.332 1150.87 679.332Z" fill-rule="evenodd"/><text fill="#000000" fill-opacity="0" font-family="Arial,Arial_MSFontService,sans-serif" font-size="33.8818" x="1136.5" y="693.791">+</text><path d="M1178.29 656.46 1188.81 680.137 1188.81 682.089 1178.29 705.793 1175.47 704.791 1183.94 681.113 1175.47 657.409Z" fill-rule="evenodd"/><text fill="#000000" fill-opacity="0" font-family="Arial,Arial_MSFontService,sans-serif" font-size="49.333" x="1175.47" y="699.626">ۧ</text><path d="M1210.93 684.816 1243.42 684.816 1243.42 688.323 1210.93 688.323ZM1210.93 673.874 1243.42 673.874 1243.42 677.38 1210.93 677.38Z" fill-rule="evenodd"/><text fill="#000000" fill-opacity="0" font-family="Arial,Arial_MSFontService,sans-serif" font-size="14.4492" x="1210.93" y="686.517">=</text><path d="M1371 560.364C1380.65 572.915 1388.37 589.57 1394.17 610.33 1399.23 628.495 1402.09 647.844 1402.74 668.377L1402.88 676.941 1402.88 676.941 1402.88 677.25 1402.88 684.825 1402.88 685.133 1402.88 685.133 1402.74 693.697C1402.09 714.231 1399.23 733.58 1394.17 751.745 1388.37 772.504 1380.65 789.16 1371 801.71L1368.95 799.997C1378.02 787.165 1384.99 770.439 1389.87 749.82 1394.75 729.201 1397.2 707.544 1397.24 684.851L1397.24 677.223C1397.2 654.53 1394.75 632.874 1389.87 612.255 1384.99 591.635 1378.02 574.91 1368.95 562.078ZM1300.17 560.341 1302.23 562.055C1293.16 574.887 1286.19 591.612 1281.31 612.232 1276.43 632.851 1273.97 654.507 1273.94 677.2L1273.94 684.855C1273.97 707.548 1276.43 729.204 1281.31 749.823 1286.19 770.442 1293.16 787.168 1302.23 800L1300.17 801.714C1290.52 789.163 1282.8 772.508 1277.01 751.748 1271.94 733.583 1269.09 714.234 1268.44 693.701L1268.3 685.11 1268.3 685.11 1268.3 684.828 1268.3 677.227 1268.3 676.944 1268.3 676.944 1268.44 668.354C1269.09 647.821 1271.94 628.472 1277.01 610.307 1282.8 589.547 1290.52 572.892 1300.17 560.341Z" fill-rule="evenodd"/><path d="M1337.68 560.927 1339.13 560.927C1339.03 562.614 1338.97 564.952 1338.97 567.94L1338.97 590.458C1338.97 591.477 1339.03 592.246 1339.15 592.765 1339.26 593.284 1339.46 593.705 1339.75 594.031 1340.04 594.356 1340.46 594.611 1341 594.795 1341.55 594.98 1342.24 595.12 1343.06 595.217 1343.89 595.314 1344.98 595.38 1346.33 595.415L1346.33 597.34 1326.85 597.34 1326.85 595.415C1328.8 595.327 1330.19 595.208 1331.02 595.059 1331.86 594.909 1332.5 594.685 1332.94 594.387 1333.38 594.088 1333.7 593.666 1333.9 593.121 1334.1 592.576 1334.2 591.688 1334.2 590.458L1334.2 569.074C1334.2 568.371 1334.08 567.857 1333.83 567.532 1333.59 567.206 1333.23 567.044 1332.75 567.044 1332.19 567.044 1331.39 567.334 1330.35 567.914 1329.32 568.494 1328.03 569.294 1326.5 570.313L1325.34 568.283Z" fill-rule="evenodd"/><text fill="#000000" fill-opacity="0" font-family="Arial,Arial_MSFontService,sans-serif" font-size="36.4131" x="1325.34" y="592.788">1</text><path d="M1334.86 622.205 1341.59 622.205 1341.59 622.515 1368.25 622.515 1368.25 626.515 1338.25 626.515 1338.25 625.712 1336.81 625.712 1322.63 674.175 1320.07 674.175 1309.15 650.708 1304.7 652.685 1303.88 650.708 1312.53 646.753 1321.84 667.214Z" fill-rule="evenodd"/><path d="M1353.52 633.504C1356.79 633.504 1359.26 634.22 1360.93 635.653 1362.6 637.085 1363.44 639.164 1363.44 641.888 1363.44 642.82 1363.35 643.677 1363.16 644.459 1362.98 645.241 1362.69 646.015 1362.29 646.78 1361.9 647.544 1361.36 648.366 1360.7 649.245 1360.03 650.124 1359.29 651.016 1358.48 651.921 1357.67 652.826 1356.28 654.334 1354.29 656.443 1350.95 659.976 1348.5 663.061 1346.93 665.698L1356.87 665.698C1357.73 665.698 1358.43 665.645 1358.96 665.54 1359.48 665.434 1359.91 665.259 1360.22 665.012 1360.54 664.766 1360.79 664.446 1360.97 664.05 1361.16 663.655 1361.39 663.044 1361.67 662.218L1363.91 662.218 1363.47 669.917 1341.77 669.917 1341.77 668.651C1342.52 666.805 1343.54 664.916 1344.82 662.982 1346.11 661.049 1347.93 658.772 1350.28 656.153 1352.32 653.903 1353.79 652.198 1354.69 651.038 1355.67 649.772 1356.4 648.678 1356.89 647.755 1357.37 646.832 1357.72 645.962 1357.93 645.145 1358.14 644.327 1358.24 643.506 1358.24 642.679 1358.24 641.361 1358.03 640.197 1357.61 639.186 1357.19 638.175 1356.54 637.38 1355.67 636.8 1354.8 636.219 1353.71 635.929 1352.39 635.929 1349.1 635.929 1346.89 637.758 1345.75 641.414L1342.56 641.414 1342.56 636.351C1344.68 635.349 1346.67 634.624 1348.53 634.176 1350.38 633.728 1352.05 633.504 1353.52 633.504Z" fill-rule="evenodd"/><text fill="#000000" fill-opacity="0" font-family="Arial,Arial_MSFontService,sans-serif" font-size="36.4131" x="1341.77" y="665.365">2</text><path d="M1303.25 611.515 1368.25 611.515 1368.25 615.515 1303.25 615.515Z" fill-rule="evenodd"/><path d="M1337.68 691.46 1339.13 691.46C1339.03 693.147 1338.97 695.485 1338.97 698.474L1338.97 720.991C1338.97 722.011 1339.03 722.78 1339.15 723.298 1339.26 723.817 1339.46 724.239 1339.75 724.564 1340.04 724.889 1340.46 725.144 1341 725.329 1341.55 725.513 1342.24 725.654 1343.06 725.75 1343.89 725.847 1344.98 725.913 1346.33 725.948L1346.33 727.873 1326.85 727.873 1326.85 725.948C1328.8 725.86 1330.19 725.742 1331.02 725.592 1331.86 725.443 1332.5 725.219 1332.94 724.92 1333.38 724.621 1333.7 724.199 1333.9 723.654 1334.1 723.109 1334.2 722.222 1334.2 720.991L1334.2 699.607C1334.2 698.904 1334.08 698.39 1333.83 698.065 1333.59 697.74 1333.23 697.577 1332.75 697.577 1332.19 697.577 1331.39 697.867 1330.35 698.447 1329.32 699.027 1328.03 699.827 1326.5 700.847L1325.34 698.816Z" fill-rule="evenodd"/><text fill="#000000" fill-opacity="0" font-family="Arial,Arial_MSFontService,sans-serif" font-size="36.4131" x="1325.34" y="723.321">1</text><path d="M1338.25 752.515 1368.25 752.515 1368.25 756.515 1338.25 756.515 1338.25 756.245 1336.81 756.245 1322.63 804.708 1320.07 804.708 1309.15 781.241 1304.7 783.219 1303.88 781.241 1312.53 777.286 1321.84 797.747 1334.86 752.738 1338.25 752.738Z" fill-rule="evenodd"/><path d="M1353.52 764.037C1356.79 764.037 1359.26 764.753 1360.93 766.186 1362.6 767.619 1363.44 769.697 1363.44 772.422 1363.44 773.353 1363.35 774.21 1363.16 774.993 1362.98 775.775 1362.69 776.548 1362.29 777.313 1361.9 778.078 1361.36 778.899 1360.7 779.778 1360.03 780.657 1359.29 781.549 1358.48 782.454 1357.67 783.36 1356.28 784.867 1354.29 786.976 1350.95 790.51 1348.5 793.595 1346.93 796.231L1356.87 796.231C1357.73 796.231 1358.43 796.179 1358.96 796.073 1359.48 795.968 1359.91 795.792 1360.22 795.546 1360.54 795.3 1360.79 794.979 1360.97 794.583 1361.16 794.188 1361.39 793.577 1361.67 792.751L1363.91 792.751 1363.47 800.45 1341.77 800.45 1341.77 799.184C1342.52 797.339 1343.54 795.449 1344.82 793.516 1346.11 791.582 1347.93 789.306 1350.28 786.686 1352.32 784.436 1353.79 782.731 1354.69 781.571 1355.67 780.306 1356.4 779.211 1356.89 778.288 1357.37 777.366 1357.72 776.495 1357.93 775.678 1358.14 774.861 1358.24 774.039 1358.24 773.213 1358.24 771.894 1358.03 770.73 1357.61 769.719 1357.19 768.708 1356.54 767.913 1355.67 767.333 1354.8 766.753 1353.71 766.463 1352.39 766.463 1349.1 766.463 1346.89 768.291 1345.75 771.947L1342.56 771.947 1342.56 766.885C1344.68 765.883 1346.67 765.158 1348.53 764.709 1350.38 764.261 1352.05 764.037 1353.52 764.037Z" fill-rule="evenodd"/><text fill="#000000" fill-opacity="0" font-family="Arial,Arial_MSFontService,sans-serif" font-size="36.4131" x="1341.77" y="795.898">2</text><path d="M1303.25 742.515 1368.25 742.515 1368.25 746.515 1303.25 746.515Z" fill-rule="evenodd"/><path d="M1122.37 1356.42 1126.43 1356.42 1126.43 1405.48 1122.37 1405.48Z" fill-rule="evenodd"/><text fill="#000000" fill-opacity="0" font-family="Arial,Arial_MSFontService,sans-serif" font-size="49.0693" x="1122.37" y="1399.35">|</text><path d="M1136.98 1376.96 1169.46 1376.96 1169.46 1380.46 1136.98 1380.46Z" fill-rule="evenodd"/><text fill="#000000" fill-opacity="0" font-family="Arial,Arial_MSFontService,sans-serif" font-size="3.50684" x="1136.98" y="1380.02">−</text><path d="M1178.77 1354.08 1189.29 1377.76 1189.29 1379.71 1178.77 1403.42 1175.95 1402.41 1184.41 1378.74 1175.95 1355.03Z" fill-rule="evenodd"/><text fill="#000000" fill-opacity="0" font-family="Arial,Arial_MSFontService,sans-serif" font-size="49.333" x="1175.95" y="1397.25">ۧ</text><path d="M1211.41 1382.44 1243.89 1382.44 1243.89 1385.95 1211.41 1385.95ZM1211.41 1371.5 1243.89 1371.5 1243.89 1375 1211.41 1375Z" fill-rule="evenodd"/><text fill="#000000" fill-opacity="0" font-family="Arial,Arial_MSFontService,sans-serif" font-size="14.4492" x="1211.41" y="1384.14">=</text><path d="M1376.18 1257.99C1385.83 1270.54 1393.55 1287.19 1399.34 1307.95 1404.41 1326.12 1407.26 1345.47 1407.91 1366L1408.05 1374.57 1408.05 1374.57 1408.05 1374.87 1408.05 1382.45 1408.05 1382.76 1408.05 1382.76 1407.91 1391.32C1407.26 1411.85 1404.41 1431.2 1399.34 1449.37 1393.55 1470.13 1385.83 1486.78 1376.18 1499.33L1374.12 1497.62C1383.19 1484.79 1390.16 1468.06 1395.04 1447.44 1399.92 1426.82 1402.38 1405.17 1402.41 1382.48L1402.41 1374.85C1402.38 1352.15 1399.92 1330.5 1395.04 1309.88 1390.16 1289.26 1383.19 1272.53 1374.12 1259.7ZM1300.65 1257.97 1302.71 1259.68C1293.64 1272.51 1286.66 1289.24 1281.78 1309.86 1276.91 1330.47 1274.45 1352.13 1274.41 1374.82L1274.41 1382.48C1274.45 1405.17 1276.91 1426.83 1281.78 1447.45 1286.66 1468.07 1293.64 1484.79 1302.71 1497.62L1300.65 1499.34C1291 1486.79 1283.28 1470.13 1277.49 1449.37 1272.42 1431.21 1269.56 1411.86 1268.91 1391.32L1268.78 1382.73 1268.77 1382.73 1268.77 1382.45 1268.77 1374.85 1268.77 1374.57 1268.78 1374.57 1268.91 1365.98C1269.56 1345.44 1272.42 1326.1 1277.49 1307.93 1283.28 1287.17 1291 1270.52 1300.65 1257.97Z" fill-rule="evenodd"/><path d="M1340.49 1258.55 1341.94 1258.55C1341.84 1260.24 1341.79 1262.58 1341.79 1265.56L1341.79 1288.08C1341.79 1289.1 1341.84 1289.87 1341.96 1290.39 1342.07 1290.91 1342.27 1291.33 1342.56 1291.65 1342.85 1291.98 1343.27 1292.23 1343.82 1292.42 1344.36 1292.6 1345.05 1292.74 1345.87 1292.84 1346.7 1292.94 1347.79 1293 1349.14 1293.04L1349.14 1294.96 1329.66 1294.96 1329.66 1293.04C1331.61 1292.95 1333 1292.83 1333.84 1292.68 1334.67 1292.53 1335.31 1292.31 1335.75 1292.01 1336.19 1291.71 1336.51 1291.29 1336.71 1290.74 1336.91 1290.2 1337.01 1289.31 1337.01 1288.08L1337.01 1266.7C1337.01 1265.99 1336.89 1265.48 1336.65 1265.16 1336.4 1264.83 1336.04 1264.67 1335.56 1264.67 1335 1264.67 1334.2 1264.96 1333.16 1265.54 1332.13 1266.12 1330.84 1266.92 1329.31 1267.94L1328.15 1265.91Z" fill-rule="evenodd"/><text fill="#000000" fill-opacity="0" font-family="Arial,Arial_MSFontService,sans-serif" font-size="36.4131" x="1328.15" y="1290.41">1</text><path d="M1337.67 1319.83 1344.4 1319.83 1344.4 1320.14 1370.93 1320.14 1370.93 1324.14 1340.93 1324.14 1340.93 1323.34 1339.63 1323.34 1325.44 1371.8 1322.88 1371.8 1311.97 1348.33 1307.51 1350.31 1306.69 1348.33 1315.34 1344.38 1324.65 1364.84Z" fill-rule="evenodd"/><path d="M1356.34 1331.13C1359.61 1331.13 1362.08 1331.84 1363.75 1333.28 1365.42 1334.71 1366.25 1336.79 1366.25 1339.51 1366.25 1340.44 1366.16 1341.3 1365.97 1342.08 1365.79 1342.87 1365.5 1343.64 1365.1 1344.4 1364.71 1345.17 1364.18 1345.99 1363.51 1346.87 1362.84 1347.75 1362.1 1348.64 1361.29 1349.55 1360.49 1350.45 1359.09 1351.96 1357.1 1354.07 1353.76 1357.6 1351.31 1360.69 1349.75 1363.32L1359.69 1363.32C1360.55 1363.32 1361.24 1363.27 1361.77 1363.16 1362.3 1363.06 1362.72 1362.88 1363.03 1362.64 1363.35 1362.39 1363.6 1362.07 1363.79 1361.67 1363.97 1361.28 1364.2 1360.67 1364.48 1359.84L1366.73 1359.84 1366.28 1367.54 1344.58 1367.54 1344.58 1366.28C1345.33 1364.43 1346.35 1362.54 1347.64 1360.61 1348.92 1358.67 1350.74 1356.4 1353.09 1353.78 1355.13 1351.53 1356.6 1349.82 1357.5 1348.66 1358.48 1347.4 1359.22 1346.3 1359.7 1345.38 1360.18 1344.46 1360.53 1343.59 1360.74 1342.77 1360.95 1341.95 1361.06 1341.13 1361.06 1340.3 1361.06 1338.99 1360.85 1337.82 1360.42 1336.81 1360 1335.8 1359.36 1335 1358.49 1334.42 1357.62 1333.84 1356.52 1333.55 1355.2 1333.55 1351.92 1333.55 1349.7 1335.38 1348.56 1339.04L1345.37 1339.04 1345.37 1333.98C1347.5 1332.97 1349.49 1332.25 1351.34 1331.8 1353.2 1331.35 1354.86 1331.13 1356.34 1331.13Z" fill-rule="evenodd"/><text fill="#000000" fill-opacity="0" font-family="Arial,Arial_MSFontService,sans-serif" font-size="36.4131" x="1344.58" y="1362.99">2</text><path d="M1305.93 1309.14 1370.93 1309.14 1370.93 1313.14 1305.93 1313.14Z" fill-rule="evenodd"/><path d="M1307.36 1408.31 1339.85 1408.31 1339.85 1411.81 1307.36 1411.81Z" fill-rule="evenodd"/><text fill="#000000" fill-opacity="0" font-family="Arial,Arial_MSFontService,sans-serif" font-size="3.50684" x="1307.36" y="1411.37">−</text><path d="M1360.57 1389.08 1362.02 1389.08C1361.91 1390.77 1361.86 1393.11 1361.86 1396.1L1361.86 1418.62C1361.86 1419.63 1361.92 1420.4 1362.03 1420.92 1362.15 1421.44 1362.35 1421.86 1362.64 1422.19 1362.93 1422.51 1363.35 1422.77 1363.89 1422.95 1364.44 1423.14 1365.12 1423.28 1365.95 1423.37 1366.77 1423.47 1367.86 1423.54 1369.22 1423.57L1369.22 1425.5 1349.73 1425.5 1349.73 1423.57C1351.68 1423.48 1353.08 1423.37 1353.91 1423.22 1354.75 1423.07 1355.38 1422.84 1355.82 1422.54 1356.26 1422.25 1356.58 1421.82 1356.79 1421.28 1356.99 1420.73 1357.09 1419.85 1357.09 1418.62L1357.09 1397.23C1357.09 1396.53 1356.97 1396.01 1356.72 1395.69 1356.47 1395.36 1356.11 1395.2 1355.64 1395.2 1355.08 1395.2 1354.28 1395.49 1353.24 1396.07 1352.2 1396.65 1350.92 1397.45 1349.39 1398.47L1348.23 1396.44Z" fill-rule="evenodd"/><text fill="#000000" fill-opacity="0" font-family="Arial,Arial_MSFontService,sans-serif" font-size="36.4131" x="1348.23" y="1420.95">1</text><path d="M1340.93 1450.14 1370.93 1450.14 1370.93 1454.14 1340.93 1454.14 1340.93 1453.87 1339.63 1453.87 1325.44 1502.33 1322.88 1502.33 1311.97 1478.87 1307.51 1480.84 1306.69 1478.87 1315.34 1474.91 1324.65 1495.37 1337.67 1450.36 1340.93 1450.36Z" fill-rule="evenodd"/><path d="M1356.34 1461.66C1359.61 1461.66 1362.08 1462.38 1363.75 1463.81 1365.42 1465.24 1366.25 1467.32 1366.25 1470.05 1366.25 1470.98 1366.16 1471.83 1365.97 1472.62 1365.79 1473.4 1365.5 1474.17 1365.1 1474.94 1364.71 1475.7 1364.18 1476.52 1363.51 1477.4 1362.84 1478.28 1362.1 1479.17 1361.29 1480.08 1360.49 1480.98 1359.09 1482.49 1357.1 1484.6 1353.76 1488.13 1351.31 1491.22 1349.75 1493.86L1359.69 1493.86C1360.55 1493.86 1361.24 1493.8 1361.77 1493.7 1362.3 1493.59 1362.72 1493.42 1363.03 1493.17 1363.35 1492.92 1363.6 1492.6 1363.79 1492.21 1363.97 1491.81 1364.2 1491.2 1364.48 1490.37L1366.73 1490.37 1366.28 1498.07 1344.58 1498.07 1344.58 1496.81C1345.33 1494.96 1346.35 1493.07 1347.64 1491.14 1348.92 1489.21 1350.74 1486.93 1353.09 1484.31 1355.13 1482.06 1356.6 1480.36 1357.5 1479.2 1358.48 1477.93 1359.22 1476.84 1359.7 1475.91 1360.18 1474.99 1360.53 1474.12 1360.74 1473.3 1360.95 1472.48 1361.06 1471.66 1361.06 1470.84 1361.06 1469.52 1360.85 1468.35 1360.42 1467.34 1360 1466.33 1359.36 1465.54 1358.49 1464.96 1357.62 1464.38 1356.52 1464.09 1355.2 1464.09 1351.92 1464.09 1349.7 1465.91 1348.56 1469.57L1345.37 1469.57 1345.37 1464.51C1347.5 1463.51 1349.49 1462.78 1351.34 1462.33 1353.2 1461.89 1354.86 1461.66 1356.34 1461.66Z" fill-rule="evenodd"/><text fill="#000000" fill-opacity="0" font-family="Arial,Arial_MSFontService,sans-serif" font-size="36.4131" x="1344.58" y="1493.52">2</text><path d="M1303.93 1440.14 1373.93 1440.14 1373.93 1444.14 1303.93 1444.14Z" fill-rule="evenodd"/><path d="M589.459 591.404C599.109 603.955 606.83 620.61 612.622 641.37 617.69 659.535 620.548 678.884 621.195 699.417L621.332 707.981 621.337 707.981 621.337 708.29 621.337 715.865 621.337 716.173 621.332 716.173 621.195 724.737C620.548 745.271 617.69 764.62 612.622 782.785 606.83 803.544 599.109 820.2 589.459 832.75L587.402 831.037C596.472 818.205 603.447 801.479 608.324 780.86 613.202 760.241 615.659 738.584 615.694 715.891L615.694 708.263C615.659 685.57 613.202 663.914 608.324 643.295 603.447 622.675 596.472 605.95 587.402 593.118ZM513.932 591.381 515.989 593.095C506.919 605.927 499.945 622.652 495.067 643.272 490.189 663.891 487.732 685.547 487.697 708.24L487.697 715.895C487.732 738.588 490.189 760.244 495.067 780.863 499.945 801.482 506.919 818.208 515.989 831.04L513.932 832.754C504.282 820.203 496.561 803.548 490.769 782.788 485.701 764.623 482.843 745.274 482.197 724.741L482.059 716.151 482.055 716.151 482.055 715.868 482.055 708.267 482.055 707.984 482.059 707.984 482.197 699.394C482.843 678.861 485.701 659.512 490.769 641.347 496.561 620.587 504.282 603.932 513.932 591.381Z" fill-rule="evenodd"/><path d="M520.644 611.188 553.128 611.188 553.128 614.695 520.644 614.695Z" fill-rule="evenodd"/><text fill="#000000" fill-opacity="0" font-family="Arial,Arial_MSFontService,sans-serif" font-size="3.50684" x="520.644" y="614.257">−</text><path d="M573.853 591.967 575.303 591.967C575.197 593.654 575.145 595.992 575.145 598.98L575.145 621.498C575.145 622.517 575.202 623.286 575.316 623.805 575.43 624.323 575.632 624.745 575.922 625.071 576.212 625.396 576.63 625.651 577.175 625.835 577.72 626.02 578.405 626.16 579.232 626.257 580.058 626.354 581.148 626.42 582.501 626.455L582.501 628.38 563.016 628.38 563.016 626.455C564.967 626.367 566.36 626.248 567.195 626.099 568.03 625.949 568.667 625.725 569.107 625.427 569.546 625.128 569.867 624.706 570.069 624.161 570.271 623.616 570.372 622.728 570.372 621.498L570.372 600.114C570.372 599.411 570.249 598.897 570.003 598.572 569.757 598.246 569.397 598.084 568.922 598.084 568.359 598.084 567.56 598.374 566.523 598.954 565.485 599.534 564.202 600.334 562.673 601.353L561.513 599.323Z" fill-rule="evenodd"/><text fill="#000000" fill-opacity="0" font-family="Arial,Arial_MSFontService,sans-serif" font-size="36.4131" x="561.513" y="623.828">1</text><path d="M550.957 653.245 557.681 653.245 557.681 653.555 584.832 653.555 584.832 657.555 554.832 657.555 554.832 656.752 552.908 656.752 538.723 705.215 536.165 705.215 525.249 681.748 520.793 683.725 519.976 681.748 528.624 677.793 537.932 698.254Z" fill-rule="evenodd"/><path d="M569.62 664.544C572.89 664.544 575.359 665.26 577.029 666.693 578.699 668.125 579.534 670.204 579.534 672.928 579.534 673.86 579.442 674.717 579.257 675.499 579.073 676.281 578.783 677.055 578.387 677.82 577.992 678.584 577.46 679.406 576.792 680.285 576.124 681.164 575.386 682.056 574.577 682.961 573.769 683.866 572.371 685.374 570.385 687.483 567.045 691.016 564.593 694.101 563.028 696.738L572.969 696.738C573.83 696.738 574.524 696.685 575.052 696.58 575.579 696.474 576.001 696.299 576.317 696.052 576.634 695.806 576.884 695.486 577.069 695.09 577.253 694.695 577.486 694.084 577.768 693.258L580.009 693.258 579.561 700.957 557.86 700.957 557.86 699.691C558.616 697.845 559.636 695.956 560.919 694.022 562.202 692.089 564.021 689.812 566.377 687.193 568.416 684.943 569.884 683.238 570.78 682.078 571.765 680.812 572.499 679.718 572.982 678.795 573.465 677.872 573.812 677.002 574.023 676.185 574.234 675.367 574.34 674.546 574.34 673.719 574.34 672.401 574.129 671.237 573.707 670.226 573.285 669.215 572.639 668.42 571.769 667.84 570.899 667.259 569.805 666.969 568.486 666.969 565.199 666.969 562.984 668.798 561.842 672.454L558.651 672.454 558.651 667.391C560.778 666.389 562.769 665.664 564.624 665.216 566.478 664.768 568.144 664.544 569.62 664.544Z" fill-rule="evenodd"/><text fill="#000000" fill-opacity="0" font-family="Arial,Arial_MSFontService,sans-serif" font-size="36.4131" x="557.86" y="696.405">2</text><path d="M516.832 642.555 540.165 642.555 563.499 642.555 586.832 642.555 586.832 646.555 563.499 646.555 540.165 646.555 516.832 646.555Z" fill-rule="evenodd"/><path d="M553.778 722.5 555.228 722.5C555.122 724.187 555.07 726.525 555.07 729.514L555.07 752.031C555.07 753.051 555.127 753.82 555.241 754.338 555.355 754.857 555.557 755.279 555.847 755.604 556.137 755.929 556.555 756.184 557.1 756.369 557.645 756.553 558.33 756.694 559.156 756.79 559.983 756.887 561.073 756.953 562.426 756.988L562.426 758.913 542.941 758.913 542.941 756.988C544.892 756.9 546.285 756.782 547.12 756.632 547.955 756.483 548.592 756.259 549.031 755.96 549.471 755.661 549.792 755.239 549.994 754.694 550.196 754.149 550.297 753.262 550.297 752.031L550.297 730.647C550.297 729.944 550.174 729.43 549.928 729.105 549.682 728.78 549.322 728.617 548.847 728.617 548.284 728.617 547.485 728.907 546.448 729.487 545.41 730.067 544.127 730.867 542.598 731.887L541.438 729.856Z" fill-rule="evenodd"/><text fill="#000000" fill-opacity="0" font-family="Arial,Arial_MSFontService,sans-serif" font-size="36.4131" x="541.438" y="754.361">1</text><path d="M554.832 783.555 584.832 783.555 584.832 787.555 554.832 787.555 554.832 787.285 552.908 787.285 538.723 835.748 536.165 835.748 525.249 812.281 520.793 814.259 519.976 812.281 528.624 808.326 537.932 828.787 550.957 783.778 554.832 783.778Z" fill-rule="evenodd"/><path d="M569.62 795.077C572.89 795.077 575.359 795.793 577.029 797.226 578.699 798.659 579.534 800.737 579.534 803.462 579.534 804.393 579.442 805.25 579.257 806.033 579.073 806.815 578.783 807.588 578.387 808.353 577.992 809.117 577.46 809.939 576.792 810.818 576.124 811.697 575.386 812.589 574.577 813.494 573.769 814.4 572.371 815.907 570.385 818.016 567.045 821.55 564.593 824.635 563.028 827.271L572.969 827.271C573.83 827.271 574.524 827.219 575.052 827.113 575.579 827.008 576.001 826.832 576.317 826.586 576.634 826.34 576.884 826.019 577.069 825.623 577.253 825.228 577.486 824.617 577.768 823.791L580.009 823.791 579.561 831.49 557.86 831.49 557.86 830.224C558.616 828.379 559.636 826.489 560.919 824.555 562.202 822.622 564.021 820.346 566.377 817.726 568.416 815.476 569.884 813.771 570.78 812.611 571.765 811.346 572.499 810.251 572.982 809.328 573.465 808.406 573.812 807.535 574.023 806.718 574.234 805.901 574.34 805.079 574.34 804.253 574.34 802.934 574.129 801.77 573.707 800.759 573.285 799.748 572.639 798.953 571.769 798.373 570.899 797.793 569.805 797.503 568.486 797.503 565.199 797.503 562.984 799.331 561.842 802.987L558.651 802.987 558.651 797.925C560.778 796.923 562.769 796.198 564.624 795.749 566.478 795.301 568.144 795.077 569.62 795.077Z" fill-rule="evenodd"/><text fill="#000000" fill-opacity="0" font-family="Arial,Arial_MSFontService,sans-serif" font-size="36.4131" x="557.86" y="826.938">2</text><path d="M518.832 773.555 551.332 773.555 583.832 773.555 583.832 777.555 551.332 777.555 518.832 777.555Z" fill-rule="evenodd"/><path d="M587.329 1257.99C596.98 1270.54 604.701 1287.19 610.493 1307.95 615.561 1326.12 618.418 1345.47 619.065 1366L619.202 1374.57 619.207 1374.57 619.207 1374.87 619.207 1382.45 619.207 1382.76 619.202 1382.76 619.065 1391.32C618.418 1411.85 615.561 1431.2 610.493 1449.37 604.701 1470.13 596.98 1486.78 587.329 1499.33L585.273 1497.62C594.343 1484.79 601.317 1468.06 606.195 1447.44 611.073 1426.82 613.53 1405.17 613.565 1382.48L613.565 1374.85C613.53 1352.15 611.073 1330.5 606.195 1309.88 601.317 1289.26 594.343 1272.53 585.273 1259.7ZM511.803 1257.97 513.86 1259.68C504.79 1272.51 497.815 1289.24 492.938 1309.86 488.06 1330.47 485.603 1352.13 485.568 1374.82L485.568 1382.48C485.603 1405.17 488.06 1426.83 492.938 1447.45 497.815 1468.07 504.79 1484.79 513.86 1497.62L511.803 1499.34C502.153 1486.79 494.432 1470.13 488.64 1449.37 483.572 1431.21 480.714 1411.86 480.067 1391.32L479.93 1382.73 479.925 1382.73 479.925 1382.45 479.925 1374.85 479.925 1374.57 479.93 1374.57 480.067 1365.98C480.714 1345.44 483.572 1326.1 488.64 1307.93 494.432 1287.17 502.153 1270.52 511.803 1257.97Z" fill-rule="evenodd"/><path d="M518.515 1277.77 550.999 1277.77 550.999 1281.28 518.515 1281.28Z" fill-rule="evenodd"/><text fill="#000000" fill-opacity="0" font-family="Arial,Arial_MSFontService,sans-serif" font-size="3.50684" x="518.515" y="1280.84">−</text><path d="M571.723 1258.55 573.174 1258.55C573.068 1260.24 573.015 1262.58 573.015 1265.56L573.015 1288.08C573.015 1289.1 573.072 1289.87 573.187 1290.39 573.301 1290.91 573.503 1291.33 573.793 1291.65 574.083 1291.98 574.501 1292.23 575.046 1292.42 575.591 1292.6 576.276 1292.74 577.102 1292.84 577.928 1292.94 579.018 1293 580.372 1293.04L580.372 1294.96 560.886 1294.96 560.886 1293.04C562.838 1292.95 564.231 1292.83 565.066 1292.68 565.901 1292.53 566.538 1292.31 566.977 1292.01 567.417 1291.71 567.737 1291.29 567.94 1290.74 568.142 1290.2 568.243 1289.31 568.243 1288.08L568.243 1266.7C568.243 1265.99 568.12 1265.48 567.874 1265.16 567.628 1264.83 567.267 1264.67 566.793 1264.67 566.23 1264.67 565.43 1264.96 564.393 1265.54 563.356 1266.12 562.073 1266.92 560.544 1267.94L559.383 1265.91Z" fill-rule="evenodd"/><text fill="#000000" fill-opacity="0" font-family="Arial,Arial_MSFontService,sans-serif" font-size="36.4131" x="559.383" y="1290.41">1</text><path d="M548.828 1319.83 555.551 1319.83 555.551 1320.14 582.703 1320.14 582.703 1324.14 552.703 1324.14 552.703 1323.34 550.779 1323.34 536.593 1371.8 534.036 1371.8 523.12 1348.33 518.664 1350.31 517.846 1348.33 526.495 1344.38 535.802 1364.84Z" fill-rule="evenodd"/><path d="M567.491 1331.13C570.76 1331.13 573.23 1331.84 574.9 1333.28 576.57 1334.71 577.405 1336.79 577.405 1339.51 577.405 1340.44 577.313 1341.3 577.128 1342.08 576.943 1342.87 576.653 1343.64 576.258 1344.4 575.862 1345.17 575.331 1345.99 574.663 1346.87 573.995 1347.75 573.256 1348.64 572.448 1349.55 571.639 1350.45 570.242 1351.96 568.255 1354.07 564.916 1357.6 562.464 1360.69 560.899 1363.32L570.839 1363.32C571.701 1363.32 572.395 1363.27 572.922 1363.16 573.45 1363.06 573.872 1362.88 574.188 1362.64 574.505 1362.39 574.755 1362.07 574.94 1361.67 575.124 1361.28 575.357 1360.67 575.638 1359.84L577.88 1359.84 577.431 1367.54 555.731 1367.54 555.731 1366.28C556.487 1364.43 557.506 1362.54 558.79 1360.61 560.073 1358.67 561.892 1356.4 564.248 1353.78 566.287 1351.53 567.755 1349.82 568.651 1348.66 569.635 1347.4 570.369 1346.3 570.853 1345.38 571.336 1344.46 571.683 1343.59 571.894 1342.77 572.105 1341.95 572.211 1341.13 572.211 1340.3 572.211 1338.99 572 1337.82 571.578 1336.81 571.156 1335.8 570.51 1335 569.64 1334.42 568.77 1333.84 567.675 1333.55 566.357 1333.55 563.07 1333.55 560.855 1335.38 559.713 1339.04L556.522 1339.04 556.522 1333.98C558.649 1332.97 560.64 1332.25 562.494 1331.8 564.349 1331.35 566.014 1331.13 567.491 1331.13Z" fill-rule="evenodd"/><text fill="#000000" fill-opacity="0" font-family="Arial,Arial_MSFontService,sans-serif" font-size="36.4131" x="555.731" y="1362.99">2</text><path d="M514.703 1309.14 538.036 1309.14 561.369 1309.14 584.703 1309.14 584.703 1313.14 561.369 1313.14 538.036 1313.14 514.703 1313.14Z" fill-rule="evenodd"/><path d="M518.515 1408.31 550.999 1408.31 550.999 1411.81 518.515 1411.81Z" fill-rule="evenodd"/><text fill="#000000" fill-opacity="0" font-family="Arial,Arial_MSFontService,sans-serif" font-size="3.50684" x="518.515" y="1411.37">−</text><path d="M571.723 1389.08 573.174 1389.08C573.068 1390.77 573.015 1393.11 573.015 1396.1L573.015 1418.62C573.015 1419.63 573.072 1420.4 573.187 1420.92 573.301 1421.44 573.503 1421.86 573.793 1422.19 574.083 1422.51 574.501 1422.77 575.046 1422.95 575.591 1423.14 576.276 1423.28 577.102 1423.37 577.928 1423.47 579.018 1423.54 580.372 1423.57L580.372 1425.5 560.886 1425.5 560.886 1423.57C562.838 1423.48 564.231 1423.37 565.066 1423.22 565.901 1423.07 566.538 1422.84 566.977 1422.54 567.417 1422.25 567.737 1421.82 567.94 1421.28 568.142 1420.73 568.243 1419.85 568.243 1418.62L568.243 1397.23C568.243 1396.53 568.12 1396.01 567.874 1395.69 567.628 1395.36 567.267 1395.2 566.793 1395.2 566.23 1395.2 565.43 1395.49 564.393 1396.07 563.356 1396.65 562.073 1397.45 560.544 1398.47L559.383 1396.44Z" fill-rule="evenodd"/><text fill="#000000" fill-opacity="0" font-family="Arial,Arial_MSFontService,sans-serif" font-size="36.4131" x="559.383" y="1420.95">1</text><path d="M552.703 1450.14 582.703 1450.14 582.703 1454.14 552.703 1454.14 552.703 1453.87 550.779 1453.87 536.593 1502.33 534.036 1502.33 523.12 1478.87 518.664 1480.84 517.846 1478.87 526.495 1474.91 535.802 1495.37 548.828 1450.36 552.703 1450.36Z" fill-rule="evenodd"/><path d="M567.491 1461.66C570.76 1461.66 573.23 1462.38 574.9 1463.81 576.57 1465.24 577.405 1467.32 577.405 1470.05 577.405 1470.98 577.313 1471.83 577.128 1472.62 576.943 1473.4 576.653 1474.17 576.258 1474.94 575.862 1475.7 575.331 1476.52 574.663 1477.4 573.995 1478.28 573.256 1479.17 572.448 1480.08 571.639 1480.98 570.242 1482.49 568.255 1484.6 564.916 1488.13 562.464 1491.22 560.899 1493.86L570.839 1493.86C571.701 1493.86 572.395 1493.8 572.922 1493.7 573.45 1493.59 573.872 1493.42 574.188 1493.17 574.505 1492.92 574.755 1492.6 574.94 1492.21 575.124 1491.81 575.357 1491.2 575.638 1490.37L577.88 1490.37 577.431 1498.07 555.731 1498.07 555.731 1496.81C556.487 1494.96 557.506 1493.07 558.79 1491.14 560.073 1489.21 561.892 1486.93 564.248 1484.31 566.287 1482.06 567.755 1480.36 568.651 1479.2 569.635 1477.93 570.369 1476.84 570.853 1475.91 571.336 1474.99 571.683 1474.12 571.894 1473.3 572.105 1472.48 572.211 1471.66 572.211 1470.84 572.211 1469.52 572 1468.35 571.578 1467.34 571.156 1466.33 570.51 1465.54 569.64 1464.96 568.77 1464.38 567.675 1464.09 566.357 1464.09 563.07 1464.09 560.855 1465.91 559.713 1469.57L556.522 1469.57 556.522 1464.51C558.649 1463.51 560.64 1462.78 562.494 1462.33 564.349 1461.89 566.014 1461.66 567.491 1461.66Z" fill-rule="evenodd"/><text fill="#000000" fill-opacity="0" font-family="Arial,Arial_MSFontService,sans-serif" font-size="36.4131" x="555.731" y="1493.52">2</text><path d="M514.703 1440.14 538.036 1440.14 561.369 1440.14 584.703 1440.14 584.703 1444.14 561.369 1444.14 538.036 1444.14 514.703 1444.14Z" fill-rule="evenodd"/><path d="M2007.5 1034C2007.5 649.886 2318.66 338.5 2702.5 338.5 3086.34 338.5 3397.5 649.886 3397.5 1034 3397.5 1418.11 3086.34 1729.5 2702.5 1729.5 2318.66 1729.5 2007.5 1418.11 2007.5 1034Z" stroke="#747474" stroke-width="6.875" stroke-miterlimit="8" fill="none" fill-rule="evenodd"/><path d="M3368.5 1035C3368.5 1018.71 3381.71 1005.5 3398 1005.5 3414.29 1005.5 3427.5 1018.71 3427.5 1035 3427.5 1051.29 3414.29 1064.5 3398 1064.5 3381.71 1064.5 3368.5 1051.29 3368.5 1035Z" stroke="#0070C0" stroke-width="6.875" stroke-miterlimit="8" fill="#FFFFFF" fill-rule="evenodd"/><path d="M2672.5 339C2672.5 322.708 2685.93 309.5 2702.5 309.5 2719.07 309.5 2732.5 322.708 2732.5 339 2732.5 355.292 2719.07 368.5 2702.5 368.5 2685.93 368.5 2672.5 355.292 2672.5 339Z" stroke="#000000" stroke-width="6.875" stroke-miterlimit="8" fill="#FFFFFF" fill-rule="evenodd"/><path d="M1977.5 1035C1977.5 1018.71 1990.93 1005.5 2007.5 1005.5 2024.07 1005.5 2037.5 1018.71 2037.5 1035 2037.5 1051.29 2024.07 1064.5 2007.5 1064.5 1990.93 1064.5 1977.5 1051.29 1977.5 1035Z" stroke="#000000" stroke-width="6.875" stroke-miterlimit="8" fill="#FFFFFF" fill-rule="evenodd"/><path d="M2672.5 1730C2672.5 1713.71 2685.93 1700.5 2702.5 1700.5 2719.07 1700.5 2732.5 1713.71 2732.5 1730 2732.5 1746.29 2719.07 1759.5 2702.5 1759.5 2685.93 1759.5 2672.5 1746.29 2672.5 1730Z" stroke="#000000" stroke-width="6.875" stroke-miterlimit="8" fill="#FFFFFF" fill-rule="evenodd"/><path d="M3172 552.5C3172 536.207 3185.21 523 3201.5 523 3217.79 523 3231 536.207 3231 552.5 3231 568.792 3217.79 582 3201.5 582 3185.21 582 3172 568.792 3172 552.5Z" fill="#0070C0" fill-rule="evenodd"/><path d="M3172.5 1518C3172.5 1501.71 3185.71 1488.5 3202 1488.5 3218.29 1488.5 3231.5 1501.71 3231.5 1518 3231.5 1534.29 3218.29 1547.5 3202 1547.5 3185.71 1547.5 3172.5 1534.29 3172.5 1518Z" stroke="#000000" stroke-width="6.875" stroke-miterlimit="8" fill="#FFFFFF" fill-rule="evenodd"/><path d="M2173.5 553C2173.5 536.708 2186.71 523.5 2203 523.5 2219.29 523.5 2232.5 536.708 2232.5 553 2232.5 569.293 2219.29 582.5 2203 582.5 2186.71 582.5 2173.5 569.293 2173.5 553Z" stroke="#000000" stroke-width="6.875" stroke-miterlimit="8" fill="#FFFFFF" fill-rule="evenodd"/><path d="M2173.5 1518C2173.5 1501.71 2186.71 1488.5 2203 1488.5 2219.29 1488.5 2232.5 1501.71 2232.5 1518 2232.5 1534.29 2219.29 1547.5 2203 1547.5 2186.71 1547.5 2173.5 1534.29 2173.5 1518Z" stroke="#000000" stroke-width="6.875" stroke-miterlimit="8" fill="#FFFFFF" fill-rule="evenodd"/><path d="M2170.22 968.991C2177.45 975.178 2183.18 984.407 2187.43 996.676 2191.67 1008.95 2193.8 1022.64 2193.8 1037.76 2193.8 1052.65 2191.67 1066.32 2187.43 1078.77 2183.18 1091.22 2177.45 1100.53 2170.22 1106.68L2168.98 1104.73C2175.22 1098.38 2180.03 1089.2 2183.41 1077.18 2186.78 1065.15 2188.47 1052.02 2188.47 1037.78 2188.47 1023.21 2186.77 1010.02 2183.38 998.206 2179.99 986.393 2175.19 977.314 2168.98 970.968ZM2094.44 968.991 2095.68 970.968C2089.45 977.314 2084.65 986.393 2081.27 998.206 2077.88 1010.02 2076.19 1023.21 2076.19 1037.78 2076.19 1052.02 2077.88 1065.15 2081.25 1077.18 2084.63 1089.2 2089.44 1098.38 2095.68 1104.73L2094.44 1106.68C2087.21 1100.53 2081.48 1091.22 2077.23 1078.77 2072.99 1066.32 2070.86 1052.65 2070.86 1037.76 2070.86 1022.64 2072.99 1008.95 2077.23 996.676 2081.48 984.407 2087.21 975.178 2094.44 968.991Z" fill-rule="evenodd"/><path d="M2101.28 995.258 2133.76 995.258 2133.76 998.765 2101.28 998.765Z" fill-rule="evenodd"/><text fill="#000000" fill-opacity="0" font-family="Arial,Arial_MSFontService,sans-serif" font-size="3.50684" x="2101.28" y="998.326">−</text><path d="M2154.49 976.036 2155.94 976.036C2155.83 977.724 2155.78 980.062 2155.78 983.05L2155.78 1005.57C2155.78 1006.59 2155.83 1007.36 2155.95 1007.87 2156.06 1008.39 2156.27 1008.82 2156.56 1009.14 2156.85 1009.47 2157.26 1009.72 2157.81 1009.9 2158.35 1010.09 2159.04 1010.23 2159.86 1010.33 2160.69 1010.42 2161.78 1010.49 2163.13 1010.52L2163.13 1012.45 2143.65 1012.45 2143.65 1010.52C2145.6 1010.44 2146.99 1010.32 2147.83 1010.17 2148.66 1010.02 2149.3 1009.79 2149.74 1009.5 2150.18 1009.2 2150.5 1008.78 2150.7 1008.23 2150.9 1007.69 2151.01 1006.8 2151.01 1005.57L2151.01 984.184C2151.01 983.481 2150.88 982.966 2150.64 982.641 2150.39 982.316 2150.03 982.153 2149.56 982.153 2148.99 982.153 2148.19 982.443 2147.16 983.023 2146.12 983.604 2144.84 984.403 2143.31 985.423L2142.15 983.393Z" fill-rule="evenodd"/><text fill="#000000" fill-opacity="0" font-family="Arial,Arial_MSFontService,sans-serif" font-size="36.4131" x="2142.15" y="1007.9">1</text><path d="M2132.35 1055.07C2131.14 1055.07 2130.12 1055.43 2129.31 1056.15 2128.49 1056.87 2127.83 1057.91 2127.33 1059.26 2126.83 1060.62 2126.47 1062.27 2126.26 1064.21 2126.05 1066.15 2125.94 1068.34 2125.94 1070.79 2125.94 1076.52 2126.48 1080.72 2127.54 1083.4 2128.6 1086.08 2130.25 1087.42 2132.48 1087.42 2134.61 1087.42 2136.19 1086.16 2137.22 1083.64 2138.24 1081.12 2138.76 1077.21 2138.76 1071.92 2138.76 1067.88 2138.49 1064.6 2137.97 1062.1 2137.44 1059.59 2136.71 1057.8 2135.77 1056.71 2134.82 1055.62 2133.69 1055.07 2132.35 1055.07ZM2132.48 1052.83C2136.33 1052.83 2139.2 1054.32 2141.08 1057.29 2142.96 1060.26 2143.9 1064.75 2143.9 1070.76 2143.9 1076.98 2142.89 1081.69 2140.88 1084.88 2138.87 1088.07 2135.93 1089.66 2132.06 1089.66 2128.26 1089.66 2125.44 1088.17 2123.58 1085.18 2121.73 1082.19 2120.8 1077.66 2120.8 1071.58 2120.8 1068.34 2121.09 1065.55 2121.66 1063.19 2122.23 1060.84 2123.03 1058.89 2124.06 1057.35 2125.09 1055.81 2126.32 1054.68 2127.76 1053.94 2129.2 1053.2 2130.78 1052.83 2132.48 1052.83Z" fill-rule="evenodd"/><text fill="#000000" fill-opacity="0" font-family="Arial,Arial_MSFontService,sans-serif" font-size="36.835" x="2120.8" y="1085.06">0</text><path d="M2734.95 1531.34C2742.18 1537.53 2747.91 1546.76 2752.16 1559.03 2756.4 1571.3 2758.52 1584.99 2758.52 1600.11 2758.52 1615 2756.4 1628.67 2752.16 1641.12 2747.91 1653.58 2742.18 1662.88 2734.95 1669.03L2733.71 1667.08C2739.95 1660.74 2744.76 1651.55 2748.14 1639.53 2751.51 1627.5 2753.2 1614.37 2753.2 1600.13 2753.2 1585.56 2751.5 1572.37 2748.11 1560.56 2744.72 1548.75 2739.92 1539.67 2733.71 1533.32ZM2659.16 1531.34 2660.4 1533.32C2654.18 1539.67 2649.38 1548.75 2645.99 1560.56 2642.61 1572.37 2640.92 1585.56 2640.92 1600.13 2640.92 1614.37 2642.6 1627.5 2645.98 1639.53 2649.35 1651.55 2654.16 1660.74 2660.4 1667.08L2659.16 1669.03C2651.94 1662.88 2646.2 1653.58 2641.96 1641.12 2637.71 1628.67 2635.59 1615 2635.59 1600.11 2635.59 1584.99 2637.71 1571.3 2641.96 1559.03 2646.2 1546.76 2651.94 1537.53 2659.16 1531.34Z" fill-rule="evenodd"/><path d="M2697.08 1540.63C2695.87 1540.63 2694.85 1540.99 2694.03 1541.71 2693.22 1542.43 2692.56 1543.47 2692.06 1544.82 2691.55 1546.18 2691.2 1547.82 2690.99 1549.77 2690.78 1551.71 2690.67 1553.9 2690.67 1556.34 2690.67 1562.07 2691.2 1566.28 2692.27 1568.96 2693.33 1571.64 2694.98 1572.98 2697.21 1572.98 2699.34 1572.98 2700.91 1571.72 2701.94 1569.2 2702.97 1566.68 2703.49 1562.77 2703.49 1557.48 2703.49 1553.43 2703.22 1550.16 2702.69 1547.66 2702.17 1545.15 2701.43 1543.35 2700.49 1542.26 2699.55 1541.17 2698.41 1540.63 2697.08 1540.63ZM2697.21 1538.39C2701.06 1538.39 2703.93 1539.87 2705.81 1542.84 2707.69 1545.81 2708.63 1550.31 2708.63 1556.32 2708.63 1562.54 2707.62 1567.25 2705.61 1570.44 2703.6 1573.63 2700.66 1575.22 2696.79 1575.22 2692.99 1575.22 2690.17 1573.73 2688.31 1570.74 2686.46 1567.75 2685.53 1563.22 2685.53 1557.14 2685.53 1553.9 2685.82 1551.11 2686.39 1548.75 2686.96 1546.39 2687.76 1544.45 2688.79 1542.91 2689.81 1541.37 2691.05 1540.23 2692.49 1539.5 2693.93 1538.76 2695.51 1538.39 2697.21 1538.39Z" fill-rule="evenodd"/><text fill="#000000" fill-opacity="0" font-family="Arial,Arial_MSFontService,sans-serif" font-size="36.835" x="2685.53" y="1570.62">0</text><path d="M2666 1634.4 2698.49 1634.4 2698.49 1637.91 2666 1637.91Z" fill-rule="evenodd"/><text fill="#000000" fill-opacity="0" font-family="Arial,Arial_MSFontService,sans-serif" font-size="3.50684" x="2666" y="1637.47">−</text><path d="M2719.21 1615.18 2720.66 1615.18C2720.56 1616.87 2720.51 1619.21 2720.51 1622.2L2720.51 1644.71C2720.51 1645.73 2720.56 1646.5 2720.68 1647.02 2720.79 1647.54 2720.99 1647.96 2721.28 1648.29 2721.57 1648.61 2721.99 1648.87 2722.54 1649.05 2723.08 1649.23 2723.77 1649.38 2724.59 1649.47 2725.42 1649.57 2726.51 1649.63 2727.86 1649.67L2727.86 1651.59 2708.38 1651.59 2708.38 1649.67C2710.33 1649.58 2711.72 1649.46 2712.56 1649.31 2713.39 1649.16 2714.03 1648.94 2714.47 1648.64 2714.91 1648.34 2715.23 1647.92 2715.43 1647.38 2715.63 1646.83 2715.73 1645.94 2715.73 1644.71L2715.73 1623.33C2715.73 1622.63 2715.61 1622.11 2715.36 1621.79 2715.12 1621.46 2714.76 1621.3 2714.28 1621.3 2713.72 1621.3 2712.92 1621.59 2711.88 1622.17 2710.85 1622.75 2709.56 1623.55 2708.03 1624.57L2706.87 1622.54Z" fill-rule="evenodd"/><text fill="#000000" fill-opacity="0" font-family="Arial,Arial_MSFontService,sans-serif" font-size="36.4131" x="2706.87" y="1647.04">1</text><path d="M2343.95 591.404C2353.6 603.955 2361.32 620.61 2367.11 641.37 2372.18 659.535 2375.03 678.884 2375.68 699.417L2375.82 707.981 2375.82 707.981 2375.82 708.29 2375.82 715.865 2375.82 716.173 2375.82 716.173 2375.68 724.737C2375.03 745.271 2372.18 764.62 2367.11 782.785 2361.32 803.544 2353.6 820.2 2343.95 832.75L2341.89 831.037C2350.96 818.205 2357.93 801.479 2362.81 780.86 2367.69 760.241 2370.15 738.584 2370.18 715.891L2370.18 708.263C2370.15 685.57 2367.69 663.914 2362.81 643.295 2357.93 622.675 2350.96 605.95 2341.89 593.118ZM2268.42 591.381 2270.48 593.095C2261.41 605.927 2254.43 622.652 2249.55 643.272 2244.68 663.891 2242.22 685.547 2242.18 708.24L2242.18 715.895C2242.22 738.588 2244.68 760.244 2249.55 780.863 2254.43 801.482 2261.41 818.208 2270.48 831.04L2268.42 832.754C2258.77 820.203 2251.05 803.548 2245.26 782.788 2240.19 764.623 2237.33 745.274 2236.68 724.741L2236.55 716.151 2236.54 716.151 2236.54 715.868 2236.54 708.267 2236.54 707.984 2236.55 707.984 2236.68 699.394C2237.33 678.861 2240.19 659.512 2245.26 641.347 2251.05 620.587 2258.77 603.932 2268.42 591.381Z" fill-rule="evenodd"/><path d="M2275.13 611.188 2307.62 611.188 2307.62 614.695 2275.13 614.695Z" fill-rule="evenodd"/><text fill="#000000" fill-opacity="0" font-family="Arial,Arial_MSFontService,sans-serif" font-size="3.50684" x="2275.13" y="614.257">−</text><path d="M2328.34 591.967 2329.79 591.967C2329.68 593.654 2329.63 595.992 2329.63 598.98L2329.63 621.498C2329.63 622.517 2329.69 623.286 2329.8 623.805 2329.92 624.323 2330.12 624.745 2330.41 625.071 2330.7 625.396 2331.12 625.651 2331.66 625.835 2332.21 626.02 2332.89 626.16 2333.72 626.257 2334.54 626.354 2335.63 626.42 2336.99 626.455L2336.99 628.38 2317.5 628.38 2317.5 626.455C2319.45 626.367 2320.85 626.248 2321.68 626.099 2322.52 625.949 2323.15 625.725 2323.59 625.427 2324.03 625.128 2324.35 624.706 2324.56 624.161 2324.76 623.616 2324.86 622.728 2324.86 621.498L2324.86 600.114C2324.86 599.411 2324.74 598.897 2324.49 598.572 2324.24 598.246 2323.88 598.084 2323.41 598.084 2322.85 598.084 2322.05 598.374 2321.01 598.954 2319.97 599.534 2318.69 600.334 2317.16 601.353L2316 599.323Z" fill-rule="evenodd"/><text fill="#000000" fill-opacity="0" font-family="Arial,Arial_MSFontService,sans-serif" font-size="36.4131" x="2316" y="623.828">1</text><path d="M2305.44 653.245 2312.17 653.245 2312.17 653.555 2339.32 653.555 2339.32 657.555 2309.32 657.555 2309.32 656.752 2307.4 656.752 2293.21 705.215 2290.65 705.215 2279.74 681.748 2275.28 683.725 2274.46 681.748 2283.11 677.793 2292.42 698.254Z" fill-rule="evenodd"/><path d="M2324.11 664.544C2327.38 664.544 2329.85 665.26 2331.52 666.693 2333.19 668.125 2334.02 670.204 2334.02 672.928 2334.02 673.86 2333.93 674.717 2333.74 675.499 2333.56 676.281 2333.27 677.055 2332.87 677.82 2332.48 678.584 2331.95 679.406 2331.28 680.285 2330.61 681.164 2329.87 682.056 2329.06 682.961 2328.26 683.866 2326.86 685.374 2324.87 687.483 2321.53 691.016 2319.08 694.101 2317.52 696.738L2327.46 696.738C2328.32 696.738 2329.01 696.685 2329.54 696.58 2330.07 696.474 2330.49 696.299 2330.8 696.052 2331.12 695.806 2331.37 695.486 2331.56 695.09 2331.74 694.695 2331.97 694.084 2332.25 693.258L2334.5 693.258 2334.05 700.957 2312.35 700.957 2312.35 699.691C2313.1 697.845 2314.12 695.956 2315.41 694.022 2316.69 692.089 2318.51 689.812 2320.86 687.193 2322.9 684.943 2324.37 683.238 2325.27 682.078 2326.25 680.812 2326.99 679.718 2327.47 678.795 2327.95 677.872 2328.3 677.002 2328.51 676.185 2328.72 675.367 2328.83 674.546 2328.83 673.719 2328.83 672.401 2328.62 671.237 2328.19 670.226 2327.77 669.215 2327.13 668.42 2326.26 667.84 2325.39 667.259 2324.29 666.969 2322.97 666.969 2319.69 666.969 2317.47 668.798 2316.33 672.454L2313.14 672.454 2313.14 667.391C2315.27 666.389 2317.26 665.664 2319.11 665.216 2320.96 664.768 2322.63 664.544 2324.11 664.544Z" fill-rule="evenodd"/><text fill="#000000" fill-opacity="0" font-family="Arial,Arial_MSFontService,sans-serif" font-size="36.4131" x="2312.35" y="696.405">2</text><path d="M2271.32 642.555 2294.65 642.555 2317.99 642.555 2341.32 642.555 2341.32 646.555 2317.99 646.555 2294.65 646.555 2271.32 646.555Z" fill-rule="evenodd"/><path d="M2308.26 722.5 2309.71 722.5C2309.61 724.187 2309.56 726.525 2309.56 729.514L2309.56 752.031C2309.56 753.051 2309.61 753.82 2309.73 754.338 2309.84 754.857 2310.04 755.279 2310.33 755.604 2310.62 755.929 2311.04 756.184 2311.59 756.369 2312.13 756.553 2312.82 756.694 2313.64 756.79 2314.47 756.887 2315.56 756.953 2316.91 756.988L2316.91 758.913 2297.43 758.913 2297.43 756.988C2299.38 756.9 2300.77 756.782 2301.61 756.632 2302.44 756.483 2303.08 756.259 2303.52 755.96 2303.96 755.661 2304.28 755.239 2304.48 754.694 2304.68 754.149 2304.78 753.262 2304.78 752.031L2304.78 730.647C2304.78 729.944 2304.66 729.43 2304.41 729.105 2304.17 728.78 2303.81 728.617 2303.33 728.617 2302.77 728.617 2301.97 728.907 2300.93 729.487 2299.9 730.067 2298.61 730.867 2297.08 731.887L2295.92 729.856Z" fill-rule="evenodd"/><text fill="#000000" fill-opacity="0" font-family="Arial,Arial_MSFontService,sans-serif" font-size="36.4131" x="2295.92" y="754.361">1</text><path d="M2309.32 783.555 2339.32 783.555 2339.32 787.555 2309.32 787.555 2309.32 787.285 2307.4 787.285 2293.21 835.748 2290.65 835.748 2279.74 812.281 2275.28 814.259 2274.46 812.281 2283.11 808.326 2292.42 828.787 2305.44 783.778 2309.32 783.778Z" fill-rule="evenodd"/><path d="M2324.11 795.077C2327.38 795.077 2329.85 795.793 2331.52 797.226 2333.19 798.659 2334.02 800.737 2334.02 803.462 2334.02 804.393 2333.93 805.25 2333.74 806.033 2333.56 806.815 2333.27 807.588 2332.87 808.353 2332.48 809.117 2331.95 809.939 2331.28 810.818 2330.61 811.697 2329.87 812.589 2329.06 813.494 2328.26 814.4 2326.86 815.907 2324.87 818.016 2321.53 821.55 2319.08 824.635 2317.52 827.271L2327.46 827.271C2328.32 827.271 2329.01 827.219 2329.54 827.113 2330.07 827.008 2330.49 826.832 2330.8 826.586 2331.12 826.34 2331.37 826.019 2331.56 825.623 2331.74 825.228 2331.97 824.617 2332.25 823.791L2334.5 823.791 2334.05 831.49 2312.35 831.49 2312.35 830.224C2313.1 828.379 2314.12 826.489 2315.41 824.555 2316.69 822.622 2318.51 820.346 2320.86 817.726 2322.9 815.476 2324.37 813.771 2325.27 812.611 2326.25 811.346 2326.99 810.251 2327.47 809.328 2327.95 808.406 2328.3 807.535 2328.51 806.718 2328.72 805.901 2328.83 805.079 2328.83 804.253 2328.83 802.934 2328.62 801.77 2328.19 800.759 2327.77 799.748 2327.13 798.953 2326.26 798.373 2325.39 797.793 2324.29 797.503 2322.97 797.503 2319.69 797.503 2317.47 799.331 2316.33 802.987L2313.14 802.987 2313.14 797.925C2315.27 796.923 2317.26 796.198 2319.11 795.749 2320.96 795.301 2322.63 795.077 2324.11 795.077Z" fill-rule="evenodd"/><text fill="#000000" fill-opacity="0" font-family="Arial,Arial_MSFontService,sans-serif" font-size="36.4131" x="2312.35" y="826.938">2</text><path d="M2273.32 773.555 2305.82 773.555 2338.32 773.555 2338.32 777.555 2305.82 777.555 2273.32 777.555Z" fill-rule="evenodd"/><path d="M2341.82 1257.99C2351.47 1270.54 2359.19 1287.19 2364.98 1307.95 2370.05 1326.12 2372.91 1345.47 2373.55 1366L2373.69 1374.57 2373.69 1374.57 2373.69 1374.87 2373.69 1382.45 2373.69 1382.76 2373.69 1382.76 2373.55 1391.32C2372.91 1411.85 2370.05 1431.2 2364.98 1449.37 2359.19 1470.13 2351.47 1486.78 2341.82 1499.33L2339.76 1497.62C2348.83 1484.79 2355.8 1468.06 2360.68 1447.44 2365.56 1426.82 2368.02 1405.17 2368.05 1382.48L2368.05 1374.85C2368.02 1352.15 2365.56 1330.5 2360.68 1309.88 2355.8 1289.26 2348.83 1272.53 2339.76 1259.7ZM2266.29 1257.97 2268.35 1259.68C2259.28 1272.51 2252.3 1289.24 2247.42 1309.86 2242.55 1330.47 2240.09 1352.13 2240.06 1374.82L2240.06 1382.48C2240.09 1405.17 2242.55 1426.83 2247.42 1447.45 2252.3 1468.07 2259.28 1484.79 2268.35 1497.62L2266.29 1499.34C2256.64 1486.79 2248.92 1470.13 2243.13 1449.37 2238.06 1431.21 2235.2 1411.86 2234.55 1391.32L2234.42 1382.73 2234.41 1382.73 2234.41 1382.45 2234.41 1374.85 2234.41 1374.57 2234.42 1374.57 2234.55 1365.98C2235.2 1345.44 2238.06 1326.1 2243.13 1307.93 2248.92 1287.17 2256.64 1270.52 2266.29 1257.97Z" fill-rule="evenodd"/><path d="M2273 1277.77 2305.49 1277.77 2305.49 1281.28 2273 1281.28Z" fill-rule="evenodd"/><text fill="#000000" fill-opacity="0" font-family="Arial,Arial_MSFontService,sans-serif" font-size="3.50684" x="2273" y="1280.84">−</text><path d="M2326.21 1258.55 2327.66 1258.55C2327.56 1260.24 2327.5 1262.58 2327.5 1265.56L2327.5 1288.08C2327.5 1289.1 2327.56 1289.87 2327.67 1290.39 2327.79 1290.91 2327.99 1291.33 2328.28 1291.65 2328.57 1291.98 2328.99 1292.23 2329.53 1292.42 2330.08 1292.6 2330.76 1292.74 2331.59 1292.84 2332.42 1292.94 2333.51 1293 2334.86 1293.04L2334.86 1294.96 2315.37 1294.96 2315.37 1293.04C2317.32 1292.95 2318.72 1292.83 2319.55 1292.68 2320.39 1292.53 2321.03 1292.31 2321.46 1292.01 2321.9 1291.71 2322.22 1291.29 2322.43 1290.74 2322.63 1290.2 2322.73 1289.31 2322.73 1288.08L2322.73 1266.7C2322.73 1265.99 2322.61 1265.48 2322.36 1265.16 2322.11 1264.83 2321.75 1264.67 2321.28 1264.67 2320.72 1264.67 2319.92 1264.96 2318.88 1265.54 2317.84 1266.12 2316.56 1266.92 2315.03 1267.94L2313.87 1265.91Z" fill-rule="evenodd"/><text fill="#000000" fill-opacity="0" font-family="Arial,Arial_MSFontService,sans-serif" font-size="36.4131" x="2313.87" y="1290.41">1</text><path d="M2303.31 1319.83 2310.04 1319.83 2310.04 1320.14 2337.19 1320.14 2337.19 1324.14 2307.19 1324.14 2307.19 1323.34 2305.27 1323.34 2291.08 1371.8 2288.52 1371.8 2277.61 1348.33 2273.15 1350.31 2272.33 1348.33 2280.98 1344.38 2290.29 1364.84Z" fill-rule="evenodd"/><path d="M2321.98 1331.13C2325.25 1331.13 2327.72 1331.84 2329.39 1333.28 2331.06 1334.71 2331.89 1336.79 2331.89 1339.51 2331.89 1340.44 2331.8 1341.3 2331.62 1342.08 2331.43 1342.87 2331.14 1343.64 2330.75 1344.4 2330.35 1345.17 2329.82 1345.99 2329.15 1346.87 2328.48 1347.75 2327.74 1348.64 2326.94 1349.55 2326.13 1350.45 2324.73 1351.96 2322.74 1354.07 2319.4 1357.6 2316.95 1360.69 2315.39 1363.32L2325.33 1363.32C2326.19 1363.32 2326.88 1363.27 2327.41 1363.16 2327.94 1363.06 2328.36 1362.88 2328.68 1362.64 2328.99 1362.39 2329.24 1362.07 2329.43 1361.67 2329.61 1361.28 2329.84 1360.67 2330.13 1359.84L2332.37 1359.84 2331.92 1367.54 2310.22 1367.54 2310.22 1366.28C2310.97 1364.43 2311.99 1362.54 2313.28 1360.61 2314.56 1358.67 2316.38 1356.4 2318.73 1353.78 2320.77 1351.53 2322.24 1349.82 2323.14 1348.66 2324.12 1347.4 2324.86 1346.3 2325.34 1345.38 2325.82 1344.46 2326.17 1343.59 2326.38 1342.77 2326.59 1341.95 2326.7 1341.13 2326.7 1340.3 2326.7 1338.99 2326.49 1337.82 2326.06 1336.81 2325.64 1335.8 2325 1335 2324.13 1334.42 2323.26 1333.84 2322.16 1333.55 2320.84 1333.55 2317.56 1333.55 2315.34 1335.38 2314.2 1339.04L2311.01 1339.04 2311.01 1333.98C2313.14 1332.97 2315.13 1332.25 2316.98 1331.8 2318.84 1331.35 2320.5 1331.13 2321.98 1331.13Z" fill-rule="evenodd"/><text fill="#000000" fill-opacity="0" font-family="Arial,Arial_MSFontService,sans-serif" font-size="36.4131" x="2310.22" y="1362.99">2</text><path d="M2269.19 1309.14 2292.52 1309.14 2315.86 1309.14 2339.19 1309.14 2339.19 1313.14 2315.86 1313.14 2292.52 1313.14 2269.19 1313.14Z" fill-rule="evenodd"/><path d="M2273 1408.31 2305.49 1408.31 2305.49 1411.81 2273 1411.81Z" fill-rule="evenodd"/><text fill="#000000" fill-opacity="0" font-family="Arial,Arial_MSFontService,sans-serif" font-size="3.50684" x="2273" y="1411.37">−</text><path d="M2326.21 1389.08 2327.66 1389.08C2327.56 1390.77 2327.5 1393.11 2327.5 1396.1L2327.5 1418.62C2327.5 1419.63 2327.56 1420.4 2327.67 1420.92 2327.79 1421.44 2327.99 1421.86 2328.28 1422.19 2328.57 1422.51 2328.99 1422.77 2329.53 1422.95 2330.08 1423.14 2330.76 1423.28 2331.59 1423.37 2332.42 1423.47 2333.51 1423.54 2334.86 1423.57L2334.86 1425.5 2315.37 1425.5 2315.37 1423.57C2317.32 1423.48 2318.72 1423.37 2319.55 1423.22 2320.39 1423.07 2321.03 1422.84 2321.46 1422.54 2321.9 1422.25 2322.22 1421.82 2322.43 1421.28 2322.63 1420.73 2322.73 1419.85 2322.73 1418.62L2322.73 1397.23C2322.73 1396.53 2322.61 1396.01 2322.36 1395.69 2322.11 1395.36 2321.75 1395.2 2321.28 1395.2 2320.72 1395.2 2319.92 1395.49 2318.88 1396.07 2317.84 1396.65 2316.56 1397.45 2315.03 1398.47L2313.87 1396.44Z" fill-rule="evenodd"/><text fill="#000000" fill-opacity="0" font-family="Arial,Arial_MSFontService,sans-serif" font-size="36.4131" x="2313.87" y="1420.95">1</text><path d="M2307.19 1450.14 2337.19 1450.14 2337.19 1454.14 2307.19 1454.14 2307.19 1453.87 2305.27 1453.87 2291.08 1502.33 2288.52 1502.33 2277.61 1478.87 2273.15 1480.84 2272.33 1478.87 2280.98 1474.91 2290.29 1495.37 2303.31 1450.36 2307.19 1450.36Z" fill-rule="evenodd"/><path d="M2321.98 1461.66C2325.25 1461.66 2327.72 1462.38 2329.39 1463.81 2331.06 1465.24 2331.89 1467.32 2331.89 1470.05 2331.89 1470.98 2331.8 1471.83 2331.62 1472.62 2331.43 1473.4 2331.14 1474.17 2330.75 1474.94 2330.35 1475.7 2329.82 1476.52 2329.15 1477.4 2328.48 1478.28 2327.74 1479.17 2326.94 1480.08 2326.13 1480.98 2324.73 1482.49 2322.74 1484.6 2319.4 1488.13 2316.95 1491.22 2315.39 1493.86L2325.33 1493.86C2326.19 1493.86 2326.88 1493.8 2327.41 1493.7 2327.94 1493.59 2328.36 1493.42 2328.68 1493.17 2328.99 1492.92 2329.24 1492.6 2329.43 1492.21 2329.61 1491.81 2329.84 1491.2 2330.13 1490.37L2332.37 1490.37 2331.92 1498.07 2310.22 1498.07 2310.22 1496.81C2310.97 1494.96 2311.99 1493.07 2313.28 1491.14 2314.56 1489.21 2316.38 1486.93 2318.73 1484.31 2320.77 1482.06 2322.24 1480.36 2323.14 1479.2 2324.12 1477.93 2324.86 1476.84 2325.34 1475.91 2325.82 1474.99 2326.17 1474.12 2326.38 1473.3 2326.59 1472.48 2326.7 1471.66 2326.7 1470.84 2326.7 1469.52 2326.49 1468.35 2326.06 1467.34 2325.64 1466.33 2325 1465.54 2324.13 1464.96 2323.26 1464.38 2322.16 1464.09 2320.84 1464.09 2317.56 1464.09 2315.34 1465.91 2314.2 1469.57L2311.01 1469.57 2311.01 1464.51C2313.14 1463.51 2315.13 1462.78 2316.98 1462.33 2318.84 1461.89 2320.5 1461.66 2321.98 1461.66Z" fill-rule="evenodd"/><text fill="#000000" fill-opacity="0" font-family="Arial,Arial_MSFontService,sans-serif" font-size="36.4131" x="2310.22" y="1493.52">2</text><path d="M2269.19 1440.14 2292.52 1440.14 2315.86 1440.14 2339.19 1440.14 2339.19 1444.14 2315.86 1444.14 2292.52 1444.14 2269.19 1444.14Z" fill-rule="evenodd"/><text font-family="Segoe UI Semibold,Segoe UI Semibold_MSFontService,sans-serif" font-weight="600" font-size="92" transform="matrix(1 0 0 1 761.422 1892)">Constant</text><text font-family="Segoe UI Semibold,Segoe UI Semibold_MSFontService,sans-serif" font-weight="600" font-size="92" transform="matrix(1 0 0 1 2535.02 1892)">Variable</text><path d="M1673.31 1032.49 1755.81 1032.49 1752.37 1035.93 1752.37 553.5 1755.81 556.937 1482.86 556.937 1482.86 550.062 1759.25 550.062 1759.25 1039.37 1673.31 1039.37ZM1508.16 579.057 1477.49 553.5 1508.16 527.943C1509.62 526.727 1511.79 526.924 1513 528.383 1514.22 529.841 1514.02 532.009 1512.56 533.224L1485.06 556.141 1485.06 550.859 1512.56 573.776C1514.02 574.991 1514.22 577.159 1513 578.617 1511.79 580.076 1509.62 580.273 1508.16 579.057Z" fill="#0070C0"/><path d="M3427.31 1032.49 3509.81 1032.49 3506.37 1035.93 3506.37 553.5 3509.81 556.937 3236.86 556.937 3236.86 550.062 3513.25 550.062 3513.25 1039.37 3427.31 1039.37ZM3262.16 579.057 3231.49 553.5 3262.16 527.943C3263.62 526.727 3265.79 526.924 3267 528.383 3268.22 529.841 3268.02 532.009 3266.56 533.224L3239.06 556.141 3239.06 550.859 3266.56 573.776C3268.02 574.991 3268.22 577.159 3267 578.617 3265.79 580.076 3263.62 580.273 3262.16 579.057Z" fill="#0070C0"/></g></svg>