<?xml version="1.0" encoding="UTF-8"?>
<svg width="685" height="380" fill="none" version="1.1" xmlns="http://www.w3.org/2000/svg">
<style>
/* Default values, or theme set explicitly to light */
:root, [data-theme="light"] {
    --kata-svg-stroke: #222;
    --kata-svg-fill: #fff;
    --kata-svg-path: #777;
    --kata-svg-accent: #06c;
}
/* User has set OS preference for dark. (An explict light theme will override) */
@media(prefers-color-scheme: dark) {
    :root {
        --kata-svg-stroke: #eee;
        --kata-svg-fill: #111;
        --kata-svg-path: #bbb;
        --kata-svg-accent: #08f;
    }
}
/* Explicit dark theme set (should match above dark preference values) */
[data-theme="dark"] {
    --kata-svg-stroke: #eee;
    --kata-svg-fill: #111;
    --kata-svg-path: #bbb;
    --kata-svg-accent: #08f;
}
/*** Kata specific styles ***/
.kata_svg_path {
    stroke: var(--kata-svg-path);
    stroke-width: 2;
    stroke-linecap: round;
    fill: none;
}
.kata_svg_text {
    fill: var(--kata-svg-stroke);
}
.kata_svg_point {
    fill: var(--kata-svg-fill);
    stroke: var(--kata-svg-stroke);
}
.kata_svg_fill_accent {
    fill: var(--kata-svg-accent);
}
.kata_svg_stroke_accent {
    stroke: var(--kata-svg-accent);
}
</style>
  <!-- Large circles -->
  <g class="kata_svg_path">
    <path d="m24.1 163c0-76.8 62.3-139 139-139 76.8 0 139 62.3 139 139 0 76.8-62.3 139-139 139-76.8 0-139-62.3-139-139z"/>
    <path d="m375 163c0-76.8 62.2-139 139-139s139 62.3 139 139c0 76.8-62.2 139-139 139s-139-62.3-139-139z"/>
  </g>
  <!-- Normal points -->
  <g class="kata_svg_point">
    <path d="m157 23.8c0-3.26 2.64-5.9 5.9-5.9s5.9 2.64 5.9 5.9-2.64 5.9-5.9 5.9-5.9-2.64-5.9-5.9z"/>
    <path d="m157 302c0-3.26 2.64-5.9 5.9-5.9s5.9 2.64 5.9 5.9-2.64 5.9-5.9 5.9-5.9-2.64-5.9-5.9z"/>
    <path d="m257 260c0-3.26 2.69-5.9 6-5.9s6 2.64 6 5.9-2.69 5.9-6 5.9-6-2.64-6-5.9z"/>
    <path d="m57.3 66.6c0-3.26 2.69-5.9 6-5.9s6 2.64 6 5.9-2.69 5.9-6 5.9-6-2.64-6-5.9z"/>
    <path d="m647 163c0-3.26 2.69-5.9 6-5.9s6 2.64 6 5.9-2.69 5.9-6 5.9-6-2.64-6-5.9z"/>
    <path d="m369 163c0-3.26 2.64-5.9 5.9-5.9s5.9 2.64 5.9 5.9-2.64 5.9-5.9 5.9-5.9-2.64-5.9-5.9z"/>
    <path d="m408 260c0-3.26 2.64-5.9 5.9-5.9s5.9 2.64 5.9 5.9-2.64 5.9-5.9 5.9-5.9-2.64-5.9-5.9z"/>
    <path d="m296 163c0-3.26 2.64-5.9 5.9-5.9s5.9 2.64 5.9 5.9-2.64 5.9-5.9 5.9-5.9-2.64-5.9-5.9z"/>
    <path d="m18 163c0-3.26 2.69-5.9 6-5.9s6 2.64 6 5.9-2.69 5.9-6 5.9-6-2.64-6-5.9z"/>
    <path d="m508 23.7c0-3.26 2.69-5.9 6-5.9s6 2.64 6 5.9-2.69 5.9-6 5.9-6-2.64-6-5.9z"/>
    <path d="m508 302c0-3.26 2.69-5.9 6-5.9s6 2.64 6 5.9-2.69 5.9-6 5.9-6-2.64-6-5.9z"/>
  </g>
  <!-- Target points -->
  <g class="kata_svg_fill_accent">
    <path d="m257 66.6c0-3.26 2.69-5.9 6-5.9s6 2.64 6 5.9-2.69 5.9-6 5.9-6-2.64-6-5.9z"/>
    <path d="m57.3 260c0-3.26 2.69-5.9 6-5.9s6 2.64 6 5.9-2.69 5.9-6 5.9-6-2.64-6-5.9z"/>
    <path d="m608 260c0-3.26 2.69-5.9 6-5.9s6 2.64 6 5.9-2.69 5.9-6 5.9-6-2.64-6-5.9z"/>
    <path d="m408 66.6c0-3.26 2.64-5.9 5.9-5.9s5.9 2.64 5.9 5.9-2.64 5.9-5.9 5.9-5.9-2.64-5.9-5.9z"/>
  </g>
  <!-- From point -->
  <g class="kata_svg_point kata_svg_stroke_accent">
    <path d="m608 66.6c0-3.26 2.69-5.9 6-5.9s6 2.64 6 5.9-2.69 5.9-6 5.9-6-2.64-6-5.9z"/>
  </g>
  <!-- Arrows -->
  <g class="kata_svg_path kata_svg_stroke_accent" fill="none" stroke-linecap="round" stroke-linejoin="round" stroke-width="2">
    <path d="m269.59 66.574h13.076v-21.506h-19.622v14.449l5.1379-6.8441-5.1379 6.8522-6.4917-6.8522" image-rendering="auto"/>
    <path d="m614.87 59.292.6231-55.409h-201.62v55.688l-4.9896-4.7393 4.9896 4.8536 5.062-4.8536" image-rendering="auto"/>
    <path d="m214.6 107.51-104.64 104.38 8.787-.26203-8.787.26203.0944-8.0595" image-rendering="auto"/>
    <path d="m620.69 66.395h51.003v193.29h-50.926l5.8-5.9628-5.8 5.9628 5.8 5.8634" image-rendering="auto"/>
  </g>
  <!-- Equation text -->
  <g class="kata_svg_fill_accent" clip-rule="evenodd" fill-rule="evenodd">
    <path d="m253 18.1c.516 0 .962.0422 1.34.126l-.308 1.34h-.696c-.074-.301-.17-.517-.288-.649-.12-.132-.294-.198-.526-.198-.302 0-.556.083-.764.249s-.386.413-.534.74-.284.767-.412 1.32l-.196.862h2.03l-.174.799h-2.04l-1.47 6.9c-.242 1.14-.614 2-1.12 2.56-.5.562-1.13.842-1.89.842-.222 0-.396-.0132-.522-.0396l.134-.696c.054.0158.178.0236.372.0236.238 0 .44-.0606.61-.182.168-.121.324-.332.47-.633.144-.3.278-.717.4-1.25l1.7-7.52h-1.34l.118-.546c.354-.0212.608-.0502.764-.087.154-.037.276-.0924.364-.166.086-.0738.16-.17.22-.289.062-.119.138-.336.234-.653.28-.949.71-1.66 1.29-2.14.582-.477 1.32-.716 2.23-.716z"/>
    <path d="m272 17.3c1.54.406 2.72 1.28 3.55 2.63.826 1.35 1.24 2.97 1.24 4.88s-.41 3.53-1.23 4.88c-.822 1.34-2.01 2.22-3.55 2.62l-.19-.609c1.22-.406 2.12-1.21 2.72-2.4.594-1.2.89-2.72.89-4.56 0-1.78-.296-3.26-.886-4.44s-1.51-1.97-2.74-2.38l.214-.609zm-10.1 0 .214.609c-1.23.406-2.15 1.2-2.74 2.38-.592 1.18-.89 2.66-.89 4.44 0 1.85.298 3.37.89 4.56.594 1.2 1.5 2 2.72 2.4l-.19.609c-1.55-.406-2.73-1.28-3.55-2.62-.822-1.34-1.23-2.97-1.23-4.88 0-1.9.412-3.53 1.24-4.88s2.01-2.22 3.55-2.63z"/>
    <path d="m265 21.7c.162 0 .306.0184.43.0554.124.0368.234.0936.328.17.096.0764.18.175.254.297s.144.286.214.494c.068.208.132.467.194.775.06.308.114.629.162.961h.078c.506-.712.89-1.23 1.15-1.56s.48-.575.66-.736.352-.274.518-.34c.166-.0658.386-.0988.66-.0988.248 0 .452.0316.61.0948l-.316 1.43h-.554c-.032-.221-.124-.332-.278-.332-.046 0-.098.0078-.15.0238-.052.0158-.118.05-.194.103-.076.0526-.188.156-.336.308-.148.153-.314.34-.498.562s-.374.454-.57.696l-.538.672c.096.506.186.944.27 1.31s.158.676.224.922.124.439.174.581c.052.142.106.249.164.32.058.0712.116.121.178.15.06.029.13.0434.208.0434.144 0 .282-.0552.416-.166s.328-.361.582-.751l.514.34c-.37.548-.704.935-1 1.16-.298.224-.652.336-1.06.336-.226 0-.418-.0408-.576-.123-.158-.0816-.296-.212-.412-.391s-.218-.459-.308-.839c-.164-.675-.264-1.19-.3-1.55h-.08c-.558.786-.974 1.35-1.25 1.69s-.496.596-.672.759-.348.278-.514.344-.386.099-.66.099c-.248 0-.452-.0316-.61-.095l.316-1.43h.554c.032.221.124.332.278.332.072 0 .15-.0198.232-.0594s.2-.134.352-.285c.154-.15.364-.386.634-.708.268-.322.658-.804 1.17-1.45-.08-.417-.16-.817-.246-1.2-.084-.385-.17-.744-.26-1.08s-.164-.55-.222-.653-.12-.174-.186-.214-.148-.0592-.248-.0592c-.112 0-.212.025-.302.075-.09.0502-.186.137-.292.261s-.246.318-.42.581l-.514-.34c.332-.501.652-.875.958-1.12.306-.248.666-.372 1.08-.372z"/>
    <path d="m284 25.9h9.75v1.05h-9.75zm0-3.28h9.75v1.05h-9.75z"/>
    <path d="m303 19.2c-.364 0-.668.108-.914.324-.244.216-.442.527-.592.933s-.258.901-.32 1.48c-.064.583-.096 1.24-.096 1.97 0 1.72.16 2.98.478 3.78.32.804.814 1.21 1.48 1.21.638 0 1.11-.378 1.42-1.14s.462-1.93.462-3.52c0-1.21-.078-2.2-.236-2.95-.16-.751-.38-1.29-.662-1.62s-.622-.49-1.02-.49zm.04-.672c1.15 0 2.01.446 2.58 1.34s.846 2.24.846 4.04c0 1.87-.3 3.28-.904 4.24s-1.49 1.44-2.65 1.44c-1.14 0-1.99-.448-2.54-1.34-.556-.897-.834-2.26-.834-4.08 0-.97.086-1.81.256-2.52.172-.707.412-1.29.72-1.75.31-.461.68-.803 1.11-1.02s.904-.332 1.42-.332z"/>
    <path d="m110.47 136.35c.53 0 .986.043 1.37.13l-.316 1.38h-.713c-.0756-.308-.174-.53-.296-.665s-.301-.203-.539-.203c-.308 0-.569.085-.782.256-.213.17-.396.422-.547.758-.151.334-.292.786-.422 1.35l-.203.882h2.08l-.178.82h-2.09l-1.51 7.07c-.249 1.17-.63 2.05-1.14 2.62-.513.574-1.16.862-1.94.862-.227 0-.405-.012-.535-.04l.138-.714c.054.016.181.026.381.026.243 0 .451-.064.624-.188s.334-.34.482-.648.285-.734.409-1.28l1.74-7.71h-1.37l.122-.56c.362-.022.623-.052.782-.09s.284-.094.373-.17c.0892-.076.165-.174.227-.296.0622-.12.142-.344.239-.668.286-.972.728-1.7 1.33-2.19.597-.489 1.36-.734 2.28-.734z"/>
    <path d="m129.17 135.35c1.58.416 2.79 1.31 3.64 2.7.846 1.38 1.27 3.05 1.27 5 0 1.96-.422 3.62-1.26 5-.843 1.37-2.06 2.27-3.64 2.69l-.195-.624c1.25-.416 2.18-1.24 2.78-2.46.608-1.23.911-2.79.911-4.68 0-1.83-.302-3.34-.907-4.55-.606-1.21-1.54-2.02-2.81-2.44l.219-.624zm-10.3 0 .219.624c-1.26.416-2.2 1.23-2.81 2.44-.608 1.21-.912 2.73-.912 4.55 0 1.89.304 3.45.912 4.68s1.54 2.05 2.78 2.46l-.194.624c-1.58-.416-2.8-1.31-3.64-2.69-.843-1.38-1.26-3.04-1.26-5 0-1.95.423-3.62 1.27-5 .846-1.38 2.06-2.28 3.64-2.7z"/>
    <path d="m122.17 140.35c.168 0 .315.02.442.058s.239.096.336.174c.098.078.184.18.26.304.075.124.148.292.219.506.07.214.136.478.198.794s.118.646.166.986h.081c.519-.73.912-1.26 1.18-1.6.267-.338.493-.588.677-.754.183-.164.36-.28.53-.348.171-.068.396-.1.677-.1.254 0 .462.032.624.096l-.324 1.47h-.567c-.033-.228-.127-.342-.284-.342-.049 0-.1.01-.154.026s-.12.05-.199.104c-.078.054-.193.16-.344.316-.151.158-.322.35-.511.576-.189.228-.383.464-.583.714l-.551.688c.097.52.189.968.275 1.35.087.378.164.694.231.944.068.252.127.45.178.596.052.146.107.256.167.328.059.074.12.124.182.154s.134.044.215.044c.146 0 .288-.056.425-.17.138-.112.337-.37.596-.77l.527.35c-.378.562-.72.956-1.02 1.19-.306.23-.669.346-1.09.346-.232 0-.429-.042-.591-.126s-.303-.218-.422-.402-.224-.47-.316-.858c-.167-.692-.27-1.22-.308-1.59h-.081c-.573.806-.998 1.38-1.28 1.73-.278.352-.507.612-.689.78-.181.166-.356.284-.526.352-.171.068-.396.102-.677.102-.254 0-.462-.034-.624-.098l.324-1.47h.567c.033.228.127.342.284.342.076 0 .155-.022.239-.062s.204-.138.361-.292.373-.396.648-.724c.276-.33.676-.824 1.2-1.48-.081-.428-.165-.838-.251-1.23-.087-.394-.176-.762-.268-1.1-.092-.342-.167-.564-.227-.67-.059-.104-.123-.178-.19-.218-.068-.04-.153-.06-.256-.06-.113 0-.216.024-.308.076s-.191.14-.3.268c-.108.126-.251.326-.429.596l-.527-.35c.34-.512.667-.896.981-1.15.313-.254.683-.382 1.11-.382z"/>
    <path d="m141.17 144.35h9.99v1.08h-9.99zm0-3.36h9.99v1.08h-9.99z"/>
    <path d="m162.17 136.35h.446c-.032.519-.048 1.24-.048 2.16v6.92c0 .314.018.55.052.71.036.158.098.288.186.388.09.1.218.178.386.236.168.056.378.1.632.128.254.03.588.05 1 .062v.592h-5.99v-.592c.6-.028 1.03-.064 1.29-.11s.452-.114.588-.206c.134-.092.234-.222.296-.39.062-.166.092-.44.092-.818v-6.57c0-.216-.038-.374-.114-.474-.074-.1-.186-.15-.332-.15-.172 0-.418.09-.736.268-.32.178-.714.424-1.18.738l-.358-.624 3.79-2.26z"/>
    <path d="m616.79 271.85c.516 0 .962.044 1.34.128l-.308 1.34h-.696c-.074-.3-.17-.516-.288-.648-.12-.132-.294-.198-.528-.198-.3 0-.554.082-.762.248-.208.168-.386.414-.534.74-.148.328-.286.768-.412 1.32l-.198.862h2.03l-.174.798h-2.04l-1.47 6.9c-.244 1.14-.614 2-1.12 2.56-.5.56-1.13.842-1.89.842-.222 0-.396-.014-.522-.04l.134-.696c.052.016.176.024.372.024.238 0 .44-.06.608-.182.17-.122.326-.332.472-.632.144-.302.278-.718.398-1.25l1.7-7.52h-1.34l.12-.546c.352-.02.608-.05.762-.086.156-.038.278-.092.364-.166.088-.074.162-.17.222-.288.06-.12.138-.338.234-.654.278-.948.71-1.66 1.29-2.14.584-.476 1.33-.716 2.23-.716z"/>
    <path d="m634.79 270.85c1.54.406 2.72 1.28 3.55 2.63.826 1.35 1.24 2.97 1.24 4.88s-.412 3.53-1.23 4.88-2.01 2.22-3.55 2.62l-.19-.608c1.22-.406 2.12-1.21 2.72-2.41.594-1.2.89-2.72.89-4.56 0-1.78-.296-3.26-.886-4.44s-1.51-1.97-2.74-2.38l.212-.608zm-10.1 0 .212.608c-1.23.406-2.15 1.2-2.74 2.38-.594 1.18-.89 2.66-.89 4.44 0 1.85.296 3.37.89 4.56.594 1.2 1.5 2 2.72 2.41l-.19.608c-1.55-.406-2.73-1.28-3.55-2.62-.824-1.34-1.23-2.97-1.23-4.88 0-1.9.412-3.53 1.24-4.88.824-1.35 2.01-2.22 3.55-2.63z"/>
    <path d="m628.79 275.85c.164 0 .308.018.432.054.124.038.234.094.328.17.096.078.18.176.254.298.074.12.144.286.212.494.07.208.134.466.194.774.062.31.116.63.162.962h.08c.506-.712.89-1.23 1.15-1.56.262-.33.482-.576.662-.736.178-.16.352-.274.518-.34s.386-.098.66-.098c.248 0 .45.03.61.094l-.318 1.43h-.554c-.03-.222-.122-.332-.276-.332-.048 0-.098.008-.15.024s-.118.05-.194.102-.188.156-.336.308c-.148.154-.314.34-.498.562-.186.222-.374.454-.57.696l-.538.672c.094.506.184.944.27 1.31.084.368.158.676.224.922.066.244.124.438.174.58.05.144.104.25.162.322.058.07.118.12.178.15.062.028.132.042.21.042.142 0 .282-.054.416-.166.134-.11.328-.36.58-.75l.516.34c-.37.548-.704.934-1 1.16s-.652.336-1.06.336c-.226 0-.418-.04-.576-.122-.16-.082-.296-.212-.412-.392s-.22-.458-.308-.838c-.164-.676-.264-1.19-.302-1.55h-.078c-.56.786-.974 1.35-1.25 1.69s-.496.596-.672.76c-.178.164-.348.278-.514.344s-.388.098-.662.098c-.248 0-.45-.032-.608-.094l.316-1.43h.554c.032.222.124.332.276.332.074 0 .152-.02.234-.06.082-.038.2-.134.352-.284s.364-.386.632-.708c.27-.322.66-.804 1.17-1.45-.08-.416-.162-.816-.246-1.2s-.172-.744-.26-1.08c-.09-.332-.164-.55-.222-.652-.058-.104-.12-.174-.186-.214s-.15-.06-.25-.06c-.11 0-.21.026-.3.076s-.188.138-.292.262c-.106.122-.246.316-.42.58l-.514-.34c.332-.5.652-.876.958-1.12.304-.248.666-.372 1.08-.372z"/>
    <path d="m646.79 279.85h9.75v1.05h-9.75zm0-3.28h9.75v1.05h-9.75z"/>
    <path d="m665.79 275.85c.162 0 .306.018.43.054.124.038.234.094.328.17.096.078.18.176.254.298.074.12.144.286.214.494.068.208.132.466.194.774.06.31.114.63.162.962h.078c.506-.712.89-1.23 1.15-1.56s.48-.576.66-.736.352-.274.518-.34.386-.098.66-.098c.248 0 .452.03.61.094l-.316 1.43h-.554c-.032-.222-.124-.332-.278-.332-.046 0-.096.008-.15.024-.052.016-.118.05-.194.102s-.188.156-.336.308c-.148.154-.314.34-.498.562s-.374.454-.57.696l-.538.672c.096.506.186.944.27 1.31.084.368.16.676.224.922.066.244.124.438.174.58.052.144.106.25.164.322.058.07.116.12.178.15.06.028.13.042.208.042.144 0 .282-.054.416-.166.134-.11.328-.36.582-.75l.514.34c-.37.548-.704.934-1 1.16s-.652.336-1.06.336c-.228 0-.42-.04-.578-.122s-.296-.212-.412-.392-.218-.458-.308-.838c-.164-.676-.264-1.19-.3-1.55h-.08c-.558.786-.974 1.35-1.25 1.69s-.496.596-.672.76-.348.278-.514.344-.386.098-.66.098c-.248 0-.452-.032-.61-.094l.316-1.43h.554c.032.222.124.332.278.332.072 0 .15-.02.232-.06.082-.038.2-.134.352-.284.154-.15.364-.386.634-.708.268-.322.658-.804 1.17-1.45-.08-.416-.16-.816-.246-1.2-.084-.384-.17-.744-.26-1.08s-.164-.55-.222-.652c-.058-.104-.12-.174-.186-.214s-.148-.06-.248-.06c-.112 0-.212.026-.302.076s-.186.138-.292.262c-.106.122-.246.316-.42.58l-.514-.34c.332-.5.652-.876.958-1.12.306-.248.666-.372 1.08-.372z"/>
    <path d="m484.16 7.6428c.516 0 .962.0422 1.34.127l-.308 1.34h-.696c-.074-.301-.17-.517-.288-.649-.12-.132-.294-.198-.526-.198-.302 0-.556.083-.764.249s-.386.413-.534.74-.284.767-.412 1.32l-.198.862h2.03l-.174.799h-2.04l-1.47 6.9c-.244 1.14-.614 2-1.12 2.56-.5.562-1.13.842-1.89.842-.222 0-.396-.0132-.522-.0394l.134-.696c.052.0158.176.0238.372.0238.238 0 .44-.0606.608-.182.17-.121.326-.332.472-.633.144-.301.278-.717.4-1.25l1.7-7.52h-1.34l.12-.546c.352-.021.608-.05.762-.087.156-.0368.278-.0922.364-.166.088-.074.162-.17.222-.289s.138-.336.234-.653c.28-.949.71-1.66 1.29-2.14.584-.477 1.33-.716 2.23-.716z"/>
    <path d="m503.16 6.8728c1.54.406 2.72 1.28 3.55 2.63.826 1.35 1.24 2.97 1.24 4.88s-.41 3.53-1.23 4.88c-.822 1.34-2.01 2.22-3.55 2.62l-.19-.609c1.22-.406 2.12-1.21 2.72-2.4s.89-2.72.89-4.56c0-1.78-.296-3.26-.886-4.44-.59-1.18-1.51-1.97-2.74-2.38l.212-.609zm-10.1 0 .212.609c-1.23.406-2.15 1.2-2.74 2.38-.594 1.18-.89 2.66-.89 4.44 0 1.85.296 3.37.89 4.56s1.5 2 2.72 2.4l-.19.609c-1.55-.406-2.73-1.28-3.55-2.62-.824-1.34-1.23-2.97-1.23-4.88 0-1.9.412-3.53 1.24-4.88.824-1.35 2.01-2.22 3.55-2.63z"/>
    <path d="m496.16 11.263c.164 0 .308.0184.432.0554s.234.0936.328.17c.096.0766.18.175.254.297.074.121.144.286.212.494.07.208.134.467.194.775.062.309.116.629.162.961h.08c.506-.712.89-1.23 1.15-1.56.262-.33.482-.575.662-.736.178-.161.352-.274.518-.34s.386-.099.66-.099c.248 0 .45.0318.61.095l-.318 1.43h-.552c-.032-.222-.124-.332-.278-.332-.048 0-.098.008-.15.0238s-.118.0502-.194.103-.188.156-.336.309-.314.34-.498.562c-.186.221-.374.453-.57.696l-.538.672c.096.506.184.944.27 1.31.084.369.158.676.224.921s.124.439.174.581.104.249.162.32.118.121.178.15c.062.029.132.0434.21.0434.142 0 .282-.0554.416-.166.134-.111.328-.361.58-.751l.516.34c-.37.548-.704.935-1 1.16s-.652.336-1.06.336c-.226 0-.418-.0408-.576-.123-.16-.0818-.296-.212-.412-.392-.116-.179-.22-.459-.308-.838-.164-.675-.264-1.19-.302-1.55h-.078c-.56.786-.974 1.35-1.25 1.69s-.496.596-.672.759c-.178.163-.348.278-.514.344s-.388.0988-.662.0988c-.248 0-.45-.0316-.608-.0948l.316-1.43h.554c.032.222.124.332.276.332.074 0 .152-.0198.234-.0592.082-.0396.2-.135.352-.285s.364-.386.632-.708c.27-.322.66-.804 1.17-1.45-.08-.417-.162-.817-.246-1.2-.084-.385-.172-.743-.26-1.08-.09-.332-.164-.55-.222-.653s-.12-.174-.186-.214c-.066-.0396-.15-.0594-.25-.0594-.11 0-.21.025-.3.0752-.09.05-.188.137-.292.261-.106.124-.246.318-.42.581l-.514-.34c.332-.501.652-.875.958-1.12s.666-.372 1.08-.372z"/>
    <path d="m515.16 15.463h9.75v1.05h-9.75zm0-3.28h9.75v1.05h-9.75z"/>
    <path d="m531.16 13.763h9.74v5.58h-1.12v-4.54h-8.62z"/>
    <path d="m545.16 11.263c.164 0 .308.0184.432.0554s.234.0936.328.17c.094.0766.18.175.254.297.072.121.144.286.212.494.07.208.134.467.194.775.062.309.116.629.162.961h.08c.506-.712.89-1.23 1.15-1.56.262-.33.482-.575.662-.736.178-.161.352-.274.518-.34s.386-.099.66-.099c.248 0 .45.0318.608.095l-.316 1.43h-.554c-.03-.222-.124-.332-.276-.332-.048 0-.098.008-.15.0238-.054.0158-.118.0502-.194.103s-.188.156-.336.309-.314.34-.498.562c-.186.221-.376.453-.57.696l-.538.672c.094.506.184.944.268 1.31.086.369.16.676.226.921s.124.439.174.581.104.249.162.32.118.121.178.15c.062.029.13.0434.21.0434.142 0 .28-.0554.416-.166.134-.111.328-.361.58-.751l.514.34c-.368.548-.702.935-1 1.16s-.652.336-1.06.336c-.226 0-.418-.0408-.578-.123-.158-.0818-.294-.212-.41-.392-.116-.179-.22-.459-.308-.838-.164-.675-.264-1.19-.302-1.55h-.078c-.56.786-.974 1.35-1.25 1.69s-.496.596-.672.759c-.178.163-.348.278-.514.344-.168.066-.388.0988-.662.0988-.248 0-.45-.0316-.608-.0948l.316-1.43h.554c.032.222.124.332.276.332.074 0 .152-.0198.234-.0592.082-.0396.198-.135.352-.285.152-.15.364-.386.632-.708.27-.322.66-.804 1.17-1.45-.08-.417-.162-.817-.246-1.2-.084-.385-.172-.743-.26-1.08-.09-.332-.164-.55-.222-.653s-.12-.174-.186-.214c-.066-.0396-.15-.0594-.25-.0594-.11 0-.21.025-.3.0752-.09.05-.188.137-.292.261-.106.124-.246.318-.42.581l-.514-.34c.332-.501.652-.875.956-1.12.306-.248.668-.372 1.08-.372z"/>
  </g>
  <g class="kata_svg_text">
    <!-- Legend text -->
    <path d="m135 350c-.94.455-2.17.683-3.68.683-1.98 0-3.53-.581-4.66-1.74s-1.7-2.71-1.7-4.64c0-2.06.635-3.73 1.9-5.01 1.28-1.28 2.93-1.92 4.96-1.92 1.26 0 2.32.159 3.18.476v2.79c-.862-.515-1.84-.773-2.95-.773-1.21 0-2.19.381-2.93 1.14-.743.761-1.11 1.79-1.11 3.09 0 1.25.35 2.24 1.05 2.98.7.737 1.64 1.1 2.83 1.1 1.13 0 2.17-.276 3.11-.827v2.65zm6.35.683c-1.53 0-2.74-.429-3.62-1.28-.875-.863-1.31-2.03-1.31-3.5 0-1.52.455-2.71 1.37-3.57.91-.862 2.14-1.29 3.69-1.29 1.53 0 2.72.432 3.59 1.29.868.857 1.3 1.99 1.3 3.4 0 1.53-.45 2.73-1.35 3.62-.893.886-2.12 1.33-3.68 1.33zm.072-7.48c-.671 0-1.19.23-1.56.691-.371.462-.557 1.11-.557 1.96 0 1.77.713 2.65 2.14 2.65 1.36 0 2.04-.907 2.04-2.72 0-1.72-.686-2.58-2.06-2.58zm15.7 7.25h-2.83v-5.11c0-1.43-.509-2.14-1.53-2.14-.492 0-.896.188-1.21.566-.318.377-.477.856-.477 1.44v5.25h-2.84v-9.2h2.84v1.46h.036c.677-1.12 1.66-1.68 2.96-1.68 2.04 0 3.06 1.26 3.06 3.79v5.63zm1.65-.243v-2.3c.467.282.931.492 1.39.629.467.138.907.207 1.32.207.503 0 .899-.069 1.19-.207.294-.137.441-.347.441-.629 0-.179-.066-.329-.198-.449s-.303-.224-.512-.314c-.204-.09-.429-.171-.674-.243-.246-.072-.482-.153-.71-.242-.365-.138-.689-.285-.97-.441-.276-.161-.509-.347-.701-.557-.186-.209-.329-.452-.431-.727-.096-.276-.144-.602-.144-.98 0-.515.111-.958.332-1.33.228-.372.528-.674.899-.908.377-.239.806-.413 1.28-.521.485-.114.988-.171 1.51-.171.407 0 .821.033 1.24.099.419.06.832.15 1.24.27v2.19c-.36-.21-.746-.365-1.16-.467-.408-.108-.809-.162-1.2-.162-.186 0-.363.018-.53.054-.162.03-.306.078-.431.144-.126.06-.225.14-.297.242-.072.096-.108.207-.108.333 0 .167.054.311.162.431s.249.225.422.314c.174.084.366.162.575.234.216.066.428.135.638.207.377.131.719.275 1.02.431.306.156.566.338.782.548.222.21.389.455.503.737.12.281.18.617.18 1.01 0 .545-.12 1.01-.36 1.4-.233.384-.548.698-.943.944-.389.239-.841.413-1.36.521-.509.114-1.04.171-1.59.171-1.01 0-1.95-.156-2.81-.468zm14.3.135c-.419.222-1.05.333-1.9.333-2 0-3-1.04-3-3.12v-4.21h-1.49v-2.09h1.49v-1.99l2.83-.808v2.79h2.07v2.09h-2.07v3.72c0 .958.38 1.44 1.14 1.44.299 0 .608-.086.925-.26v2.1zm9.26.108h-2.69v-1.32h-.036c-.617 1.03-1.53 1.55-2.74 1.55-.893 0-1.6-.252-2.11-.755-.509-.509-.763-1.19-.763-2.03 0-1.78 1.06-2.82 3.17-3.09l2.5-.333c0-1.01-.545-1.51-1.64-1.51-1.1 0-2.14.326-3.13.979v-2.14c.395-.204.934-.383 1.62-.539.689-.156 1.32-.234 1.88-.234 2.62 0 3.94 1.31 3.94 3.93v5.5zm-2.67-3.74v-.62l-1.67.215c-.923.12-1.38.536-1.38 1.25 0 .323.111.59.333.8.227.203.533.305.916.305.533 0 .967-.183 1.3-.548.335-.371.503-.838.503-1.4zm13.8 3.74h-2.83v-5.11c0-1.43-.509-2.14-1.53-2.14-.491 0-.895.188-1.21.566-.317.377-.476.856-.476 1.44v5.25h-2.84v-9.2h2.84v1.46h.036c.677-1.12 1.66-1.68 2.96-1.68 2.04 0 3.06 1.26 3.06 3.79v5.63zm7.82-.108c-.419.222-1.05.333-1.9.333-2 0-3-1.04-3-3.12v-4.21h-1.49v-2.09h1.49v-1.99l2.83-.808v2.79h2.07v2.09h-2.07v3.72c0 .958.38 1.44 1.14 1.44.299 0 .608-.086.925-.26v2.1z"/>
    <path d="m491 338-4.44 12.9h-3.29l-4.38-12.9h3.13l2.69 8.97c.144.485.23.913.26 1.28h.054c.042-.402.135-.842.279-1.32l2.67-8.93h3.04zm7.54 12.9h-2.69v-1.32h-.036c-.616 1.03-1.53 1.55-2.74 1.55-.892 0-1.6-.252-2.11-.755-.509-.509-.764-1.19-.764-2.03 0-1.78 1.06-2.82 3.17-3.09l2.5-.333c0-1.01-.545-1.51-1.64-1.51-1.1 0-2.14.326-3.13.979v-2.14c.395-.204.934-.383 1.62-.539.689-.156 1.32-.234 1.88-.234 2.62 0 3.94 1.31 3.94 3.93v5.5zm-2.67-3.74v-.62l-1.67.215c-.922.12-1.38.536-1.38 1.25 0 .323.11.59.332.8.228.203.533.305.916.305.534 0 .968-.183 1.3-.548.336-.371.503-.838.503-1.4zm10.9-2.9c-.341-.186-.739-.279-1.2-.279-.616 0-1.1.228-1.45.683-.347.449-.521 1.06-.521 1.84v4.39h-2.84v-9.2h2.84v1.71h.036c.449-1.25 1.26-1.87 2.43-1.87.299 0 .533.036.7.108v2.62zm2.84-4.02c-.479 0-.871-.141-1.18-.423-.305-.287-.458-.638-.458-1.05 0-.425.153-.773.458-1.04.306-.27.698-.404 1.18-.404.486 0 .878.134 1.18.404.306.269.459.617.459 1.04 0 .431-.153.785-.459 1.06-.299.276-.691.414-1.18.414zm1.4 10.7h-2.84v-9.2h2.84zm10 0h-2.69v-1.32h-.036c-.617 1.03-1.53 1.55-2.74 1.55-.892 0-1.6-.252-2.11-.755-.509-.509-.764-1.19-.764-2.03 0-1.78 1.06-2.82 3.17-3.09l2.5-.333c0-1.01-.545-1.51-1.64-1.51-1.1 0-2.14.326-3.13.979v-2.14c.396-.204.935-.383 1.62-.539.688-.156 1.31-.234 1.88-.234 2.62 0 3.94 1.31 3.94 3.93v5.5zm-2.67-3.74v-.62l-1.67.215c-.922.12-1.38.536-1.38 1.25 0 .323.111.59.333.8.227.203.533.305.916.305.533 0 .968-.183 1.3-.548.335-.371.503-.838.503-1.4zm7.79 2.67h-.036v1.07h-2.84v-13.6h2.84v5.8h.036c.7-1.07 1.7-1.61 2.99-1.61 1.19 0 2.1.408 2.74 1.22.641.815.961 1.93.961 3.34 0 1.53-.374 2.76-1.12 3.69s-1.75 1.39-3 1.39c-1.13 0-1.99-.432-2.57-1.29zm-.081-3.88v.943c0 .593.17 1.08.512 1.47.341.39.779.584 1.31.584.646 0 1.15-.248 1.5-.745.359-.503.539-1.21.539-2.13 0-.76-.165-1.35-.494-1.78-.324-.431-.788-.646-1.39-.646-.569 0-1.04.212-1.42.638-.372.425-.557.979-.557 1.66zm11.5 4.95h-2.84v-13.6h2.84zm10.7-3.79h-6c.096 1.34.937 2 2.52 2 1.01 0 1.9-.239 2.67-.719v2.05c-.851.455-1.96.683-3.32.683-1.48 0-2.64-.411-3.46-1.23-.82-.827-1.23-1.98-1.23-3.45 0-1.53.443-2.74 1.33-3.63.887-.892 1.98-1.34 3.27-1.34 1.34 0 2.38.399 3.11 1.2.737.797 1.1 1.88 1.1 3.24v1.2zm-2.63-1.74c0-1.32-.533-1.98-1.6-1.98-.456 0-.851.189-1.19.566-.33.377-.53.848-.602 1.41h3.39z"/>
    <!-- Ket text -->
    <path d="m259 156h1.25v15.1h-1.25z"/>
    <path d="m266 157c-.372 0-.684.11-.936.332s-.454.54-.608.956-.264.924-.328 1.52c-.064.598-.098 1.27-.098 2.02 0 1.76.164 3.05.49 3.88.328.824.834 1.24 1.52 1.24.654 0 1.14-.386 1.46-1.16s.474-1.98.474-3.6c0-1.24-.082-2.25-.244-3.02s-.388-1.32-.676-1.66c-.29-.334-.64-.502-1.05-.502zm.04-.69c1.18 0 2.06.458 2.64 1.37.578.914.866 2.29.866 4.14 0 1.91-.308 3.36-.928 4.34-.618.982-1.52 1.47-2.71 1.47-1.17 0-2.04-.46-2.61-1.38s-.856-2.31-.856-4.18c0-.994.088-1.85.264-2.58s.42-1.32.738-1.8c.316-.472.694-.822 1.14-1.05.442-.228.926-.342 1.45-.342z"/>
    <path d="m273 156 3.23 7.28v.598l-3.23 7.29-.868-.308 2.6-7.28-2.6-7.29.868-.292z"/>
    <path d="m156 45.5h1.25v15.1h-1.25z"/>
    <path d="m164 45.9h.446c-.032.519-.05 1.24-.05 2.16v6.92c0 .313.018.55.054.709.034.159.096.289.186.389s.218.178.384.235c.168.0568.38.1.634.13.254.0298.588.05 1 .0608v.592h-5.99v-.592c.6-.027 1.03-.0634 1.29-.109.256-.0458.452-.115.586-.207.136-.0918.234-.222.296-.389.062-.168.094-.44.094-.819v-6.57c0-.216-.038-.374-.114-.474s-.186-.15-.332-.15c-.172 0-.418.0892-.738.267-.318.178-.712.424-1.18.738l-.356-.624 3.79-2.26z"/>
    <path d="m170 44.8 3.23 7.28v.6l-3.23 7.29-.866-.308 2.6-7.28-2.6-7.29z"/>
    <path d="m224 88.4h1.25v15.1h-1.25z"/>
    <path d="m233 90h1.15v4.67h4.42v1.08h-4.42v4.67h-1.15v-4.67h-4.42v-1.08h4.42z"/>
    <path d="m242 87.6 3.23 7.28v.6l-3.23 7.29-.866-.308 2.6-7.28-2.6-7.29z"/>
    <path d="m224 222h1.25v15.1h-1.25z"/>
    <path d="m229 228h9.99v1.08h-9.99z"/>
    <path d="m242 221 3.23 7.28v.6l-3.23 7.29-.868-.308 2.6-7.28-2.6-7.29z"/>
    <path d="m149 265h9.99v1.08h-9.99z"/>
    <path d="m162 259h1.25v15.1h-1.25z"/>
    <path d="m171 259h.446c-.032.52-.05 1.24-.05 2.16v6.92c0 .314.018.55.054.71.034.16.096.29.186.39s.218.178.386.234c.166.056.378.1.632.13s.588.05 1 .06v.592h-5.99v-.592c.6-.026 1.03-.062 1.29-.108.256-.046.452-.116.586-.208.136-.092.234-.222.296-.388.062-.168.094-.44.094-.82v-6.57c0-.216-.038-.374-.114-.474s-.186-.15-.332-.15c-.172 0-.418.088-.738.266-.318.178-.712.424-1.18.738l-.358-.624 3.79-2.26z"/>
    <path d="m176 258 3.23 7.28v.6l-3.23 7.29-.866-.308 2.6-7.28-2.6-7.29z"/>
    <path d="m44.7 163h9.99v1.08h-9.99z"/>
    <path d="m57.9 156h1.25v15.1h-1.25z"/>
    <path d="m65.7 157c-.373 0-.685.11-.936.332s-.454.54-.608.956-.264.924-.328 1.52c-.0648.598-.0972 1.27-.0972 2.02 0 1.76.163 3.05.49 3.88.327.824.833 1.24 1.52 1.24.654 0 1.14-.386 1.45-1.16.316-.776.474-1.98.474-3.6 0-1.24-.081-2.25-.243-3.02s-.388-1.32-.677-1.66c-.289-.334-.639-.502-1.05-.502zm.0406-.69c1.18 0 2.06.458 2.64 1.37.578.914.867 2.29.867 4.14 0 1.91-.309 3.36-.928 4.34-.619.982-1.52 1.47-2.71 1.47-1.17 0-2.04-.46-2.61-1.38-.57-.918-.855-2.31-.855-4.18 0-.994.0878-1.85.263-2.58s.422-1.32.738-1.8c.316-.472.696-.822 1.14-1.05.443-.228.927-.342 1.45-.342z"/>
    <path d="m72 156 3.23 7.28v.598l-3.23 7.29-.867-.308 2.6-7.28-2.6-7.29.867-.292z"/>
    <path d="m74.1 228h9.99v1.08h-9.99z"/>
    <path d="m87.3 221h1.25v15.1h-1.25z"/>
    <path d="m96.2 223h1.15v4.67h4.42v1.08h-4.42v4.67h-1.15v-4.67h-4.42v-1.08h4.42z"/>
    <path d="m105 220 3.23 7.28v.598l-3.23 7.29-.868-.308 2.6-7.28-2.6-7.29.868-.292z"/>
    <path d="m73.4 94.2h9.99v1.08h-9.99z"/>
    <path d="m86.6 87.9h1.25v15.1h-1.25z"/>
    <path d="m91.1 94.2h9.99v1.08h-9.99z"/>
    <path d="m104 87.2 3.23 7.28v.6l-3.23 7.29-.868-.308 2.6-7.28-2.6-7.29z"/>
    <path d="m608 156h1.25v15.1h-1.25z"/>
    <path d="m616 157c-.374 0-.686.11-.936.332-.252.222-.454.54-.608.956s-.264.924-.328 1.52c-.066.598-.098 1.27-.098 2.02 0 1.76.164 3.05.49 3.88.328.824.834 1.24 1.52 1.24.654 0 1.14-.386 1.46-1.16s.474-1.98.474-3.6c0-1.24-.082-2.25-.244-3.02s-.388-1.32-.676-1.66c-.29-.334-.64-.502-1.05-.502zm.04-.69c1.18 0 2.06.458 2.64 1.37.578.914.868 2.29.868 4.14 0 1.91-.31 3.36-.928 4.34-.618.982-1.52 1.47-2.71 1.47-1.17 0-2.04-.46-2.61-1.38s-.854-2.31-.854-4.18c0-.994.088-1.85.262-2.58.176-.724.422-1.32.738-1.8.316-.472.696-.822 1.14-1.05.442-.228.926-.342 1.45-.342z"/>
    <path d="m622 156 3.23 7.28v.598l-3.23 7.29-.868-.308 2.6-7.28-2.6-7.29.868-.292z"/>
    <path d="m505 45.5h1.25v15.1h-1.25z"/>
    <path d="m514 45.9h.444c-.032.519-.048 1.24-.048 2.16v6.92c0 .313.018.55.054.709.034.159.096.289.186.389.088.1.216.178.384.235s.378.1.632.13c.254.0298.59.05 1.01.0608v.592h-5.99v-.592c.6-.027 1.03-.0634 1.28-.109.258-.0458.454-.115.588-.207.136-.0918.234-.222.296-.389.062-.168.094-.44.094-.819v-6.57c0-.216-.038-.374-.114-.474s-.186-.15-.332-.15c-.174 0-.42.0892-.738.267-.318.178-.714.424-1.18.738l-.356-.624 3.79-2.26z"/>
    <path d="m519 44.8 3.23 7.28v.6l-3.23 7.29-.868-.308 2.6-7.28-2.6-7.29z"/>
    <path d="m574 88.4h1.25v15.1h-1.25z"/>
    <path d="m583 90h1.15v4.67h4.42v1.08h-4.42v4.67h-1.15v-4.67h-4.42v-1.08h4.42z"/>
    <path d="m591 87.6 3.23 7.28v.6l-3.23 7.29-.868-.308 2.6-7.28-2.6-7.29z"/>
    <path d="m574 222h1.25v15.1h-1.25z"/>
    <path d="m578 228h9.99v1.08h-9.99z"/>
    <path d="m591 221 3.23 7.28v.6l-3.23 7.29-.866-.308 2.6-7.28-2.6-7.29z"/>
    <path d="m498 265h9.99v1.08h-9.99z"/>
    <path d="m511 259h1.25v15.1h-1.25z"/>
    <path d="m520 259h.446c-.034.52-.05 1.24-.05 2.16v6.92c0 .314.018.55.054.71.034.16.096.29.186.39.088.1.216.178.384.234s.378.1.632.13.59.05 1.01.06v.592h-5.99v-.592c.6-.026 1.03-.062 1.28-.108.258-.046.454-.116.588-.208.136-.092.234-.222.296-.388.062-.168.094-.44.094-.82v-6.57c0-.216-.038-.374-.114-.474s-.186-.15-.332-.15c-.174 0-.42.088-.738.266s-.714.424-1.18.738l-.356-.624 3.79-2.26z"/>
    <path d="m525 258 3.23 7.28v.6l-3.23 7.29-.868-.308 2.6-7.28-2.6-7.29z"/>
    <path d="m394 163h9.99v1.08h-9.99z"/>
    <path d="m407 156h1.25v15.1h-1.25z"/>
    <path d="m415 157c-.374 0-.686.11-.936.332-.252.222-.454.54-.608.956s-.264.924-.328 1.52c-.066.598-.098 1.27-.098 2.02 0 1.76.164 3.05.49 3.88.328.824.834 1.24 1.52 1.24.654 0 1.14-.386 1.45-1.16.318-.776.476-1.98.476-3.6 0-1.24-.082-2.25-.244-3.02s-.388-1.32-.676-1.66c-.29-.334-.64-.502-1.05-.502zm.04-.69c1.18 0 2.06.458 2.64 1.37.578.914.868 2.29.868 4.14 0 1.91-.31 3.36-.928 4.34-.62.982-1.52 1.47-2.71 1.47-1.17 0-2.04-.46-2.61-1.38s-.854-2.31-.854-4.18c0-.994.088-1.85.262-2.58.176-.724.422-1.32.738-1.8.316-.472.696-.822 1.14-1.05.442-.228.926-.342 1.45-.342z"/>
    <path d="m421 156 3.23 7.28v.598l-3.23 7.29-.866-.308 2.6-7.28-2.6-7.29.866-.292z"/>
    <path d="m423 228h9.99v1.08h-9.99z"/>
    <path d="m436 221h1.25v15.1h-1.25z"/>
    <path d="m445 223h1.15v4.67h4.42v1.08h-4.42v4.67h-1.15v-4.67h-4.42v-1.08h4.42z"/>
    <path d="m454 220 3.23 7.28v.598l-3.23 7.29-.868-.308 2.6-7.28-2.6-7.29.868-.292z"/>
    <path d="m423 94.2h9.99v1.08h-9.99z"/>
    <path d="m436 87.9h1.25v15.1h-1.25z"/>
    <path d="m440 94.2h9.99v1.08h-9.99z"/>
    <path d="m453 87.2 3.23 7.28v.6l-3.23 7.29-.868-.308 2.6-7.28-2.6-7.29z"/>
  </g>
</svg>
