<?xml version="1.0" encoding="UTF-8"?>
<svg width="685" height="380" fill="none" version="1.1" xmlns="http://www.w3.org/2000/svg">
<style>
/* Default values, or theme set explicitly to light */
:root, [data-theme="light"] {
    --kata-svg-stroke: #222;
    --kata-svg-fill: #fff;
    --kata-svg-path: #777;
    --kata-svg-accent: #06c;
}
/* User has set OS preference for dark. (An explict light theme will override) */
@media(prefers-color-scheme: dark) {
    :root {
        --kata-svg-stroke: #eee;
        --kata-svg-fill: #111;
        --kata-svg-path: #bbb;
        --kata-svg-accent: #08f;
    }
}
/* Explicit dark theme set (should match above dark preference values) */
[data-theme="dark"] {
    --kata-svg-stroke: #eee;
    --kata-svg-fill: #111;
    --kata-svg-path: #bbb;
    --kata-svg-accent: #08f;
}
/*** Kata specific styles ***/
.kata_svg_path {
    stroke: var(--kata-svg-path);
    stroke-width: 2;
    stroke-linecap: round;
    fill: none;
}
.kata_svg_text {
    fill: var(--kata-svg-stroke);
}
.kata_svg_point {
    fill: var(--kata-svg-fill);
    stroke: var(--kata-svg-stroke);
}
.kata_svg_fill_accent {
    fill: var(--kata-svg-accent);
}
.kata_svg_stroke_accent {
    stroke: var(--kata-svg-accent);
}
</style>
  <!-- Large circles -->
  <g class="kata_svg_path" >
    <path d="m24.1 163c0-76.8 62.3-139 139-139 76.8 0 139 62.3 139 139 0 76.8-62.3 139-139 139-76.8 0-139-62.3-139-139z"/>
    <path d="m375 163c0-76.8 62.2-139 139-139s139 62.3 139 139c0 76.8-62.2 139-139 139s-139-62.3-139-139z"/>
  </g>
  <!-- Target points -->
  <g class="kata_svg_fill_accent">
    <path d="m296 163c0-3.26 2.64-5.9 5.9-5.9s5.9 2.64 5.9 5.9-2.64 5.9-5.9 5.9-5.9-2.64-5.9-5.9z"/>
    <path d="m18 163c0-3.26 2.69-5.9 6-5.9s6 2.64 6 5.9-2.69 5.9-6 5.9-6-2.64-6-5.9z"/>
    <path d="m508 23.7c0-3.26 2.69-5.9 6-5.9s6 2.64 6 5.9-2.69 5.9-6 5.9-6-2.64-6-5.9z"/>
    <path d="m508 302c0-3.26 2.69-5.9 6-5.9s6 2.64 6 5.9-2.69 5.9-6 5.9-6-2.64-6-5.9z"/>
  </g>
  <!-- Normal points -->
  <g class="kata_svg_point">
    <path d="m157 23.8c0-3.26 2.64-5.9 5.9-5.9s5.9 2.64 5.9 5.9-2.64 5.9-5.9 5.9-5.9-2.64-5.9-5.9z"/>
    <path d="m157 302c0-3.26 2.64-5.9 5.9-5.9s5.9 2.64 5.9 5.9-2.64 5.9-5.9 5.9-5.9-2.64-5.9-5.9z"/>
    <path d="m257 260c0-3.26 2.69-5.9 6-5.9s6 2.64 6 5.9-2.69 5.9-6 5.9-6-2.64-6-5.9z"/>
    <path d="m57.3 66.6c0-3.26 2.69-5.9 6-5.9s6 2.64 6 5.9-2.69 5.9-6 5.9-6-2.64-6-5.9z"/>
    <path d="m647 163c0-3.26 2.69-5.9 6-5.9s6 2.64 6 5.9-2.69 5.9-6 5.9-6-2.64-6-5.9z"/>
    <path d="m369 163c0-3.26 2.64-5.9 5.9-5.9s5.9 2.64 5.9 5.9-2.64 5.9-5.9 5.9-5.9-2.64-5.9-5.9z"/>
    <path d="m608 66.6c0-3.26 2.69-5.9 6-5.9s6 2.64 6 5.9-2.69 5.9-6 5.9-6-2.64-6-5.9z"/>
    <path d="m408 260c0-3.26 2.64-5.9 5.9-5.9s5.9 2.64 5.9 5.9-2.64 5.9-5.9 5.9-5.9-2.64-5.9-5.9z"/>
  </g>
  <!-- From point -->
  <g class="kata_svg_point kata_svg_stroke_accent">
    <path d="m257 66.6c0-3.26 2.69-5.9 6-5.9s6 2.64 6 5.9-2.69 5.9-6 5.9-6-2.64-6-5.9z"/>
    <path d="m57.3 260c0-3.26 2.69-5.9 6-5.9s6 2.64 6 5.9-2.69 5.9-6 5.9-6-2.64-6-5.9z"/>
    <path d="m608 260c0-3.26 2.69-5.9 6-5.9s6 2.64 6 5.9-2.69 5.9-6 5.9-6-2.64-6-5.9z"/>
    <path d="m408 66.6c0-3.26 2.64-5.9 5.9-5.9s5.9 2.64 5.9 5.9-2.64 5.9-5.9 5.9-5.9-2.64-5.9-5.9z"/>
  </g>
  <!-- Arrows -->
  <g class="kata_svg_path kata_svg_stroke_accent" fill="none" stroke-linecap="round" stroke-linejoin="round" stroke-width="2">
    <path d="m269.59 66.574h54.658v96.133h-15.241l5.6085-4.3192-5.6085 4.3192 5.6085 4.7704" image-rendering="auto"/>
    <path d="m407 66.95h-50v257h157v-15.074l-4.3311 4.8322 4.3311-4.7179 4.5323 4.7179" image-rendering="auto"/>
    <path d="m56.477 259.94h-51.893v-96.99h12.254l-5.544 4.3192 5.544-4.3192-5.544-4.7704" image-rendering="auto"/>
    <path d="m619.97 259.89h50.641v-254.72h-156.63v11.463l4.3311-4.8322-4.3311 4.7179-4.5323-4.7179" image-rendering="auto"/>
  </g>
  <g class="kata_svg_text">
    <!-- Legend text -->
    <path d="m135 350c-.94.455-2.17.683-3.68.683-1.98 0-3.53-.581-4.66-1.74s-1.7-2.71-1.7-4.64c0-2.06.635-3.73 1.9-5.01 1.28-1.28 2.93-1.92 4.96-1.92 1.26 0 2.32.159 3.18.476v2.79c-.862-.515-1.84-.773-2.95-.773-1.21 0-2.19.381-2.93 1.14-.743.761-1.11 1.79-1.11 3.09 0 1.25.35 2.24 1.05 2.98.7.737 1.64 1.1 2.83 1.1 1.13 0 2.17-.276 3.11-.827v2.65zm6.35.683c-1.53 0-2.74-.429-3.62-1.28-.875-.863-1.31-2.03-1.31-3.5 0-1.52.455-2.71 1.37-3.57.91-.862 2.14-1.29 3.69-1.29 1.53 0 2.72.432 3.59 1.29.868.857 1.3 1.99 1.3 3.4 0 1.53-.45 2.73-1.35 3.62-.893.886-2.12 1.33-3.68 1.33zm.072-7.48c-.671 0-1.19.23-1.56.691-.371.462-.557 1.11-.557 1.96 0 1.77.713 2.65 2.14 2.65 1.36 0 2.04-.907 2.04-2.72 0-1.72-.686-2.58-2.06-2.58zm15.7 7.25h-2.83v-5.11c0-1.43-.509-2.14-1.53-2.14-.492 0-.896.188-1.21.566-.318.377-.477.856-.477 1.44v5.25h-2.84v-9.2h2.84v1.46h.036c.677-1.12 1.66-1.68 2.96-1.68 2.04 0 3.06 1.26 3.06 3.79v5.63zm1.65-.243v-2.3c.467.282.931.492 1.39.629.467.138.907.207 1.32.207.503 0 .899-.069 1.19-.207.294-.137.441-.347.441-.629 0-.179-.066-.329-.198-.449s-.303-.224-.512-.314c-.204-.09-.429-.171-.674-.243-.246-.072-.482-.153-.71-.242-.365-.138-.689-.285-.97-.441-.276-.161-.509-.347-.701-.557-.186-.209-.329-.452-.431-.727-.096-.276-.144-.602-.144-.98 0-.515.111-.958.332-1.33.228-.372.528-.674.899-.908.377-.239.806-.413 1.28-.521.485-.114.988-.171 1.51-.171.407 0 .821.033 1.24.099.419.06.832.15 1.24.27v2.19c-.36-.21-.746-.365-1.16-.467-.408-.108-.809-.162-1.2-.162-.186 0-.363.018-.53.054-.162.03-.306.078-.431.144-.126.06-.225.14-.297.242-.072.096-.108.207-.108.333 0 .167.054.311.162.431s.249.225.422.314c.174.084.366.162.575.234.216.066.428.135.638.207.377.131.719.275 1.02.431.306.156.566.338.782.548.222.21.389.455.503.737.12.281.18.617.18 1.01 0 .545-.12 1.01-.36 1.4-.233.384-.548.698-.943.944-.389.239-.841.413-1.36.521-.509.114-1.04.171-1.59.171-1.01 0-1.95-.156-2.81-.468zm14.3.135c-.419.222-1.05.333-1.9.333-2 0-3-1.04-3-3.12v-4.21h-1.49v-2.09h1.49v-1.99l2.83-.808v2.79h2.07v2.09h-2.07v3.72c0 .958.38 1.44 1.14 1.44.299 0 .608-.086.925-.26v2.1zm9.26.108h-2.69v-1.32h-.036c-.617 1.03-1.53 1.55-2.74 1.55-.893 0-1.6-.252-2.11-.755-.509-.509-.763-1.19-.763-2.03 0-1.78 1.06-2.82 3.17-3.09l2.5-.333c0-1.01-.545-1.51-1.64-1.51-1.1 0-2.14.326-3.13.979v-2.14c.395-.204.934-.383 1.62-.539.689-.156 1.32-.234 1.88-.234 2.62 0 3.94 1.31 3.94 3.93v5.5zm-2.67-3.74v-.62l-1.67.215c-.923.12-1.38.536-1.38 1.25 0 .323.111.59.333.8.227.203.533.305.916.305.533 0 .967-.183 1.3-.548.335-.371.503-.838.503-1.4zm13.8 3.74h-2.83v-5.11c0-1.43-.509-2.14-1.53-2.14-.491 0-.895.188-1.21.566-.317.377-.476.856-.476 1.44v5.25h-2.84v-9.2h2.84v1.46h.036c.677-1.12 1.66-1.68 2.96-1.68 2.04 0 3.06 1.26 3.06 3.79v5.63zm7.82-.108c-.419.222-1.05.333-1.9.333-2 0-3-1.04-3-3.12v-4.21h-1.49v-2.09h1.49v-1.99l2.83-.808v2.79h2.07v2.09h-2.07v3.72c0 .958.38 1.44 1.14 1.44.299 0 .608-.086.925-.26v2.1z"/>
    <path d="m491 338-4.44 12.9h-3.29l-4.38-12.9h3.13l2.69 8.97c.144.485.23.913.26 1.28h.054c.042-.402.135-.842.279-1.32l2.67-8.93h3.04zm7.54 12.9h-2.69v-1.32h-.036c-.616 1.03-1.53 1.55-2.74 1.55-.892 0-1.6-.252-2.11-.755-.509-.509-.764-1.19-.764-2.03 0-1.78 1.06-2.82 3.17-3.09l2.5-.333c0-1.01-.545-1.51-1.64-1.51-1.1 0-2.14.326-3.13.979v-2.14c.395-.204.934-.383 1.62-.539.689-.156 1.32-.234 1.88-.234 2.62 0 3.94 1.31 3.94 3.93v5.5zm-2.67-3.74v-.62l-1.67.215c-.922.12-1.38.536-1.38 1.25 0 .323.11.59.332.8.228.203.533.305.916.305.534 0 .968-.183 1.3-.548.336-.371.503-.838.503-1.4zm10.9-2.9c-.341-.186-.739-.279-1.2-.279-.616 0-1.1.228-1.45.683-.347.449-.521 1.06-.521 1.84v4.39h-2.84v-9.2h2.84v1.71h.036c.449-1.25 1.26-1.87 2.43-1.87.299 0 .533.036.7.108v2.62zm2.84-4.02c-.479 0-.871-.141-1.18-.423-.305-.287-.458-.638-.458-1.05 0-.425.153-.773.458-1.04.306-.27.698-.404 1.18-.404.486 0 .878.134 1.18.404.306.269.459.617.459 1.04 0 .431-.153.785-.459 1.06-.299.276-.691.414-1.18.414zm1.4 10.7h-2.84v-9.2h2.84zm10 0h-2.69v-1.32h-.036c-.617 1.03-1.53 1.55-2.74 1.55-.892 0-1.6-.252-2.11-.755-.509-.509-.764-1.19-.764-2.03 0-1.78 1.06-2.82 3.17-3.09l2.5-.333c0-1.01-.545-1.51-1.64-1.51-1.1 0-2.14.326-3.13.979v-2.14c.396-.204.935-.383 1.62-.539.688-.156 1.31-.234 1.88-.234 2.62 0 3.94 1.31 3.94 3.93v5.5zm-2.67-3.74v-.62l-1.67.215c-.922.12-1.38.536-1.38 1.25 0 .323.111.59.333.8.227.203.533.305.916.305.533 0 .968-.183 1.3-.548.335-.371.503-.838.503-1.4zm7.79 2.67h-.036v1.07h-2.84v-13.6h2.84v5.8h.036c.7-1.07 1.7-1.61 2.99-1.61 1.19 0 2.1.408 2.74 1.22.641.815.961 1.93.961 3.34 0 1.53-.374 2.76-1.12 3.69s-1.75 1.39-3 1.39c-1.13 0-1.99-.432-2.57-1.29zm-.081-3.88v.943c0 .593.17 1.08.512 1.47.341.39.779.584 1.31.584.646 0 1.15-.248 1.5-.745.359-.503.539-1.21.539-2.13 0-.76-.165-1.35-.494-1.78-.324-.431-.788-.646-1.39-.646-.569 0-1.04.212-1.42.638-.372.425-.557.979-.557 1.66zm11.5 4.95h-2.84v-13.6h2.84zm10.7-3.79h-6c.096 1.34.937 2 2.52 2 1.01 0 1.9-.239 2.67-.719v2.05c-.851.455-1.96.683-3.32.683-1.48 0-2.64-.411-3.46-1.23-.82-.827-1.23-1.98-1.23-3.45 0-1.53.443-2.74 1.33-3.63.887-.892 1.98-1.34 3.27-1.34 1.34 0 2.38.399 3.11 1.2.737.797 1.1 1.88 1.1 3.24v1.2zm-2.63-1.74c0-1.32-.533-1.98-1.6-1.98-.456 0-.851.189-1.19.566-.33.377-.53.848-.602 1.41h3.39z"/>
    <!-- Ket text -->
    <path d="m259 156h1.25v15.1h-1.25z"/>
    <path d="m266 157c-.372 0-.684.11-.936.332s-.454.54-.608.956-.264.924-.328 1.52c-.064.598-.098 1.27-.098 2.02 0 1.76.164 3.05.49 3.88.328.824.834 1.24 1.52 1.24.654 0 1.14-.386 1.46-1.16s.474-1.98.474-3.6c0-1.24-.082-2.25-.244-3.02s-.388-1.32-.676-1.66c-.29-.334-.64-.502-1.05-.502zm.04-.69c1.18 0 2.06.458 2.64 1.37.578.914.866 2.29.866 4.14 0 1.91-.308 3.36-.928 4.34-.618.982-1.52 1.47-2.71 1.47-1.17 0-2.04-.46-2.61-1.38s-.856-2.31-.856-4.18c0-.994.088-1.85.264-2.58s.42-1.32.738-1.8c.316-.472.694-.822 1.14-1.05.442-.228.926-.342 1.45-.342z"/>
    <path d="m273 156 3.23 7.28v.598l-3.23 7.29-.868-.308 2.6-7.28-2.6-7.29.868-.292z"/>
    <path d="m156 45.5h1.25v15.1h-1.25z"/>
    <path d="m164 45.9h.446c-.032.519-.05 1.24-.05 2.16v6.92c0 .313.018.55.054.709.034.159.096.289.186.389s.218.178.384.235c.168.0568.38.1.634.13.254.0298.588.05 1 .0608v.592h-5.99v-.592c.6-.027 1.03-.0634 1.29-.109.256-.0458.452-.115.586-.207.136-.0918.234-.222.296-.389.062-.168.094-.44.094-.819v-6.57c0-.216-.038-.374-.114-.474s-.186-.15-.332-.15c-.172 0-.418.0892-.738.267-.318.178-.712.424-1.18.738l-.356-.624 3.79-2.26z"/>
    <path d="m170 44.8 3.23 7.28v.6l-3.23 7.29-.866-.308 2.6-7.28-2.6-7.29z"/>
    <path d="m224 88.4h1.25v15.1h-1.25z"/>
    <path d="m233 90h1.15v4.67h4.42v1.08h-4.42v4.67h-1.15v-4.67h-4.42v-1.08h4.42z"/>
    <path d="m242 87.6 3.23 7.28v.6l-3.23 7.29-.866-.308 2.6-7.28-2.6-7.29z"/>
    <path d="m224 222h1.25v15.1h-1.25z"/>
    <path d="m229 228h9.99v1.08h-9.99z"/>
    <path d="m242 221 3.23 7.28v.6l-3.23 7.29-.868-.308 2.6-7.28-2.6-7.29z"/>
    <path d="m149 265h9.99v1.08h-9.99z"/>
    <path d="m162 259h1.25v15.1h-1.25z"/>
    <path d="m171 259h.446c-.032.52-.05 1.24-.05 2.16v6.92c0 .314.018.55.054.71.034.16.096.29.186.39s.218.178.386.234c.166.056.378.1.632.13s.588.05 1 .06v.592h-5.99v-.592c.6-.026 1.03-.062 1.29-.108.256-.046.452-.116.586-.208.136-.092.234-.222.296-.388.062-.168.094-.44.094-.82v-6.57c0-.216-.038-.374-.114-.474s-.186-.15-.332-.15c-.172 0-.418.088-.738.266-.318.178-.712.424-1.18.738l-.358-.624 3.79-2.26z"/>
    <path d="m176 258 3.23 7.28v.6l-3.23 7.29-.866-.308 2.6-7.28-2.6-7.29z"/>
    <path d="m44.7 163h9.99v1.08h-9.99z"/>
    <path d="m57.9 156h1.25v15.1h-1.25z"/>
    <path d="m65.7 157c-.373 0-.685.11-.936.332s-.454.54-.608.956-.264.924-.328 1.52c-.0648.598-.0972 1.27-.0972 2.02 0 1.76.163 3.05.49 3.88.327.824.833 1.24 1.52 1.24.654 0 1.14-.386 1.45-1.16.316-.776.474-1.98.474-3.6 0-1.24-.081-2.25-.243-3.02s-.388-1.32-.677-1.66c-.289-.334-.639-.502-1.05-.502zm.0406-.69c1.18 0 2.06.458 2.64 1.37.578.914.867 2.29.867 4.14 0 1.91-.309 3.36-.928 4.34-.619.982-1.52 1.47-2.71 1.47-1.17 0-2.04-.46-2.61-1.38-.57-.918-.855-2.31-.855-4.18 0-.994.0878-1.85.263-2.58s.422-1.32.738-1.8c.316-.472.696-.822 1.14-1.05.443-.228.927-.342 1.45-.342z"/>
    <path d="m72 156 3.23 7.28v.598l-3.23 7.29-.867-.308 2.6-7.28-2.6-7.29.867-.292z"/>
    <path d="m74.1 228h9.99v1.08h-9.99z"/>
    <path d="m87.3 221h1.25v15.1h-1.25z"/>
    <path d="m96.2 223h1.15v4.67h4.42v1.08h-4.42v4.67h-1.15v-4.67h-4.42v-1.08h4.42z"/>
    <path d="m105 220 3.23 7.28v.598l-3.23 7.29-.868-.308 2.6-7.28-2.6-7.29.868-.292z"/>
    <path d="m73.4 94.2h9.99v1.08h-9.99z"/>
    <path d="m86.6 87.9h1.25v15.1h-1.25z"/>
    <path d="m91.1 94.2h9.99v1.08h-9.99z"/>
    <path d="m104 87.2 3.23 7.28v.6l-3.23 7.29-.868-.308 2.6-7.28-2.6-7.29z"/>
    <path d="m608 156h1.25v15.1h-1.25z"/>
    <path d="m616 157c-.374 0-.686.11-.936.332-.252.222-.454.54-.608.956s-.264.924-.328 1.52c-.066.598-.098 1.27-.098 2.02 0 1.76.164 3.05.49 3.88.328.824.834 1.24 1.52 1.24.654 0 1.14-.386 1.46-1.16s.474-1.98.474-3.6c0-1.24-.082-2.25-.244-3.02s-.388-1.32-.676-1.66c-.29-.334-.64-.502-1.05-.502zm.04-.69c1.18 0 2.06.458 2.64 1.37.578.914.868 2.29.868 4.14 0 1.91-.31 3.36-.928 4.34-.618.982-1.52 1.47-2.71 1.47-1.17 0-2.04-.46-2.61-1.38s-.854-2.31-.854-4.18c0-.994.088-1.85.262-2.58.176-.724.422-1.32.738-1.8.316-.472.696-.822 1.14-1.05.442-.228.926-.342 1.45-.342z"/>
    <path d="m622 156 3.23 7.28v.598l-3.23 7.29-.868-.308 2.6-7.28-2.6-7.29.868-.292z"/>
    <path d="m505 45.5h1.25v15.1h-1.25z"/>
    <path d="m514 45.9h.444c-.032.519-.048 1.24-.048 2.16v6.92c0 .313.018.55.054.709.034.159.096.289.186.389.088.1.216.178.384.235s.378.1.632.13c.254.0298.59.05 1.01.0608v.592h-5.99v-.592c.6-.027 1.03-.0634 1.28-.109.258-.0458.454-.115.588-.207.136-.0918.234-.222.296-.389.062-.168.094-.44.094-.819v-6.57c0-.216-.038-.374-.114-.474s-.186-.15-.332-.15c-.174 0-.42.0892-.738.267-.318.178-.714.424-1.18.738l-.356-.624 3.79-2.26z"/>
    <path d="m519 44.8 3.23 7.28v.6l-3.23 7.29-.868-.308 2.6-7.28-2.6-7.29z"/>
    <path d="m574 88.4h1.25v15.1h-1.25z"/>
    <path d="m583 90h1.15v4.67h4.42v1.08h-4.42v4.67h-1.15v-4.67h-4.42v-1.08h4.42z"/>
    <path d="m591 87.6 3.23 7.28v.6l-3.23 7.29-.868-.308 2.6-7.28-2.6-7.29z"/>
    <path d="m574 222h1.25v15.1h-1.25z"/>
    <path d="m578 228h9.99v1.08h-9.99z"/>
    <path d="m591 221 3.23 7.28v.6l-3.23 7.29-.866-.308 2.6-7.28-2.6-7.29z"/>
    <path d="m498 265h9.99v1.08h-9.99z"/>
    <path d="m511 259h1.25v15.1h-1.25z"/>
    <path d="m520 259h.446c-.034.52-.05 1.24-.05 2.16v6.92c0 .314.018.55.054.71.034.16.096.29.186.39.088.1.216.178.384.234s.378.1.632.13.59.05 1.01.06v.592h-5.99v-.592c.6-.026 1.03-.062 1.28-.108.258-.046.454-.116.588-.208.136-.092.234-.222.296-.388.062-.168.094-.44.094-.82v-6.57c0-.216-.038-.374-.114-.474s-.186-.15-.332-.15c-.174 0-.42.088-.738.266s-.714.424-1.18.738l-.356-.624 3.79-2.26z"/>
    <path d="m525 258 3.23 7.28v.6l-3.23 7.29-.868-.308 2.6-7.28-2.6-7.29z"/>
    <path d="m394 163h9.99v1.08h-9.99z"/>
    <path d="m407 156h1.25v15.1h-1.25z"/>
    <path d="m415 157c-.374 0-.686.11-.936.332-.252.222-.454.54-.608.956s-.264.924-.328 1.52c-.066.598-.098 1.27-.098 2.02 0 1.76.164 3.05.49 3.88.328.824.834 1.24 1.52 1.24.654 0 1.14-.386 1.45-1.16.318-.776.476-1.98.476-3.6 0-1.24-.082-2.25-.244-3.02s-.388-1.32-.676-1.66c-.29-.334-.64-.502-1.05-.502zm.04-.69c1.18 0 2.06.458 2.64 1.37.578.914.868 2.29.868 4.14 0 1.91-.31 3.36-.928 4.34-.62.982-1.52 1.47-2.71 1.47-1.17 0-2.04-.46-2.61-1.38s-.854-2.31-.854-4.18c0-.994.088-1.85.262-2.58.176-.724.422-1.32.738-1.8.316-.472.696-.822 1.14-1.05.442-.228.926-.342 1.45-.342z"/>
    <path d="m421 156 3.23 7.28v.598l-3.23 7.29-.866-.308 2.6-7.28-2.6-7.29.866-.292z"/>
    <path d="m423 228h9.99v1.08h-9.99z"/>
    <path d="m436 221h1.25v15.1h-1.25z"/>
    <path d="m445 223h1.15v4.67h4.42v1.08h-4.42v4.67h-1.15v-4.67h-4.42v-1.08h4.42z"/>
    <path d="m454 220 3.23 7.28v.598l-3.23 7.29-.868-.308 2.6-7.28-2.6-7.29.868-.292z"/>
    <path d="m423 94.2h9.99v1.08h-9.99z"/>
    <path d="m436 87.9h1.25v15.1h-1.25z"/>
    <path d="m440 94.2h9.99v1.08h-9.99z"/>
    <path d="m453 87.2 3.23 7.28v.6l-3.23 7.29-.868-.308 2.6-7.28-2.6-7.29z"/>
  </g>
</svg>
