<?xml version="1.0" encoding="UTF-8"?>
<svg id="Layer_1" data-name="Layer 1" xmlns="http://www.w3.org/2000/svg" viewBox="0 0 901 665">
  <defs>
    <style>
      .cls-1, .cls-2, .cls-3, .cls-4 {
        fill-rule: evenodd;
      }

      .cls-1, .cls-5 {
        fill: #0070c0;
      }

      .cls-1, .cls-4, .cls-6 {
        stroke-width: 0px;
      }

      .cls-2, .cls-3 {
        fill: #fff;
      }

      .cls-2, .cls-3, .cls-7 {
        stroke-miterlimit: 8;
        stroke-width: 2px;
      }

      .cls-2, .cls-5 {
        stroke: #0070c0;
      }

      .cls-3 {
        stroke: #000;
      }

      .cls-5 {
        stroke-miterlimit: 10;
        stroke-width: .5px;
      }

      .cls-7 {
        fill: none;
        stroke: #747474;
      }
    </style>
  </defs>
  <path class="cls-4" d="M730.23,313.43h.91v11.04h-.91v-11.04Z"/>
  <path class="cls-4" d="M735.99,314.23c-.27,0-.5.08-.69.24-.18.16-.33.4-.45.7-.11.31-.19.68-.24,1.11-.05.44-.07.93-.07,1.48,0,1.29.12,2.23.36,2.84.24.6.61.9,1.11.9s.83-.28,1.06-.85c.23-.57.35-1.45.35-2.64,0-.91-.06-1.65-.18-2.21-.12-.56-.28-.97-.49-1.21s-.47-.37-.77-.37ZM736.02,313.73c.87,0,1.51.34,1.93,1,.43.67.64,1.68.64,3.03s-.23,2.46-.68,3.18c-.45.72-1.12,1.08-1.98,1.08s-1.49-.34-1.91-1.01c-.42-.67-.63-1.69-.63-3.06,0-.73.06-1.36.19-1.89.13-.53.31-.97.54-1.31.23-.34.51-.6.83-.77s.68-.25,1.06-.25Z"/>
  <path class="cls-4" d="M740.59,312.91l2.37,5.33v.44l-2.37,5.33-.63-.23,1.91-5.33-1.91-5.33.63-.21Z"/>
  <path class="cls-4" d="M747.94,319.29h7.31v.79h-7.31v-.79ZM747.94,316.82h7.31v.79h-7.31v-.79Z"/>
  <path class="cls-4" d="M773.78,302.97c1.63,1.39,2.92,3.47,3.87,6.23.95,2.76,1.43,5.84,1.43,9.24s-.48,6.43-1.43,9.23c-.96,2.8-2.25,4.89-3.87,6.28l-.28-.44c1.4-1.43,2.49-3.49,3.25-6.2.76-2.7,1.14-5.66,1.14-8.86s-.38-6.25-1.15-8.91c-.76-2.66-1.84-4.7-3.24-6.13l.28-.45ZM765.75,302.97l.28.45c-1.4,1.43-2.48,3.47-3.24,6.13-.76,2.66-1.14,5.63-1.14,8.91s.38,6.16,1.14,8.86c.76,2.71,1.84,4.77,3.25,6.2l-.28.44c-1.63-1.39-2.92-3.48-3.87-6.28-.95-2.8-1.43-5.88-1.43-9.23s.48-6.48,1.43-9.24c.96-2.76,2.25-4.84,3.87-6.23Z"/>
  <path class="cls-4" d="M770.23,304.56h.33c-.02.38-.03.91-.03,1.58v5.07c0,.23.01.4.04.52.02.12.07.21.14.29.07.07.16.13.28.17.12.04.28.07.46.09.19.02.43.04.74.04v.43h-4.38v-.43c.44-.02.75-.05.94-.08.19-.03.33-.08.43-.15.1-.07.17-.16.22-.28.04-.12.07-.32.07-.6v-4.81c0-.16-.03-.27-.08-.35-.05-.07-.13-.11-.24-.11-.13,0-.31.07-.54.2-.23.13-.52.31-.87.54l-.26-.46,2.78-1.66Z"/>
  <path class="cls-4" d="M769.77,322.34c-.27,0-.5.08-.68.24-.18.16-.33.4-.45.7-.11.3-.19.67-.24,1.11-.05.44-.07.93-.07,1.48,0,1.29.12,2.24.36,2.84.24.6.61.9,1.11.9s.83-.28,1.07-.85c.23-.57.35-1.45.35-2.64,0-.91-.06-1.65-.18-2.21-.12-.56-.28-.97-.49-1.21-.21-.25-.47-.37-.77-.37ZM769.79,321.84c.87,0,1.51.33,1.93,1,.42.67.63,1.68.63,3.03s-.23,2.46-.68,3.18c-.45.72-1.11,1.08-1.98,1.08s-1.49-.34-1.91-1.01c-.42-.67-.63-1.69-.63-3.06,0-.73.07-1.36.19-1.89.13-.53.31-.97.54-1.31.23-.35.51-.6.83-.77.32-.16.68-.25,1.06-.25Z"/>
  <path class="cls-4" d="M595.29,186.73h.92v11.04h-.92v-11.04Z"/>
  <path class="cls-4" d="M601.53,187.02h.33c-.02.38-.04.91-.04,1.58v5.07c0,.23.01.4.04.52.02.12.07.21.14.28.07.07.16.13.28.17.12.04.28.07.46.09.19.02.43.04.74.04v.43h-4.38v-.43c.44-.02.75-.05.94-.08.19-.03.33-.08.43-.15.1-.07.17-.16.22-.28.05-.12.07-.32.07-.6v-4.81c0-.16-.03-.27-.08-.35-.05-.07-.14-.11-.24-.11-.13,0-.31.07-.54.2-.23.13-.52.31-.87.54l-.26-.46,2.78-1.66Z"/>
  <path class="cls-4" d="M605.66,186.2l2.37,5.33v.44l-2.37,5.33-.63-.23,1.9-5.33-1.9-5.33.63-.21Z"/>
  <path class="cls-4" d="M613.01,192.58h7.31v.79h-7.31v-.79ZM613.01,190.12h7.31v.79h-7.31v-.79Z"/>
  <path class="cls-4" d="M641.55,176.26c1.62,1.39,2.92,3.47,3.87,6.23.96,2.76,1.43,5.84,1.43,9.24s-.48,6.43-1.43,9.23c-.95,2.8-2.25,4.9-3.87,6.28l-.28-.44c1.4-1.43,2.48-3.49,3.24-6.2.76-2.71,1.14-5.66,1.14-8.86s-.38-6.25-1.15-8.91c-.76-2.66-1.84-4.7-3.24-6.13l.28-.44ZM633.52,176.26l.28.44c-1.4,1.43-2.48,3.47-3.24,6.13-.76,2.66-1.14,5.63-1.14,8.91s.38,6.16,1.14,8.86c.76,2.71,1.84,4.77,3.24,6.2l-.28.44c-1.62-1.38-2.92-3.48-3.87-6.28-.96-2.8-1.43-5.88-1.43-9.23s.48-6.48,1.43-9.24c.95-2.76,2.25-4.84,3.87-6.23Z"/>
  <path class="cls-4" d="M637.54,178.35c-.27,0-.5.08-.68.24s-.33.4-.45.7c-.11.3-.19.68-.24,1.11-.05.44-.07.93-.07,1.48,0,1.29.12,2.24.36,2.84.24.6.61.9,1.11.9.48,0,.83-.28,1.06-.85.23-.57.35-1.45.35-2.64,0-.91-.06-1.65-.18-2.21-.12-.56-.28-.97-.5-1.21-.21-.25-.47-.37-.77-.37ZM637.57,177.85c.87,0,1.51.33,1.93,1,.42.67.63,1.68.63,3.03s-.22,2.46-.68,3.18c-.45.72-1.11,1.08-1.98,1.08s-1.49-.34-1.91-1.01c-.42-.67-.63-1.69-.63-3.06,0-.73.06-1.36.19-1.89.13-.53.31-.97.54-1.31.23-.35.51-.6.83-.77.32-.17.68-.25,1.06-.25Z"/>
  <path class="cls-4" d="M638.01,195.13h.33c-.02.38-.04.91-.04,1.58v5.07c0,.23.01.4.04.52.03.12.07.21.14.28.07.07.16.13.28.17.12.04.28.07.46.09.18.02.43.04.74.04v.43h-4.39v-.43c.44-.02.75-.05.94-.08.19-.03.33-.08.43-.15.1-.07.17-.16.22-.28.05-.12.07-.32.07-.6v-4.81c0-.16-.03-.27-.08-.35-.06-.07-.14-.11-.24-.11-.13,0-.31.07-.54.2-.23.13-.52.31-.87.54l-.26-.46,2.78-1.66Z"/>
  <path class="cls-4" d="M676.99,233.35h.91v11.04h-.91v-11.04Z"/>
  <path class="cls-4" d="M683.51,234.56h.84v3.42h3.23v.79h-3.23v3.42h-.84v-3.42h-3.23v-.79h3.23v-3.42Z"/>
  <path class="cls-4" d="M689.67,232.83l2.37,5.33v.44l-2.37,5.33-.63-.23,1.91-5.33-1.91-5.33.63-.21Z"/>
  <path class="cls-4" d="M697.02,239.21h7.31v.79h-7.31v-.79ZM697.02,236.75h7.31v.79h-7.31v-.79Z"/>
  <path class="cls-4" d="M733.03,211.21c2.17,2.82,3.91,6.57,5.21,11.24,1.14,4.09,1.78,8.44,1.93,13.06l.03,1.93h0v1.84h0l-.03,1.93c-.15,4.62-.79,8.97-1.93,13.06-1.3,4.67-3.04,8.42-5.21,11.24l-.46-.39c2.04-2.89,3.61-6.65,4.71-11.29,1.1-4.64,1.65-9.51,1.66-14.62v-1.72c0-5.11-.56-9.98-1.66-14.62-1.1-4.64-2.67-8.4-4.71-11.29l.46-.39ZM717.1,211.2l.46.39c-2.04,2.89-3.61,6.65-4.71,11.29-1.1,4.64-1.65,9.51-1.66,14.62v1.72c0,5.11.56,9.98,1.66,14.62,1.1,4.64,2.67,8.4,4.71,11.29l-.46.39c-2.17-2.82-3.91-6.57-5.21-11.24-1.14-4.09-1.78-8.44-1.93-13.06l-.03-1.93h0v-1.84h0l.03-1.93c.15-4.62.79-8.97,1.93-13.06,1.3-4.67,3.04-8.42,5.21-11.24Z"/>
  <path class="cls-4" d="M725.54,211.33h.33c-.02.38-.04.91-.04,1.58v5.07c0,.23.01.4.04.52.02.12.07.21.13.28s.16.13.28.17c.12.04.28.07.46.09.19.02.43.04.74.04v.43h-4.38v-.43c.44-.02.75-.05.94-.08.19-.03.33-.08.43-.15.1-.07.17-.16.22-.28.04-.12.07-.32.07-.6v-4.81c0-.16-.03-.27-.08-.35-.05-.07-.14-.11-.24-.11-.13,0-.31.07-.54.2-.23.13-.52.31-.87.54l-.26-.46,2.78-1.66Z"/>
  <path class="cls-4" d="M724.9,225.12h1.51v.07h6v.9h-6.75v-.18h-.32l-3.19,10.9h-.58l-2.46-5.28-1,.45-.18-.45,1.95-.89,2.09,4.6,2.93-10.13Z"/>
  <path class="cls-4" d="M729.1,227.66c.73,0,1.29.16,1.67.48.38.32.56.79.56,1.4,0,.21-.02.4-.06.58-.04.18-.11.35-.2.52-.09.17-.21.36-.36.55-.15.2-.32.4-.5.6-.18.2-.49.54-.94,1.02-.75.79-1.3,1.49-1.66,2.08h2.24c.2,0,.35-.01.47-.04.12-.02.21-.06.28-.12.07-.06.13-.13.17-.22.04-.09.09-.23.16-.41h.5l-.1,1.73h-4.88v-.28c.17-.42.4-.84.69-1.28.29-.44.7-.95,1.23-1.54.46-.51.79-.89.99-1.15.22-.28.38-.53.49-.74.11-.21.19-.4.23-.59.05-.18.07-.37.07-.55,0-.3-.05-.56-.14-.79-.09-.23-.24-.41-.44-.54-.2-.13-.44-.2-.74-.2-.74,0-1.24.41-1.49,1.23h-.72v-1.14c.48-.23.92-.39,1.34-.49.42-.1.79-.15,1.12-.15Z"/>
  <path class="cls-4" d="M717.79,222.72h14.62v.9h-14.62v-.9Z"/>
  <path class="cls-4" d="M725.54,240.7h.33c-.02.38-.04.91-.04,1.58v5.07c0,.23.01.4.04.52.02.12.07.21.13.28.07.07.16.13.28.17.12.04.28.07.46.09.19.02.43.04.74.04v.43h-4.38v-.43c.44-.02.75-.05.94-.08.19-.03.33-.08.43-.15.1-.07.17-.16.22-.28.04-.12.07-.32.07-.6v-4.81c0-.16-.03-.27-.08-.35-.05-.07-.14-.11-.24-.11-.13,0-.31.07-.54.2-.23.13-.52.31-.87.54l-.26-.46,2.78-1.66Z"/>
  <path class="cls-4" d="M725.67,254.44h6.75v.9h-6.75v-.06h-.32l-3.19,10.9h-.58l-2.46-5.28-1,.44-.18-.44,1.95-.89,2.09,4.6,2.93-10.13h.76v-.05Z"/>
  <path class="cls-4" d="M729.1,257.03c.73,0,1.29.16,1.67.48.38.32.56.79.56,1.4,0,.21-.02.4-.06.58-.04.18-.11.35-.2.52-.09.17-.21.36-.36.55-.15.2-.32.4-.5.6-.18.2-.49.54-.94,1.02-.75.79-1.3,1.49-1.66,2.08h2.24c.2,0,.35-.01.47-.04.12-.02.21-.06.28-.12.07-.06.13-.13.17-.22.04-.09.09-.23.16-.41h.5l-.1,1.73h-4.88v-.28c.17-.42.4-.84.69-1.28.29-.44.7-.95,1.23-1.54.46-.51.79-.89.99-1.15.22-.28.38-.53.49-.74.11-.21.19-.4.23-.59.05-.18.07-.37.07-.55,0-.3-.05-.56-.14-.79-.09-.23-.24-.41-.44-.54-.2-.13-.44-.2-.74-.2-.74,0-1.24.41-1.49,1.23h-.72v-1.14c.48-.23.92-.39,1.34-.49.42-.1.79-.15,1.12-.15Z"/>
  <path class="cls-4" d="M717.79,252.19h14.62v.9h-14.62v-.9Z"/>
  <path class="cls-4" d="M677.09,390.32h.91v11.04h-.91v-11.04Z"/>
  <path class="cls-4" d="M680.38,394.94h7.31v.79h-7.31v-.79Z"/>
  <path class="cls-4" d="M689.78,389.79l2.37,5.33v.44l-2.37,5.33-.63-.23,1.9-5.33-1.9-5.33.63-.21Z"/>
  <path class="cls-4" d="M697.13,396.18h7.31v.79h-7.31v-.79ZM697.13,393.71h7.31v.79h-7.31v-.79Z"/>
  <path class="cls-4" d="M734.2,368.17c2.17,2.82,3.91,6.57,5.21,11.24,1.14,4.09,1.78,8.44,1.93,13.06l.03,1.93h0v1.84h0l-.03,1.93c-.14,4.62-.79,8.97-1.93,13.06-1.3,4.67-3.04,8.42-5.21,11.24l-.46-.38c2.04-2.89,3.61-6.65,4.71-11.29,1.1-4.64,1.65-9.51,1.66-14.62v-1.71c0-5.11-.56-9.98-1.66-14.62-1.1-4.64-2.67-8.4-4.71-11.29l.46-.38ZM717.21,368.17l.46.39c-2.04,2.89-3.61,6.65-4.71,11.29-1.1,4.64-1.65,9.51-1.66,14.62v1.72c0,5.11.56,9.98,1.66,14.62,1.1,4.64,2.67,8.4,4.71,11.29l-.46.39c-2.17-2.82-3.91-6.57-5.21-11.24-1.14-4.09-1.78-8.44-1.93-13.06l-.03-1.93h0v-1.84h0l.03-1.93c.15-4.62.79-8.97,1.93-13.06,1.3-4.67,3.04-8.42,5.21-11.24Z"/>
  <path class="cls-4" d="M726.17,368.3h.33c-.02.38-.04.91-.04,1.58v5.07c0,.23.01.4.04.52.02.12.07.21.14.28.07.07.16.13.28.17.12.04.28.07.46.09.19.02.43.04.74.05v.43h-4.38v-.43c.44-.02.75-.05.94-.08.19-.03.33-.08.43-.15.1-.07.17-.16.22-.29.05-.12.07-.32.07-.6v-4.81c0-.16-.03-.27-.08-.35-.06-.07-.14-.11-.25-.11-.13,0-.31.07-.54.2-.23.13-.52.31-.86.54l-.26-.46,2.78-1.66Z"/>
  <path class="cls-4" d="M725.54,382.09h1.51v.07h5.97v.9h-6.75v-.18h-.29l-3.19,10.9h-.58l-2.45-5.28-1,.45-.18-.45,1.95-.89,2.09,4.6,2.93-10.13Z"/>
  <path class="cls-4" d="M729.74,384.63c.74,0,1.29.16,1.67.48.38.32.56.79.56,1.4,0,.21-.02.4-.06.58-.04.18-.11.35-.2.52-.09.17-.21.36-.36.56-.15.2-.32.4-.5.6-.18.2-.49.54-.94,1.02-.75.79-1.3,1.49-1.65,2.08h2.24c.19,0,.35-.01.47-.04.12-.02.21-.06.28-.12.07-.06.13-.13.17-.22.04-.09.09-.22.16-.41h.5l-.1,1.73h-4.88v-.29c.17-.41.4-.84.69-1.27.29-.44.7-.95,1.23-1.54.46-.51.79-.89.99-1.15.22-.28.39-.53.5-.74.11-.21.19-.4.23-.59.05-.18.07-.37.07-.56,0-.3-.05-.56-.14-.79-.09-.23-.24-.41-.43-.54-.2-.13-.44-.2-.74-.2-.74,0-1.24.41-1.49,1.24h-.72v-1.14c.48-.23.93-.39,1.34-.49.42-.1.79-.15,1.12-.15Z"/>
  <path class="cls-4" d="M718.39,379.68h14.62v.9h-14.62v-.9Z"/>
  <path class="cls-4" d="M718.72,402h7.31v.79h-7.31v-.79Z"/>
  <path class="cls-4" d="M730.69,397.67h.33c-.02.38-.04.91-.04,1.58v5.06c0,.23.01.4.04.52.03.12.07.21.14.29.07.07.16.13.28.17.12.04.28.07.46.09.19.02.43.04.74.05v.43h-4.39v-.43c.44-.02.75-.05.94-.08.19-.03.33-.09.43-.15.1-.07.17-.16.22-.28.04-.12.07-.32.07-.6v-4.81c0-.16-.03-.27-.08-.35-.06-.07-.14-.11-.24-.11-.13,0-.31.07-.54.2-.23.13-.52.31-.87.54l-.26-.46,2.78-1.66Z"/>
  <path class="cls-4" d="M726.27,411.41h6.75v.9h-6.75v-.06h-.29l-3.19,10.9h-.58l-2.45-5.28-1,.45-.18-.45,1.95-.89,2.09,4.6,2.93-10.13h.73v-.05Z"/>
  <path class="cls-4" d="M729.74,414c.74,0,1.29.16,1.67.48.38.32.56.79.56,1.4,0,.21-.02.4-.06.58-.04.18-.11.35-.2.52-.09.17-.21.36-.36.55-.15.2-.32.4-.5.6-.18.2-.49.54-.94,1.02-.75.79-1.3,1.49-1.65,2.08h2.24c.19,0,.35-.01.47-.03.12-.02.21-.06.28-.12.07-.06.13-.13.17-.22.04-.09.09-.23.16-.41h.5l-.1,1.73h-4.88v-.28c.17-.42.4-.84.69-1.28.29-.43.7-.95,1.23-1.54.46-.51.79-.89.99-1.15.22-.28.39-.53.5-.74.11-.21.19-.4.23-.59.05-.18.07-.37.07-.55,0-.3-.05-.56-.14-.79-.09-.23-.24-.4-.43-.54-.2-.13-.44-.2-.74-.2-.74,0-1.24.41-1.49,1.23h-.72v-1.14c.48-.22.93-.39,1.34-.49.42-.1.79-.15,1.12-.15Z"/>
  <path class="cls-4" d="M717.94,409.16h15.75v.9h-15.75v-.9Z"/>
  <path class="cls-7" d="M86.68,317.92c0-86.43,70.06-156.49,156.49-156.49s156.49,70.06,156.49,156.49-70.06,156.49-156.49,156.49-156.49-70.06-156.49-156.49Z"/>
  <path class="cls-1" d="M392.8,318.04c0-3.67,2.97-6.64,6.64-6.64s6.64,2.97,6.64,6.64-2.97,6.64-6.64,6.64-6.64-2.97-6.64-6.64Z"/>
  <path class="cls-3" d="M236.53,161.32c0-3.67,2.97-6.64,6.64-6.64s6.64,2.97,6.64,6.64-2.97,6.64-6.64,6.64-6.64-2.97-6.64-6.64Z"/>
  <path class="cls-1" d="M79.82,318.04c0-3.67,3.02-6.64,6.75-6.64s6.75,2.97,6.75,6.64-3.02,6.64-6.75,6.64-6.75-2.97-6.75-6.64Z"/>
  <path class="cls-3" d="M236.53,474.3c0-3.67,2.97-6.64,6.64-6.64s6.64,2.97,6.64,6.64-2.97,6.64-6.64,6.64-6.64-2.97-6.64-6.64Z"/>
  <path class="cls-2" d="M348.81,209.47c0-3.67,3.02-6.64,6.75-6.64s6.75,2.97,6.75,6.64-3.02,6.64-6.75,6.64-6.75-2.97-6.75-6.64Z"/>
  <path class="cls-3" d="M348.81,426.6c0-3.67,3.02-6.64,6.75-6.64s6.75,2.97,6.75,6.64-3.02,6.64-6.75,6.64-6.75-2.97-6.75-6.64Z"/>
  <path class="cls-3" d="M124.03,209.47c0-3.67,3.02-6.64,6.75-6.64s6.75,2.97,6.75,6.64-3.02,6.64-6.75,6.64-6.75-2.97-6.75-6.64Z"/>
  <path class="cls-2" d="M124.03,426.6c0-3.67,3.02-6.64,6.75-6.64s6.75,2.97,6.75,6.64-3.02,6.64-6.75,6.64-6.75-2.97-6.75-6.64Z"/>
  <path class="cls-4" d="M123.34,303.15c1.63,1.39,2.92,3.47,3.87,6.23s1.43,5.84,1.43,9.24-.48,6.43-1.43,9.23-2.25,4.9-3.87,6.28l-.28-.44c1.4-1.43,2.49-3.49,3.25-6.2.76-2.7,1.14-5.66,1.14-8.86s-.38-6.25-1.15-8.9c-.76-2.66-1.84-4.7-3.24-6.13l.28-.45ZM106.29,303.15l.28.45c-1.4,1.43-2.48,3.47-3.24,6.13-.76,2.66-1.14,5.63-1.14,8.9s.38,6.16,1.14,8.86c.76,2.71,1.84,4.77,3.24,6.2l-.28.44c-1.63-1.38-2.92-3.48-3.87-6.28-.96-2.8-1.43-5.88-1.43-9.23s.48-6.48,1.43-9.24c.96-2.76,2.25-4.84,3.87-6.23Z"/>
  <path class="cls-4" d="M107.83,309.06h7.31v.79h-7.31v-.79Z"/>
  <path class="cls-4" d="M119.8,304.73h.33c-.02.38-.04.91-.04,1.58v5.07c0,.23.01.4.04.52.03.12.07.21.14.29.07.07.16.13.28.17.12.04.28.07.46.1.19.02.43.04.74.04v.43h-4.38v-.43c.44-.02.75-.04.94-.08.19-.03.33-.09.43-.15.1-.07.17-.16.22-.29.05-.12.07-.32.07-.6v-4.81c0-.16-.03-.27-.08-.35-.06-.07-.14-.11-.24-.11-.13,0-.31.07-.54.2-.23.13-.52.31-.87.54l-.26-.46,2.78-1.66Z"/>
  <path class="cls-4" d="M114.82,322.52c-.27,0-.5.08-.69.24-.18.16-.33.4-.45.7-.11.31-.19.67-.24,1.11-.05.44-.07.93-.07,1.48,0,1.29.12,2.23.36,2.84.24.6.61.9,1.11.9s.83-.28,1.06-.85c.23-.57.35-1.45.35-2.64,0-.91-.06-1.65-.18-2.21-.12-.56-.28-.97-.5-1.21-.21-.25-.47-.37-.77-.37ZM114.85,322.01c.87,0,1.51.33,1.93,1,.42.67.63,1.68.63,3.03s-.23,2.46-.68,3.18c-.45.72-1.11,1.08-1.98,1.08s-1.49-.34-1.91-1.01c-.42-.67-.63-1.69-.63-3.06,0-.73.06-1.36.19-1.89.13-.53.31-.97.54-1.31.23-.35.51-.6.83-.77.32-.17.68-.25,1.06-.25Z"/>
  <path class="cls-4" d="M250.4,429.68c1.62,1.39,2.92,3.47,3.87,6.23.96,2.76,1.43,5.84,1.43,9.24s-.48,6.43-1.43,9.23c-.95,2.8-2.25,4.9-3.87,6.28l-.28-.44c1.4-1.43,2.49-3.49,3.24-6.2.76-2.71,1.14-5.66,1.14-8.87s-.38-6.25-1.15-8.9c-.76-2.66-1.84-4.7-3.24-6.13l.28-.45ZM233.35,429.68l.28.45c-1.4,1.43-2.48,3.47-3.24,6.13-.76,2.66-1.14,5.62-1.14,8.9s.38,6.16,1.14,8.87c.76,2.7,1.84,4.77,3.24,6.2l-.28.44c-1.62-1.38-2.92-3.48-3.87-6.28-.96-2.8-1.43-5.88-1.43-9.23s.48-6.48,1.43-9.24c.95-2.76,2.25-4.84,3.87-6.23Z"/>
  <path class="cls-4" d="M241.88,431.77c-.27,0-.5.08-.68.24-.18.16-.33.4-.45.7-.11.3-.19.68-.24,1.11-.05.44-.07.93-.07,1.48,0,1.29.12,2.24.36,2.84.24.6.61.9,1.11.9.48,0,.83-.28,1.06-.85.23-.57.35-1.45.35-2.64,0-.91-.06-1.65-.18-2.21-.12-.56-.28-.97-.5-1.22-.21-.25-.47-.37-.77-.37ZM241.91,431.26c.87,0,1.51.33,1.93,1,.42.67.63,1.68.63,3.03s-.23,2.46-.68,3.18c-.45.72-1.11,1.08-1.98,1.08s-1.49-.34-1.91-1.01c-.42-.67-.63-1.69-.63-3.06,0-.73.06-1.35.19-1.89.13-.53.31-.97.54-1.31s.51-.6.83-.77c.32-.16.68-.25,1.06-.25Z"/>
  <path class="cls-4" d="M234.89,452.87h7.31v.79h-7.31v-.79Z"/>
  <path class="cls-4" d="M246.86,448.54h.33c-.02.38-.04.91-.04,1.58v5.07c0,.23.01.4.04.52.03.12.07.21.14.29.07.07.16.13.28.17.12.04.28.07.46.09.18.02.43.04.74.05v.43h-4.39v-.43c.44-.02.75-.05.94-.08.19-.03.33-.08.43-.15.1-.07.17-.16.22-.28.04-.12.07-.32.07-.6v-4.81c0-.16-.03-.27-.08-.35-.06-.07-.14-.11-.24-.11-.13,0-.31.07-.54.2-.23.13-.52.31-.87.54l-.26-.46,2.78-1.66Z"/>
  <path class="cls-4" d="M335.47,313.43h.91v11.04h-.91v-11.04Z"/>
  <path class="cls-4" d="M341.23,314.23c-.27,0-.5.08-.69.24-.18.16-.33.4-.44.7-.11.31-.19.68-.24,1.11-.05.44-.07.93-.07,1.48,0,1.29.12,2.23.36,2.84.24.6.61.9,1.11.9s.83-.28,1.06-.85c.23-.57.35-1.45.35-2.64,0-.91-.06-1.65-.18-2.21-.12-.56-.29-.97-.5-1.21-.21-.25-.47-.37-.77-.37ZM341.26,313.73c.87,0,1.51.34,1.94,1,.42.67.63,1.68.63,3.03s-.23,2.46-.68,3.18c-.45.72-1.11,1.08-1.98,1.08s-1.49-.34-1.91-1.01c-.42-.67-.63-1.69-.63-3.06,0-.73.07-1.36.19-1.89.13-.53.31-.97.54-1.31.23-.34.51-.6.83-.77.32-.17.68-.25,1.06-.25Z"/>
  <path class="cls-4" d="M345.84,312.91l2.37,5.33v.44l-2.37,5.33-.63-.23,1.9-5.33-1.9-5.33.63-.21Z"/>
  <path class="cls-4" d="M353.18,319.29h7.31v.79h-7.31v-.79ZM353.18,316.82h7.31v.79h-7.31v-.79Z"/>
  <path class="cls-4" d="M379.01,302.97c1.63,1.39,2.92,3.47,3.87,6.23.95,2.76,1.43,5.84,1.43,9.24s-.48,6.43-1.43,9.23c-.96,2.8-2.25,4.89-3.87,6.28l-.28-.44c1.4-1.43,2.48-3.49,3.24-6.2.76-2.7,1.14-5.66,1.14-8.86s-.38-6.25-1.15-8.91c-.76-2.66-1.84-4.7-3.24-6.13l.28-.45ZM370.99,302.97l.28.45c-1.4,1.43-2.48,3.47-3.24,6.13-.76,2.66-1.14,5.63-1.14,8.91s.38,6.16,1.14,8.86c.76,2.71,1.84,4.77,3.24,6.2l-.28.44c-1.62-1.39-2.92-3.48-3.87-6.28-.96-2.8-1.43-5.88-1.43-9.23s.48-6.48,1.43-9.24c.95-2.76,2.25-4.84,3.87-6.23Z"/>
  <path class="cls-4" d="M375.48,304.56h.33c-.02.38-.04.91-.04,1.58v5.07c0,.23.01.4.04.52s.07.21.14.29c.07.07.16.13.28.17.12.04.28.07.46.09.18.02.43.04.74.04v.43h-4.39v-.43c.44-.02.75-.05.94-.08.19-.03.33-.08.43-.15.1-.07.17-.16.22-.28.05-.12.07-.32.07-.6v-4.81c0-.16-.03-.27-.08-.35-.06-.07-.14-.11-.24-.11-.13,0-.31.07-.54.2-.23.13-.52.31-.87.54l-.26-.46,2.78-1.66Z"/>
  <path class="cls-4" d="M375.01,322.34c-.27,0-.5.08-.68.24-.18.16-.33.4-.45.7-.11.3-.19.67-.24,1.11-.05.44-.07.93-.07,1.48,0,1.29.12,2.24.36,2.84.24.6.61.9,1.11.9.48,0,.83-.28,1.06-.85.23-.57.35-1.45.35-2.64,0-.91-.06-1.65-.18-2.21-.12-.56-.28-.97-.5-1.21-.21-.25-.47-.37-.77-.37ZM375.04,321.84c.87,0,1.51.33,1.93,1,.42.67.63,1.68.63,3.03s-.23,2.46-.68,3.18c-.45.72-1.11,1.08-1.98,1.08s-1.49-.34-1.91-1.01c-.42-.67-.63-1.69-.63-3.06,0-.73.07-1.36.19-1.89.13-.53.31-.97.54-1.31.23-.35.51-.6.83-.77.32-.16.68-.25,1.06-.25Z"/>
  <path class="cls-4" d="M200.53,186.73h.91v11.04h-.91v-11.04Z"/>
  <path class="cls-4" d="M206.77,187.02h.33c-.02.38-.04.91-.04,1.58v5.07c0,.23.01.4.04.52.03.12.07.21.14.28.07.07.16.13.28.17.12.04.28.07.46.09.19.02.43.04.74.04v.43h-4.38v-.43c.44-.02.75-.05.94-.08.19-.03.33-.08.43-.15.1-.07.17-.16.22-.28.05-.12.07-.32.07-.6v-4.81c0-.16-.03-.27-.08-.35-.06-.07-.14-.11-.24-.11-.13,0-.31.07-.54.2-.23.13-.52.31-.87.54l-.26-.46,2.78-1.66Z"/>
  <path class="cls-4" d="M210.9,186.2l2.37,5.33v.44l-2.37,5.33-.63-.23,1.9-5.33-1.9-5.33.63-.21Z"/>
  <path class="cls-4" d="M218.25,192.58h7.31v.79h-7.31v-.79ZM218.25,190.12h7.31v.79h-7.31v-.79Z"/>
  <path class="cls-4" d="M246.79,176.26c1.62,1.39,2.92,3.47,3.87,6.23.96,2.76,1.43,5.84,1.43,9.24s-.48,6.43-1.43,9.23c-.95,2.8-2.25,4.9-3.87,6.28l-.28-.44c1.4-1.43,2.49-3.49,3.24-6.2.76-2.71,1.14-5.66,1.14-8.86s-.38-6.25-1.14-8.91c-.77-2.66-1.84-4.7-3.24-6.13l.28-.44ZM238.76,176.26l.28.44c-1.4,1.43-2.48,3.47-3.24,6.13-.76,2.66-1.14,5.63-1.14,8.91s.38,6.16,1.14,8.86c.76,2.71,1.84,4.77,3.24,6.2l-.28.44c-1.62-1.38-2.91-3.48-3.87-6.28-.95-2.8-1.43-5.88-1.43-9.23s.48-6.48,1.43-9.24c.96-2.76,2.25-4.84,3.87-6.23Z"/>
  <path class="cls-4" d="M242.78,178.35c-.27,0-.5.08-.69.24-.18.16-.33.4-.45.7-.11.3-.19.68-.24,1.11-.05.44-.07.93-.07,1.48,0,1.29.12,2.24.36,2.84.24.6.61.9,1.11.9s.83-.28,1.06-.85c.23-.57.35-1.45.35-2.64,0-.91-.06-1.65-.18-2.21-.12-.56-.28-.97-.49-1.21-.21-.25-.47-.37-.77-.37ZM242.81,177.85c.87,0,1.51.33,1.93,1,.42.67.63,1.68.63,3.03s-.23,2.46-.68,3.18c-.45.72-1.12,1.08-1.98,1.08s-1.49-.34-1.91-1.01c-.42-.67-.63-1.69-.63-3.06,0-.73.06-1.36.19-1.89.13-.53.31-.97.54-1.31.23-.35.51-.6.83-.77.32-.17.68-.25,1.06-.25Z"/>
  <path class="cls-4" d="M243.25,195.13h.33c-.02.38-.04.91-.04,1.58v5.07c0,.23.01.4.04.52.03.12.07.21.14.28.07.07.16.13.28.17.12.04.28.07.46.09.19.02.43.04.74.04v.43h-4.39v-.43c.44-.02.75-.05.94-.08.19-.03.33-.08.43-.15.1-.07.17-.16.22-.28.04-.12.07-.32.07-.6v-4.81c0-.16-.03-.27-.08-.35-.06-.07-.14-.11-.24-.11-.13,0-.31.07-.54.2-.23.13-.52.31-.87.54l-.26-.46,2.78-1.66Z"/>
  <path class="cls-4" d="M282.23,233.35h.91v11.04h-.91v-11.04Z"/>
  <path class="cls-4" d="M288.74,234.56h.84v3.42h3.23v.79h-3.23v3.42h-.84v-3.42h-3.23v-.79h3.23v-3.42Z"/>
  <path class="cls-4" d="M294.92,232.83l2.37,5.33v.44l-2.37,5.33-.64-.23,1.91-5.33-1.91-5.33.64-.21Z"/>
  <path class="cls-4" d="M302.26,239.21h7.31v.79h-7.31v-.79ZM302.26,236.75h7.31v.79h-7.31v-.79Z"/>
  <path class="cls-4" d="M338.28,211.21c2.17,2.82,3.91,6.57,5.21,11.24,1.14,4.09,1.78,8.44,1.93,13.06l.03,1.93h0v1.84h0l-.03,1.93c-.14,4.62-.79,8.97-1.93,13.06-1.3,4.67-3.04,8.42-5.21,11.24l-.46-.39c2.04-2.89,3.61-6.65,4.71-11.29,1.1-4.64,1.65-9.51,1.66-14.62v-1.72c0-5.11-.56-9.98-1.66-14.62s-2.67-8.4-4.71-11.29l.46-.39ZM322.34,211.2l.46.39c-2.04,2.89-3.61,6.65-4.71,11.29-1.1,4.64-1.65,9.51-1.66,14.62v1.72c0,5.11.56,9.98,1.66,14.62,1.1,4.64,2.67,8.4,4.71,11.29l-.46.39c-2.17-2.82-3.91-6.57-5.21-11.24-1.14-4.09-1.78-8.44-1.93-13.06l-.03-1.93h0v-1.84h0l.03-1.93c.15-4.62.79-8.97,1.93-13.06,1.31-4.67,3.04-8.42,5.21-11.24Z"/>
  <path class="cls-4" d="M330.78,211.33h.33c-.02.38-.04.91-.04,1.58v5.07c0,.23.01.4.04.52.02.12.07.21.14.28.07.07.16.13.28.17.12.04.28.07.46.09.19.02.43.04.74.04v.43h-4.38v-.43c.44-.02.75-.05.94-.08.19-.03.33-.08.43-.15.1-.07.17-.16.22-.28.05-.12.07-.32.07-.6v-4.81c0-.16-.03-.27-.08-.35-.06-.07-.14-.11-.25-.11-.13,0-.31.07-.54.2-.23.13-.52.31-.87.54l-.26-.46,2.78-1.66Z"/>
  <path class="cls-4" d="M330.14,225.12h1.51v.07h6v.9h-6.75v-.18h-.32l-3.19,10.9h-.58l-2.45-5.28-1,.45-.18-.45,1.95-.89,2.09,4.6,2.93-10.13Z"/>
  <path class="cls-4" d="M334.34,227.66c.74,0,1.29.16,1.67.48.38.32.56.79.56,1.4,0,.21-.02.4-.06.58-.04.18-.11.35-.2.52-.09.17-.21.36-.36.55-.15.2-.32.4-.5.6-.18.2-.5.54-.95,1.02-.75.79-1.3,1.49-1.65,2.08h2.24c.19,0,.35-.01.47-.04.12-.02.21-.06.29-.12.07-.06.13-.13.17-.22.04-.09.09-.23.16-.41h.5l-.1,1.73h-4.88v-.28c.17-.42.4-.84.69-1.28.29-.44.7-.95,1.23-1.54.46-.51.79-.89.99-1.15.22-.28.39-.53.49-.74.11-.21.19-.4.23-.59.05-.18.07-.37.07-.55,0-.3-.05-.56-.14-.79-.09-.23-.24-.41-.43-.54s-.44-.2-.74-.2c-.74,0-1.24.41-1.49,1.23h-.72v-1.14c.48-.23.93-.39,1.34-.49.42-.1.79-.15,1.12-.15Z"/>
  <path class="cls-4" d="M323.03,222.72h14.62v.9h-14.62v-.9Z"/>
  <path class="cls-4" d="M330.78,240.7h.33c-.02.38-.04.91-.04,1.58v5.07c0,.23.01.4.04.52.02.12.07.21.14.28.07.07.16.13.28.17.12.04.28.07.46.09.19.02.43.04.74.04v.43h-4.38v-.43c.44-.02.75-.05.94-.08.19-.03.33-.08.43-.15.1-.07.17-.16.22-.28.05-.12.07-.32.07-.6v-4.81c0-.16-.03-.27-.08-.35-.06-.07-.14-.11-.25-.11-.13,0-.31.07-.54.2-.23.13-.52.31-.87.54l-.26-.46,2.78-1.66Z"/>
  <path class="cls-4" d="M330.91,254.44h6.75v.9h-6.75v-.06h-.32l-3.19,10.9h-.58l-2.45-5.28-1,.44-.18-.44,1.95-.89,2.09,4.6,2.93-10.13h.76v-.05Z"/>
  <path class="cls-4" d="M334.34,257.03c.74,0,1.29.16,1.67.48.38.32.56.79.56,1.4,0,.21-.02.4-.06.58-.04.18-.11.35-.2.52-.09.17-.21.36-.36.55-.15.2-.32.4-.5.6-.18.2-.5.54-.95,1.02-.75.79-1.3,1.49-1.65,2.08h2.24c.19,0,.35-.01.47-.04.12-.02.21-.06.29-.12.07-.06.13-.13.17-.22.04-.09.09-.23.16-.41h.5l-.1,1.73h-4.88v-.28c.17-.42.4-.84.69-1.28.29-.44.7-.95,1.23-1.54.46-.51.79-.89.99-1.15.22-.28.39-.53.49-.74.11-.21.19-.4.23-.59.05-.18.07-.37.07-.55,0-.3-.05-.56-.14-.79-.09-.23-.24-.41-.43-.54s-.44-.2-.74-.2c-.74,0-1.24.41-1.49,1.23h-.72v-1.14c.48-.23.93-.39,1.34-.49.42-.1.79-.15,1.12-.15Z"/>
  <path class="cls-4" d="M323.03,252.19h14.62v.9h-14.62v-.9Z"/>
  <path class="cls-4" d="M282.33,390.32h.91v11.04h-.91v-11.04Z"/>
  <path class="cls-4" d="M285.62,394.94h7.31v.79h-7.31v-.79Z"/>
  <path class="cls-4" d="M295.02,389.79l2.37,5.33v.44l-2.37,5.33-.63-.23,1.9-5.33-1.9-5.33.63-.21Z"/>
  <path class="cls-4" d="M302.37,396.18h7.31v.79h-7.31v-.79ZM302.37,393.71h7.31v.79h-7.31v-.79Z"/>
  <path class="cls-4" d="M339.44,368.17c2.17,2.82,3.91,6.57,5.21,11.24,1.14,4.09,1.78,8.44,1.93,13.06l.03,1.93h0v1.84h0l-.03,1.93c-.14,4.62-.79,8.97-1.93,13.06-1.3,4.67-3.04,8.42-5.21,11.24l-.46-.38c2.04-2.89,3.61-6.65,4.71-11.29,1.1-4.64,1.65-9.51,1.66-14.62v-1.71c0-5.11-.56-9.98-1.66-14.62-1.1-4.64-2.67-8.4-4.71-11.29l.46-.38ZM322.45,368.17l.46.39c-2.04,2.89-3.61,6.65-4.71,11.29-1.1,4.64-1.65,9.51-1.66,14.62v1.72c0,5.11.56,9.98,1.66,14.62,1.1,4.64,2.67,8.4,4.71,11.29l-.46.39c-2.17-2.82-3.91-6.57-5.21-11.24-1.14-4.09-1.78-8.44-1.93-13.06l-.03-1.93h0v-1.84h0l.03-1.93c.14-4.62.79-8.97,1.93-13.06,1.3-4.67,3.04-8.42,5.21-11.24Z"/>
  <path class="cls-4" d="M331.41,368.3h.33c-.02.38-.04.91-.04,1.58v5.07c0,.23.01.4.04.52.03.12.07.21.14.28.07.07.16.13.28.17.12.04.28.07.46.09.18.02.43.04.74.05v.43h-4.39v-.43c.44-.02.75-.05.94-.08.19-.03.33-.08.43-.15.1-.07.17-.16.22-.29.05-.12.07-.32.07-.6v-4.81c0-.16-.03-.27-.08-.35-.06-.07-.14-.11-.24-.11-.13,0-.31.07-.54.2-.23.13-.52.31-.87.54l-.26-.46,2.78-1.66Z"/>
  <path class="cls-4" d="M330.78,382.09h1.51v.07h5.97v.9h-6.75v-.18h-.29l-3.19,10.9h-.57l-2.46-5.28-1,.45-.18-.45,1.94-.89,2.09,4.6,2.93-10.13Z"/>
  <path class="cls-4" d="M334.98,384.63c.74,0,1.29.16,1.67.48.38.32.56.79.56,1.4,0,.21-.02.4-.06.58-.04.18-.11.35-.2.52-.09.17-.21.36-.36.56-.15.2-.31.4-.5.6-.18.2-.5.54-.94,1.02-.75.79-1.3,1.49-1.65,2.08h2.24c.19,0,.35-.01.47-.04.12-.02.21-.06.29-.12.07-.06.13-.13.17-.22.04-.09.09-.22.16-.41h.5l-.1,1.73h-4.88v-.29c.17-.41.4-.84.69-1.27.29-.44.7-.95,1.23-1.54.46-.51.79-.89.99-1.15.22-.28.39-.53.49-.74.11-.21.19-.4.23-.59.05-.18.07-.37.07-.56,0-.3-.05-.56-.14-.79s-.24-.41-.44-.54c-.2-.13-.44-.2-.74-.2-.74,0-1.24.41-1.5,1.24h-.72v-1.14c.48-.23.93-.39,1.34-.49.42-.1.79-.15,1.12-.15Z"/>
  <path class="cls-4" d="M323.63,379.68h14.62v.9h-14.62v-.9Z"/>
  <path class="cls-4" d="M323.96,402h7.31v.79h-7.31v-.79Z"/>
  <path class="cls-4" d="M335.93,397.67h.33c-.02.38-.04.91-.04,1.58v5.06c0,.23.01.4.04.52.02.12.07.21.13.29.07.07.16.13.28.17.12.04.28.07.46.09.19.02.43.04.74.05v.43h-4.38v-.43c.44-.02.75-.05.94-.08.19-.03.33-.09.43-.15.1-.07.17-.16.22-.28.05-.12.07-.32.07-.6v-4.81c0-.16-.03-.27-.08-.35-.05-.07-.13-.11-.24-.11-.13,0-.31.07-.54.2-.23.13-.52.31-.87.54l-.26-.46,2.78-1.66Z"/>
  <path class="cls-4" d="M331.51,411.41h6.75v.9h-6.75v-.06h-.29l-3.19,10.9h-.57l-2.46-5.28-1,.45-.18-.45,1.94-.89,2.09,4.6,2.93-10.13h.73v-.05Z"/>
  <path class="cls-4" d="M334.98,414c.74,0,1.29.16,1.67.48.38.32.56.79.56,1.4,0,.21-.02.4-.06.58-.04.18-.11.35-.2.52-.09.17-.21.36-.36.55-.15.2-.31.4-.5.6-.18.2-.5.54-.94,1.02-.75.79-1.3,1.49-1.65,2.08h2.24c.19,0,.35-.01.47-.03.12-.02.21-.06.29-.12.07-.06.13-.13.17-.22.04-.09.09-.23.16-.41h.5l-.1,1.73h-4.88v-.28c.17-.42.4-.84.69-1.28.29-.43.7-.95,1.23-1.54.46-.51.79-.89.99-1.15.22-.28.39-.53.49-.74.11-.21.19-.4.23-.59.05-.18.07-.37.07-.55,0-.3-.05-.56-.14-.79-.09-.23-.24-.4-.44-.54-.2-.13-.44-.2-.74-.2-.74,0-1.24.41-1.5,1.23h-.72v-1.14c.48-.22.93-.39,1.34-.49.42-.1.79-.15,1.12-.15Z"/>
  <path class="cls-4" d="M323.18,409.16h15.75v.9h-15.75v-.9Z"/>
  <path class="cls-4" d="M162.43,218.19c2.17,2.82,3.91,6.57,5.21,11.24,1.14,4.09,1.78,8.44,1.93,13.06l.03,1.93h0v1.84h0l-.03,1.93c-.15,4.62-.79,8.97-1.93,13.06-1.3,4.67-3.04,8.42-5.21,11.24l-.46-.39c2.04-2.89,3.61-6.65,4.71-11.29,1.1-4.64,1.65-9.51,1.66-14.62v-1.72c0-5.11-.56-9.98-1.66-14.62-1.1-4.64-2.67-8.4-4.71-11.29l.46-.39ZM145.43,218.19l.46.39c-2.04,2.89-3.61,6.65-4.71,11.29-1.1,4.64-1.65,9.51-1.66,14.62v1.72c0,5.11.56,9.98,1.66,14.62,1.1,4.64,2.67,8.4,4.71,11.29l-.46.39c-2.17-2.82-3.91-6.57-5.21-11.24-1.14-4.09-1.78-8.44-1.93-13.06l-.03-1.93h0v-1.84h0l.03-1.93c.15-4.62.79-8.97,1.93-13.06,1.3-4.67,3.04-8.42,5.21-11.24Z"/>
  <path class="cls-4" d="M146.94,222.64h7.31v.79h-7.31v-.79Z"/>
  <path class="cls-4" d="M158.92,218.32h.33c-.02.38-.04.91-.04,1.58v5.07c0,.23.01.4.04.52.03.12.07.21.14.28.07.07.16.13.28.17.12.04.28.07.46.09.19.02.43.04.74.04v.43h-4.38v-.43c.44-.02.75-.05.94-.08.19-.03.33-.08.43-.15.1-.07.17-.16.22-.28.05-.12.07-.32.07-.6v-4.81c0-.16-.03-.27-.08-.35-.06-.07-.14-.11-.24-.11-.13,0-.31.07-.54.2-.23.13-.52.31-.87.54l-.26-.46,2.78-1.66Z"/>
  <path class="cls-4" d="M153.77,232.11h1.51v.07h6.11v.9h-6.75v-.18h-.43l-3.19,10.9h-.58l-2.46-5.28-1,.45-.18-.45,1.95-.89,2.09,4.6,2.93-10.13Z"/>
  <path class="cls-4" d="M157.96,234.65c.74,0,1.29.16,1.67.48.38.32.56.79.56,1.4,0,.21-.02.4-.06.58-.04.18-.11.35-.2.52-.09.17-.21.36-.36.55-.15.2-.32.4-.5.6-.18.2-.5.54-.94,1.02-.75.79-1.3,1.49-1.66,2.08h2.24c.19,0,.35-.01.47-.04.12-.02.21-.06.28-.12.07-.06.13-.13.17-.22.04-.09.09-.23.16-.41h.5l-.1,1.73h-4.88v-.28c.17-.42.4-.84.69-1.28.29-.44.7-.95,1.23-1.54.46-.51.79-.89.99-1.15.22-.28.39-.53.5-.74.11-.21.19-.4.23-.59.05-.18.07-.37.07-.55,0-.3-.05-.56-.14-.79-.09-.23-.24-.41-.44-.54-.2-.13-.44-.2-.74-.2-.74,0-1.24.41-1.49,1.23h-.72v-1.14c.48-.23.93-.39,1.34-.49.42-.1.79-.15,1.12-.15Z"/>
  <path class="cls-4" d="M146.09,229.7h15.75v.9h-15.75v-.9Z"/>
  <path class="cls-4" d="M154.4,247.69h.33c-.02.38-.04.91-.04,1.58v5.07c0,.23.01.4.04.52.03.12.07.21.14.28.07.07.16.13.28.17.12.04.28.07.46.09.19.02.43.04.74.04v.43h-4.38v-.43c.44-.02.75-.05.94-.08.19-.03.33-.08.43-.15.1-.07.17-.16.22-.28s.07-.32.07-.6v-4.81c0-.16-.03-.27-.08-.35-.06-.07-.14-.11-.24-.11-.13,0-.31.07-.54.2-.23.13-.52.31-.87.54l-.26-.46,2.78-1.66Z"/>
  <path class="cls-4" d="M154.64,261.43h6.75v.9h-6.75v-.06h-.43l-3.19,10.9h-.58l-2.46-5.28-1,.44-.18-.44,1.95-.89,2.09,4.6,2.93-10.13h.87v-.05Z"/>
  <path class="cls-4" d="M157.96,264.02c.74,0,1.29.16,1.67.48.38.32.56.79.56,1.4,0,.21-.02.4-.06.58-.04.18-.11.35-.2.52-.09.17-.21.36-.36.55-.15.2-.32.4-.5.6-.18.2-.5.54-.94,1.02-.75.79-1.3,1.49-1.66,2.08h2.24c.19,0,.35-.01.47-.04.12-.02.21-.06.28-.12.07-.06.13-.13.17-.22.04-.09.09-.23.16-.41h.5l-.1,1.73h-4.88v-.28c.17-.42.4-.84.69-1.28.29-.44.7-.95,1.23-1.54.46-.51.79-.89.99-1.15.22-.28.39-.53.5-.74.11-.21.19-.4.23-.59.05-.18.07-.37.07-.55,0-.3-.05-.56-.14-.79-.09-.23-.24-.41-.44-.54-.2-.13-.44-.2-.74-.2-.74,0-1.24.41-1.49,1.23h-.72v-1.14c.48-.23.93-.39,1.34-.49.42-.1.79-.15,1.12-.15Z"/>
  <path class="cls-4" d="M146.54,259.18h14.62v.9h-14.62v-.9Z"/>
  <path class="cls-4" d="M161.95,368.17c2.17,2.82,3.91,6.57,5.21,11.24,1.14,4.09,1.78,8.44,1.93,13.06l.03,1.93h0v1.84h0l-.03,1.93c-.15,4.62-.79,8.97-1.93,13.06-1.3,4.67-3.04,8.42-5.21,11.24l-.46-.38c2.04-2.89,3.61-6.65,4.71-11.29s1.65-9.51,1.66-14.62v-1.71c0-5.11-.56-9.98-1.66-14.62s-2.67-8.4-4.71-11.29l.46-.38ZM144.96,368.17l.46.39c-2.04,2.89-3.61,6.65-4.71,11.29-1.1,4.64-1.65,9.51-1.66,14.62v1.72c0,5.11.56,9.98,1.66,14.62,1.1,4.64,2.67,8.4,4.71,11.29l-.46.39c-2.17-2.82-3.91-6.57-5.21-11.24-1.14-4.09-1.78-8.44-1.93-13.06l-.03-1.93h0v-1.84h0l.03-1.93c.15-4.62.79-8.97,1.93-13.06,1.3-4.67,3.04-8.42,5.21-11.24Z"/>
  <path class="cls-4" d="M146.47,372.62h7.31v.79h-7.31v-.79Z"/>
  <path class="cls-4" d="M158.44,368.3h.33c-.02.38-.04.91-.04,1.58v5.07c0,.23.01.4.04.52s.07.21.14.28c.07.07.16.13.28.17.12.04.28.07.46.09.19.02.43.04.74.05v.43h-4.38v-.43c.44-.02.75-.05.94-.08.19-.03.33-.08.43-.15.1-.07.17-.16.22-.29.05-.12.07-.32.07-.6v-4.81c0-.16-.03-.27-.08-.35-.06-.07-.14-.11-.24-.11-.13,0-.31.07-.54.2s-.52.31-.87.54l-.26-.46,2.78-1.66Z"/>
  <path class="cls-4" d="M153.29,382.09h1.51v.07h6.11v.9h-6.75v-.18h-.43l-3.19,10.9h-.58l-2.46-5.28-1,.45-.18-.45,1.95-.89,2.09,4.6,2.93-10.13Z"/>
  <path class="cls-4" d="M157.49,384.63c.74,0,1.29.16,1.67.48.38.32.56.79.56,1.4,0,.21-.02.4-.06.58-.04.18-.11.35-.2.52-.09.17-.21.36-.36.56-.15.2-.32.4-.5.6-.18.2-.5.54-.94,1.02-.75.79-1.3,1.49-1.66,2.08h2.24c.19,0,.35-.01.47-.04.12-.02.21-.06.28-.12.07-.06.13-.13.17-.22.04-.09.09-.22.16-.41h.5l-.1,1.73h-4.88v-.29c.17-.41.4-.84.69-1.27.29-.44.7-.95,1.23-1.54.46-.51.79-.89.99-1.15.22-.28.39-.53.5-.74.11-.21.19-.4.23-.59s.07-.37.07-.56c0-.3-.05-.56-.14-.79s-.24-.41-.44-.54c-.2-.13-.44-.2-.74-.2-.74,0-1.24.41-1.49,1.24h-.72v-1.14c.48-.23.93-.39,1.34-.49.42-.1.79-.15,1.12-.15Z"/>
  <path class="cls-4" d="M145.61,379.68h15.75v.9h-15.75v-.9Z"/>
  <path class="cls-4" d="M146.47,402h7.31v.79h-7.31v-.79Z"/>
  <path class="cls-4" d="M158.44,397.67h.33c-.02.38-.04.91-.04,1.58v5.06c0,.23.01.4.04.52s.07.21.14.29c.07.07.16.13.28.17.12.04.28.07.46.09.19.02.43.04.74.05v.43h-4.38v-.43c.44-.02.75-.05.94-.08.19-.03.33-.09.43-.15.1-.07.17-.16.22-.28.05-.12.07-.32.07-.6v-4.81c0-.16-.03-.27-.08-.35-.06-.07-.14-.11-.24-.11-.13,0-.31.07-.54.2-.23.13-.52.31-.87.54l-.26-.46,2.78-1.66Z"/>
  <path class="cls-4" d="M154.16,411.41h6.75v.9h-6.75v-.06h-.43l-3.19,10.9h-.58l-2.46-5.28-1,.45-.18-.45,1.95-.89,2.09,4.6,2.93-10.13h.87v-.05Z"/>
  <path class="cls-4" d="M157.49,414c.74,0,1.29.16,1.67.48.38.32.56.79.56,1.4,0,.21-.02.4-.06.58-.04.18-.11.35-.2.52-.09.17-.21.36-.36.55-.15.2-.32.4-.5.6-.18.2-.5.54-.94,1.02-.75.79-1.3,1.49-1.66,2.08h2.24c.19,0,.35-.01.47-.03.12-.02.21-.06.28-.12.07-.06.13-.13.17-.22.04-.09.09-.23.16-.41h.5l-.1,1.73h-4.88v-.28c.17-.42.4-.84.69-1.28.29-.43.7-.95,1.23-1.54.46-.51.79-.89.99-1.15.22-.28.39-.53.5-.74.11-.21.19-.4.23-.59.05-.18.07-.37.07-.55,0-.3-.05-.56-.14-.79-.09-.23-.24-.4-.44-.54-.2-.13-.44-.2-.74-.2-.74,0-1.24.41-1.49,1.23h-.72v-1.14c.48-.22.93-.39,1.34-.49.42-.1.79-.15,1.12-.15Z"/>
  <path class="cls-4" d="M145.61,409.16h15.75v.9h-15.75v-.9Z"/>
  <path class="cls-7" d="M481.45,317.92c0-86.43,70.06-156.49,156.49-156.49s156.49,70.06,156.49,156.49-70.06,156.49-156.49,156.49-156.49-70.06-156.49-156.49Z"/>
  <path class="cls-3" d="M787.56,318.15c0-3.67,3.02-6.64,6.75-6.64s6.75,2.97,6.75,6.64-3.02,6.64-6.75,6.64-6.75-2.97-6.75-6.64Z"/>
  <path class="cls-1" d="M631.07,161.21c0-3.67,3.02-6.64,6.75-6.64s6.75,2.97,6.75,6.64-3.02,6.64-6.75,6.64-6.75-2.97-6.75-6.64Z"/>
  <path class="cls-3" d="M474.81,318.15c0-3.67,2.97-6.64,6.64-6.64s6.64,2.97,6.64,6.64-2.97,6.64-6.64,6.64-6.64-2.97-6.64-6.64Z"/>
  <path class="cls-1" d="M631.07,474.19c0-3.67,3.02-6.64,6.75-6.64s6.75,2.97,6.75,6.64-3.02,6.64-6.75,6.64-6.75-2.97-6.75-6.64Z"/>
  <path class="cls-3" d="M743.46,209.47c0-3.67,3.02-6.64,6.75-6.64s6.75,2.97,6.75,6.64-3.02,6.64-6.75,6.64-6.75-2.97-6.75-6.64Z"/>
  <path class="cls-2" d="M743.46,426.6c0-3.67,3.02-6.64,6.75-6.64s6.75,2.97,6.75,6.64-3.02,6.64-6.75,6.64-6.75-2.97-6.75-6.64Z"/>
  <path class="cls-2" d="M518.91,209.47c0-3.67,2.97-6.64,6.64-6.64s6.64,2.97,6.64,6.64-2.97,6.64-6.64,6.64-6.64-2.97-6.64-6.64Z"/>
  <path class="cls-3" d="M518.91,426.6c0-3.67,2.97-6.64,6.64-6.64s6.64,2.97,6.64,6.64-2.97,6.64-6.64,6.64-6.64-2.97-6.64-6.64Z"/>
  <path class="cls-4" d="M518.1,303.15c1.62,1.39,2.92,3.47,3.87,6.23.96,2.76,1.43,5.84,1.43,9.24s-.48,6.43-1.43,9.23c-.95,2.8-2.25,4.9-3.87,6.28l-.28-.44c1.4-1.43,2.49-3.49,3.24-6.2.76-2.7,1.14-5.66,1.14-8.86s-.38-6.25-1.15-8.9c-.76-2.66-1.84-4.7-3.24-6.13l.28-.45ZM501.05,303.15l.28.45c-1.4,1.43-2.48,3.47-3.24,6.13-.76,2.66-1.14,5.63-1.14,8.9s.38,6.16,1.14,8.86c.76,2.71,1.84,4.77,3.24,6.2l-.28.44c-1.63-1.38-2.92-3.48-3.87-6.28-.95-2.8-1.43-5.88-1.43-9.23s.48-6.48,1.43-9.24c.96-2.76,2.25-4.84,3.87-6.23Z"/>
  <path class="cls-4" d="M502.59,309.06h7.31v.79h-7.31v-.79Z"/>
  <path class="cls-4" d="M514.56,304.73h.33c-.02.38-.04.91-.04,1.58v5.07c0,.23.01.4.04.52.03.12.07.21.14.29.07.07.16.13.28.17.12.04.28.07.46.1.18.02.43.04.74.04v.43h-4.39v-.43c.44-.02.75-.04.94-.08.19-.03.33-.09.43-.15.1-.07.17-.16.22-.29.05-.12.07-.32.07-.6v-4.81c0-.16-.03-.27-.08-.35-.06-.07-.14-.11-.24-.11-.13,0-.31.07-.54.2-.23.13-.52.31-.87.54l-.26-.46,2.78-1.66Z"/>
  <path class="cls-4" d="M509.58,322.52c-.27,0-.5.08-.68.24s-.33.4-.45.7c-.11.31-.19.67-.24,1.11-.05.44-.07.93-.07,1.48,0,1.29.12,2.23.36,2.84.24.6.61.9,1.11.9.48,0,.83-.28,1.06-.85.23-.57.35-1.45.35-2.64,0-.91-.06-1.65-.18-2.21-.12-.56-.28-.97-.49-1.21-.21-.25-.47-.37-.77-.37ZM509.61,322.01c.87,0,1.51.33,1.93,1,.42.67.63,1.68.63,3.03s-.23,2.46-.68,3.18c-.45.72-1.11,1.08-1.98,1.08s-1.49-.34-1.91-1.01c-.42-.67-.63-1.69-.63-3.06,0-.73.06-1.36.19-1.89.13-.53.31-.97.54-1.31.23-.35.51-.6.83-.77.32-.17.68-.25,1.06-.25Z"/>
  <path class="cls-4" d="M645.16,429.68c1.63,1.39,2.92,3.47,3.87,6.23.95,2.76,1.43,5.84,1.43,9.24s-.48,6.43-1.43,9.23c-.96,2.8-2.25,4.9-3.87,6.28l-.28-.44c1.4-1.43,2.48-3.49,3.24-6.2.76-2.71,1.14-5.66,1.14-8.87s-.38-6.25-1.15-8.9c-.76-2.66-1.84-4.7-3.24-6.13l.28-.45ZM628.11,429.68l.28.45c-1.4,1.43-2.48,3.47-3.24,6.13-.76,2.66-1.14,5.62-1.14,8.9s.38,6.16,1.14,8.87c.76,2.7,1.84,4.77,3.25,6.2l-.28.44c-1.63-1.38-2.92-3.48-3.87-6.28-.95-2.8-1.43-5.88-1.43-9.23s.48-6.48,1.43-9.24c.96-2.76,2.25-4.84,3.87-6.23Z"/>
  <path class="cls-4" d="M636.64,431.77c-.27,0-.5.08-.68.24-.18.16-.33.4-.45.7-.11.3-.19.68-.24,1.11-.05.44-.07.93-.07,1.48,0,1.29.12,2.24.36,2.84.24.6.61.9,1.11.9s.83-.28,1.07-.85c.23-.57.35-1.45.35-2.64,0-.91-.06-1.65-.18-2.21-.12-.56-.28-.97-.49-1.22-.21-.25-.47-.37-.77-.37ZM636.67,431.26c.87,0,1.51.33,1.94,1,.42.67.63,1.68.63,3.03s-.23,2.46-.68,3.18c-.45.72-1.11,1.08-1.98,1.08s-1.49-.34-1.91-1.01c-.42-.67-.63-1.69-.63-3.06,0-.73.07-1.35.19-1.89.13-.53.31-.97.54-1.31s.51-.6.83-.77c.32-.16.68-.25,1.06-.25Z"/>
  <path class="cls-4" d="M629.65,452.87h7.31v.79h-7.31v-.79Z"/>
  <path class="cls-4" d="M641.62,448.54h.33c-.02.38-.04.91-.04,1.58v5.07c0,.23.01.4.04.52.02.12.07.21.14.29.07.07.16.13.28.17.12.04.28.07.46.09.18.02.43.04.74.05v.43h-4.39v-.43c.44-.02.75-.05.94-.08.19-.03.33-.08.43-.15.1-.07.17-.16.22-.28.05-.12.07-.32.07-.6v-4.81c0-.16-.03-.27-.08-.35-.06-.07-.14-.11-.24-.11-.13,0-.31.07-.54.2-.23.13-.52.31-.87.54l-.26-.46,2.78-1.66Z"/>
  <path class="cls-4" d="M557.19,218.19c2.17,2.82,3.91,6.57,5.21,11.24,1.14,4.09,1.78,8.44,1.93,13.06l.03,1.93h0v1.84h0l-.03,1.93c-.14,4.62-.79,8.97-1.93,13.06-1.3,4.67-3.04,8.42-5.21,11.24l-.46-.39c2.04-2.89,3.61-6.65,4.71-11.29,1.1-4.64,1.65-9.51,1.66-14.62v-1.72c0-5.11-.56-9.98-1.66-14.62-1.1-4.64-2.67-8.4-4.71-11.29l.46-.39ZM540.19,218.19l.46.39c-2.04,2.89-3.61,6.65-4.71,11.29-1.1,4.64-1.65,9.51-1.66,14.62v1.72c0,5.11.56,9.98,1.66,14.62,1.1,4.64,2.67,8.4,4.71,11.29l-.46.39c-2.17-2.82-3.91-6.57-5.21-11.24-1.14-4.09-1.78-8.44-1.93-13.06l-.03-1.93h0v-1.84h0l.03-1.93c.14-4.62.79-8.97,1.93-13.06,1.3-4.67,3.04-8.42,5.21-11.24Z"/>
  <path class="cls-4" d="M541.7,222.64h7.31v.79h-7.31v-.79Z"/>
  <path class="cls-4" d="M553.68,218.32h.33c-.02.38-.04.91-.04,1.58v5.07c0,.23.01.4.04.52.02.12.07.21.14.28.07.07.16.13.28.17.12.04.28.07.46.09.19.02.43.04.74.04v.43h-4.38v-.43c.44-.02.75-.05.94-.08.19-.03.33-.08.43-.15s.17-.16.22-.28c.04-.12.07-.32.07-.6v-4.81c0-.16-.03-.27-.08-.35-.05-.07-.13-.11-.24-.11-.13,0-.31.07-.54.2-.23.13-.52.31-.87.54l-.26-.46,2.78-1.66Z"/>
  <path class="cls-4" d="M548.53,232.11h1.51v.07h6.11v.9h-6.75v-.18h-.43l-3.19,10.9h-.57l-2.46-5.28-1,.45-.18-.45,1.94-.89,2.09,4.6,2.93-10.13Z"/>
  <path class="cls-4" d="M552.72,234.65c.74,0,1.29.16,1.67.48.38.32.56.79.56,1.4,0,.21-.02.4-.06.58-.04.18-.11.35-.2.52-.09.17-.21.36-.36.55-.15.2-.31.4-.5.6-.18.2-.5.54-.94,1.02-.75.79-1.3,1.49-1.65,2.08h2.24c.19,0,.35-.01.47-.04.12-.02.21-.06.29-.12.07-.06.13-.13.17-.22.04-.09.09-.23.16-.41h.5l-.1,1.73h-4.88v-.28c.17-.42.4-.84.69-1.28.29-.44.7-.95,1.23-1.54.46-.51.79-.89.99-1.15.22-.28.39-.53.49-.74.11-.21.19-.4.23-.59.05-.18.07-.37.07-.55,0-.3-.05-.56-.14-.79-.09-.23-.24-.41-.44-.54-.2-.13-.44-.2-.74-.2-.74,0-1.24.41-1.5,1.23h-.72v-1.14c.48-.23.93-.39,1.34-.49.42-.1.79-.15,1.12-.15Z"/>
  <path class="cls-4" d="M540.85,229.7h15.75v.9h-15.75v-.9Z"/>
  <path class="cls-4" d="M549.16,247.69h.33c-.02.38-.04.91-.04,1.58v5.07c0,.23.01.4.04.52.03.12.07.21.14.28.07.07.16.13.28.17.12.04.28.07.46.09.18.02.43.04.74.04v.43h-4.39v-.43c.44-.02.75-.05.94-.08.19-.03.33-.08.43-.15.1-.07.17-.16.22-.28.05-.12.07-.32.07-.6v-4.81c0-.16-.03-.27-.08-.35-.06-.07-.14-.11-.24-.11-.13,0-.31.07-.54.2-.23.13-.52.31-.87.54l-.26-.46,2.78-1.66Z"/>
  <path class="cls-4" d="M549.4,261.43h6.75v.9h-6.75v-.06h-.43l-3.19,10.9h-.57l-2.46-5.28-1,.44-.18-.44,1.94-.89,2.09,4.6,2.93-10.13h.87v-.05Z"/>
  <path class="cls-4" d="M552.72,264.02c.74,0,1.29.16,1.67.48.38.32.56.79.56,1.4,0,.21-.02.4-.06.58-.04.18-.11.35-.2.52-.09.17-.21.36-.36.55-.15.2-.31.4-.5.6-.18.2-.5.54-.94,1.02-.75.79-1.3,1.49-1.65,2.08h2.24c.19,0,.35-.01.47-.04.12-.02.21-.06.29-.12.07-.06.13-.13.17-.22.04-.09.09-.23.16-.41h.5l-.1,1.73h-4.88v-.28c.17-.42.4-.84.69-1.28.29-.44.7-.95,1.23-1.54.46-.51.79-.89.99-1.15.22-.28.39-.53.49-.74.11-.21.19-.4.23-.59.05-.18.07-.37.07-.55,0-.3-.05-.56-.14-.79-.09-.23-.24-.41-.44-.54-.2-.13-.44-.2-.74-.2-.74,0-1.24.41-1.5,1.23h-.72v-1.14c.48-.23.93-.39,1.34-.49.42-.1.79-.15,1.12-.15Z"/>
  <path class="cls-4" d="M541.3,259.18h14.62v.9h-14.62v-.9Z"/>
  <path class="cls-4" d="M556.71,368.17c2.17,2.82,3.91,6.57,5.21,11.24,1.14,4.09,1.78,8.44,1.93,13.06l.03,1.93h0v1.84h0l-.03,1.93c-.15,4.62-.79,8.97-1.93,13.06-1.3,4.67-3.04,8.42-5.21,11.24l-.46-.38c2.04-2.89,3.61-6.65,4.71-11.29,1.1-4.64,1.65-9.51,1.66-14.62v-1.71c0-5.11-.56-9.98-1.66-14.62-1.1-4.64-2.67-8.4-4.71-11.29l.46-.38ZM539.71,368.17l.46.39c-2.04,2.89-3.61,6.65-4.71,11.29-1.1,4.64-1.65,9.51-1.66,14.62v1.72c0,5.11.56,9.98,1.66,14.62,1.1,4.64,2.67,8.4,4.71,11.29l-.46.39c-2.17-2.82-3.91-6.57-5.21-11.24-1.14-4.09-1.78-8.44-1.93-13.06l-.03-1.93h0v-1.84h0l.03-1.93c.14-4.62.79-8.97,1.93-13.06,1.3-4.67,3.04-8.42,5.21-11.24Z"/>
  <path class="cls-4" d="M541.23,372.62h7.31v.79h-7.31v-.79Z"/>
  <path class="cls-4" d="M553.2,368.3h.33c-.02.38-.03.91-.03,1.58v5.07c0,.23.01.4.04.52.02.12.07.21.13.28.07.07.16.13.28.17.12.04.28.07.46.09.19.02.43.04.74.05v.43h-4.38v-.43c.44-.02.75-.05.94-.08.19-.03.33-.08.43-.15.1-.07.17-.16.22-.29.04-.12.07-.32.07-.6v-4.81c0-.16-.03-.27-.08-.35-.05-.07-.14-.11-.24-.11-.13,0-.31.07-.54.2-.23.13-.52.31-.87.54l-.26-.46,2.78-1.66Z"/>
  <path class="cls-4" d="M548.05,382.09h1.51v.07h6.11v.9h-6.75v-.18h-.43l-3.19,10.9h-.57l-2.46-5.28-1,.45-.18-.45,1.95-.89,2.09,4.6,2.93-10.13Z"/>
  <path class="cls-4" d="M552.24,384.63c.74,0,1.29.16,1.67.48.38.32.56.79.56,1.4,0,.21-.02.4-.06.58-.04.18-.11.35-.2.52-.09.17-.21.36-.36.56-.15.2-.32.4-.5.6-.18.2-.5.54-.94,1.02-.75.79-1.31,1.49-1.66,2.08h2.24c.19,0,.35-.01.47-.04.12-.02.21-.06.29-.12.07-.06.13-.13.17-.22.04-.09.09-.22.16-.41h.5l-.1,1.73h-4.88v-.29c.17-.41.4-.84.69-1.27.29-.44.7-.95,1.23-1.54.46-.51.79-.89.99-1.15.22-.28.39-.53.49-.74.11-.21.19-.4.23-.59.05-.18.07-.37.07-.56,0-.3-.05-.56-.14-.79s-.24-.41-.44-.54c-.2-.13-.44-.2-.74-.2-.74,0-1.24.41-1.5,1.24h-.72v-1.14c.48-.23.93-.39,1.34-.49.42-.1.79-.15,1.12-.15Z"/>
  <path class="cls-4" d="M540.37,379.68h15.75v.9h-15.75v-.9Z"/>
  <path class="cls-4" d="M541.23,402h7.31v.79h-7.31v-.79Z"/>
  <path class="cls-4" d="M553.2,397.67h.33c-.02.38-.03.91-.03,1.58v5.06c0,.23.01.4.04.52.02.12.07.21.13.29.07.07.16.13.28.17.12.04.28.07.46.09.19.02.43.04.74.05v.43h-4.38v-.43c.44-.02.75-.05.94-.08.19-.03.33-.09.43-.15.1-.07.17-.16.22-.28.04-.12.07-.32.07-.6v-4.81c0-.16-.03-.27-.08-.35-.05-.07-.14-.11-.24-.11-.13,0-.31.07-.54.2-.23.13-.52.31-.87.54l-.26-.46,2.78-1.66Z"/>
  <path class="cls-4" d="M548.92,411.41h6.75v.9h-6.75v-.06h-.43l-3.19,10.9h-.57l-2.46-5.28-1,.45-.18-.45,1.95-.89,2.09,4.6,2.93-10.13h.87v-.05Z"/>
  <path class="cls-4" d="M552.24,414c.74,0,1.29.16,1.67.48.38.32.56.79.56,1.4,0,.21-.02.4-.06.58-.04.18-.11.35-.2.52-.09.17-.21.36-.36.55-.15.2-.32.4-.5.6-.18.2-.5.54-.94,1.02-.75.79-1.31,1.49-1.66,2.08h2.24c.19,0,.35-.01.47-.03.12-.02.21-.06.29-.12.07-.06.13-.13.17-.22.04-.09.09-.23.16-.41h.5l-.1,1.73h-4.88v-.28c.17-.42.4-.84.69-1.28.29-.43.7-.95,1.23-1.54.46-.51.79-.89.99-1.15.22-.28.39-.53.49-.74.11-.21.19-.4.23-.59.05-.18.07-.37.07-.55,0-.3-.05-.56-.14-.79-.09-.23-.24-.4-.44-.54-.2-.13-.44-.2-.74-.2-.74,0-1.24.41-1.5,1.23h-.72v-1.14c.48-.22.93-.39,1.34-.49.42-.1.79-.15,1.12-.15Z"/>
  <path class="cls-4" d="M540.37,409.16h15.75v.9h-15.75v-.9Z"/>
  <path class="cls-5" d="M407.57,317.36h16.99l-.77.77v-108.55l.77.77h-62.26v-1.55h63.03v110.09h-17.77v-1.55ZM413.26,323.88l-6.9-5.75,6.9-5.75c.33-.27.82-.23,1.09.1.27.33.23.82-.1,1.09l-6.19,5.15v-1.19l6.19,5.16c.33.27.37.76.1,1.09-.27.33-.76.37-1.09.1Z"/>
  <path class="cls-5" d="M78.73,318.81h-17.36l.77-.77v108.55l-.77-.77h62.62v1.55h-63.39v-110.09h18.13v1.55ZM73.03,312.28l6.9,5.75-6.9,5.75c-.33.27-.82.23-1.09-.1-.27-.33-.23-.82.1-1.09l6.19-5.16v1.19l-6.19-5.16c-.33-.27-.37-.76-.1-1.09.27-.33.76-.37,1.09-.1Z"/>
  <path class="cls-5" d="M757.02,425.85h64.61l-.77.77V136.12l.77.77h-183.69l.77-.77v17.36h-1.55v-18.13h185.24v292.04h-65.39v-1.55ZM643.68,147.79l-5.75,6.9-5.75-6.9c-.27-.33-.23-.82.1-1.09.33-.27.82-.23,1.09.1l5.16,6.19h-1.19l5.16-6.19c.27-.33.76-.37,1.09-.1.33.27.37.76.1,1.09Z"/>
  <path class="cls-5" d="M518.91,210.36h-57.47l.77-.77v290l-.77-.77h176.55l-.77.77v-17.36h1.55v18.13h-178.1V208.81h58.25v1.55ZM632.24,487.91l5.75-6.9,5.75,6.9c.27.33.23.82-.1,1.09-.33.27-.81.23-1.09-.1l-5.16-6.19h1.19l-5.16,6.19c-.27.33-.76.37-1.09.1-.33-.27-.37-.76-.1-1.09Z"/>
  <g>
    <path class="cls-6" d="M190.48,528.85c-1.05.55-2.37.82-3.94.82-2.03,0-3.66-.64-4.88-1.92s-1.84-2.97-1.84-5.05c0-2.24.69-4.05,2.07-5.43s3.12-2.07,5.22-2.07c1.35,0,2.48.19,3.37.58v2.3c-.94-.56-1.99-.84-3.12-.84-1.52,0-2.75.49-3.69,1.46s-1.41,2.27-1.41,3.89.44,2.77,1.32,3.69,2.03,1.37,3.47,1.37c1.32,0,2.47-.31,3.44-.94v2.15Z"/>
    <path class="cls-6" d="M202.65,529.67c-2.02,0-3.63-.65-4.85-1.96s-1.82-3.01-1.82-5.11c0-2.25.62-4.05,1.86-5.39s2.92-2.01,5.04-2.01c1.97,0,3.55.65,4.75,1.95s1.8,3,1.8,5.11c0,2.29-.62,4.09-1.85,5.42s-2.87,1.99-4.93,1.99ZM202.76,517.24c-1.28,0-2.33.48-3.13,1.44s-1.21,2.22-1.21,3.78.39,2.81,1.17,3.76,1.8,1.43,3.07,1.43c1.34,0,2.4-.45,3.17-1.36s1.16-2.17,1.16-3.8-.38-2.97-1.13-3.88-1.79-1.37-3.11-1.37Z"/>
    <path class="cls-6" d="M227.87,529.44h-2.54l-6.69-10.29c-.17-.26-.31-.53-.42-.81h-.06c.05.3.08.94.08,1.92v9.18h-2.25v-14h2.71l6.46,10.05c.27.42.45.7.53.86h.04c-.06-.37-.1-1-.1-1.88v-9.02h2.24v14Z"/>
    <path class="cls-6" d="M234.69,528.88v-2.39c.21.2.47.37.77.53s.61.29.94.4.66.19,1,.25.64.09.92.09c.98,0,1.7-.16,2.18-.49s.72-.8.72-1.42c0-.33-.08-.62-.24-.86s-.38-.47-.67-.67-.62-.4-1.01-.58-.8-.38-1.25-.58c-.48-.25-.92-.51-1.33-.77s-.77-.55-1.07-.86-.54-.67-.71-1.07-.26-.86-.26-1.4c0-.66.15-1.23.44-1.71s.69-.89,1.17-1.2,1.04-.55,1.66-.7,1.25-.23,1.89-.23c1.46,0,2.53.17,3.2.5v2.29c-.79-.57-1.82-.86-3.07-.86-.35,0-.69.03-1.03.1s-.65.17-.92.32-.49.34-.66.58-.25.52-.25.85c0,.31.06.58.2.81s.32.44.57.62.56.37.92.55.78.37,1.25.58c.49.25.95.52,1.38.8s.81.59,1.14.93.59.71.78,1.13.29.88.29,1.41c0,.71-.14,1.31-.43,1.8s-.67.89-1.16,1.19-1.04.53-1.67.66-1.3.21-2,.21c-.23,0-.52-.02-.86-.05s-.69-.09-1.05-.16-.7-.15-1.02-.25-.58-.21-.77-.33Z"/>
    <path class="cls-6" d="M259.21,517.41h-4.02v12.03h-2.32v-12.03h-4.01v-1.97h10.36v1.97Z"/>
    <path class="cls-6" d="M275.31,529.44h-2.55l-1.26-3.56h-5.51l-1.21,3.56h-2.54l5.24-14h2.62l5.21,14ZM270.89,523.98l-1.94-5.59c-.06-.18-.12-.48-.19-.88h-.04c-.06.37-.12.66-.2.88l-1.92,5.59h4.29Z"/>
    <path class="cls-6" d="M293.11,529.44h-2.54l-6.69-10.29c-.17-.26-.31-.53-.42-.81h-.06c.05.3.08.94.08,1.92v9.18h-2.25v-14h2.71l6.46,10.05c.27.42.45.7.53.86h.04c-.06-.37-.1-1-.1-1.88v-9.02h2.24v14Z"/>
    <path class="cls-6" d="M309.56,517.41h-4.02v12.03h-2.32v-12.03h-4.01v-1.97h10.36v1.97Z"/>
  </g>
  <g>
    <path class="cls-6" d="M593.17,514.98l-5.03,14h-2.6l-4.94-14h2.54l3.46,10.62c.11.34.2.73.25,1.18h.04c.05-.37.14-.77.28-1.2l3.54-10.61h2.46Z"/>
    <path class="cls-6" d="M609.44,528.98h-2.55l-1.26-3.56h-5.51l-1.21,3.56h-2.54l5.24-14h2.62l5.21,14ZM605.01,523.52l-1.94-5.59c-.06-.18-.12-.48-.19-.88h-.04c-.06.37-.12.66-.2.88l-1.92,5.59h4.29Z"/>
    <path class="cls-6" d="M626.18,528.98h-2.71l-2.24-3.75c-.2-.34-.4-.64-.59-.88s-.39-.44-.59-.6-.42-.27-.65-.34-.5-.11-.79-.11h-.94v5.68h-2.31v-14h4.61c.66,0,1.26.08,1.82.23s1.04.39,1.45.71.73.71.96,1.18.35,1.02.35,1.66c0,.5-.07.95-.22,1.36s-.35.78-.62,1.1-.6.6-.98.83-.81.4-1.28.53v.04c.25.14.48.3.66.47s.37.35.54.53.34.39.5.62.35.5.55.81l2.49,3.94ZM617.68,516.86v4.55h1.93c.36,0,.69-.06.99-.17s.56-.27.79-.48.39-.46.52-.76.19-.63.19-1.01c0-.67-.21-1.19-.63-1.57s-1.03-.57-1.83-.57h-1.95Z"/>
    <path class="cls-6" d="M634.2,528.98h-2.39v-14h2.39v14Z"/>
    <path class="cls-6" d="M653.15,528.98h-2.55l-1.26-3.56h-5.51l-1.21,3.56h-2.54l5.24-14h2.62l5.21,14ZM648.72,523.52l-1.94-5.59c-.06-.18-.12-.48-.19-.88h-.04c-.06.37-.12.66-.2.88l-1.92,5.59h4.29Z"/>
    <path class="cls-6" d="M659.07,528.98v-14h4.44c1.35,0,2.43.3,3.22.89s1.19,1.36,1.19,2.31c0,.79-.22,1.48-.67,2.07s-1.07,1-1.87,1.25v.04c.96.11,1.73.47,2.31,1.07s.86,1.38.86,2.35c0,1.2-.47,2.17-1.42,2.91s-2.14,1.11-3.57,1.11h-4.49ZM661.39,516.84v3.98h1.5c.81,0,1.44-.19,1.9-.57s.69-.92.69-1.62c0-1.2-.8-1.8-2.4-1.8h-1.69ZM661.39,522.69v4.43h1.98c.87,0,1.53-.2,2.01-.6s.71-.95.71-1.66c0-1.45-1.01-2.18-3.02-2.18h-1.68Z"/>
    <path class="cls-6" d="M682.9,528.98h-7.75v-14h2.32v12.04h5.43v1.96Z"/>
    <path class="cls-6" d="M696.79,528.98h-7.86v-14h7.55v1.97h-5.22v3.96h4.81v1.96h-4.81v4.14h5.54v1.96Z"/>
  </g>
</svg>