<?xml version="1.0" encoding="UTF-8"?>
<svg id="Layer_1" data-name="Layer 1" xmlns="http://www.w3.org/2000/svg" viewBox="0 0 901 665">
  <defs>
    <style>
      .cls-1, .cls-2, .cls-3, .cls-4, .cls-5 {
        fill-rule: evenodd;
      }

      .cls-1, .cls-6 {
        fill: #0070c0;
      }

      .cls-1, .cls-4, .cls-5, .cls-7 {
        stroke-width: 0px;
      }

      .cls-2, .cls-3 {
        fill: #fff;
      }

      .cls-2, .cls-3, .cls-8 {
        stroke-miterlimit: 8;
        stroke-width: 2px;
      }

      .cls-2, .cls-6 {
        stroke: #0070c0;
      }

      .cls-3 {
        stroke: #000;
      }

      .cls-6 {
        stroke-miterlimit: 10;
        stroke-width: .5px;
      }

      .cls-8 {
        fill: none;
        stroke: #747474;
      }

      .cls-5 {
        fill: #0078d4;
      }
    </style>
  </defs>
  <path class="cls-4" d="M690.97,313.43h.91v11.04h-.91v-11.04Z"/>
  <path class="cls-4" d="M696.74,314.23c-.27,0-.5.08-.68.24-.18.16-.33.4-.45.7-.11.3-.19.67-.24,1.11-.05.44-.07.93-.07,1.48,0,1.29.12,2.24.36,2.84.24.6.61.9,1.11.9s.83-.28,1.07-.85c.23-.57.35-1.45.35-2.64,0-.91-.06-1.65-.18-2.21-.12-.56-.28-.97-.49-1.22-.21-.25-.47-.37-.77-.37ZM696.76,313.73c.87,0,1.51.33,1.93,1,.42.67.63,1.68.63,3.03s-.23,2.46-.68,3.18c-.45.72-1.11,1.08-1.98,1.08s-1.49-.34-1.91-1.01c-.42-.67-.63-1.69-.63-3.06,0-.73.07-1.36.19-1.89.13-.53.31-.97.54-1.31s.51-.6.83-.77c.33-.16.68-.25,1.06-.25Z"/>
  <path class="cls-4" d="M701.34,312.9l2.37,5.33v.44l-2.37,5.33-.63-.22,1.9-5.33-1.9-5.33.63-.21Z"/>
  <path class="cls-4" d="M708.68,319.28h7.31v.79h-7.31v-.79ZM708.68,316.82h7.31v.79h-7.31v-.79Z"/>
  <path class="cls-4" d="M734.52,302.97c1.62,1.39,2.92,3.47,3.87,6.23.96,2.76,1.43,5.84,1.43,9.24s-.48,6.43-1.43,9.23c-.95,2.8-2.25,4.9-3.87,6.28l-.28-.44c1.4-1.43,2.49-3.49,3.24-6.2.76-2.71,1.14-5.66,1.14-8.86s-.38-6.25-1.15-8.91c-.76-2.66-1.84-4.7-3.24-6.13l.28-.45ZM726.49,302.97l.28.45c-1.4,1.43-2.48,3.47-3.24,6.13-.76,2.66-1.14,5.62-1.14,8.91s.38,6.16,1.14,8.86c.76,2.7,1.84,4.77,3.24,6.2l-.28.44c-1.62-1.38-2.92-3.48-3.87-6.28-.96-2.8-1.43-5.88-1.43-9.23s.48-6.48,1.43-9.24c.95-2.76,2.25-4.84,3.87-6.23Z"/>
  <path class="cls-4" d="M730.98,304.55h.33c-.02.38-.04.9-.04,1.58v5.07c0,.23.01.4.04.52.03.12.07.21.14.28.07.07.16.13.28.17.12.04.28.07.46.09.18.02.43.04.74.04v.43h-4.39v-.43c.44-.02.75-.05.94-.08.19-.03.33-.08.43-.15.1-.07.17-.16.22-.29.04-.12.07-.32.07-.6v-4.81c0-.16-.03-.27-.08-.35-.06-.07-.14-.11-.24-.11-.13,0-.31.07-.54.2-.23.13-.52.31-.87.54l-.26-.46,2.78-1.65Z"/>
  <path class="cls-4" d="M730.51,322.33c-.27,0-.5.08-.69.24-.18.16-.33.4-.45.7-.11.3-.19.67-.24,1.11-.05.44-.07.93-.07,1.48,0,1.29.12,2.23.36,2.84.24.61.61.91,1.11.91s.83-.29,1.06-.85c.23-.57.35-1.45.35-2.64,0-.91-.06-1.64-.18-2.21-.12-.56-.28-.97-.49-1.21s-.47-.37-.77-.37ZM730.54,321.83c.87,0,1.51.34,1.93,1,.43.67.64,1.68.64,3.03s-.23,2.46-.68,3.18c-.45.72-1.12,1.08-1.98,1.08s-1.49-.34-1.91-1.01c-.42-.67-.63-1.69-.63-3.06,0-.73.06-1.36.19-1.89.13-.53.31-.97.54-1.31.23-.34.51-.6.83-.77s.68-.25,1.06-.25Z"/>
  <path class="cls-4" d="M556.04,186.72h.91v11.04h-.91v-11.04Z"/>
  <path class="cls-4" d="M562.27,187.02h.33c-.02.38-.04.91-.04,1.58v5.07c0,.23.01.4.04.52.03.12.07.21.14.28.07.07.16.13.28.17.12.04.28.07.46.09.18.02.43.04.74.04v.43h-4.39v-.43c.44-.02.75-.05.94-.08.19-.03.33-.08.43-.15.1-.07.17-.16.22-.28.05-.12.07-.32.07-.6v-4.81c0-.16-.03-.27-.08-.35-.06-.07-.14-.11-.24-.11-.13,0-.31.07-.54.2-.23.13-.52.31-.87.54l-.26-.46,2.78-1.66Z"/>
  <path class="cls-4" d="M566.4,186.2l2.37,5.33v.44l-2.37,5.33-.63-.23,1.91-5.33-1.91-5.33.63-.21Z"/>
  <path class="cls-4" d="M573.75,192.58h7.31v.79h-7.31v-.79ZM573.75,190.12h7.31v.79h-7.31v-.79Z"/>
  <path class="cls-4" d="M602.29,176.26c1.63,1.39,2.92,3.47,3.87,6.23.95,2.76,1.43,5.84,1.43,9.24s-.48,6.43-1.43,9.23c-.96,2.8-2.25,4.9-3.87,6.28l-.28-.44c1.4-1.43,2.49-3.49,3.25-6.2.76-2.71,1.14-5.66,1.14-8.86s-.38-6.25-1.15-8.91c-.76-2.66-1.84-4.7-3.24-6.13l.28-.44ZM594.26,176.26l.28.44c-1.4,1.43-2.48,3.47-3.24,6.13-.76,2.66-1.14,5.63-1.14,8.91s.38,6.16,1.14,8.86c.76,2.71,1.84,4.77,3.25,6.2l-.28.44c-1.63-1.38-2.92-3.48-3.87-6.28-.95-2.8-1.43-5.88-1.43-9.23s.48-6.48,1.43-9.24c.96-2.76,2.25-4.84,3.87-6.23Z"/>
  <path class="cls-4" d="M598.28,178.35c-.27,0-.5.08-.68.24-.18.16-.33.4-.45.7-.11.3-.19.68-.24,1.11-.05.44-.07.93-.07,1.48,0,1.29.12,2.24.36,2.84.24.6.61.9,1.11.9s.83-.28,1.07-.85c.23-.57.35-1.45.35-2.64,0-.91-.06-1.65-.18-2.21-.12-.56-.28-.97-.49-1.21-.21-.25-.47-.37-.77-.37ZM598.31,177.85c.87,0,1.51.33,1.94,1,.42.67.63,1.68.63,3.03s-.23,2.46-.68,3.18c-.45.72-1.11,1.08-1.98,1.08s-1.49-.34-1.91-1.01c-.42-.67-.63-1.69-.63-3.06,0-.73.07-1.36.19-1.89.13-.53.31-.97.54-1.31s.51-.6.83-.77c.32-.17.68-.25,1.06-.25Z"/>
  <path class="cls-4" d="M598.75,195.12h.33c-.02.38-.03.91-.03,1.58v5.07c0,.23.01.4.04.52.02.12.07.21.14.28.07.07.16.13.28.17.12.04.28.07.46.09.19.02.43.04.74.04v.43h-4.38v-.43c.44-.02.75-.05.94-.08.19-.03.33-.08.43-.15.1-.07.17-.16.22-.28.04-.12.07-.32.07-.6v-4.81c0-.16-.03-.27-.08-.35-.05-.07-.14-.11-.24-.11-.13,0-.31.07-.54.2-.23.13-.52.31-.87.54l-.26-.46,2.78-1.66Z"/>
  <path class="cls-4" d="M637.73,233.35h.91v11.04h-.91v-11.04Z"/>
  <path class="cls-4" d="M644.25,234.56h.84v3.42h3.23v.79h-3.23v3.42h-.84v-3.42h-3.23v-.79h3.23v-3.42Z"/>
  <path class="cls-4" d="M650.42,232.83l2.37,5.33v.44l-2.37,5.33-.63-.23,1.9-5.33-1.9-5.33.63-.21Z"/>
  <path class="cls-4" d="M657.76,239.21h7.31v.79h-7.31v-.79ZM657.76,236.74h7.31v.79h-7.31v-.79Z"/>
  <path class="cls-4" d="M693.78,211.2c2.17,2.82,3.91,6.57,5.21,11.24,1.14,4.09,1.78,8.44,1.93,13.06l.03,1.93h0v1.84h0l-.03,1.93c-.15,4.62-.79,8.97-1.93,13.06-1.3,4.67-3.04,8.42-5.21,11.24l-.46-.39c2.04-2.89,3.61-6.65,4.71-11.29,1.1-4.64,1.65-9.51,1.66-14.62v-1.72c0-5.11-.56-9.98-1.66-14.62-1.1-4.64-2.67-8.4-4.71-11.29l.46-.39ZM677.84,211.2l.46.39c-2.04,2.89-3.61,6.65-4.71,11.29-1.1,4.64-1.65,9.51-1.66,14.62v1.72c0,5.11.56,9.98,1.66,14.62,1.1,4.64,2.67,8.4,4.71,11.29l-.46.39c-2.17-2.82-3.91-6.57-5.21-11.24-1.14-4.09-1.78-8.44-1.93-13.06l-.03-1.93h0v-1.84h0l.03-1.93c.14-4.62.79-8.97,1.93-13.06,1.3-4.67,3.04-8.42,5.21-11.24Z"/>
  <path class="cls-4" d="M686.28,211.33h.33c-.02.38-.04.91-.04,1.58v5.07c0,.23.01.4.04.52.03.12.07.21.14.28.07.07.16.13.28.17.12.04.28.07.46.09.18.02.43.04.74.04v.43h-4.39v-.43c.44-.02.75-.05.94-.08.19-.03.33-.08.43-.15s.17-.16.22-.28c.05-.12.07-.32.07-.6v-4.81c0-.16-.03-.27-.08-.35-.06-.07-.14-.11-.24-.11-.13,0-.31.07-.54.2-.23.13-.52.31-.87.54l-.26-.46,2.78-1.66Z"/>
  <path class="cls-4" d="M685.65,225.12h1.51v.07h6v.9h-6.75v-.18h-.32l-3.19,10.9h-.57l-2.46-5.28-1,.45-.18-.45,1.94-.89,2.09,4.6,2.93-10.13Z"/>
  <path class="cls-4" d="M689.85,227.66c.74,0,1.29.16,1.67.48s.56.79.56,1.4c0,.21-.02.4-.06.58-.04.18-.11.35-.2.52-.09.17-.21.36-.36.55-.15.2-.31.4-.5.6-.18.2-.5.54-.94,1.02-.75.79-1.31,1.49-1.66,2.08h2.24c.19,0,.35-.01.47-.04.12-.02.21-.06.29-.12.07-.06.13-.13.17-.22.04-.09.09-.23.16-.41h.5l-.1,1.73h-4.88v-.28c.17-.42.4-.84.69-1.28.29-.44.7-.95,1.23-1.54.46-.51.79-.89.99-1.15.22-.28.39-.53.49-.74.11-.21.19-.4.23-.59.05-.18.07-.37.07-.55,0-.3-.05-.56-.14-.79-.09-.23-.24-.41-.44-.54-.2-.13-.44-.2-.74-.2-.74,0-1.24.41-1.5,1.23h-.72v-1.14c.48-.23.93-.39,1.34-.49.42-.1.79-.15,1.12-.15Z"/>
  <path class="cls-4" d="M678.54,222.71h14.62v.9h-14.62v-.9Z"/>
  <path class="cls-4" d="M686.28,240.7h.33c-.02.38-.04.91-.04,1.58v5.07c0,.23.01.4.04.52.03.12.07.21.14.28.07.07.16.13.28.17.12.04.28.07.46.09.18.02.43.04.74.04v.43h-4.39v-.43c.44-.02.75-.05.94-.08.19-.03.33-.08.43-.15.1-.07.17-.16.22-.28.05-.12.07-.32.07-.6v-4.81c0-.16-.03-.27-.08-.35-.06-.07-.14-.11-.24-.11-.13,0-.31.07-.54.2-.23.13-.52.31-.87.54l-.26-.46,2.78-1.66Z"/>
  <path class="cls-4" d="M686.41,254.44h6.75v.9h-6.75v-.06h-.32l-3.19,10.9h-.57l-2.46-5.28-1,.44-.18-.44,1.94-.89,2.09,4.6,2.93-10.13h.76v-.05Z"/>
  <path class="cls-4" d="M689.85,257.03c.74,0,1.29.16,1.67.48.38.32.56.79.56,1.4,0,.21-.02.4-.06.58-.04.18-.11.35-.2.52-.09.17-.21.36-.36.55-.15.2-.31.4-.5.6-.18.2-.5.54-.94,1.02-.75.79-1.31,1.49-1.66,2.08h2.24c.19,0,.35-.01.47-.04.12-.02.21-.06.29-.12.07-.06.13-.13.17-.22.04-.09.09-.23.16-.41h.5l-.1,1.73h-4.88v-.28c.17-.42.4-.84.69-1.28.29-.44.7-.95,1.23-1.54.46-.51.79-.89.99-1.15.22-.28.39-.53.49-.74.11-.21.19-.4.23-.59.05-.18.07-.37.07-.55,0-.3-.05-.56-.14-.79-.09-.23-.24-.41-.44-.54-.2-.13-.44-.2-.74-.2-.74,0-1.24.41-1.5,1.23h-.72v-1.14c.48-.23.93-.39,1.34-.49.42-.1.79-.15,1.12-.15Z"/>
  <path class="cls-4" d="M678.54,252.19h14.62v.9h-14.62v-.9Z"/>
  <path class="cls-4" d="M637.84,390.32h.91v11.04h-.91v-11.04Z"/>
  <path class="cls-4" d="M641.12,394.94h7.31v.79h-7.31v-.79Z"/>
  <path class="cls-4" d="M650.53,389.79l2.37,5.33v.44l-2.37,5.33-.63-.23,1.91-5.33-1.91-5.33.63-.21Z"/>
  <path class="cls-4" d="M657.87,396.17h7.31v.79h-7.31v-.79ZM657.87,393.71h7.31v.79h-7.31v-.79Z"/>
  <path class="cls-4" d="M694.94,368.17c2.17,2.82,3.91,6.57,5.21,11.24,1.14,4.09,1.78,8.44,1.93,13.06l.03,1.93h0v1.84h0l-.03,1.93c-.15,4.62-.79,8.97-1.93,13.06-1.3,4.67-3.04,8.42-5.21,11.24l-.46-.38c2.04-2.89,3.61-6.65,4.71-11.29,1.1-4.64,1.65-9.51,1.66-14.62v-1.72c0-5.11-.56-9.98-1.66-14.62-1.1-4.64-2.67-8.4-4.71-11.29l.46-.39ZM677.95,368.16l.46.38c-2.04,2.89-3.61,6.65-4.71,11.29-1.1,4.64-1.65,9.51-1.66,14.62v1.72c0,5.11.56,9.98,1.66,14.62,1.1,4.64,2.67,8.4,4.71,11.29l-.46.38c-2.17-2.82-3.91-6.57-5.21-11.24-1.14-4.09-1.78-8.44-1.93-13.06l-.03-1.93h0v-1.84h0l.03-1.93c.15-4.62.79-8.97,1.93-13.06,1.3-4.67,3.04-8.42,5.21-11.24Z"/>
  <path class="cls-4" d="M686.91,368.3h.33c-.02.38-.04.9-.04,1.58v5.07c0,.23.01.4.04.52.03.12.07.21.14.29.07.07.16.13.28.17.12.04.28.07.46.1.19.02.43.04.74.04v.43h-4.39v-.43c.44-.02.75-.04.94-.08.19-.03.33-.08.43-.15.1-.07.17-.16.22-.29.04-.12.07-.32.07-.6v-4.81c0-.16-.03-.27-.08-.35-.05-.07-.14-.11-.24-.11-.13,0-.31.07-.54.2s-.52.31-.87.54l-.26-.46,2.78-1.65Z"/>
  <path class="cls-4" d="M686.28,382.08h1.51v.07h5.97v.9h-6.75v-.18h-.29l-3.19,10.9h-.58l-2.46-5.28-1,.44-.18-.44,1.95-.89,2.09,4.6,2.93-10.13Z"/>
  <path class="cls-4" d="M690.48,384.63c.74,0,1.29.16,1.67.48.38.32.56.79.56,1.4,0,.21-.02.4-.06.58-.04.18-.11.35-.2.52-.09.17-.21.36-.36.55-.15.2-.32.4-.5.6-.18.2-.5.54-.94,1.02-.75.8-1.3,1.49-1.66,2.08h2.24c.19,0,.35-.01.47-.04.12-.02.21-.06.29-.12.07-.05.13-.13.17-.22.04-.09.09-.23.16-.41h.5l-.1,1.73h-4.88v-.29c.17-.41.4-.84.69-1.28.29-.43.7-.95,1.23-1.54.46-.51.79-.89.99-1.15.22-.29.39-.53.5-.74.11-.21.19-.4.23-.59.05-.18.07-.37.07-.55,0-.3-.05-.56-.14-.79-.09-.23-.24-.41-.44-.54-.2-.13-.44-.2-.74-.2-.74,0-1.24.41-1.5,1.23h-.72v-1.14c.48-.22.93-.39,1.35-.49.42-.1.79-.15,1.12-.15Z"/>
  <path class="cls-4" d="M679.14,379.68h14.62v.9h-14.62v-.9Z"/>
  <path class="cls-4" d="M679.46,401.99h7.31v.79h-7.31v-.79Z"/>
  <path class="cls-4" d="M691.43,397.67h.33c-.02.38-.04.9-.04,1.58v5.07c0,.23.01.4.04.52.02.12.07.21.14.28.07.07.16.13.28.17.12.04.28.07.46.09.19.02.43.04.74.05v.43h-4.38v-.43c.44-.02.75-.05.94-.08.19-.03.33-.08.43-.15.1-.07.17-.16.22-.29.04-.12.07-.32.07-.6v-4.81c0-.16-.03-.27-.08-.35-.06-.07-.14-.11-.24-.11-.13,0-.31.07-.54.2-.23.13-.52.31-.87.54l-.26-.46,2.78-1.66Z"/>
  <path class="cls-4" d="M687.01,411.4h6.75v.9h-6.75v-.06h-.29l-3.19,10.91h-.58l-2.46-5.28-1,.45-.18-.45,1.95-.89,2.09,4.6,2.93-10.13h.73v-.05Z"/>
  <path class="cls-4" d="M690.48,414c.74,0,1.29.16,1.67.48.38.32.56.79.56,1.4,0,.21-.02.4-.06.58-.04.18-.11.35-.2.52-.09.17-.21.36-.36.56-.15.2-.32.4-.5.6-.18.2-.5.54-.94,1.02-.75.79-1.3,1.49-1.66,2.08h2.24c.19,0,.35-.01.47-.04.12-.02.21-.06.29-.12.07-.06.13-.13.17-.22.04-.09.09-.23.16-.41h.5l-.1,1.73h-4.88v-.29c.17-.41.4-.84.69-1.27.29-.44.7-.95,1.23-1.54.46-.51.79-.89.99-1.15.22-.28.39-.53.5-.74.11-.21.19-.4.23-.59.05-.18.07-.37.07-.56,0-.3-.05-.56-.14-.79-.09-.23-.24-.41-.44-.54-.2-.13-.44-.2-.74-.2-.74,0-1.24.41-1.5,1.24h-.72v-1.14c.48-.23.93-.39,1.35-.49.42-.1.79-.15,1.12-.15Z"/>
  <path class="cls-4" d="M678.69,409.15h15.75v.9h-15.75v-.9Z"/>
  <path class="cls-8" d="M47.4,317.83c0-86.43,70.06-156.49,156.49-156.49s156.49,70.06,156.49,156.49-70.06,156.49-156.49,156.49S47.4,404.26,47.4,317.83Z"/>
  <path class="cls-3" d="M353.51,317.95c0-3.67,3.02-6.64,6.75-6.64s6.75,2.97,6.75,6.64-3.02,6.64-6.75,6.64-6.75-2.97-6.75-6.64Z"/>
  <path class="cls-3" d="M197.25,161.23c0-3.67,2.97-6.64,6.64-6.64s6.64,2.97,6.64,6.64-2.97,6.64-6.64,6.64-6.64-2.97-6.64-6.64Z"/>
  <path class="cls-3" d="M40.65,318.06c0-3.67,3.02-6.64,6.75-6.64s6.75,2.97,6.75,6.64-3.02,6.64-6.75,6.64-6.75-2.97-6.75-6.64Z"/>
  <path class="cls-3" d="M197.25,474.43c0-3.67,2.97-6.64,6.64-6.64s6.64,2.97,6.64,6.64-2.97,6.64-6.64,6.64-6.64-2.97-6.64-6.64Z"/>
  <path class="cls-1" d="M309.41,209.5c0-3.67,3.02-6.64,6.75-6.64s6.75,2.97,6.75,6.64-3.02,6.64-6.75,6.64-6.75-2.97-6.75-6.64Z"/>
  <path class="cls-3" d="M309.52,426.73c0-3.67,3.02-6.64,6.75-6.64s6.75,2.97,6.75,6.64-3.02,6.64-6.75,6.64-6.75-2.97-6.75-6.64Z"/>
  <path class="cls-3" d="M84.75,209.61c0-3.67,3.02-6.64,6.75-6.64s6.75,2.97,6.75,6.64-3.02,6.64-6.75,6.64-6.75-2.97-6.75-6.64Z"/>
  <path class="cls-1" d="M84.63,426.62c0-3.67,3.02-6.64,6.75-6.64s6.75,2.97,6.75,6.64-3.02,6.64-6.75,6.64-6.75-2.97-6.75-6.64Z"/>
  <path class="cls-4" d="M84.08,303.15c1.63,1.39,2.92,3.47,3.87,6.23.96,2.76,1.43,5.84,1.43,9.24s-.48,6.43-1.43,9.23c-.96,2.8-2.25,4.89-3.87,6.28l-.28-.44c1.4-1.43,2.49-3.49,3.24-6.2s1.14-5.66,1.14-8.86-.38-6.25-1.15-8.91c-.76-2.66-1.84-4.7-3.24-6.13l.28-.44ZM67.03,303.15l.28.44c-1.4,1.43-2.48,3.47-3.24,6.13-.76,2.66-1.14,5.63-1.14,8.91s.38,6.16,1.14,8.86,1.84,4.77,3.25,6.2l-.28.44c-1.63-1.39-2.92-3.48-3.87-6.28-.96-2.8-1.43-5.88-1.43-9.23s.48-6.48,1.43-9.24c.96-2.76,2.25-4.84,3.87-6.23Z"/>
  <path class="cls-4" d="M68.57,309.06h7.31v.79h-7.31v-.79Z"/>
  <path class="cls-4" d="M80.54,304.73h.33c-.02.38-.04.91-.04,1.58v5.06c0,.23.01.4.04.52.03.12.07.21.14.29.07.07.16.13.28.17.12.04.28.07.46.09.19.02.43.04.74.04v.43h-4.38v-.43c.44-.02.75-.05.94-.08.19-.03.33-.08.43-.15.1-.07.17-.16.22-.28.05-.12.07-.32.07-.6v-4.81c0-.16-.03-.27-.08-.35-.06-.07-.14-.11-.24-.11-.13,0-.31.07-.54.2-.23.13-.52.31-.87.54l-.26-.46,2.78-1.66Z"/>
  <path class="cls-4" d="M75.56,322.51c-.27,0-.5.08-.69.24-.18.16-.33.4-.44.7-.11.3-.19.67-.24,1.11-.05.44-.07.93-.07,1.48,0,1.29.12,2.24.36,2.84.24.6.61.9,1.11.9s.83-.28,1.06-.85c.23-.57.35-1.45.35-2.64,0-.91-.06-1.65-.18-2.21-.12-.56-.28-.97-.5-1.21-.21-.25-.47-.37-.77-.37ZM75.59,322.01c.87,0,1.51.33,1.93,1,.42.67.63,1.68.63,3.03s-.23,2.46-.68,3.17c-.45.72-1.11,1.08-1.98,1.08s-1.49-.34-1.91-1.01c-.42-.67-.63-1.69-.63-3.06,0-.73.06-1.36.19-1.89.13-.53.31-.97.54-1.31.23-.35.51-.6.83-.77.32-.17.68-.25,1.06-.25Z"/>
  <path class="cls-4" d="M211.15,429.68c1.63,1.39,2.92,3.47,3.87,6.23.95,2.76,1.43,5.84,1.43,9.24s-.48,6.43-1.43,9.23c-.96,2.8-2.25,4.9-3.87,6.28l-.28-.44c1.4-1.43,2.49-3.49,3.25-6.2.76-2.7,1.14-5.66,1.14-8.86s-.38-6.25-1.15-8.91c-.76-2.66-1.84-4.7-3.24-6.13l.28-.45ZM194.1,429.68l.28.45c-1.4,1.43-2.48,3.47-3.24,6.13-.76,2.66-1.14,5.63-1.14,8.91s.38,6.16,1.14,8.86c.76,2.71,1.84,4.77,3.24,6.2l-.28.44c-1.63-1.38-2.92-3.48-3.87-6.28-.95-2.8-1.43-5.88-1.43-9.23s.48-6.48,1.43-9.24c.96-2.76,2.25-4.84,3.87-6.23Z"/>
  <path class="cls-4" d="M202.63,431.76c-.27,0-.5.08-.69.25-.18.16-.33.39-.44.7-.11.3-.19.67-.24,1.11-.05.44-.07.93-.07,1.48,0,1.29.12,2.24.36,2.84.24.6.61.9,1.11.9s.83-.28,1.07-.85c.23-.57.35-1.45.35-2.64,0-.91-.06-1.64-.18-2.21-.12-.56-.28-.97-.5-1.21-.21-.25-.47-.37-.77-.37ZM202.66,431.26c.87,0,1.51.34,1.93,1,.42.67.63,1.68.63,3.03s-.23,2.46-.68,3.18c-.45.72-1.11,1.08-1.98,1.08s-1.49-.34-1.91-1.01c-.42-.67-.63-1.69-.63-3.06,0-.73.07-1.36.19-1.89.13-.53.31-.97.54-1.31.23-.35.51-.6.83-.77.32-.17.68-.25,1.06-.25Z"/>
  <path class="cls-4" d="M195.64,452.86h7.31v.79h-7.31v-.79Z"/>
  <path class="cls-4" d="M207.61,448.54h.33c-.02.38-.04.9-.04,1.58v5.07c0,.23.01.4.04.52.02.11.07.21.14.28.07.07.16.13.28.17.12.04.28.07.46.09.19.02.43.04.74.05v.43h-4.38v-.43c.44-.02.75-.05.94-.08.19-.03.33-.08.43-.15.1-.07.17-.16.22-.29.04-.12.07-.32.07-.6v-4.81c0-.16-.03-.27-.08-.35-.06-.07-.14-.11-.25-.11-.13,0-.31.07-.54.2-.23.13-.52.31-.87.54l-.26-.46,2.78-1.65Z"/>
  <path class="cls-4" d="M296.21,313.43h.91v11.04h-.91v-11.04Z"/>
  <path class="cls-4" d="M301.98,314.23c-.27,0-.5.08-.69.24-.18.16-.33.4-.45.7-.11.3-.19.67-.24,1.11-.05.44-.07.93-.07,1.48,0,1.29.12,2.24.36,2.84.24.6.61.9,1.11.9.48,0,.83-.28,1.06-.85.23-.57.35-1.45.35-2.64,0-.91-.06-1.65-.18-2.21-.12-.56-.28-.97-.49-1.22-.21-.25-.47-.37-.77-.37ZM302.01,313.73c.87,0,1.51.33,1.93,1,.42.67.63,1.68.63,3.03s-.23,2.46-.68,3.18c-.45.72-1.11,1.08-1.98,1.08s-1.49-.34-1.91-1.01c-.42-.67-.63-1.69-.63-3.06,0-.73.06-1.36.19-1.89.13-.53.31-.97.54-1.31.23-.35.51-.6.83-.77.32-.16.68-.25,1.06-.25Z"/>
  <path class="cls-4" d="M306.58,312.9l2.37,5.33v.44l-2.37,5.33-.63-.22,1.91-5.33-1.91-5.33.63-.21Z"/>
  <path class="cls-4" d="M313.92,319.28h7.31v.79h-7.31v-.79ZM313.92,316.82h7.31v.79h-7.31v-.79Z"/>
  <path class="cls-4" d="M339.76,302.97c1.62,1.39,2.92,3.47,3.87,6.23.96,2.76,1.43,5.84,1.43,9.24s-.48,6.43-1.43,9.23c-.95,2.8-2.25,4.9-3.87,6.28l-.28-.44c1.4-1.43,2.49-3.49,3.24-6.2.76-2.71,1.14-5.66,1.14-8.86s-.38-6.25-1.15-8.91c-.77-2.66-1.84-4.7-3.24-6.13l.28-.45ZM331.73,302.97l.28.45c-1.4,1.43-2.48,3.47-3.24,6.13-.76,2.66-1.14,5.62-1.14,8.91s.38,6.16,1.14,8.86c.76,2.7,1.84,4.77,3.25,6.2l-.28.44c-1.63-1.38-2.92-3.48-3.87-6.28-.95-2.8-1.43-5.88-1.43-9.23s.48-6.48,1.43-9.24c.96-2.76,2.25-4.84,3.87-6.23Z"/>
  <path class="cls-4" d="M336.22,304.55h.33c-.02.38-.04.9-.04,1.58v5.07c0,.23.01.4.04.52.02.12.07.21.13.28.07.07.16.13.28.17.12.04.28.07.46.09.19.02.43.04.74.04v.43h-4.38v-.43c.44-.02.75-.05.94-.08.19-.03.33-.08.43-.15.1-.07.17-.16.22-.29.04-.12.07-.32.07-.6v-4.81c0-.16-.03-.27-.08-.35-.05-.07-.14-.11-.24-.11-.13,0-.31.07-.54.2-.23.13-.52.31-.87.54l-.26-.46,2.78-1.65Z"/>
  <path class="cls-4" d="M335.75,322.33c-.27,0-.5.08-.69.24-.18.16-.33.4-.44.7-.11.3-.19.67-.24,1.11-.05.44-.07.93-.07,1.48,0,1.29.12,2.23.36,2.84.24.61.61.91,1.11.91s.83-.29,1.06-.85c.23-.57.35-1.45.35-2.64,0-.91-.06-1.64-.18-2.21-.12-.56-.29-.97-.5-1.21-.21-.25-.47-.37-.77-.37ZM335.78,321.83c.87,0,1.51.34,1.94,1s.63,1.68.63,3.03-.23,2.46-.68,3.18c-.45.72-1.11,1.08-1.98,1.08s-1.49-.34-1.91-1.01c-.42-.67-.63-1.69-.63-3.06,0-.73.07-1.36.19-1.89.13-.53.31-.97.54-1.31.23-.34.51-.6.83-.77.32-.17.68-.25,1.06-.25Z"/>
  <path class="cls-4" d="M161.28,186.72h.91v11.04h-.91v-11.04Z"/>
  <path class="cls-4" d="M167.51,187.02h.33c-.02.38-.04.91-.04,1.58v5.07c0,.23.01.4.04.52.03.12.07.21.14.28.07.07.16.13.28.17.12.04.28.07.46.09.19.02.43.04.74.04v.43h-4.38v-.43c.44-.02.75-.05.94-.08.19-.03.33-.08.43-.15.1-.07.17-.16.22-.28.05-.12.07-.32.07-.6v-4.81c0-.16-.03-.27-.08-.35-.06-.07-.14-.11-.24-.11-.13,0-.31.07-.54.2-.23.13-.52.31-.87.54l-.26-.46,2.78-1.66Z"/>
  <path class="cls-4" d="M171.65,186.2l2.37,5.33v.44l-2.37,5.33-.63-.23,1.9-5.33-1.9-5.33.63-.21Z"/>
  <path class="cls-4" d="M178.99,192.58h7.31v.79h-7.31v-.79ZM178.99,190.12h7.31v.79h-7.31v-.79Z"/>
  <path class="cls-4" d="M207.53,176.26c1.63,1.39,2.92,3.47,3.87,6.23.95,2.76,1.43,5.84,1.43,9.24s-.48,6.43-1.43,9.23c-.96,2.8-2.25,4.9-3.87,6.28l-.28-.44c1.4-1.43,2.48-3.49,3.24-6.2.76-2.71,1.14-5.66,1.14-8.86s-.38-6.25-1.15-8.91c-.76-2.66-1.84-4.7-3.24-6.13l.28-.44ZM199.5,176.26l.28.44c-1.4,1.43-2.48,3.47-3.24,6.13-.76,2.66-1.14,5.63-1.14,8.91s.38,6.16,1.14,8.86c.76,2.71,1.84,4.77,3.24,6.2l-.28.44c-1.62-1.38-2.92-3.48-3.87-6.28-.96-2.8-1.43-5.88-1.43-9.23s.48-6.48,1.43-9.24c.95-2.76,2.25-4.84,3.87-6.23Z"/>
  <path class="cls-4" d="M203.52,178.35c-.27,0-.5.08-.68.24-.18.16-.33.4-.45.7-.11.3-.19.68-.24,1.11-.05.44-.07.93-.07,1.48,0,1.29.12,2.24.36,2.84.24.6.61.9,1.11.9.48,0,.83-.28,1.06-.85.23-.57.35-1.45.35-2.64,0-.91-.06-1.65-.18-2.21s-.28-.97-.49-1.21c-.21-.25-.47-.37-.77-.37ZM203.55,177.85c.86,0,1.51.33,1.93,1,.42.67.63,1.68.63,3.03s-.23,2.46-.68,3.18c-.45.72-1.11,1.08-1.98,1.08s-1.49-.34-1.91-1.01c-.42-.67-.63-1.69-.63-3.06,0-.73.07-1.36.19-1.89.13-.53.31-.97.54-1.31s.51-.6.83-.77c.32-.17.68-.25,1.06-.25Z"/>
  <path class="cls-4" d="M203.99,195.12h.33c-.02.38-.04.91-.04,1.58v5.07c0,.23.01.4.04.52.02.12.07.21.14.28.07.07.16.13.28.17.12.04.28.07.46.09.18.02.43.04.73.04v.43h-4.38v-.43c.44-.02.75-.05.94-.08.19-.03.33-.08.43-.15.1-.07.17-.16.22-.28.05-.12.07-.32.07-.6v-4.81c0-.16-.03-.27-.08-.35-.06-.07-.14-.11-.24-.11-.13,0-.31.07-.54.2-.23.13-.52.31-.87.54l-.26-.46,2.78-1.66Z"/>
  <path class="cls-4" d="M242.97,233.35h.91v11.04h-.91v-11.04Z"/>
  <path class="cls-4" d="M249.49,234.56h.84v3.42h3.23v.79h-3.23v3.42h-.84v-3.42h-3.23v-.79h3.23v-3.42Z"/>
  <path class="cls-4" d="M255.66,232.83l2.37,5.33v.44l-2.37,5.33-.63-.23,1.9-5.33-1.9-5.33.63-.21Z"/>
  <path class="cls-4" d="M263,239.21h7.31v.79h-7.31v-.79ZM263,236.74h7.31v.79h-7.31v-.79Z"/>
  <path class="cls-4" d="M299.02,211.2c2.17,2.82,3.91,6.57,5.21,11.24,1.14,4.09,1.78,8.44,1.93,13.06l.03,1.93h0v1.84h0l-.03,1.93c-.15,4.62-.79,8.97-1.93,13.06-1.31,4.67-3.04,8.42-5.21,11.24l-.46-.39c2.04-2.89,3.61-6.65,4.71-11.29,1.1-4.64,1.65-9.51,1.66-14.62v-1.72c0-5.11-.56-9.98-1.66-14.62-1.1-4.64-2.67-8.4-4.71-11.29l.46-.39ZM283.08,211.2l.46.39c-2.04,2.89-3.61,6.65-4.71,11.29-1.1,4.64-1.65,9.51-1.66,14.62v1.72c0,5.11.56,9.98,1.66,14.62,1.1,4.64,2.67,8.4,4.71,11.29l-.46.39c-2.17-2.82-3.91-6.57-5.21-11.24-1.14-4.09-1.78-8.44-1.93-13.06l-.03-1.93h0v-1.84h0l.03-1.93c.14-4.62.79-8.97,1.93-13.06,1.3-4.67,3.04-8.42,5.21-11.24Z"/>
  <path class="cls-4" d="M291.52,211.33h.33c-.02.38-.04.91-.04,1.58v5.07c0,.23.01.4.04.52.03.12.07.21.14.28.07.07.16.13.28.17.12.04.28.07.46.09.19.02.43.04.74.04v.43h-4.39v-.43c.44-.02.75-.05.94-.08.19-.03.33-.08.43-.15.1-.07.17-.16.22-.28.05-.12.07-.32.07-.6v-4.81c0-.16-.03-.27-.08-.35-.05-.07-.13-.11-.24-.11-.13,0-.31.07-.54.2-.23.13-.52.31-.87.54l-.26-.46,2.78-1.66Z"/>
  <path class="cls-4" d="M290.89,225.12h1.51v.07h6v.9h-6.75v-.18h-.32l-3.19,10.9h-.58l-2.46-5.28-1,.45-.18-.45,1.95-.89,2.09,4.6,2.93-10.13Z"/>
  <path class="cls-4" d="M295.09,227.66c.74,0,1.29.16,1.67.48s.56.79.56,1.4c0,.21-.02.4-.06.58-.04.18-.11.35-.2.52-.09.17-.21.36-.36.55-.15.2-.32.4-.5.6-.18.2-.5.54-.94,1.02-.75.79-1.3,1.49-1.66,2.08h2.24c.19,0,.35-.01.47-.04.12-.02.21-.06.28-.12.07-.06.13-.13.17-.22.04-.09.09-.23.16-.41h.5l-.1,1.73h-4.88v-.28c.17-.42.4-.84.69-1.28.29-.44.7-.95,1.23-1.54.46-.51.79-.89.99-1.15.22-.28.39-.53.5-.74.11-.21.19-.4.23-.59.05-.18.07-.37.07-.55,0-.3-.05-.56-.14-.79-.09-.23-.24-.41-.44-.54-.2-.13-.44-.2-.74-.2-.74,0-1.24.41-1.49,1.23h-.72v-1.14c.48-.23.92-.39,1.34-.49.42-.1.79-.15,1.12-.15Z"/>
  <path class="cls-4" d="M283.77,222.71h14.62v.9h-14.62v-.9Z"/>
  <path class="cls-4" d="M291.52,240.7h.33c-.02.38-.04.91-.04,1.58v5.07c0,.23.01.4.04.52.03.12.07.21.14.28.07.07.16.13.28.17.12.04.28.07.46.09s.43.04.74.04v.43h-4.39v-.43c.44-.02.75-.05.94-.08.19-.03.33-.08.43-.15.1-.07.17-.16.22-.28.05-.12.07-.32.07-.6v-4.81c0-.16-.03-.27-.08-.35-.05-.07-.13-.11-.24-.11-.13,0-.31.07-.54.2-.23.13-.52.31-.87.54l-.26-.46,2.78-1.66Z"/>
  <path class="cls-4" d="M291.65,254.44h6.75v.9h-6.75v-.06h-.32l-3.19,10.9h-.58l-2.46-5.28-1,.44-.18-.44,1.95-.89,2.09,4.6,2.93-10.13h.76v-.05Z"/>
  <path class="cls-4" d="M295.09,257.03c.74,0,1.29.16,1.67.48.38.32.56.79.56,1.4,0,.21-.02.4-.06.58-.04.18-.11.35-.2.52-.09.17-.21.36-.36.55-.15.2-.32.4-.5.6-.18.2-.5.54-.94,1.02-.75.79-1.3,1.49-1.66,2.08h2.24c.19,0,.35-.01.47-.04.12-.02.21-.06.28-.12.07-.06.13-.13.17-.22.04-.09.09-.23.16-.41h.5l-.1,1.73h-4.88v-.28c.17-.42.4-.84.69-1.28.29-.44.7-.95,1.23-1.54.46-.51.79-.89.99-1.15.22-.28.39-.53.5-.74.11-.21.19-.4.23-.59.05-.18.07-.37.07-.55,0-.3-.05-.56-.14-.79-.09-.23-.24-.41-.44-.54-.2-.13-.44-.2-.74-.2-.74,0-1.24.41-1.49,1.23h-.72v-1.14c.48-.23.92-.39,1.34-.49.42-.1.79-.15,1.12-.15Z"/>
  <path class="cls-4" d="M283.77,252.19h14.62v.9h-14.62v-.9Z"/>
  <path class="cls-4" d="M243.08,390.32h.91v11.04h-.91v-11.04Z"/>
  <path class="cls-4" d="M246.36,394.94h7.31v.79h-7.31v-.79Z"/>
  <path class="cls-4" d="M255.77,389.79l2.37,5.33v.44l-2.37,5.33-.64-.23,1.91-5.33-1.91-5.33.64-.21Z"/>
  <path class="cls-4" d="M263.11,396.17h7.31v.79h-7.31v-.79ZM263.11,393.71h7.31v.79h-7.31v-.79Z"/>
  <path class="cls-4" d="M300.18,368.17c2.17,2.82,3.91,6.57,5.21,11.24,1.14,4.09,1.78,8.44,1.93,13.06l.03,1.93h0v1.84h0l-.03,1.93c-.15,4.62-.79,8.97-1.93,13.06-1.3,4.67-3.04,8.42-5.21,11.24l-.46-.38c2.04-2.89,3.61-6.65,4.71-11.29s1.65-9.51,1.66-14.62v-1.72c0-5.11-.56-9.98-1.66-14.62s-2.67-8.4-4.71-11.29l.46-.39ZM283.19,368.16l.46.38c-2.04,2.89-3.61,6.65-4.71,11.29-1.1,4.64-1.65,9.51-1.66,14.62v1.72c0,5.11.56,9.98,1.66,14.62,1.1,4.64,2.67,8.4,4.71,11.29l-.46.38c-2.17-2.82-3.91-6.57-5.21-11.24-1.14-4.09-1.78-8.44-1.93-13.06l-.03-1.93h0v-1.84h0l.03-1.93c.15-4.62.79-8.97,1.93-13.06,1.3-4.67,3.04-8.42,5.21-11.24Z"/>
  <path class="cls-4" d="M292.15,368.3h.33c-.02.38-.03.9-.03,1.58v5.07c0,.23.01.4.04.52.02.12.07.21.13.29.07.07.16.13.28.17.12.04.28.07.46.1.19.02.43.04.74.04v.43h-4.38v-.43c.44-.02.75-.04.94-.08.19-.03.33-.08.43-.15.1-.07.17-.16.22-.29.04-.12.07-.32.07-.6v-4.81c0-.16-.03-.27-.08-.35-.05-.07-.13-.11-.24-.11-.13,0-.31.07-.54.2-.23.13-.52.31-.87.54l-.26-.46,2.78-1.65Z"/>
  <path class="cls-4" d="M291.52,382.08h1.51v.07h5.97v.9h-6.75v-.18h-.29l-3.19,10.9h-.58l-2.46-5.28-1,.44-.18-.44,1.95-.89,2.09,4.6,2.93-10.13Z"/>
  <path class="cls-4" d="M295.72,384.63c.74,0,1.29.16,1.67.48.38.32.56.79.56,1.4,0,.21-.02.4-.06.58-.04.18-.11.35-.2.52-.09.17-.21.36-.36.55-.15.2-.32.4-.5.6-.18.2-.49.54-.94,1.02-.75.8-1.3,1.49-1.66,2.08h2.24c.2,0,.35-.01.47-.04.12-.02.21-.06.28-.12.07-.05.13-.13.17-.22.04-.09.09-.23.16-.41h.5l-.1,1.73h-4.88v-.29c.17-.41.4-.84.69-1.28.29-.43.7-.95,1.23-1.54.46-.51.79-.89.99-1.15.22-.29.38-.53.5-.74.11-.21.19-.4.23-.59.05-.18.07-.37.07-.55,0-.3-.05-.56-.14-.79-.09-.23-.24-.41-.44-.54-.2-.13-.44-.2-.74-.2-.74,0-1.24.41-1.49,1.23h-.72v-1.14c.48-.22.92-.39,1.34-.49.42-.1.79-.15,1.12-.15Z"/>
  <path class="cls-4" d="M284.38,379.68h14.62v.9h-14.62v-.9Z"/>
  <path class="cls-4" d="M284.7,401.99h7.31v.79h-7.31v-.79Z"/>
  <path class="cls-4" d="M296.67,397.67h.33c-.02.38-.04.9-.04,1.58v5.07c0,.23.01.4.04.52.03.12.07.21.14.28.07.07.16.13.28.17.12.04.28.07.46.09.18.02.43.04.74.05v.43h-4.39v-.43c.44-.02.75-.05.94-.08.19-.03.33-.08.43-.15.1-.07.17-.16.22-.29.05-.12.07-.32.07-.6v-4.81c0-.16-.03-.27-.08-.35-.06-.07-.14-.11-.24-.11-.13,0-.31.07-.54.2-.23.13-.52.31-.87.54l-.26-.46,2.78-1.66Z"/>
  <path class="cls-4" d="M292.25,411.4h6.75v.9h-6.75v-.06h-.29l-3.19,10.91h-.58l-2.46-5.28-1,.45-.18-.45,1.95-.89,2.09,4.6,2.93-10.13h.73v-.05Z"/>
  <path class="cls-4" d="M295.72,414c.74,0,1.29.16,1.67.48.38.32.56.79.56,1.4,0,.21-.02.4-.06.58-.04.18-.11.35-.2.52-.09.17-.21.36-.36.56-.15.2-.32.4-.5.6-.18.2-.49.54-.94,1.02-.75.79-1.3,1.49-1.66,2.08h2.24c.2,0,.35-.01.47-.04.12-.02.21-.06.28-.12.07-.06.13-.13.17-.22.04-.09.09-.23.16-.41h.5l-.1,1.73h-4.88v-.29c.17-.41.4-.84.69-1.27.29-.44.7-.95,1.23-1.54.46-.51.79-.89.99-1.15.22-.28.38-.53.5-.74.11-.21.19-.4.23-.59.05-.18.07-.37.07-.56,0-.3-.05-.56-.14-.79-.09-.23-.24-.41-.44-.54-.2-.13-.44-.2-.74-.2-.74,0-1.24.41-1.49,1.24h-.72v-1.14c.48-.23.92-.39,1.34-.49.42-.1.79-.15,1.12-.15Z"/>
  <path class="cls-4" d="M283.93,409.15h15.75v.9h-15.75v-.9Z"/>
  <path class="cls-4" d="M123.17,218.19c2.17,2.82,3.91,6.57,5.21,11.24,1.14,4.09,1.78,8.44,1.93,13.06l.03,1.93h0v1.84h0l-.03,1.93c-.15,4.62-.79,8.97-1.93,13.06-1.3,4.67-3.04,8.42-5.21,11.24l-.46-.39c2.04-2.89,3.61-6.65,4.71-11.29,1.1-4.64,1.65-9.51,1.66-14.62v-1.72c0-5.11-.56-9.98-1.66-14.62-1.1-4.64-2.67-8.4-4.71-11.29l.46-.39ZM106.18,218.18l.46.39c-2.04,2.89-3.61,6.65-4.71,11.29s-1.65,9.51-1.66,14.62v1.72c0,5.11.56,9.98,1.66,14.62s2.67,8.4,4.71,11.29l-.46.39c-2.17-2.82-3.91-6.57-5.21-11.24-1.14-4.09-1.78-8.44-1.93-13.06l-.03-1.93h0v-1.84h0l.03-1.93c.15-4.62.79-8.97,1.93-13.06,1.3-4.67,3.04-8.42,5.21-11.24Z"/>
  <path class="cls-4" d="M107.69,222.64h7.31v.79h-7.31v-.79Z"/>
  <path class="cls-4" d="M119.66,218.32h.33c-.02.38-.04.91-.04,1.58v5.07c0,.23.01.4.04.52.03.12.07.21.14.28.07.07.16.13.28.17.12.04.28.07.46.09.19.02.43.04.74.04v.43h-4.38v-.43c.44-.02.75-.05.94-.08.19-.03.33-.08.43-.15.1-.07.17-.16.22-.28.05-.12.07-.32.07-.6v-4.81c0-.16-.03-.27-.08-.35-.06-.07-.14-.11-.24-.11-.13,0-.31.07-.54.2-.23.13-.52.31-.87.54l-.26-.46,2.78-1.66Z"/>
  <path class="cls-4" d="M114.51,232.1h1.51v.07h6.11v.9h-6.75v-.18h-.43l-3.19,10.9h-.58l-2.46-5.28-1,.45-.18-.45,1.95-.89,2.09,4.6,2.93-10.13Z"/>
  <path class="cls-4" d="M118.71,234.65c.74,0,1.29.16,1.67.48.38.32.56.79.56,1.4,0,.21-.02.4-.06.58-.04.18-.11.35-.2.52-.09.17-.21.36-.36.55-.15.2-.32.4-.5.6-.18.2-.5.54-.94,1.02-.75.79-1.3,1.49-1.66,2.08h2.24c.19,0,.35-.01.47-.04.12-.02.21-.06.28-.12.07-.06.13-.13.17-.22.04-.09.09-.23.16-.41h.5l-.1,1.73h-4.88v-.28c.17-.42.4-.84.69-1.28.29-.44.7-.95,1.23-1.54.46-.51.79-.89.99-1.15.22-.28.39-.53.5-.74.11-.21.19-.4.23-.59.05-.18.07-.37.07-.55,0-.3-.05-.56-.14-.79-.09-.23-.24-.41-.44-.54s-.44-.2-.74-.2c-.74,0-1.24.41-1.49,1.23h-.72v-1.14c.48-.23.93-.39,1.34-.49.42-.1.79-.15,1.12-.15Z"/>
  <path class="cls-4" d="M106.83,229.7h15.75v.9h-15.75v-.9Z"/>
  <path class="cls-4" d="M115.14,247.69h.33c-.02.38-.04.91-.04,1.58v5.07c0,.23.01.4.04.52.03.12.07.21.14.28.07.07.16.13.28.17.12.04.28.07.46.09.19.02.43.04.74.04v.43h-4.38v-.43c.44-.02.75-.05.94-.08.19-.03.33-.08.43-.15.1-.07.17-.16.22-.28.05-.12.07-.32.07-.6v-4.81c0-.16-.03-.27-.08-.35-.06-.07-.14-.11-.24-.11-.13,0-.31.07-.54.2s-.52.31-.87.54l-.26-.46,2.78-1.66Z"/>
  <path class="cls-4" d="M115.38,261.42h6.75v.9h-6.75v-.06h-.43l-3.19,10.9h-.58l-2.46-5.28-1,.44-.18-.44,1.95-.89,2.09,4.6,2.93-10.13h.87v-.05Z"/>
  <path class="cls-4" d="M118.71,264.02c.74,0,1.29.16,1.67.48.38.32.56.79.56,1.4,0,.21-.02.4-.06.58-.04.18-.11.35-.2.52-.09.17-.21.36-.36.55-.15.2-.32.4-.5.6-.18.2-.5.54-.94,1.02-.75.79-1.3,1.49-1.66,2.08h2.24c.19,0,.35-.01.47-.04.12-.02.21-.06.28-.12.07-.06.13-.13.17-.22.04-.09.09-.23.16-.41h.5l-.1,1.73h-4.88v-.28c.17-.42.4-.84.69-1.28.29-.44.7-.95,1.23-1.54.46-.51.79-.89.99-1.15.22-.28.39-.53.5-.74.11-.21.19-.4.23-.59.05-.18.07-.37.07-.55,0-.3-.05-.56-.14-.79-.09-.23-.24-.41-.44-.54-.2-.13-.44-.2-.74-.2-.74,0-1.24.41-1.49,1.23h-.72v-1.14c.48-.23.93-.39,1.34-.49.42-.1.79-.15,1.12-.15Z"/>
  <path class="cls-4" d="M107.28,259.17h14.62v.9h-14.62v-.9Z"/>
  <path class="cls-4" d="M122.69,368.17c2.17,2.82,3.91,6.57,5.21,11.24,1.14,4.09,1.78,8.44,1.93,13.06l.03,1.93h0v1.84h0l-.03,1.93c-.15,4.62-.79,8.97-1.93,13.06-1.3,4.67-3.04,8.42-5.21,11.24l-.46-.38c2.04-2.89,3.61-6.65,4.71-11.29,1.1-4.64,1.65-9.51,1.66-14.62v-1.72c0-5.11-.56-9.98-1.66-14.62-1.1-4.64-2.67-8.4-4.71-11.29l.46-.39ZM105.7,368.16l.46.38c-2.04,2.89-3.61,6.65-4.71,11.29-1.1,4.64-1.65,9.51-1.66,14.62v1.72c0,5.11.56,9.98,1.66,14.62,1.1,4.64,2.67,8.4,4.71,11.29l-.46.38c-2.17-2.82-3.91-6.57-5.21-11.24-1.14-4.09-1.78-8.44-1.93-13.06l-.03-1.93h0v-1.84h0l.03-1.93c.15-4.62.79-8.97,1.93-13.06,1.3-4.67,3.04-8.42,5.21-11.24Z"/>
  <path class="cls-4" d="M107.21,372.62h7.31v.79h-7.31v-.79Z"/>
  <path class="cls-4" d="M119.18,368.3h.33c-.02.38-.04.9-.04,1.58v5.07c0,.23.01.4.04.52.03.12.07.21.14.29.07.07.16.13.28.17.12.04.28.07.46.1.19.02.43.04.74.04v.43h-4.38v-.43c.44-.02.75-.04.94-.08.19-.03.33-.08.43-.15.1-.07.17-.16.22-.29.05-.12.07-.32.07-.6v-4.81c0-.16-.03-.27-.08-.35-.06-.07-.14-.11-.24-.11-.13,0-.31.07-.54.2-.23.13-.52.31-.87.54l-.26-.46,2.78-1.65Z"/>
  <path class="cls-4" d="M114.03,382.08h1.51v.07h6.11v.9h-6.75v-.18h-.43l-3.19,10.9h-.58l-2.46-5.28-1,.44-.18-.44,1.95-.89,2.09,4.6,2.93-10.13Z"/>
  <path class="cls-4" d="M118.23,384.63c.74,0,1.29.16,1.67.48s.56.79.56,1.4c0,.21-.02.4-.06.58-.04.18-.11.35-.2.52-.09.17-.21.36-.36.55-.15.2-.32.4-.5.6-.18.2-.5.54-.94,1.02-.75.8-1.3,1.49-1.66,2.08h2.24c.19,0,.35-.01.47-.04.12-.02.21-.06.28-.12.07-.05.13-.13.17-.22.04-.09.09-.23.16-.41h.5l-.1,1.73h-4.88v-.29c.17-.41.4-.84.69-1.28.29-.43.7-.95,1.23-1.54.46-.51.79-.89.99-1.15.22-.29.39-.53.5-.74.11-.21.19-.4.23-.59.05-.18.07-.37.07-.55,0-.3-.05-.56-.14-.79-.09-.23-.24-.41-.44-.54-.2-.13-.44-.2-.74-.2-.74,0-1.24.41-1.5,1.23h-.72v-1.14c.48-.22.93-.39,1.34-.49.42-.1.79-.15,1.12-.15Z"/>
  <path class="cls-4" d="M106.35,379.68h15.75v.9h-15.75v-.9Z"/>
  <path class="cls-4" d="M107.21,401.99h7.31v.79h-7.31v-.79Z"/>
  <path class="cls-4" d="M119.18,397.67h.33c-.02.38-.04.9-.04,1.58v5.07c0,.23.01.4.04.52.03.12.07.21.14.28.07.07.16.13.28.17.12.04.28.07.46.09.19.02.43.04.74.05v.43h-4.38v-.43c.44-.02.75-.05.94-.08.19-.03.33-.08.43-.15.1-.07.17-.16.22-.29.05-.12.07-.32.07-.6v-4.81c0-.16-.03-.27-.08-.35-.06-.07-.14-.11-.24-.11-.13,0-.31.07-.54.2-.23.13-.52.31-.87.54l-.26-.46,2.78-1.66Z"/>
  <path class="cls-4" d="M114.9,411.4h6.75v.9h-6.75v-.06h-.43l-3.19,10.91h-.58l-2.46-5.28-1,.45-.18-.45,1.95-.89,2.09,4.6,2.93-10.13h.87v-.05Z"/>
  <path class="cls-4" d="M118.23,414c.74,0,1.29.16,1.67.48.38.32.56.79.56,1.4,0,.21-.02.4-.06.58-.04.18-.11.35-.2.52-.09.17-.21.36-.36.56-.15.2-.32.4-.5.6-.18.2-.5.54-.94,1.02-.75.79-1.3,1.49-1.66,2.08h2.24c.19,0,.35-.01.47-.04.12-.02.21-.06.28-.12.07-.06.13-.13.17-.22.04-.09.09-.23.16-.41h.5l-.1,1.73h-4.88v-.29c.17-.41.4-.84.69-1.27.29-.44.7-.95,1.23-1.54.46-.51.79-.89.99-1.15.22-.28.39-.53.5-.74.11-.21.19-.4.23-.59.05-.18.07-.37.07-.56,0-.3-.05-.56-.14-.79-.09-.23-.24-.41-.44-.54-.2-.13-.44-.2-.74-.2-.74,0-1.24.41-1.5,1.24h-.72v-1.14c.48-.23.93-.39,1.34-.49.42-.1.79-.15,1.12-.15Z"/>
  <path class="cls-4" d="M106.35,409.15h15.75v.9h-15.75v-.9Z"/>
  <path class="cls-8" d="M442.16,317.83c0-86.43,70.06-156.49,156.49-156.49s156.49,70.06,156.49,156.49-70.06,156.49-156.49,156.49-156.49-70.06-156.49-156.49Z"/>
  <path class="cls-3" d="M748.27,318.06c0-3.67,3.02-6.64,6.75-6.64s6.75,2.97,6.75,6.64-3.02,6.64-6.75,6.64-6.75-2.97-6.75-6.64Z"/>
  <path class="cls-3" d="M591.9,161.23c0-3.67,3.02-6.64,6.75-6.64s6.75,2.97,6.75,6.64-3.02,6.64-6.75,6.64-6.75-2.97-6.75-6.64Z"/>
  <path class="cls-3" d="M435.52,318.06c0-3.67,2.97-6.64,6.64-6.64s6.64,2.97,6.64,6.64-2.97,6.64-6.64,6.64-6.64-2.97-6.64-6.64Z"/>
  <path class="cls-3" d="M591.9,474.43c0-3.67,3.02-6.64,6.75-6.64s6.75,2.97,6.75,6.64-3.02,6.64-6.75,6.64-6.75-2.97-6.75-6.64Z"/>
  <path class="cls-2" d="M704.4,209.61c0-3.67,2.97-6.64,6.64-6.64s6.64,2.97,6.64,6.64-2.97,6.64-6.64,6.64-6.64-2.97-6.64-6.64Z"/>
  <path class="cls-1" d="M704.28,426.62c0-3.67,2.97-6.64,6.64-6.64s6.64,2.97,6.64,6.64-2.97,6.64-6.64,6.64-6.64-2.97-6.64-6.64Z"/>
  <path class="cls-1" d="M479.51,209.5c0-3.67,2.97-6.64,6.64-6.64s6.64,2.97,6.64,6.64-2.97,6.64-6.64,6.64-6.64-2.97-6.64-6.64Z"/>
  <path class="cls-3" d="M479.62,426.73c0-3.67,2.97-6.64,6.64-6.64s6.64,2.97,6.64,6.64-2.97,6.64-6.64,6.64-6.64-2.97-6.64-6.64Z"/>
  <path class="cls-4" d="M478.84,303.15c1.63,1.39,2.92,3.47,3.87,6.23.95,2.76,1.43,5.84,1.43,9.24s-.48,6.43-1.43,9.23c-.96,2.8-2.25,4.89-3.87,6.28l-.28-.44c1.4-1.43,2.49-3.49,3.25-6.2.76-2.7,1.14-5.66,1.14-8.86s-.38-6.25-1.15-8.91c-.76-2.66-1.84-4.7-3.24-6.13l.28-.44ZM461.79,303.15l.28.44c-1.4,1.43-2.48,3.47-3.24,6.13-.76,2.66-1.14,5.63-1.14,8.91s.38,6.16,1.14,8.86c.76,2.7,1.84,4.77,3.24,6.2l-.28.44c-1.62-1.39-2.91-3.48-3.87-6.28-.95-2.8-1.43-5.88-1.43-9.23s.48-6.48,1.43-9.24c.96-2.76,2.25-4.84,3.87-6.23Z"/>
  <path class="cls-4" d="M463.33,309.06h7.31v.79h-7.31v-.79Z"/>
  <path class="cls-4" d="M475.3,304.73h.33c-.02.38-.03.91-.03,1.58v5.06c0,.23.01.4.04.52.02.12.07.21.14.29.07.07.16.13.28.17.12.04.28.07.46.09.19.02.43.04.74.04v.43h-4.38v-.43c.44-.02.75-.05.94-.08.19-.03.33-.08.43-.15.1-.07.17-.16.22-.28.04-.12.07-.32.07-.6v-4.81c0-.16-.03-.27-.08-.35-.06-.07-.14-.11-.25-.11-.13,0-.31.07-.54.2-.23.13-.52.31-.87.54l-.26-.46,2.78-1.66Z"/>
  <path class="cls-4" d="M470.32,322.51c-.27,0-.5.08-.69.24-.18.16-.33.4-.44.7s-.19.67-.24,1.11c-.05.44-.07.93-.07,1.48,0,1.29.12,2.24.36,2.84.24.6.61.9,1.11.9s.83-.28,1.06-.85c.23-.57.35-1.45.35-2.64,0-.91-.06-1.65-.18-2.21-.12-.56-.29-.97-.5-1.21-.21-.25-.47-.37-.77-.37ZM470.35,322.01c.87,0,1.51.33,1.93,1,.42.67.63,1.68.63,3.03s-.23,2.46-.68,3.17c-.45.72-1.11,1.08-1.98,1.08s-1.49-.34-1.91-1.01c-.42-.67-.63-1.69-.63-3.06,0-.73.07-1.36.19-1.89.13-.53.31-.97.54-1.31.23-.35.51-.6.83-.77.32-.17.68-.25,1.06-.25Z"/>
  <path class="cls-4" d="M605.91,429.68c1.62,1.39,2.92,3.47,3.87,6.23.96,2.76,1.43,5.84,1.43,9.24s-.48,6.43-1.43,9.23c-.95,2.8-2.25,4.9-3.87,6.28l-.28-.44c1.4-1.43,2.49-3.49,3.24-6.2.76-2.7,1.14-5.66,1.14-8.86s-.38-6.25-1.15-8.91c-.76-2.66-1.84-4.7-3.24-6.13l.28-.45ZM588.85,429.68l.28.45c-1.4,1.43-2.48,3.47-3.24,6.13-.76,2.66-1.14,5.63-1.14,8.91s.38,6.16,1.14,8.86c.76,2.71,1.84,4.77,3.24,6.2l-.28.44c-1.62-1.38-2.92-3.48-3.87-6.28-.96-2.8-1.43-5.88-1.43-9.23s.48-6.48,1.43-9.24c.95-2.76,2.25-4.84,3.87-6.23Z"/>
  <path class="cls-4" d="M597.39,431.76c-.27,0-.5.08-.69.25-.18.16-.33.39-.45.7-.11.3-.19.67-.24,1.11-.05.44-.07.93-.07,1.48,0,1.29.12,2.24.36,2.84.24.6.61.9,1.11.9s.83-.28,1.06-.85c.23-.57.35-1.45.35-2.64,0-.91-.06-1.64-.18-2.21-.12-.56-.28-.97-.49-1.21s-.47-.37-.77-.37ZM597.42,431.26c.87,0,1.51.34,1.93,1,.43.67.64,1.68.64,3.03s-.23,2.46-.68,3.18c-.45.72-1.12,1.08-1.98,1.08s-1.49-.34-1.91-1.01c-.42-.67-.63-1.69-.63-3.06,0-.73.06-1.36.19-1.89.13-.53.31-.97.54-1.31.23-.35.51-.6.83-.77s.68-.25,1.06-.25Z"/>
  <path class="cls-4" d="M590.39,452.86h7.31v.79h-7.31v-.79Z"/>
  <path class="cls-4" d="M602.37,448.54h.33c-.02.38-.04.9-.04,1.58v5.07c0,.23.01.4.04.52.02.11.07.21.14.28.07.07.16.13.28.17.12.04.28.07.46.09.19.02.43.04.74.05v.43h-4.38v-.43c.44-.02.75-.05.94-.08.19-.03.33-.08.43-.15s.17-.16.22-.29c.04-.12.07-.32.07-.6v-4.81c0-.16-.03-.27-.08-.35-.05-.07-.13-.11-.24-.11-.13,0-.31.07-.54.2-.23.13-.52.31-.87.54l-.26-.46,2.78-1.65Z"/>
  <path class="cls-4" d="M517.93,218.19c2.17,2.82,3.91,6.57,5.21,11.24,1.14,4.09,1.78,8.44,1.93,13.06l.03,1.93h0v1.84h0l-.03,1.93c-.15,4.62-.79,8.97-1.93,13.06-1.3,4.67-3.04,8.42-5.21,11.24l-.46-.39c2.04-2.89,3.61-6.65,4.71-11.29,1.1-4.64,1.65-9.51,1.66-14.62v-1.72c0-5.11-.56-9.98-1.66-14.62-1.1-4.64-2.67-8.4-4.71-11.29l.46-.39ZM500.94,218.18l.46.39c-2.04,2.89-3.61,6.65-4.71,11.29-1.1,4.64-1.65,9.51-1.66,14.62v1.72c0,5.11.56,9.98,1.66,14.62,1.1,4.64,2.67,8.4,4.71,11.29l-.46.39c-2.17-2.82-3.91-6.57-5.21-11.24-1.14-4.09-1.78-8.44-1.93-13.06l-.03-1.93h0v-1.84h0l.03-1.93c.15-4.62.79-8.97,1.93-13.06,1.31-4.67,3.04-8.42,5.21-11.24Z"/>
  <path class="cls-4" d="M502.45,222.64h7.31v.79h-7.31v-.79Z"/>
  <path class="cls-4" d="M514.42,218.32h.33c-.02.38-.04.91-.04,1.58v5.07c0,.23.01.4.04.52.03.12.07.21.14.28.07.07.16.13.28.17.12.04.28.07.46.09.18.02.43.04.74.04v.43h-4.39v-.43c.44-.02.75-.05.94-.08.19-.03.33-.08.43-.15.1-.07.17-.16.22-.28.05-.12.07-.32.07-.6v-4.81c0-.16-.03-.27-.08-.35-.06-.07-.14-.11-.24-.11-.13,0-.31.07-.54.2-.23.13-.52.31-.87.54l-.26-.46,2.78-1.66Z"/>
  <path class="cls-4" d="M509.27,232.1h1.51v.07h6.11v.9h-6.75v-.18h-.43l-3.19,10.9h-.58l-2.46-5.28-1,.45-.18-.45,1.95-.89,2.09,4.6,2.93-10.13Z"/>
  <path class="cls-4" d="M513.47,234.65c.74,0,1.29.16,1.67.48.38.32.56.79.56,1.4,0,.21-.02.4-.06.58-.04.18-.11.35-.2.52-.09.17-.21.36-.36.55-.15.2-.32.4-.5.6-.18.2-.49.54-.94,1.02-.75.79-1.3,1.49-1.66,2.08h2.24c.2,0,.35-.01.47-.04.12-.02.21-.06.28-.12.07-.06.13-.13.17-.22.04-.09.09-.23.16-.41h.5l-.1,1.73h-4.88v-.28c.17-.42.4-.84.69-1.28.29-.44.7-.95,1.23-1.54.46-.51.79-.89.99-1.15.22-.28.38-.53.49-.74.11-.21.19-.4.23-.59.05-.18.07-.37.07-.55,0-.3-.05-.56-.14-.79-.09-.23-.24-.41-.44-.54-.2-.13-.44-.2-.74-.2-.74,0-1.24.41-1.49,1.23h-.72v-1.14c.48-.23.92-.39,1.34-.49.42-.1.79-.15,1.12-.15Z"/>
  <path class="cls-4" d="M501.59,229.7h15.75v.9h-15.75v-.9Z"/>
  <path class="cls-4" d="M509.9,247.69h.33c-.02.38-.03.91-.03,1.58v5.07c0,.23.01.4.04.52.02.12.07.21.13.28.07.07.16.13.28.17.12.04.28.07.46.09.19.02.43.04.74.04v.43h-4.38v-.43c.44-.02.75-.05.94-.08.19-.03.33-.08.43-.15.1-.07.17-.16.22-.28.04-.12.07-.32.07-.6v-4.81c0-.16-.03-.27-.08-.35-.05-.07-.14-.11-.24-.11-.13,0-.31.07-.54.2-.23.13-.52.31-.87.54l-.26-.46,2.78-1.66Z"/>
  <path class="cls-4" d="M510.14,261.42h6.75v.9h-6.75v-.06h-.43l-3.19,10.9h-.58l-2.46-5.28-1,.44-.18-.44,1.95-.89,2.09,4.6,2.93-10.13h.87v-.05Z"/>
  <path class="cls-4" d="M513.47,264.02c.74,0,1.29.16,1.67.48.38.32.56.79.56,1.4,0,.21-.02.4-.06.58-.04.18-.11.35-.2.52-.09.17-.21.36-.36.55-.15.2-.32.4-.5.6-.18.2-.49.54-.94,1.02-.75.79-1.3,1.49-1.66,2.08h2.24c.2,0,.35-.01.47-.04.12-.02.21-.06.28-.12.07-.06.13-.13.17-.22.04-.09.09-.23.16-.41h.5l-.1,1.73h-4.88v-.28c.17-.42.4-.84.69-1.28.29-.44.7-.95,1.23-1.54.46-.51.79-.89.99-1.15.22-.28.38-.53.49-.74.11-.21.19-.4.23-.59.05-.18.07-.37.07-.55,0-.3-.05-.56-.14-.79-.09-.23-.24-.41-.44-.54-.2-.13-.44-.2-.74-.2-.74,0-1.24.41-1.49,1.23h-.72v-1.14c.48-.23.92-.39,1.34-.49.42-.1.79-.15,1.12-.15Z"/>
  <path class="cls-4" d="M502.04,259.17h14.62v.9h-14.62v-.9Z"/>
  <path class="cls-4" d="M517.45,368.17c2.17,2.82,3.91,6.57,5.21,11.24,1.14,4.09,1.78,8.44,1.93,13.06l.03,1.93h0v1.84h0l-.03,1.93c-.15,4.62-.79,8.97-1.93,13.06-1.3,4.67-3.04,8.42-5.21,11.24l-.46-.38c2.04-2.89,3.61-6.65,4.71-11.29s1.65-9.51,1.66-14.62v-1.72c0-5.11-.56-9.98-1.66-14.62s-2.67-8.4-4.71-11.29l.46-.39ZM500.46,368.16l.46.38c-2.04,2.89-3.61,6.65-4.71,11.29-1.1,4.64-1.65,9.51-1.66,14.62v1.72c0,5.11.56,9.98,1.66,14.62,1.1,4.64,2.67,8.4,4.71,11.29l-.46.38c-2.17-2.82-3.91-6.57-5.21-11.24-1.14-4.09-1.78-8.44-1.93-13.06l-.03-1.93h0v-1.84h0l.03-1.93c.15-4.62.79-8.97,1.93-13.06,1.3-4.67,3.04-8.42,5.21-11.24Z"/>
  <path class="cls-4" d="M501.97,372.62h7.31v.79h-7.31v-.79Z"/>
  <path class="cls-4" d="M513.94,368.3h.33c-.02.38-.04.9-.04,1.58v5.07c0,.23.01.4.04.52.03.12.07.21.14.29.07.07.16.13.28.17.12.04.28.07.46.1.18.02.43.04.74.04v.43h-4.39v-.43c.44-.02.75-.04.94-.08.19-.03.33-.08.43-.15s.17-.16.22-.29c.04-.12.07-.32.07-.6v-4.81c0-.16-.03-.27-.08-.35-.06-.07-.14-.11-.24-.11-.13,0-.31.07-.54.2s-.52.31-.87.54l-.26-.46,2.78-1.65Z"/>
  <path class="cls-4" d="M508.79,382.08h1.51v.07h6.11v.9h-6.75v-.18h-.43l-3.19,10.9h-.58l-2.45-5.28-1,.44-.18-.44,1.95-.89,2.09,4.6,2.93-10.13Z"/>
  <path class="cls-4" d="M512.99,384.63c.74,0,1.29.16,1.67.48s.56.79.56,1.4c0,.21-.02.4-.06.58-.04.18-.11.35-.2.52-.09.17-.21.36-.36.55-.15.2-.32.4-.5.6-.18.2-.49.54-.94,1.02-.75.8-1.3,1.49-1.65,2.08h2.24c.19,0,.35-.01.47-.04.12-.02.21-.06.28-.12.07-.05.13-.13.17-.22.04-.09.09-.23.16-.41h.51l-.1,1.73h-4.88v-.29c.17-.41.4-.84.69-1.28.29-.43.7-.95,1.23-1.54.46-.51.79-.89.99-1.15.22-.29.39-.53.49-.74.11-.21.19-.4.23-.59.05-.18.07-.37.07-.55,0-.3-.05-.56-.14-.79-.09-.23-.24-.41-.43-.54-.2-.13-.44-.2-.74-.2-.74,0-1.24.41-1.49,1.23h-.72v-1.14c.48-.22.93-.39,1.34-.49.42-.1.79-.15,1.12-.15Z"/>
  <path class="cls-4" d="M501.11,379.68h15.75v.9h-15.75v-.9Z"/>
  <path class="cls-4" d="M501.97,401.99h7.31v.79h-7.31v-.79Z"/>
  <path class="cls-4" d="M513.94,397.67h.33c-.02.38-.04.9-.04,1.58v5.07c0,.23.01.4.04.52.03.12.07.21.14.28.07.07.16.13.28.17.12.04.28.07.46.09.18.02.43.04.74.05v.43h-4.39v-.43c.44-.02.75-.05.94-.08.19-.03.33-.08.43-.15.1-.07.17-.16.22-.29.04-.12.07-.32.07-.6v-4.81c0-.16-.03-.27-.08-.35-.06-.07-.14-.11-.24-.11-.13,0-.31.07-.54.2-.23.13-.52.31-.87.54l-.26-.46,2.78-1.66Z"/>
  <path class="cls-4" d="M509.66,411.4h6.75v.9h-6.75v-.06h-.43l-3.19,10.91h-.58l-2.45-5.28-1,.45-.18-.45,1.95-.89,2.09,4.6,2.93-10.13h.87v-.05Z"/>
  <path class="cls-4" d="M512.99,414c.74,0,1.29.16,1.67.48.38.32.56.79.56,1.4,0,.21-.02.4-.06.58-.04.18-.11.35-.2.52-.09.17-.21.36-.36.56s-.32.4-.5.6c-.18.2-.49.54-.94,1.02-.75.79-1.3,1.49-1.65,2.08h2.24c.19,0,.35-.01.47-.04.12-.02.21-.06.28-.12.07-.06.13-.13.17-.22.04-.09.09-.23.16-.41h.51l-.1,1.73h-4.88v-.29c.17-.41.4-.84.69-1.27.29-.44.7-.95,1.23-1.54.46-.51.79-.89.99-1.15.22-.28.39-.53.49-.74s.19-.4.23-.59c.05-.18.07-.37.07-.56,0-.3-.05-.56-.14-.79-.09-.23-.24-.41-.43-.54-.2-.13-.44-.2-.74-.2-.74,0-1.24.41-1.49,1.24h-.72v-1.14c.48-.23.93-.39,1.34-.49.42-.1.79-.15,1.12-.15Z"/>
  <path class="cls-4" d="M501.11,409.15h15.75v.9h-15.75v-.9Z"/>
  <path class="cls-6" d="M316.82,201.77v-16.99l-.77.77h24.9l-.77-.77v24.83l.77-.77h-18.2v1.55h18.97v-26.38h-26.45v17.76h1.55ZM310.3,196.07l5.75,6.9,5.75-6.9c.27-.33.23-.82-.1-1.09-.33-.27-.82-.23-1.09.1l-5.16,6.19h1.19l-5.16-6.19c-.27-.33-.76-.37-1.09-.1-.33.27-.37.76-.1,1.09Z"/>
  <path class="cls-6" d="M268.41,253.94l-132.04,127.6,1.08,1.11,132.04-127.6-1.07-1.11ZM137.01,374l-.97,8.93,8.96-.66c.43-.03.75-.4.71-.83-.03-.43-.4-.75-.83-.71l-8.03.59.83.85.87-8.01c.05-.42-.26-.81-.69-.85-.42-.05-.81.26-.85.69Z"/>
  <path class="cls-6" d="M717.67,208.72h65.74v218.64h-63.5v-1.55h62.73l-.77.77v-217.09l.77.77h-64.97v-1.55ZM725.6,432.34l-6.9-5.75,6.9-5.75c.33-.27.81-.23,1.09.1.27.33.23.81-.1,1.09l-6.19,5.15v-1.19l6.19,5.16c.33.27.37.76.1,1.09-.27.33-.76.37-1.09.1Z"/>
  <path class="cls-6" d="M486.05,202.12v-63.46h226.3v63.64h-1.55v-62.87l.77.77h-224.75l.77-.77v62.69h-1.55ZM492.57,196.43l-5.75,6.9-5.75-6.9c-.27-.33-.23-.82.1-1.09.33-.27.82-.23,1.09.1l5.16,6.19h-1.19l5.16-6.19c.27-.33.76-.37,1.09-.1.33.27.37.76.1,1.09Z"/>
  <path class="cls-5" d="M299.55,159.72c.58,0,1.08.05,1.5.14l-.35,1.51h-.78c-.08-.34-.19-.58-.32-.73-.13-.15-.33-.22-.59-.22-.34,0-.63.09-.86.28-.23.19-.43.46-.6.83s-.32.86-.46,1.49l-.22.97h2.29l-.2.9h-2.29l-1.66,7.76c-.27,1.29-.69,2.25-1.26,2.88-.56.63-1.27.95-2.13.95-.25,0-.45-.01-.59-.04l.15-.78c.06.02.2.03.42.03.27,0,.5-.07.69-.2.19-.14.36-.37.53-.71.16-.34.31-.81.45-1.41l1.91-8.46h-1.5l.13-.61c.4-.02.68-.06.86-.1.17-.04.31-.1.41-.19.1-.08.18-.19.25-.32.07-.13.16-.38.26-.73.31-1.07.8-1.87,1.46-2.41.65-.54,1.49-.81,2.5-.81Z"/>
  <path class="cls-5" d="M320.1,158.86c1.73.46,3.06,1.44,3.99,2.96.93,1.52,1.39,3.34,1.39,5.49s-.46,3.98-1.39,5.49c-.92,1.51-2.26,2.49-3.99,2.95l-.21-.69c1.37-.46,2.39-1.36,3.06-2.71.67-1.35,1-3.06,1-5.13s-.33-3.67-1-5c-.66-1.33-1.69-2.22-3.09-2.67l.24-.69ZM308.73,158.86l.24.69c-1.39.46-2.42,1.35-3.08,2.67-.67,1.33-1,2.99-1,5s.34,3.79,1,5.13c.67,1.35,1.69,2.25,3.06,2.71l-.21.69c-1.74-.46-3.07-1.44-4-2.95-.92-1.51-1.39-3.34-1.39-5.49s.46-3.97,1.39-5.49c.93-1.52,2.26-2.5,3.99-2.96Z"/>
  <path class="cls-5" d="M312.82,163.84c.18,0,.34.02.48.06.14.04.26.11.37.19.11.09.2.2.29.33.08.14.16.32.24.56.08.23.15.52.22.87.07.35.13.71.18,1.08h.09c.57-.8,1-1.39,1.3-1.76.29-.37.54-.65.74-.83.2-.18.4-.31.58-.38.19-.07.43-.11.74-.11.28,0,.51.04.69.11l-.36,1.61h-.62c-.04-.25-.14-.37-.31-.37-.05,0-.11,0-.17.03-.06.02-.13.06-.22.12-.09.06-.21.18-.38.35-.17.17-.35.38-.56.63-.21.25-.42.51-.64.78l-.61.76c.11.57.21,1.06.3,1.48s.18.76.25,1.04c.07.28.14.49.2.65.06.16.12.28.18.36.07.08.13.14.2.17.07.03.15.05.23.05.16,0,.32-.06.47-.19.15-.12.37-.41.65-.85l.58.38c-.42.62-.79,1.05-1.13,1.3-.34.25-.73.38-1.2.38-.25,0-.47-.05-.65-.14-.18-.09-.33-.24-.46-.44-.13-.2-.25-.52-.35-.94-.18-.76-.3-1.34-.34-1.74h-.09c-.63.88-1.1,1.52-1.4,1.9-.31.39-.56.67-.76.85-.2.18-.39.31-.58.39-.19.07-.43.11-.74.11-.28,0-.51-.04-.69-.11l.36-1.61h.62c.04.25.14.37.31.37.08,0,.17-.02.26-.07s.23-.15.4-.32c.17-.17.41-.43.71-.8.3-.36.74-.9,1.32-1.63-.09-.47-.18-.92-.28-1.35-.09-.43-.19-.84-.29-1.21-.1-.37-.18-.62-.25-.73-.07-.12-.13-.2-.21-.24-.07-.04-.17-.07-.28-.07-.13,0-.24.03-.34.08-.1.06-.21.15-.33.29-.12.14-.28.36-.47.65l-.58-.38c.37-.56.73-.98,1.08-1.26.34-.28.75-.42,1.22-.42Z"/>
  <path class="cls-5" d="M333.46,168.55h10.96v1.18h-10.96v-1.18ZM333.46,164.85h10.96v1.18h-10.96v-1.18Z"/>
  <path class="cls-5" d="M355.77,160.96c-.41,0-.75.12-1.03.36-.27.24-.5.59-.67,1.05-.17.46-.29,1.01-.36,1.67-.07.66-.11,1.4-.11,2.22,0,1.93.18,3.35.54,4.26.36.9.92,1.36,1.67,1.36s1.25-.43,1.6-1.28.52-2.17.52-3.96c0-1.36-.09-2.47-.27-3.31-.18-.85-.43-1.45-.74-1.82-.32-.37-.7-.55-1.15-.55ZM355.82,160.21c1.3,0,2.27.5,2.9,1.5.63,1,.95,2.52.95,4.55s-.34,3.69-1.02,4.77-1.67,1.62-2.98,1.62-2.24-.5-2.86-1.51c-.63-1.01-.94-2.54-.94-4.59,0-1.09.1-2.03.29-2.83.19-.79.46-1.45.81-1.97.35-.52.77-.9,1.25-1.15.49-.25,1.02-.37,1.59-.37Z"/>
  <path class="cls-5" d="M145.22,290.17c.6,0,1.11.05,1.54.15l-.36,1.55h-.8c-.09-.35-.2-.6-.33-.75-.14-.15-.34-.23-.61-.23-.35,0-.64.1-.88.29-.24.19-.45.48-.62.85-.17.38-.33.88-.47,1.52l-.23.99h2.34l-.2.92h-2.35l-1.7,7.95c-.28,1.32-.71,2.3-1.29,2.95-.58.65-1.3.97-2.18.97-.26,0-.46-.01-.6-.04l.16-.8c.06.02.2.03.43.03.27,0,.51-.07.7-.21s.38-.38.54-.73c.17-.35.32-.83.46-1.44l1.96-8.67h-1.54l.14-.63c.41-.02.7-.06.88-.1s.32-.11.42-.19c.1-.09.19-.2.26-.33.07-.14.16-.39.27-.75.32-1.09.82-1.92,1.49-2.47.67-.55,1.53-.83,2.57-.83Z"/>
  <path class="cls-5" d="M166.14,289.29c1.78.47,3.14,1.48,4.09,3.03.95,1.55,1.43,3.43,1.43,5.62s-.47,4.07-1.42,5.62c-.95,1.55-2.31,2.55-4.09,3.02l-.22-.7c1.4-.47,2.45-1.39,3.13-2.77.68-1.38,1.03-3.13,1.03-5.26s-.34-3.76-1.02-5.12c-.68-1.36-1.74-2.27-3.16-2.74l.25-.7ZM154.51,289.29l.25.7c-1.42.47-2.48,1.38-3.16,2.74-.68,1.36-1.03,3.07-1.03,5.12s.34,3.88,1.03,5.26c.68,1.38,1.73,2.3,3.13,2.77l-.22.7c-1.78-.47-3.15-1.48-4.09-3.02-.95-1.55-1.42-3.42-1.42-5.62s.48-4.07,1.43-5.62c.95-1.55,2.31-2.56,4.09-3.03Z"/>
  <path class="cls-5" d="M158.66,294.39c.19,0,.35.02.5.07.14.04.27.11.38.2.11.09.21.2.29.34.09.14.17.33.25.57.08.24.15.54.22.89.07.36.13.73.19,1.11h.09c.58-.82,1.03-1.42,1.33-1.8.3-.38.55-.66.76-.85.21-.18.41-.32.6-.39.19-.08.45-.11.76-.11.29,0,.52.04.7.11l-.36,1.65h-.64c-.04-.26-.14-.38-.32-.38-.05,0-.11.01-.17.03-.06.02-.14.06-.22.12-.09.06-.22.18-.39.36-.17.18-.36.39-.57.65-.21.26-.43.52-.66.8l-.62.77c.11.58.21,1.09.31,1.51.1.43.18.78.26,1.06.08.28.14.51.2.67.06.16.12.29.19.37.07.08.14.14.21.17.07.03.15.05.24.05.16,0,.32-.06.48-.19.16-.13.38-.42.67-.87l.59.39c-.43.63-.81,1.08-1.15,1.33-.34.26-.75.39-1.23.39-.26,0-.48-.05-.67-.14-.18-.09-.34-.25-.47-.45-.13-.21-.25-.53-.36-.97-.19-.78-.3-1.37-.35-1.79h-.09c-.64.91-1.12,1.56-1.44,1.95-.31.4-.57.69-.78.88-.2.19-.4.32-.59.4s-.45.11-.76.11c-.29,0-.52-.04-.7-.11l.36-1.65h.64c.04.26.14.38.32.38.09,0,.17-.02.27-.07.09-.05.23-.16.41-.33.18-.17.42-.45.73-.81.31-.37.76-.93,1.35-1.67-.09-.48-.19-.94-.28-1.39s-.2-.86-.3-1.24c-.1-.38-.19-.63-.26-.75-.07-.12-.14-.2-.21-.25-.08-.05-.17-.07-.29-.07-.13,0-.24.03-.35.09-.1.06-.22.16-.34.3-.12.14-.28.37-.48.67l-.59-.39c.38-.58.75-1.01,1.1-1.29.35-.29.77-.43,1.25-.43Z"/>
  <path class="cls-5" d="M179.76,299.22h11.23v1.21h-11.23v-1.21ZM179.76,295.43h11.23v1.21h-11.23v-1.21Z"/>
  <path class="cls-5" d="M203.37,290.67h.5c-.04.58-.05,1.39-.05,2.43v7.79c0,.35.02.62.06.8.04.18.11.32.21.44.1.11.25.2.43.27.19.06.43.11.71.14.29.03.66.06,1.13.07v.67h-6.74v-.67c.68-.03,1.16-.07,1.45-.12s.51-.13.66-.23c.15-.1.26-.25.33-.44.07-.19.1-.49.1-.92v-7.4c0-.24-.04-.42-.13-.53-.08-.11-.21-.17-.37-.17-.19,0-.47.1-.83.3-.36.2-.8.48-1.33.83l-.4-.7,4.27-2.54Z"/>
  <path class="cls-5" d="M799.74,311.74c.58,0,1.08.05,1.5.14l-.35,1.51h-.78c-.08-.34-.19-.58-.32-.73-.13-.15-.33-.22-.59-.22-.34,0-.62.09-.86.28-.23.19-.43.47-.6.83-.17.37-.32.86-.46,1.49l-.22.97h2.29l-.2.9h-2.3l-1.65,7.76c-.27,1.29-.69,2.25-1.26,2.88-.56.63-1.27.95-2.13.95-.25,0-.45-.02-.59-.05l.15-.78c.06.02.2.03.42.03.27,0,.5-.07.68-.2.19-.14.37-.37.53-.71.16-.34.31-.81.45-1.41l1.91-8.46h-1.51l.14-.61c.4-.02.68-.06.86-.1.18-.04.31-.1.41-.19.1-.08.18-.19.25-.32.07-.13.16-.38.26-.74.31-1.07.8-1.87,1.45-2.41.66-.54,1.49-.81,2.51-.81Z"/>
  <path class="cls-5" d="M820.29,310.88c1.73.46,3.06,1.44,3.99,2.96.93,1.51,1.39,3.34,1.39,5.49s-.46,3.98-1.39,5.49c-.92,1.51-2.26,2.49-4,2.95l-.21-.68c1.37-.46,2.39-1.36,3.06-2.71.67-1.35,1-3.06,1-5.13s-.33-3.67-1-4.99c-.66-1.33-1.69-2.22-3.09-2.68l.24-.68ZM808.93,310.88l.24.68c-1.39.46-2.41,1.35-3.08,2.68-.67,1.33-1,2.99-1,4.99s.33,3.79,1,5.13c.67,1.35,1.69,2.25,3.06,2.71l-.21.68c-1.74-.46-3.07-1.44-4-2.95-.93-1.51-1.39-3.34-1.39-5.49s.46-3.97,1.39-5.49c.93-1.52,2.26-2.5,3.99-2.96Z"/>
  <path class="cls-5" d="M813.01,315.86c.18,0,.35.02.49.06.14.04.26.11.37.19.11.09.2.2.29.34.08.13.16.32.24.56.08.23.15.52.22.87.07.35.13.71.18,1.08h.09c.57-.8,1-1.39,1.29-1.76.29-.37.54-.65.74-.83.2-.18.4-.31.58-.38.19-.07.43-.11.74-.11.28,0,.51.03.69.11l-.36,1.61h-.62c-.03-.25-.14-.37-.31-.37-.05,0-.11,0-.17.03-.06.02-.13.06-.22.11-.09.06-.21.18-.38.35-.17.17-.35.38-.56.63-.21.25-.42.51-.64.78l-.61.76c.11.57.21,1.06.3,1.48.09.41.18.76.25,1.04.07.27.14.49.2.65.06.16.12.28.18.36.07.08.13.13.2.17.07.03.15.05.24.05.16,0,.32-.06.47-.19.15-.12.37-.41.65-.84l.58.38c-.42.62-.79,1.05-1.13,1.3s-.73.38-1.2.38c-.25,0-.47-.04-.65-.14-.18-.09-.33-.24-.46-.44s-.25-.52-.35-.94c-.18-.76-.3-1.34-.34-1.74h-.09c-.63.88-1.1,1.52-1.4,1.9-.31.38-.56.67-.76.85-.2.18-.39.31-.58.39-.19.07-.44.11-.74.11-.28,0-.51-.04-.68-.11l.36-1.61h.62c.04.25.14.37.31.37.08,0,.17-.02.26-.07.09-.04.22-.15.4-.32s.41-.43.71-.8c.3-.36.74-.9,1.32-1.63-.09-.47-.18-.92-.28-1.35-.09-.43-.19-.84-.29-1.21-.1-.37-.18-.62-.25-.73-.07-.12-.14-.2-.21-.24-.07-.04-.17-.07-.28-.07-.12,0-.24.03-.34.09-.1.06-.21.16-.33.29-.12.14-.28.36-.47.65l-.58-.38c.37-.56.73-.99,1.08-1.26.34-.28.75-.42,1.22-.42Z"/>
  <path class="cls-5" d="M833.65,320.57h10.96v1.18h-10.96v-1.18ZM833.65,316.88h10.96v1.18h-10.96v-1.18Z"/>
  <path class="cls-5" d="M854.44,315.86c.18,0,.34.02.48.06.14.04.26.11.37.19.11.09.2.2.29.34.08.13.16.32.24.56.08.23.15.52.22.87.07.35.13.71.18,1.08h.09c.57-.8,1-1.39,1.3-1.76.29-.37.54-.65.74-.83.2-.18.4-.31.58-.38.19-.07.43-.11.74-.11.28,0,.51.03.69.11l-.36,1.61h-.62c-.04-.25-.14-.37-.31-.37-.05,0-.11,0-.17.03-.06.02-.13.06-.22.11-.09.06-.21.18-.38.35-.17.17-.35.38-.56.63s-.42.51-.64.78l-.61.76c.11.57.21,1.06.3,1.48.09.41.18.76.25,1.04.07.27.14.49.2.65.06.16.12.28.18.36.07.08.13.13.2.17.07.03.15.05.23.05.16,0,.32-.06.47-.19.15-.12.37-.41.65-.84l.58.38c-.42.62-.79,1.05-1.13,1.3s-.73.38-1.19.38c-.26,0-.47-.04-.65-.14-.18-.09-.33-.24-.46-.44-.13-.2-.25-.52-.35-.94-.18-.76-.3-1.34-.34-1.74h-.09c-.63.88-1.1,1.52-1.4,1.9-.31.38-.56.67-.76.85-.2.18-.39.31-.58.39-.19.07-.43.11-.74.11-.28,0-.51-.04-.69-.11l.36-1.61h.62c.04.25.14.37.31.37.08,0,.17-.02.26-.07.09-.04.23-.15.4-.32.17-.17.41-.43.71-.8.3-.36.74-.9,1.32-1.63-.09-.47-.18-.92-.28-1.35-.09-.43-.19-.84-.29-1.21-.1-.37-.18-.62-.25-.73-.07-.12-.13-.2-.21-.24-.07-.04-.17-.07-.28-.07-.13,0-.24.03-.34.09s-.21.16-.33.29c-.12.14-.28.36-.47.65l-.58-.38c.37-.56.73-.99,1.08-1.26.34-.28.75-.42,1.22-.42Z"/>
  <path class="cls-5" d="M560.57,114.53c.58,0,1.08.05,1.5.14l-.35,1.51h-.78c-.08-.34-.19-.58-.32-.73-.14-.15-.33-.22-.59-.22-.34,0-.63.09-.86.28-.23.19-.43.46-.6.83-.17.37-.32.86-.46,1.49l-.22.97h2.29l-.2.9h-2.3l-1.65,7.76c-.27,1.29-.69,2.25-1.26,2.88-.56.63-1.27.95-2.13.95-.25,0-.45-.01-.59-.04l.15-.78c.06.02.2.03.42.03.27,0,.49-.07.68-.2.19-.14.37-.37.53-.71.16-.34.31-.81.45-1.41l1.91-8.46h-1.51l.14-.61c.4-.02.68-.06.86-.1.18-.04.31-.1.41-.19.1-.08.18-.19.25-.32s.16-.38.26-.73c.32-1.07.8-1.87,1.45-2.41.66-.54,1.49-.81,2.51-.81Z"/>
  <path class="cls-5" d="M581.12,113.66c1.73.46,3.06,1.44,3.99,2.96.93,1.52,1.39,3.34,1.39,5.49s-.46,3.98-1.39,5.49c-.92,1.51-2.26,2.49-4,2.95l-.21-.69c1.37-.46,2.39-1.36,3.06-2.71.67-1.35,1-3.06,1-5.13s-.33-3.67-1-5-1.69-2.22-3.09-2.67l.24-.69ZM569.76,113.66l.24.69c-1.39.46-2.41,1.35-3.08,2.67s-1,2.99-1,5,.33,3.79,1,5.13c.67,1.35,1.69,2.25,3.06,2.71l-.21.69c-1.74-.46-3.07-1.44-4-2.95-.93-1.51-1.39-3.34-1.39-5.49s.46-3.97,1.39-5.49c.93-1.52,2.26-2.5,3.99-2.96Z"/>
  <path class="cls-5" d="M573.84,118.65c.18,0,.35.02.49.06.14.04.26.11.37.19.11.09.2.2.29.33.08.14.16.32.24.56.08.23.15.53.22.87.07.35.13.71.18,1.08h.09c.57-.8,1-1.39,1.29-1.76.29-.37.54-.65.74-.83.2-.18.4-.31.58-.38.19-.07.43-.11.74-.11.28,0,.51.04.69.11l-.36,1.61h-.62c-.04-.25-.14-.37-.31-.37-.05,0-.11,0-.17.03-.06.02-.13.06-.22.12-.09.06-.21.18-.38.35-.17.17-.35.38-.56.63-.21.25-.42.51-.64.78l-.61.76c.11.57.21,1.06.3,1.48.09.42.18.76.25,1.04.07.28.14.49.2.65s.12.28.18.36c.07.08.13.14.2.17.07.03.15.05.24.05.16,0,.32-.06.47-.19.15-.12.37-.41.65-.85l.58.38c-.42.62-.79,1.05-1.13,1.3s-.73.38-1.2.38c-.25,0-.47-.05-.65-.14-.18-.09-.33-.24-.46-.44-.13-.2-.25-.52-.35-.94-.18-.76-.3-1.34-.34-1.74h-.09c-.63.88-1.1,1.52-1.4,1.9-.31.39-.56.67-.76.85-.2.18-.39.31-.58.39-.19.07-.44.11-.74.11-.28,0-.51-.04-.68-.11l.36-1.61h.62c.04.25.14.37.31.37.08,0,.17-.02.26-.07.09-.04.23-.15.4-.32.17-.17.41-.43.71-.8.3-.36.74-.9,1.32-1.63-.09-.47-.18-.92-.28-1.35-.09-.43-.19-.84-.29-1.21-.1-.37-.18-.62-.25-.73-.07-.12-.14-.2-.21-.24-.07-.04-.17-.07-.28-.07-.12,0-.24.03-.34.08-.1.06-.21.15-.33.29-.12.14-.28.36-.47.65l-.58-.38c.37-.56.73-.98,1.08-1.26s.75-.42,1.22-.42Z"/>
  <path class="cls-5" d="M594.48,123.35h10.96v1.18h-10.96v-1.18ZM594.48,119.66h10.96v1.18h-10.96v-1.18Z"/>
  <path class="cls-5" d="M613.08,121.39h10.96v6.28h-1.26v-5.11h-9.7v-1.17Z"/>
  <path class="cls-5" d="M628.8,118.65c.18,0,.35.02.49.06.14.04.26.11.37.19.11.09.2.2.29.33.08.14.16.32.24.56.08.23.15.53.22.87.07.35.13.71.18,1.08h.09c.57-.8,1-1.39,1.29-1.76.29-.37.54-.65.74-.83.2-.18.4-.31.58-.38.19-.07.43-.11.74-.11.28,0,.51.04.68.11l-.36,1.61h-.62c-.03-.25-.14-.37-.31-.37-.05,0-.11,0-.17.03-.06.02-.13.06-.22.12-.09.06-.21.18-.38.35-.17.17-.35.38-.56.63-.21.25-.42.51-.64.78l-.61.76c.11.57.21,1.06.3,1.48.1.42.18.76.25,1.04.07.28.14.49.2.65s.12.28.18.36c.07.08.13.14.2.17.07.03.15.05.24.05.16,0,.31-.06.47-.19.15-.12.37-.41.65-.85l.58.38c-.41.62-.79,1.05-1.12,1.3s-.73.38-1.2.38c-.25,0-.47-.05-.65-.14-.18-.09-.33-.24-.46-.44-.13-.2-.25-.52-.35-.94-.18-.76-.3-1.34-.34-1.74h-.09c-.63.88-1.1,1.52-1.4,1.9-.31.39-.56.67-.76.85-.2.18-.39.31-.58.39-.19.07-.44.11-.74.11-.28,0-.51-.04-.68-.11l.36-1.61h.62c.04.25.14.37.31.37.08,0,.17-.02.26-.07.09-.04.22-.15.4-.32.17-.17.41-.43.71-.8.3-.36.74-.9,1.32-1.63-.09-.47-.18-.92-.28-1.35-.09-.43-.19-.84-.29-1.21-.1-.37-.18-.62-.25-.73-.07-.12-.14-.2-.21-.24-.07-.04-.17-.07-.28-.07-.12,0-.24.03-.34.08-.1.06-.21.15-.33.29-.12.14-.28.36-.47.65l-.58-.38c.37-.56.73-.98,1.08-1.26.34-.28.75-.42,1.22-.42Z"/>
  <g>
    <path class="cls-7" d="M148.8,511.35c-1.05.55-2.37.82-3.94.82-2.03,0-3.66-.64-4.88-1.92s-1.84-2.97-1.84-5.05c0-2.24.69-4.05,2.07-5.43s3.12-2.07,5.22-2.07c1.35,0,2.48.19,3.37.58v2.3c-.94-.56-1.99-.84-3.12-.84-1.52,0-2.75.49-3.69,1.46s-1.41,2.27-1.41,3.89.44,2.77,1.32,3.69,2.03,1.37,3.47,1.37c1.32,0,2.47-.31,3.44-.94v2.15Z"/>
    <path class="cls-7" d="M160.97,512.17c-2.02,0-3.63-.65-4.85-1.96s-1.82-3.01-1.82-5.11c0-2.25.62-4.05,1.86-5.39s2.92-2.01,5.04-2.01c1.97,0,3.55.65,4.75,1.95s1.8,3,1.8,5.11c0,2.29-.62,4.09-1.85,5.42s-2.87,1.99-4.93,1.99ZM161.08,499.74c-1.28,0-2.33.48-3.13,1.44s-1.21,2.22-1.21,3.78.39,2.81,1.17,3.76,1.8,1.43,3.07,1.43c1.34,0,2.4-.45,3.17-1.36s1.16-2.17,1.16-3.8-.38-2.97-1.13-3.88-1.79-1.37-3.11-1.37Z"/>
    <path class="cls-7" d="M186.19,511.94h-2.54l-6.69-10.29c-.17-.26-.31-.53-.42-.81h-.06c.05.3.08.94.08,1.92v9.18h-2.25v-14h2.71l6.46,10.05c.27.42.45.7.53.86h.04c-.06-.37-.1-1-.1-1.88v-9.02h2.24v14Z"/>
    <path class="cls-7" d="M193.02,511.38v-2.39c.21.2.47.37.77.53s.61.29.94.4.66.19,1,.25.64.09.92.09c.98,0,1.7-.16,2.18-.49s.72-.8.72-1.42c0-.33-.08-.62-.24-.86s-.38-.47-.67-.67-.62-.4-1.01-.58-.8-.38-1.25-.58c-.48-.25-.92-.51-1.33-.77s-.77-.55-1.07-.86-.54-.67-.71-1.07-.26-.86-.26-1.4c0-.66.15-1.23.44-1.71s.69-.89,1.17-1.2,1.04-.55,1.66-.7,1.25-.23,1.89-.23c1.46,0,2.53.17,3.2.5v2.29c-.79-.57-1.82-.86-3.07-.86-.35,0-.69.03-1.03.1s-.65.17-.92.32-.49.34-.66.58-.25.52-.25.85c0,.31.06.58.2.81s.32.44.57.62.56.37.92.55.78.37,1.25.58c.49.25.95.52,1.38.8s.81.59,1.14.93.59.71.78,1.13.29.88.29,1.41c0,.71-.14,1.31-.43,1.8s-.67.89-1.16,1.19-1.04.53-1.67.66-1.3.21-2,.21c-.23,0-.52-.02-.86-.05s-.69-.09-1.05-.16-.7-.15-1.02-.25-.58-.21-.77-.33Z"/>
    <path class="cls-7" d="M217.53,499.9h-4.02v12.03h-2.32v-12.03h-4.01v-1.97h10.36v1.97Z"/>
    <path class="cls-7" d="M233.63,511.94h-2.55l-1.26-3.56h-5.51l-1.21,3.56h-2.54l5.24-14h2.62l5.21,14ZM229.21,506.48l-1.94-5.59c-.06-.18-.12-.48-.19-.88h-.04c-.06.37-.12.66-.2.88l-1.92,5.59h4.29Z"/>
    <path class="cls-7" d="M251.43,511.94h-2.54l-6.69-10.29c-.17-.26-.31-.53-.42-.81h-.06c.05.3.08.94.08,1.92v9.18h-2.25v-14h2.71l6.46,10.05c.27.42.45.7.53.86h.04c-.06-.37-.1-1-.1-1.88v-9.02h2.24v14Z"/>
    <path class="cls-7" d="M267.88,499.9h-4.02v12.03h-2.32v-12.03h-4.01v-1.97h10.36v1.97Z"/>
  </g>
  <g>
    <path class="cls-7" d="M551.5,497.48l-5.03,14h-2.6l-4.94-14h2.54l3.46,10.62c.11.34.2.73.25,1.18h.04c.05-.37.14-.77.28-1.2l3.54-10.61h2.46Z"/>
    <path class="cls-7" d="M567.76,511.48h-2.55l-1.26-3.56h-5.51l-1.21,3.56h-2.54l5.24-14h2.62l5.21,14ZM563.34,506.02l-1.94-5.59c-.06-.18-.12-.48-.19-.88h-.04c-.06.37-.12.66-.2.88l-1.92,5.59h4.29Z"/>
    <path class="cls-7" d="M584.5,511.48h-2.71l-2.24-3.75c-.2-.34-.4-.64-.59-.88s-.39-.44-.59-.6-.42-.27-.65-.34-.5-.11-.79-.11h-.94v5.68h-2.31v-14h4.61c.66,0,1.26.08,1.82.23s1.04.39,1.45.71.73.71.96,1.18.35,1.02.35,1.66c0,.5-.07.95-.22,1.36s-.35.78-.62,1.1-.6.6-.98.83-.81.4-1.28.53v.04c.25.14.48.3.66.47s.37.35.54.53.34.39.5.62.35.5.55.81l2.49,3.94ZM576,499.36v4.55h1.93c.36,0,.69-.06.99-.17s.56-.27.79-.48.39-.46.52-.76.19-.63.19-1.01c0-.67-.21-1.19-.63-1.57s-1.03-.57-1.83-.57h-1.95Z"/>
    <path class="cls-7" d="M592.52,511.48h-2.39v-14h2.39v14Z"/>
    <path class="cls-7" d="M611.47,511.48h-2.55l-1.26-3.56h-5.51l-1.21,3.56h-2.54l5.24-14h2.62l5.21,14ZM607.05,506.02l-1.94-5.59c-.06-.18-.12-.48-.19-.88h-.04c-.06.37-.12.66-.2.88l-1.92,5.59h4.29Z"/>
    <path class="cls-7" d="M617.39,511.48v-14h4.44c1.35,0,2.43.3,3.22.89s1.19,1.36,1.19,2.31c0,.79-.22,1.48-.67,2.07s-1.07,1-1.87,1.25v.04c.96.11,1.73.47,2.31,1.07s.86,1.38.86,2.35c0,1.2-.47,2.17-1.42,2.91s-2.14,1.11-3.57,1.11h-4.49ZM619.71,499.34v3.98h1.5c.81,0,1.44-.19,1.9-.57s.69-.92.69-1.62c0-1.2-.8-1.8-2.4-1.8h-1.69ZM619.71,505.19v4.43h1.98c.87,0,1.53-.2,2.01-.6s.71-.95.71-1.66c0-1.45-1.01-2.18-3.02-2.18h-1.68Z"/>
    <path class="cls-7" d="M641.23,511.48h-7.75v-14h2.32v12.04h5.43v1.96Z"/>
    <path class="cls-7" d="M655.11,511.48h-7.86v-14h7.55v1.97h-5.22v3.96h4.81v1.96h-4.81v4.14h5.54v1.96Z"/>
  </g>
</svg>