<svg width="738" height="374" viewBox="0 0 738 374" fill="none" xmlns="http://www.w3.org/2000/svg">
<g clip-path="url(#clip0_5_635)">
<path fill-rule="evenodd" clip-rule="evenodd" d="M7.29999 188.6C7.29999 111.777 69.5772 49.5 146.4 49.5C223.222 49.5 285.5 111.777 285.5 188.6C285.5 265.422 223.222 327.7 146.4 327.7C69.5772 327.7 7.29999 265.422 7.29999 188.6Z" stroke="#747474" stroke-width="1.375" stroke-miterlimit="8"/>
<path fill-rule="evenodd" clip-rule="evenodd" d="M279.4 188.7C279.4 185.442 282.086 182.8 285.4 182.8C288.714 182.8 291.4 185.442 291.4 188.7C291.4 191.958 288.714 194.6 285.4 194.6C282.086 194.6 279.4 191.958 279.4 188.7Z" fill="white" stroke="black" stroke-width="1.14583" stroke-miterlimit="8"/>
<path fill-rule="evenodd" clip-rule="evenodd" d="M140.5 49.4C140.5 46.1416 143.142 43.5 146.4 43.5C149.658 43.5 152.3 46.1416 152.3 49.4C152.3 52.6586 149.658 55.3 146.4 55.3C143.142 55.3 140.5 52.6586 140.5 49.4Z" fill="white" stroke="black" stroke-width="1.375" stroke-miterlimit="8"/>
<path fill-rule="evenodd" clip-rule="evenodd" d="M1.29999 188.8C1.29999 185.542 3.98619 182.9 7.29999 182.9C10.6138 182.9 13.3 185.542 13.3 188.8C13.3 192.058 10.6138 194.7 7.29999 194.7C3.98619 194.7 1.29999 192.058 1.29999 188.8Z" fill="white" stroke="black" stroke-width="1.375" stroke-miterlimit="8"/>
<path fill-rule="evenodd" clip-rule="evenodd" d="M140.5 327.8C140.5 324.542 143.142 321.9 146.4 321.9C149.658 321.9 152.3 324.542 152.3 327.8C152.3 331.058 149.658 333.7 146.4 333.7C143.142 333.7 140.5 331.058 140.5 327.8Z" fill="white" stroke="black" stroke-width="1.375" stroke-miterlimit="8"/>
<path fill-rule="evenodd" clip-rule="evenodd" d="M240.2 92.3C240.2 89.0416 242.886 86.4 246.2 86.4C249.514 86.4 252.2 89.0416 252.2 92.3C252.2 95.5586 249.514 98.2 246.2 98.2C242.886 98.2 240.2 95.5586 240.2 92.3Z" fill="#0070C0"/>
<path fill-rule="evenodd" clip-rule="evenodd" d="M240.3 285.4C240.3 282.142 242.986 279.5 246.3 279.5C249.614 279.5 252.3 282.142 252.3 285.4C252.3 288.658 249.614 291.3 246.3 291.3C242.986 291.3 240.3 288.658 240.3 285.4Z" fill="white" stroke="black" stroke-width="1.375" stroke-miterlimit="8"/>
<path fill-rule="evenodd" clip-rule="evenodd" d="M40.5 92.4C40.5 89.1416 43.1862 86.5 46.5 86.5C49.8138 86.5 52.5 89.1416 52.5 92.4C52.5 95.6584 49.8138 98.3 46.5 98.3C43.1862 98.3 40.5 95.6584 40.5 92.4Z" fill="white" stroke="black" stroke-width="1.375" stroke-miterlimit="8"/>
<path fill-rule="evenodd" clip-rule="evenodd" d="M40.4 285.3C40.4 282.042 43.0862 279.4 46.4 279.4C49.7136 279.4 52.4 282.042 52.4 285.3C52.4 288.558 49.7136 291.2 46.4 291.2C43.0862 291.2 40.4 288.558 40.4 285.3Z" fill="#0070C0"/>
<path fill-rule="evenodd" clip-rule="evenodd" d="M358.3 188.6C358.3 111.777 420.532 49.5 497.3 49.5C574.068 49.5 636.3 111.777 636.3 188.6C636.3 265.422 574.068 327.7 497.3 327.7C420.532 327.7 358.3 265.422 358.3 188.6Z" stroke="#747474" stroke-width="1.375" stroke-miterlimit="8"/>
<path fill-rule="evenodd" clip-rule="evenodd" d="M630.3 188.8C630.3 185.542 632.986 182.9 636.3 182.9C639.614 182.9 642.3 185.542 642.3 188.8C642.3 192.058 639.614 194.7 636.3 194.7C632.986 194.7 630.3 192.058 630.3 188.8Z" fill="white" stroke="black" stroke-width="1.375" stroke-miterlimit="8"/>
<path fill-rule="evenodd" clip-rule="evenodd" d="M491.3 49.4C491.3 46.1416 493.986 43.5 497.3 43.5C500.614 43.5 503.3 46.1416 503.3 49.4C503.3 52.6586 500.614 55.3 497.3 55.3C493.986 55.3 491.3 52.6586 491.3 49.4Z" fill="white" stroke="black" stroke-width="1.375" stroke-miterlimit="8"/>
<path fill-rule="evenodd" clip-rule="evenodd" d="M352.3 188.8C352.3 185.542 354.942 182.9 358.2 182.9C361.458 182.9 364.1 185.542 364.1 188.8C364.1 192.058 361.458 194.7 358.2 194.7C354.942 194.7 352.3 192.058 352.3 188.8Z" fill="white" stroke="black" stroke-width="1.375" stroke-miterlimit="8"/>
<path fill-rule="evenodd" clip-rule="evenodd" d="M491.3 327.8C491.3 324.542 493.986 321.9 497.3 321.9C500.614 321.9 503.3 324.542 503.3 327.8C503.3 331.058 500.614 333.7 497.3 333.7C493.986 333.7 491.3 331.058 491.3 327.8Z" fill="white" stroke="black" stroke-width="1.375" stroke-miterlimit="8"/>
<path fill-rule="evenodd" clip-rule="evenodd" d="M591.3 92.4C591.3 89.1416 593.942 86.5 597.2 86.5C600.458 86.5 603.1 89.1416 603.1 92.4C603.1 95.6584 600.458 98.3 597.2 98.3C593.942 98.3 591.3 95.6584 591.3 92.4Z" fill="white" stroke="#0070C0" stroke-width="1.375" stroke-miterlimit="8"/>
<path fill-rule="evenodd" clip-rule="evenodd" d="M591.2 285.3C591.2 282.042 593.842 279.4 597.1 279.4C600.358 279.4 603 282.042 603 285.3C603 288.558 600.358 291.2 597.1 291.2C593.842 291.2 591.2 288.558 591.2 285.3Z" fill="#0070C0"/>
<path fill-rule="evenodd" clip-rule="evenodd" d="M391.4 92.3C391.4 89.0416 394.042 86.4 397.3 86.4C400.558 86.4 403.2 89.0416 403.2 92.3C403.2 95.5586 400.558 98.2 397.3 98.2C394.042 98.2 391.4 95.5586 391.4 92.3Z" fill="#0070C0"/>
<path fill-rule="evenodd" clip-rule="evenodd" d="M391.5 285.4C391.5 282.142 394.142 279.5 397.4 279.5C400.658 279.5 403.3 282.142 403.3 285.4C403.3 288.658 400.658 291.3 397.4 291.3C394.142 291.3 391.5 288.658 391.5 285.4Z" fill="white" stroke="black" stroke-width="1.375" stroke-miterlimit="8"/>
<path d="M246.788 85.4275V70.3244L246.1 71.0119H268.235L267.548 70.3244V92.3999L268.235 91.7124H252.059V93.0874H268.923V69.6369H245.413V85.4275H246.788ZM240.989 80.3676L246.1 86.5014L251.211 80.3676C251.455 80.076 251.415 79.6424 251.123 79.3994C250.832 79.1563 250.398 79.1957 250.155 79.4874L245.572 84.9874H246.628L242.045 79.4874C241.802 79.1957 241.368 79.1563 241.077 79.3994C240.785 79.6424 240.745 80.076 240.989 80.3676Z" fill="#0070C0"/>
<path d="M198.79 136.208L93.7868 238.514L94.7464 239.499L199.75 137.192L198.79 136.208ZM94.3248 231.813L93.4986 239.755L101.459 239.136C101.837 239.106 102.12 238.775 102.091 238.397C102.061 238.018 101.731 237.735 101.352 237.765L94.2144 238.32L94.9516 239.077L95.6924 231.956C95.7316 231.578 95.4574 231.24 95.0798 231.201C94.702 231.161 94.364 231.436 94.3248 231.813Z" fill="#0070C0"/>
<path d="M603.1 91.6126H661.538V285.96H605.09V284.586H660.85L660.162 285.272V92.3L660.85 92.9876H603.1V91.6126ZM610.15 290.384L604.016 285.272L610.15 280.162C610.44 279.918 610.874 279.958 611.118 280.25C611.36 280.54 611.322 280.974 611.03 281.218L605.53 285.8V284.744L611.03 289.328C611.322 289.57 611.36 290.004 611.118 290.296C610.874 290.588 610.44 290.628 610.15 290.384Z" fill="#0070C0"/>
<path d="M397.212 85.7442V29.3312H598.37V85.9H596.996V30.0186L597.682 30.7062H397.9L398.588 30.0186V85.7442H397.212ZM403.012 80.6844L397.9 86.8182L392.788 80.6844C392.546 80.3926 392.584 79.9592 392.876 79.716C393.168 79.473 393.602 79.5124 393.844 79.8042L398.428 85.3042H397.372L401.956 79.8042C402.198 79.5124 402.632 79.473 402.924 79.716C403.216 79.9592 403.254 80.3926 403.012 80.6844Z" fill="#0070C0"/>
<path fill-rule="evenodd" clip-rule="evenodd" d="M231.432 48.0528C231.948 48.0528 232.394 48.095 232.768 48.1792L232.46 49.524H231.764C231.69 49.2234 231.594 49.0072 231.476 48.8754C231.356 48.7436 231.182 48.6776 230.95 48.6776C230.648 48.6776 230.394 48.7606 230.186 48.9268C229.978 49.093 229.8 49.3394 229.652 49.6664C229.504 49.9934 229.368 50.4336 229.24 50.9874L229.044 51.8496H231.076L230.902 52.6486H228.862L227.39 59.5462C227.148 60.6906 226.776 61.5434 226.274 62.1052C225.774 62.6668 225.144 62.9476 224.384 62.9476C224.162 62.9476 223.988 62.9344 223.862 62.908L223.996 62.212C224.05 62.2278 224.174 62.2356 224.368 62.2356C224.606 62.2356 224.808 62.175 224.978 62.0538C225.146 61.9324 225.302 61.7214 225.448 61.4208C225.592 61.1204 225.726 60.7038 225.848 60.171L227.548 52.6486H226.212L226.33 52.1028C226.684 52.0816 226.938 52.0526 227.094 52.0158C227.248 51.9788 227.37 51.9234 227.458 51.8496C227.544 51.7758 227.618 51.6796 227.678 51.5608C227.74 51.4422 227.816 51.2248 227.912 50.9082C228.192 49.959 228.622 49.2458 229.206 48.7686C229.788 48.2914 230.53 48.0528 231.432 48.0528Z" fill="#0078D4"/>
<path fill-rule="evenodd" clip-rule="evenodd" d="M249.704 47.2848C251.242 47.691 252.426 48.5676 253.25 49.915C254.076 51.2624 254.488 52.8878 254.488 54.7916C254.488 56.7006 254.078 58.3262 253.254 59.6682C252.432 61.0104 251.248 61.8844 249.704 62.2904L249.514 61.6814C250.732 61.2752 251.638 60.4738 252.23 59.2766C252.824 58.0796 253.12 56.5582 253.12 54.7126C253.12 52.93 252.824 51.4496 252.234 50.271C251.644 49.0924 250.728 48.3 249.49 47.894L249.704 47.2848ZM239.6 47.2848L239.814 47.894C238.58 48.3 237.666 49.0924 237.072 50.271C236.48 51.4496 236.182 52.93 236.182 54.7126C236.182 56.5582 236.48 58.0796 237.072 59.2766C237.666 60.4738 238.572 61.2752 239.79 61.6814L239.6 62.2904C238.054 61.8844 236.87 61.0104 236.048 59.6682C235.226 58.3262 234.814 56.7006 234.814 54.7916C234.814 52.8878 235.226 51.2624 236.052 49.915C236.878 48.5676 238.06 47.691 239.6 47.2848Z" fill="#0078D4"/>
<path fill-rule="evenodd" clip-rule="evenodd" d="M243.23 51.7152C243.392 51.7152 243.536 51.7336 243.66 51.7706C243.784 51.8074 243.894 51.8642 243.988 51.9406C244.084 52.017 244.168 52.116 244.242 52.2372C244.316 52.3584 244.386 52.5232 244.456 52.7316C244.524 52.9398 244.588 53.1982 244.65 53.5068C244.71 53.8152 244.764 54.1356 244.812 54.4678H244.89C245.396 53.756 245.78 53.2352 246.042 52.9056C246.302 52.576 246.522 52.3308 246.702 52.17C246.882 52.0092 247.054 51.8958 247.22 51.8298C247.386 51.764 247.606 51.731 247.88 51.731C248.128 51.731 248.332 51.7626 248.49 51.8258L248.174 53.2576H247.62C247.588 53.0362 247.496 52.9254 247.342 52.9254C247.296 52.9254 247.244 52.9332 247.192 52.9492C247.14 52.965 247.074 52.9992 246.998 53.052C246.922 53.1046 246.81 53.2076 246.662 53.3604C246.514 53.5134 246.348 53.7006 246.164 53.922C245.98 54.1436 245.79 54.3756 245.594 54.6182L245.056 55.2906C245.152 55.7968 245.242 56.2344 245.326 56.6036C245.41 56.9728 245.484 57.28 245.55 57.5252C245.616 57.7704 245.674 57.9642 245.724 58.1066C245.776 58.249 245.83 58.3558 245.888 58.4268C245.946 58.498 246.004 58.5482 246.066 58.5772C246.126 58.6062 246.196 58.6206 246.274 58.6206C246.418 58.6206 246.556 58.5654 246.69 58.4546C246.824 58.3438 247.018 58.0934 247.272 57.7032L247.786 58.0432C247.416 58.5916 247.082 58.978 246.784 59.202C246.486 59.4262 246.132 59.5382 245.72 59.5382C245.494 59.5382 245.302 59.4974 245.144 59.4156C244.986 59.334 244.848 59.2034 244.732 59.0242C244.616 58.8448 244.514 58.5654 244.424 58.1856C244.26 57.5106 244.16 56.9938 244.124 56.6352H244.044C243.486 57.421 243.07 57.9852 242.798 58.328C242.526 58.6708 242.302 58.924 242.126 59.0874C241.95 59.2508 241.778 59.3656 241.612 59.4314C241.446 59.4974 241.226 59.5304 240.952 59.5304C240.704 59.5304 240.5 59.4988 240.342 59.4354L240.658 58.0038H241.212C241.244 58.2252 241.336 58.336 241.49 58.336C241.562 58.336 241.64 58.3162 241.722 58.2766C241.804 58.237 241.922 58.1422 242.074 57.9918C242.228 57.8416 242.438 57.6056 242.708 57.2838C242.976 56.9622 243.366 56.4796 243.878 55.8364C243.798 55.4198 243.718 55.019 243.632 54.634C243.548 54.249 243.462 53.8904 243.372 53.5582C243.282 53.226 243.208 53.0084 243.15 52.9056C243.092 52.8028 243.03 52.7316 242.964 52.692C242.898 52.6524 242.816 52.6328 242.716 52.6328C242.604 52.6328 242.504 52.6578 242.414 52.7078C242.324 52.758 242.228 52.845 242.122 52.9688C242.016 53.0928 241.876 53.2866 241.702 53.5502L241.188 53.2102C241.52 52.7092 241.84 52.3348 242.146 52.087C242.452 51.839 242.812 51.7152 243.23 51.7152Z" fill="#0078D4"/>
<path fill-rule="evenodd" clip-rule="evenodd" d="M261.578 55.8996H271.324V56.9516H261.578V55.8996ZM261.578 52.6168H271.324V53.669H261.578V52.6168Z" fill="#0078D4"/>
<path fill-rule="evenodd" clip-rule="evenodd" d="M281.412 49.1602C281.048 49.1602 280.744 49.2682 280.498 49.4844C280.254 49.7006 280.056 50.0118 279.906 50.4178C279.756 50.824 279.648 51.3184 279.586 51.901C279.522 52.4838 279.49 53.1416 279.49 53.8746C279.49 55.5938 279.65 56.8554 279.968 57.6596C280.288 58.4638 280.782 58.866 281.452 58.866C282.09 58.866 282.564 58.4876 282.872 57.7308C283.18 56.974 283.334 55.802 283.334 54.2148C283.334 53.0018 283.256 52.0196 283.098 51.2682C282.938 50.5168 282.718 49.9776 282.436 49.6506C282.154 49.3236 281.814 49.1602 281.412 49.1602ZM281.452 48.4878C282.606 48.4878 283.466 48.9334 284.03 49.8246C284.594 50.7158 284.876 52.0632 284.876 53.8666C284.876 55.7334 284.576 57.1454 283.972 58.1026C283.368 59.0598 282.486 59.5382 281.326 59.5382C280.186 59.5382 279.338 59.09 278.782 58.1936C278.226 57.297 277.948 55.9366 277.948 54.112C277.948 53.1416 278.034 52.3032 278.204 51.5964C278.376 50.8898 278.616 50.3058 278.924 49.8444C279.234 49.383 279.604 49.0414 280.036 48.82C280.468 48.5986 280.94 48.4878 281.452 48.4878Z" fill="#0078D4"/>
<path fill-rule="evenodd" clip-rule="evenodd" d="M94.253 164.01C94.7826 164.01 95.2392 164.053 95.6228 164.14L95.3068 165.518H94.5934C94.5178 165.21 94.4192 164.988 94.2976 164.853C94.176 164.718 93.9964 164.65 93.7586 164.65C93.4506 164.65 93.1898 164.735 92.9764 164.906C92.763 165.076 92.5806 165.328 92.4294 165.664C92.278 165.998 92.1376 166.45 92.0078 167.018L91.8052 167.9H93.8884L93.71 168.72H91.6188L90.1112 175.788C89.8626 176.96 89.4816 177.834 88.9682 178.41C88.455 178.984 87.8092 179.272 87.031 179.272C86.8042 179.272 86.6258 179.26 86.4962 179.232L86.634 178.518C86.688 178.534 86.815 178.544 87.0148 178.544C87.258 178.544 87.466 178.48 87.639 178.356C87.812 178.232 87.9726 178.016 88.1212 177.708C88.2698 177.4 88.4064 176.974 88.5306 176.428L90.2732 168.72H88.9034L89.025 168.16C89.387 168.138 89.6478 168.108 89.8072 168.07C89.9666 168.032 90.091 167.976 90.18 167.9C90.2692 167.824 90.3448 167.726 90.407 167.604C90.4692 167.484 90.5488 167.26 90.6462 166.936C90.9326 165.964 91.3742 165.232 91.9714 164.744C92.5684 164.255 93.329 164.01 94.253 164.01Z" fill="#0078D4"/>
<path fill-rule="evenodd" clip-rule="evenodd" d="M112.848 163.227C114.426 163.643 115.638 164.541 116.483 165.922C117.329 167.302 117.752 168.968 117.752 170.918C117.752 172.874 117.33 174.54 116.487 175.916C115.644 177.29 114.431 178.186 112.848 178.602L112.653 177.978C113.902 177.562 114.83 176.742 115.438 175.514C116.046 174.288 116.349 172.728 116.349 170.838C116.349 169.012 116.047 167.494 115.442 166.286C114.836 165.079 113.899 164.267 112.629 163.851L112.848 163.227ZM102.514 163.227L102.733 163.851C101.468 164.267 100.532 165.079 99.9242 166.286C99.3162 167.494 99.0122 169.012 99.0122 170.838C99.0122 172.728 99.3162 174.288 99.9242 175.514C100.532 176.742 101.46 177.562 102.708 177.978L102.514 178.602C100.931 178.186 99.7174 177.29 98.8744 175.916C98.0316 174.54 97.61 172.874 97.61 170.918C97.61 168.968 98.0328 167.302 98.8786 165.922C99.7242 164.541 100.936 163.643 102.514 163.227Z" fill="#0078D4"/>
<path fill-rule="evenodd" clip-rule="evenodd" d="M106.2 167.762C106.368 167.762 106.515 167.782 106.642 167.82C106.769 167.858 106.881 167.916 106.978 167.994C107.076 168.072 107.162 168.174 107.238 168.298C107.313 168.422 107.386 168.59 107.457 168.804C107.527 169.018 107.593 169.282 107.655 169.598C107.717 169.914 107.773 170.244 107.821 170.584H107.902C108.421 169.854 108.814 169.32 109.082 168.982C109.349 168.644 109.575 168.394 109.759 168.228C109.942 168.064 110.119 167.948 110.289 167.88C110.46 167.812 110.685 167.78 110.966 167.78C111.22 167.78 111.428 167.812 111.59 167.876L111.266 169.344H110.699C110.666 169.116 110.572 169.002 110.415 169.002C110.366 169.002 110.315 169.012 110.261 169.028C110.207 169.044 110.141 169.078 110.062 169.132C109.984 169.186 109.869 169.292 109.718 169.448C109.567 169.606 109.396 169.798 109.207 170.024C109.018 170.252 108.824 170.488 108.624 170.738L108.073 171.426C108.17 171.946 108.262 172.394 108.348 172.772C108.435 173.15 108.512 173.466 108.579 173.716C108.647 173.968 108.706 174.166 108.757 174.312C108.809 174.458 108.864 174.568 108.924 174.64C108.983 174.714 109.044 174.764 109.106 174.794C109.168 174.824 109.24 174.838 109.321 174.838C109.467 174.838 109.609 174.782 109.746 174.668C109.884 174.556 110.083 174.298 110.342 173.898L110.869 174.248C110.491 174.81 110.149 175.204 109.844 175.434C109.538 175.664 109.175 175.78 108.753 175.78C108.521 175.78 108.324 175.738 108.162 175.654C108 175.57 107.859 175.436 107.74 175.252C107.621 175.068 107.516 174.782 107.424 174.394C107.257 173.702 107.154 173.172 107.116 172.804H107.035C106.462 173.61 106.037 174.188 105.758 174.538C105.48 174.89 105.251 175.15 105.069 175.318C104.888 175.484 104.713 175.602 104.543 175.67C104.372 175.738 104.147 175.772 103.866 175.772C103.612 175.772 103.404 175.738 103.242 175.674L103.566 174.206H104.133C104.166 174.434 104.26 174.548 104.417 174.548C104.493 174.548 104.572 174.526 104.656 174.486C104.74 174.446 104.86 174.348 105.017 174.194C105.174 174.04 105.39 173.798 105.665 173.47C105.941 173.14 106.341 172.646 106.865 171.986C106.784 171.558 106.7 171.148 106.614 170.754C106.527 170.36 106.438 169.992 106.346 169.652C106.254 169.31 106.179 169.088 106.119 168.982C106.06 168.878 105.996 168.804 105.929 168.764C105.861 168.724 105.776 168.704 105.673 168.704C105.56 168.704 105.457 168.728 105.365 168.78C105.273 168.832 105.174 168.92 105.065 169.048C104.957 169.174 104.814 169.374 104.636 169.644L104.109 169.294C104.449 168.782 104.776 168.398 105.09 168.144C105.403 167.89 105.773 167.762 106.2 167.762Z" fill="#0078D4"/>
<path fill-rule="evenodd" clip-rule="evenodd" d="M124.96 172.05H134.946V173.128H124.96V172.05ZM124.96 168.686H134.946V169.764H124.96V168.686Z" fill="#0078D4"/>
<path fill-rule="evenodd" clip-rule="evenodd" d="M145.946 164.456H146.392C146.36 164.975 146.344 165.694 146.344 166.612V173.534C146.344 173.848 146.362 174.084 146.396 174.244C146.432 174.402 146.494 174.532 146.582 174.632C146.672 174.732 146.8 174.81 146.968 174.868C147.136 174.924 147.346 174.968 147.6 174.996C147.854 175.026 148.188 175.046 148.604 175.058V175.65H142.614V175.058C143.214 175.03 143.644 174.994 143.9 174.948C144.156 174.902 144.352 174.834 144.488 174.742C144.622 174.65 144.722 174.52 144.784 174.352C144.846 174.186 144.876 173.912 144.876 173.534V166.96C144.876 166.744 144.838 166.586 144.762 166.486C144.688 166.386 144.576 166.336 144.43 166.336C144.258 166.336 144.012 166.426 143.694 166.604C143.374 166.782 142.98 167.028 142.51 167.342L142.152 166.718L145.946 164.456Z" fill="#0078D4"/>
<path fill-rule="evenodd" clip-rule="evenodd" d="M676.048 183.182C676.564 183.182 677.01 183.226 677.384 183.31L677.076 184.654H676.38C676.306 184.354 676.21 184.138 676.092 184.006C675.972 183.874 675.798 183.808 675.564 183.808C675.264 183.808 675.01 183.89 674.802 184.056C674.594 184.224 674.416 184.47 674.268 184.796C674.12 185.124 673.982 185.564 673.856 186.118L673.658 186.98H675.692L675.518 187.778H673.476L672.006 194.676C671.762 195.82 671.392 196.674 670.89 197.236C670.39 197.796 669.758 198.078 669 198.078C668.778 198.078 668.604 198.064 668.478 198.038L668.612 197.342C668.664 197.358 668.788 197.366 668.984 197.366C669.222 197.366 669.424 197.306 669.592 197.184C669.762 197.062 669.918 196.852 670.064 196.552C670.208 196.25 670.342 195.834 670.462 195.302L672.164 187.778H670.826L670.946 187.232C671.298 187.212 671.554 187.182 671.708 187.146C671.864 187.108 671.986 187.054 672.072 186.98C672.16 186.906 672.234 186.81 672.294 186.692C672.354 186.572 672.432 186.354 672.528 186.038C672.806 185.09 673.238 184.376 673.82 183.898C674.404 183.422 675.146 183.182 676.048 183.182Z" fill="#0078D4"/>
<path fill-rule="evenodd" clip-rule="evenodd" d="M694.318 182.416C695.858 182.822 697.042 183.698 697.866 185.046C698.692 186.392 699.104 188.018 699.104 189.922C699.104 191.83 698.692 193.456 697.87 194.798C697.048 196.14 695.864 197.014 694.318 197.42L694.128 196.812C695.346 196.406 696.252 195.604 696.846 194.406C697.44 193.21 697.736 191.688 697.736 189.842C697.736 188.06 697.44 186.58 696.85 185.402C696.26 184.222 695.344 183.43 694.106 183.024L694.318 182.416ZM684.216 182.416L684.428 183.024C683.194 183.43 682.282 184.222 681.688 185.402C681.094 186.58 680.798 188.06 680.798 189.842C680.798 191.688 681.094 193.21 681.688 194.406C682.282 195.604 683.186 196.406 684.406 196.812L684.216 197.42C682.67 197.014 681.486 196.14 680.664 194.798C679.84 193.456 679.43 191.83 679.43 189.922C679.43 188.018 679.842 186.392 680.668 185.046C681.492 183.698 682.676 182.822 684.216 182.416Z" fill="#0078D4"/>
<path fill-rule="evenodd" clip-rule="evenodd" d="M687.844 186.846C688.008 186.846 688.152 186.864 688.276 186.9C688.4 186.938 688.51 186.994 688.604 187.07C688.7 187.148 688.784 187.246 688.858 187.368C688.932 187.488 689.002 187.654 689.07 187.862C689.14 188.07 689.204 188.328 689.264 188.636C689.326 188.946 689.38 189.266 689.426 189.598H689.506C690.012 188.886 690.396 188.366 690.656 188.036C690.918 187.706 691.138 187.46 691.318 187.3C691.496 187.14 691.67 187.026 691.836 186.96C692.002 186.894 692.222 186.862 692.496 186.862C692.744 186.862 692.946 186.892 693.106 186.956L692.788 188.388H692.234C692.204 188.166 692.112 188.056 691.958 188.056C691.91 188.056 691.86 188.064 691.808 188.08C691.756 188.096 691.69 188.13 691.614 188.182C691.538 188.234 691.426 188.338 691.278 188.49C691.13 188.644 690.964 188.83 690.78 189.052C690.594 189.274 690.406 189.506 690.21 189.748L689.672 190.42C689.766 190.926 689.856 191.364 689.942 191.734C690.026 192.102 690.1 192.41 690.166 192.656C690.232 192.9 690.29 193.094 690.34 193.236C690.39 193.38 690.444 193.486 690.502 193.558C690.56 193.628 690.62 193.678 690.68 193.708C690.742 193.736 690.812 193.75 690.89 193.75C691.032 193.75 691.172 193.696 691.306 193.584C691.44 193.474 691.634 193.224 691.886 192.834L692.402 193.174C692.032 193.722 691.698 194.108 691.4 194.332C691.102 194.556 690.748 194.668 690.336 194.668C690.11 194.668 689.918 194.628 689.76 194.546C689.6 194.464 689.464 194.334 689.348 194.154C689.232 193.974 689.128 193.696 689.04 193.316C688.876 192.64 688.776 192.124 688.738 191.766H688.66C688.1 192.552 687.686 193.116 687.414 193.458C687.142 193.8 686.918 194.054 686.742 194.218C686.564 194.382 686.394 194.496 686.228 194.562C686.062 194.628 685.84 194.66 685.566 194.66C685.318 194.66 685.116 194.628 684.958 194.566L685.274 193.134H685.828C685.86 193.356 685.952 193.466 686.104 193.466C686.178 193.466 686.256 193.446 686.338 193.406C686.42 193.368 686.538 193.272 686.69 193.122C686.842 192.972 687.054 192.736 687.322 192.414C687.592 192.092 687.982 191.61 688.494 190.966C688.414 190.55 688.332 190.15 688.248 189.764C688.164 189.38 688.076 189.02 687.988 188.688C687.898 188.356 687.824 188.138 687.766 188.036C687.708 187.932 687.646 187.862 687.58 187.822C687.514 187.782 687.43 187.762 687.33 187.762C687.22 187.762 687.12 187.788 687.03 187.838C686.94 187.888 686.842 187.976 686.738 188.1C686.632 188.222 686.492 188.416 686.318 188.68L685.804 188.34C686.136 187.84 686.456 187.464 686.762 187.218C687.066 186.97 687.428 186.846 687.844 186.846Z" fill="#0078D4"/>
<path fill-rule="evenodd" clip-rule="evenodd" d="M706.194 191.03H715.94V192.082H706.194V191.03ZM706.194 187.748H715.94V188.8H706.194V187.748Z" fill="#0078D4"/>
<path fill-rule="evenodd" clip-rule="evenodd" d="M724.668 186.846C724.83 186.846 724.974 186.864 725.098 186.9C725.222 186.938 725.332 186.994 725.426 187.07C725.522 187.148 725.606 187.246 725.68 187.368C725.754 187.488 725.824 187.654 725.894 187.862C725.962 188.07 726.026 188.328 726.088 188.636C726.148 188.946 726.202 189.266 726.25 189.598H726.328C726.834 188.886 727.218 188.366 727.48 188.036C727.74 187.706 727.96 187.46 728.14 187.3C728.32 187.14 728.492 187.026 728.658 186.96C728.824 186.894 729.044 186.862 729.318 186.862C729.566 186.862 729.77 186.892 729.928 186.956L729.612 188.388H729.058C729.026 188.166 728.934 188.056 728.78 188.056C728.734 188.056 728.684 188.064 728.63 188.08C728.578 188.096 728.512 188.13 728.436 188.182C728.36 188.234 728.248 188.338 728.1 188.49C727.952 188.644 727.786 188.83 727.602 189.052C727.418 189.274 727.228 189.506 727.032 189.748L726.494 190.42C726.59 190.926 726.68 191.364 726.764 191.734C726.848 192.102 726.924 192.41 726.988 192.656C727.054 192.9 727.112 193.094 727.162 193.236C727.214 193.38 727.268 193.486 727.326 193.558C727.384 193.628 727.442 193.678 727.504 193.708C727.564 193.736 727.634 193.75 727.712 193.75C727.856 193.75 727.994 193.696 728.128 193.584C728.262 193.474 728.456 193.224 728.71 192.834L729.224 193.174C728.854 193.722 728.52 194.108 728.222 194.332C727.924 194.556 727.57 194.668 727.16 194.668C726.932 194.668 726.74 194.628 726.582 194.546C726.424 194.464 726.286 194.334 726.17 194.154C726.054 193.974 725.952 193.696 725.862 193.316C725.698 192.64 725.598 192.124 725.562 191.766H725.482C724.924 192.552 724.508 193.116 724.236 193.458C723.964 193.8 723.74 194.054 723.564 194.218C723.388 194.382 723.216 194.496 723.05 194.562C722.884 194.628 722.664 194.66 722.39 194.66C722.142 194.66 721.938 194.628 721.78 194.566L722.096 193.134H722.65C722.682 193.356 722.774 193.466 722.928 193.466C723 193.466 723.078 193.446 723.16 193.406C723.242 193.368 723.36 193.272 723.512 193.122C723.666 192.972 723.876 192.736 724.146 192.414C724.414 192.092 724.804 191.61 725.316 190.966C725.236 190.55 725.156 190.15 725.07 189.764C724.986 189.38 724.9 189.02 724.81 188.688C724.72 188.356 724.646 188.138 724.588 188.036C724.53 187.932 724.468 187.862 724.402 187.822C724.336 187.782 724.254 187.762 724.154 187.762C724.042 187.762 723.942 187.788 723.852 187.838C723.762 187.888 723.666 187.976 723.56 188.1C723.454 188.222 723.314 188.416 723.14 188.68L722.626 188.34C722.958 187.84 723.278 187.464 723.584 187.218C723.89 186.97 724.25 186.846 724.668 186.846Z" fill="#0078D4"/>
<path fill-rule="evenodd" clip-rule="evenodd" d="M463.452 7.88141C463.968 7.88141 464.414 7.92361 464.788 8.00801L464.48 9.35281H463.784C463.71 9.05221 463.614 8.83601 463.496 8.70401C463.376 8.57221 463.202 8.50641 462.97 8.50641C462.668 8.50641 462.414 8.58941 462.206 8.75561C461.998 8.92161 461.82 9.16821 461.672 9.49521C461.524 9.82201 461.388 10.2624 461.26 10.8162L461.062 11.6784H463.096L462.922 12.4772H460.88L459.41 19.3748C459.166 20.5192 458.796 21.3722 458.294 21.9338C457.794 22.4954 457.164 22.7762 456.404 22.7762C456.182 22.7762 456.008 22.763 455.882 22.7368L456.016 22.0406C456.068 22.0564 456.192 22.0644 456.388 22.0644C456.626 22.0644 456.828 22.0038 456.996 21.8824C457.166 21.7612 457.322 21.5502 457.468 21.2496C457.612 20.949 457.746 20.5324 457.868 19.9998L459.568 12.4772H458.23L458.35 11.9314C458.702 11.9104 458.958 11.8814 459.112 11.8444C459.268 11.8076 459.39 11.7522 459.476 11.6784C459.564 11.6044 459.638 11.5082 459.698 11.3896C459.758 11.271 459.836 11.0534 459.932 10.737C460.212 9.78781 460.642 9.07461 461.224 8.59741C461.808 8.12001 462.55 7.88141 463.452 7.88141Z" fill="#0078D4"/>
<path fill-rule="evenodd" clip-rule="evenodd" d="M481.722 7.11362C483.262 7.51962 484.446 8.39642 485.27 9.74382C486.096 11.091 486.508 12.7166 486.508 14.6204C486.508 16.5294 486.098 18.1548 485.274 19.497C484.452 20.839 483.268 21.713 481.722 22.1192L481.532 21.51C482.752 21.104 483.656 20.3024 484.25 19.1054C484.844 17.9084 485.14 16.387 485.14 14.5412C485.14 12.7588 484.844 11.2782 484.254 10.0996C483.664 8.92102 482.748 8.12882 481.51 7.72262L481.722 7.11362ZM471.62 7.11362L471.832 7.72262C470.598 8.12882 469.686 8.92102 469.092 10.0996C468.498 11.2782 468.202 12.7588 468.202 14.5412C468.202 16.387 468.498 17.9084 469.092 19.1054C469.686 20.3024 470.59 21.104 471.81 21.51L471.62 22.1192C470.074 21.713 468.89 20.839 468.068 19.497C467.244 18.1548 466.834 16.5294 466.834 14.6204C466.834 12.7166 467.246 11.091 468.072 9.74382C468.896 8.39642 470.08 7.51962 471.62 7.11362Z" fill="#0078D4"/>
<path fill-rule="evenodd" clip-rule="evenodd" d="M475.248 11.5438C475.412 11.5438 475.556 11.5622 475.68 11.5992C475.804 11.6362 475.914 11.6928 476.008 11.7692C476.104 11.8458 476.188 11.9446 476.262 12.066C476.336 12.1872 476.406 12.352 476.474 12.5602C476.544 12.7686 476.608 13.027 476.668 13.3354C476.73 13.644 476.784 13.9644 476.83 14.2966H476.91C477.416 13.5846 477.8 13.064 478.06 12.7344C478.322 12.4048 478.542 12.1596 478.722 11.9986C478.9 11.8378 479.074 11.7244 479.24 11.6586C479.406 11.5926 479.626 11.5596 479.9 11.5596C480.148 11.5596 480.35 11.5914 480.51 11.6546L480.192 13.0864H479.64C479.608 12.8648 479.516 12.754 479.362 12.754C479.314 12.754 479.264 12.762 479.212 12.7778C479.16 12.7936 479.094 12.828 479.018 12.8806C478.942 12.9334 478.83 13.0362 478.682 13.1892C478.534 13.342 478.368 13.5292 478.184 13.7508C477.998 13.9722 477.81 14.2042 477.614 14.4468L477.076 15.1192C477.172 15.6254 477.26 16.0632 477.346 16.4324C477.43 16.8014 477.504 17.1086 477.57 17.3538C477.636 17.599 477.694 17.7928 477.744 17.9352C477.794 18.0776 477.848 18.1844 477.906 18.2556C477.964 18.3268 478.024 18.3768 478.084 18.406C478.146 18.435 478.216 18.4494 478.294 18.4494C478.436 18.4494 478.576 18.394 478.71 18.2832C478.844 18.1726 479.038 17.922 479.29 17.5318L479.806 17.872C479.436 18.4204 479.102 18.8066 478.804 19.0308C478.506 19.255 478.152 19.367 477.74 19.367C477.514 19.367 477.322 19.3262 477.164 19.2444C477.004 19.1626 476.868 19.0322 476.752 18.8528C476.636 18.6736 476.532 18.394 476.444 18.0144C476.28 17.3394 476.18 16.8226 476.142 16.464H476.064C475.504 17.2498 475.09 17.814 474.818 18.1568C474.546 18.4996 474.322 18.7526 474.146 18.9162C473.968 19.0796 473.798 19.1942 473.632 19.2602C473.466 19.3262 473.244 19.359 472.97 19.359C472.722 19.359 472.52 19.3274 472.362 19.2642L472.678 17.8324H473.232C473.264 18.054 473.356 18.1646 473.508 18.1646C473.582 18.1646 473.66 18.1448 473.742 18.1054C473.824 18.0658 473.942 17.9708 474.094 17.8206C474.246 17.6702 474.458 17.4342 474.726 17.1126C474.996 16.791 475.386 16.3084 475.898 15.665C475.818 15.2484 475.736 14.8476 475.652 14.4626C475.568 14.0778 475.48 13.7192 475.392 13.387C475.302 13.0546 475.228 12.8372 475.17 12.7344C475.112 12.6314 475.05 12.5602 474.984 12.5208C474.918 12.4812 474.834 12.4614 474.734 12.4614C474.624 12.4614 474.524 12.4864 474.434 12.5366C474.344 12.5866 474.246 12.6736 474.142 12.7976C474.036 12.9216 473.896 13.1154 473.722 13.379L473.208 13.0388C473.54 12.5378 473.86 12.1634 474.166 11.9156C474.472 11.6678 474.832 11.5438 475.248 11.5438Z" fill="#0078D4"/>
<path fill-rule="evenodd" clip-rule="evenodd" d="M493.598 15.7284H503.344V16.7804H493.598V15.7284ZM493.598 12.4456H503.344V13.4976H493.598V12.4456Z" fill="#0078D4"/>
<path fill-rule="evenodd" clip-rule="evenodd" d="M510.126 13.9802H519.87V19.5648H518.748V15.0244H510.126V13.9802Z" fill="#0078D4"/>
<path fill-rule="evenodd" clip-rule="evenodd" d="M524.102 11.5438C524.266 11.5438 524.41 11.5622 524.534 11.5992C524.658 11.6362 524.768 11.6928 524.862 11.7692C524.956 11.8458 525.042 11.9446 525.116 12.066C525.188 12.1872 525.26 12.352 525.328 12.5602C525.398 12.7686 525.462 13.027 525.522 13.3354C525.584 13.644 525.638 13.9644 525.684 14.2966H525.764C526.27 13.5846 526.654 13.064 526.914 12.7344C527.176 12.4048 527.396 12.1596 527.576 11.9986C527.754 11.8378 527.928 11.7244 528.094 11.6586C528.26 11.5926 528.48 11.5596 528.754 11.5596C529.002 11.5596 529.204 11.5914 529.362 11.6546L529.046 13.0864H528.492C528.462 12.8648 528.368 12.754 528.216 12.754C528.168 12.754 528.118 12.762 528.066 12.7778C528.012 12.7936 527.948 12.828 527.872 12.8806C527.796 12.9334 527.684 13.0362 527.536 13.1892C527.388 13.342 527.222 13.5292 527.038 13.7508C526.852 13.9722 526.662 14.2042 526.468 14.4468L525.93 15.1192C526.024 15.6254 526.114 16.0632 526.198 16.4324C526.284 16.8014 526.358 17.1086 526.424 17.3538C526.49 17.599 526.548 17.7928 526.598 17.9352C526.648 18.0776 526.702 18.1844 526.76 18.2556C526.818 18.3268 526.878 18.3768 526.938 18.406C527 18.435 527.068 18.4494 527.148 18.4494C527.29 18.4494 527.428 18.394 527.564 18.2832C527.698 18.1726 527.892 17.922 528.144 17.5318L528.658 17.872C528.29 18.4204 527.956 18.8066 527.658 19.0308C527.36 19.255 527.006 19.367 526.594 19.367C526.368 19.367 526.176 19.3262 526.016 19.2444C525.858 19.1626 525.722 19.0322 525.606 18.8528C525.49 18.6736 525.386 18.394 525.298 18.0144C525.134 17.3394 525.034 16.8226 524.996 16.464H524.918C524.358 17.2498 523.944 17.814 523.672 18.1568C523.4 18.4996 523.176 18.7526 523 18.9162C522.822 19.0796 522.652 19.1942 522.486 19.2602C522.318 19.3262 522.098 19.359 521.824 19.359C521.576 19.359 521.374 19.3274 521.216 19.2642L521.532 17.8324H522.086C522.118 18.054 522.21 18.1646 522.362 18.1646C522.436 18.1646 522.514 18.1448 522.596 18.1054C522.678 18.0658 522.794 17.9708 522.948 17.8206C523.1 17.6702 523.312 17.4342 523.58 17.1126C523.85 16.791 524.24 16.3084 524.752 15.665C524.672 15.2484 524.59 14.8476 524.506 14.4626C524.422 14.0778 524.334 13.7192 524.246 13.387C524.156 13.0546 524.082 12.8372 524.024 12.7344C523.966 12.6314 523.904 12.5602 523.838 12.5208C523.772 12.4812 523.688 12.4614 523.588 12.4614C523.478 12.4614 523.378 12.4864 523.288 12.5366C523.198 12.5866 523.1 12.6736 522.996 12.7976C522.89 12.9216 522.75 13.1154 522.576 13.379L522.062 13.0388C522.394 12.5378 522.714 12.1634 523.018 11.9156C523.324 11.6678 523.686 11.5438 524.102 11.5438Z" fill="#0078D4"/>
<path d="M120.742 359.742C119.801 360.197 118.573 360.425 117.058 360.425C115.081 360.425 113.527 359.844 112.395 358.682C111.263 357.52 110.697 355.971 110.697 354.037C110.697 351.976 111.332 350.305 112.602 349.023C113.878 347.742 115.531 347.101 117.561 347.101C118.819 347.101 119.879 347.26 120.742 347.577V350.371C119.879 349.856 118.897 349.598 117.795 349.598C116.585 349.598 115.609 349.979 114.866 350.739C114.123 351.5 113.752 352.53 113.752 353.83C113.752 355.076 114.102 356.07 114.803 356.813C115.504 357.55 116.447 357.918 117.633 357.918C118.765 357.918 119.801 357.642 120.742 357.091V359.742ZM127.094 360.425C125.56 360.425 124.353 359.996 123.473 359.14C122.598 358.277 122.161 357.109 122.161 355.636C122.161 354.115 122.616 352.926 123.527 352.069C124.437 351.207 125.668 350.775 127.219 350.775C128.747 350.775 129.945 351.207 130.813 352.069C131.682 352.926 132.116 354.061 132.116 355.474C132.116 357.002 131.667 358.208 130.768 359.095C129.876 359.981 128.651 360.425 127.094 360.425ZM127.165 352.95C126.495 352.95 125.974 353.18 125.602 353.641C125.231 354.103 125.045 354.755 125.045 355.6C125.045 357.367 125.758 358.25 127.183 358.25C128.543 358.25 129.223 357.343 129.223 355.528C129.223 353.809 128.537 352.95 127.165 352.95ZM142.843 360.2H140.013V355.088C140.013 353.662 139.504 352.95 138.486 352.95C137.995 352.95 137.59 353.138 137.273 353.516C136.955 353.893 136.797 354.372 136.797 354.953V360.2H133.958V351H136.797V352.455H136.833C137.509 351.335 138.495 350.775 139.788 350.775C141.825 350.775 142.843 352.039 142.843 354.567V360.2ZM144.496 359.957V357.657C144.963 357.939 145.428 358.149 145.889 358.286C146.356 358.424 146.796 358.493 147.21 358.493C147.713 358.493 148.108 358.424 148.396 358.286C148.689 358.149 148.836 357.939 148.836 357.657C148.836 357.478 148.77 357.328 148.638 357.208C148.506 357.088 148.336 356.984 148.126 356.894C147.922 356.804 147.698 356.723 147.452 356.651C147.207 356.579 146.97 356.498 146.742 356.409C146.377 356.271 146.054 356.124 145.772 355.968C145.497 355.807 145.263 355.621 145.071 355.411C144.886 355.202 144.742 354.959 144.64 354.684C144.544 354.408 144.496 354.082 144.496 353.704C144.496 353.189 144.607 352.746 144.829 352.375C145.056 352.003 145.356 351.701 145.727 351.467C146.104 351.228 146.533 351.054 147.012 350.946C147.497 350.832 148 350.775 148.521 350.775C148.929 350.775 149.342 350.808 149.761 350.874C150.18 350.934 150.594 351.024 151.001 351.144V353.336C150.642 353.126 150.255 352.971 149.842 352.869C149.435 352.761 149.033 352.707 148.638 352.707C148.452 352.707 148.276 352.725 148.108 352.761C147.946 352.791 147.803 352.839 147.677 352.905C147.551 352.965 147.452 353.045 147.38 353.147C147.308 353.243 147.272 353.354 147.272 353.48C147.272 353.647 147.326 353.791 147.434 353.911C147.542 354.031 147.683 354.136 147.856 354.225C148.03 354.309 148.222 354.387 148.431 354.459C148.647 354.525 148.86 354.594 149.069 354.666C149.447 354.797 149.788 354.941 150.094 355.097C150.399 355.253 150.66 355.435 150.875 355.645C151.097 355.855 151.265 356.1 151.378 356.382C151.498 356.663 151.558 356.999 151.558 357.388C151.558 357.933 151.438 358.4 151.199 358.789C150.965 359.173 150.651 359.487 150.255 359.733C149.866 359.972 149.414 360.146 148.899 360.254C148.39 360.368 147.859 360.425 147.308 360.425C146.296 360.425 145.359 360.269 144.496 359.957ZM158.763 360.092C158.344 360.314 157.712 360.425 156.868 360.425C154.867 360.425 153.867 359.385 153.867 357.307V353.093H152.376V351H153.867V349.014L156.697 348.206V351H158.763V353.093H156.697V356.813C156.697 357.771 157.077 358.25 157.838 358.25C158.138 358.25 158.446 358.164 158.763 357.99V360.092ZM168.026 360.2H165.34V358.879H165.304C164.687 359.91 163.774 360.425 162.564 360.425C161.671 360.425 160.968 360.173 160.453 359.67C159.943 359.161 159.689 358.484 159.689 357.639C159.689 355.855 160.746 354.824 162.86 354.549L165.358 354.216C165.358 353.21 164.813 352.707 163.723 352.707C162.627 352.707 161.585 353.033 160.596 353.686V351.548C160.992 351.344 161.531 351.165 162.213 351.009C162.902 350.853 163.528 350.775 164.091 350.775C166.715 350.775 168.026 352.084 168.026 354.702V360.2ZM165.358 356.463V355.843L163.687 356.058C162.765 356.178 162.303 356.594 162.303 357.307C162.303 357.63 162.414 357.897 162.636 358.107C162.863 358.31 163.169 358.412 163.552 358.412C164.085 358.412 164.519 358.229 164.855 357.864C165.19 357.493 165.358 357.026 165.358 356.463ZM179.158 360.2H176.328V355.088C176.328 353.662 175.819 352.95 174.801 352.95C174.309 352.95 173.905 353.138 173.588 353.516C173.27 353.893 173.112 354.372 173.112 354.953V360.2H170.272V351H173.112V352.455H173.147C173.824 351.335 174.81 350.775 176.103 350.775C178.14 350.775 179.158 352.039 179.158 354.567V360.2ZM186.974 360.092C186.555 360.314 185.923 360.425 185.079 360.425C183.078 360.425 182.078 359.385 182.078 357.307V353.093H180.587V351H182.078V349.014L184.908 348.206V351H186.974V353.093H184.908V356.813C184.908 357.771 185.288 358.25 186.049 358.25C186.349 358.25 186.657 358.164 186.974 357.99V360.092Z" fill="black"/>
<path d="M476.953 347.316L472.515 360.2H469.226L464.842 347.316H467.968L470.655 356.283C470.798 356.768 470.885 357.196 470.915 357.568H470.969C471.011 357.166 471.104 356.726 471.248 356.247L473.916 347.316H476.953ZM484.491 360.2H481.804V358.879H481.768C481.151 359.91 480.238 360.425 479.028 360.425C478.136 360.425 477.432 360.173 476.917 359.67C476.408 359.161 476.153 358.484 476.153 357.639C476.153 355.855 477.21 354.824 479.325 354.549L481.822 354.216C481.822 353.21 481.277 352.707 480.187 352.707C479.091 352.707 478.049 353.033 477.061 353.686V351.548C477.456 351.344 477.995 351.165 478.678 351.009C479.367 350.853 479.993 350.775 480.556 350.775C483.179 350.775 484.491 352.084 484.491 354.702V360.2ZM481.822 356.463V355.843L480.151 356.058C479.229 356.178 478.768 356.594 478.768 357.307C478.768 357.63 478.878 357.897 479.1 358.107C479.328 358.31 479.633 358.412 480.016 358.412C480.55 358.412 480.984 358.229 481.319 357.864C481.655 357.493 481.822 357.026 481.822 356.463ZM492.738 353.561C492.397 353.375 491.999 353.282 491.543 353.282C490.926 353.282 490.444 353.51 490.097 353.965C489.75 354.414 489.576 355.028 489.576 355.807V360.2H486.737V351H489.576V352.707H489.612C490.061 351.461 490.87 350.838 492.038 350.838C492.337 350.838 492.571 350.874 492.738 350.946V353.561ZM495.577 349.545C495.098 349.545 494.706 349.404 494.4 349.122C494.095 348.835 493.942 348.484 493.942 348.071C493.942 347.646 494.095 347.298 494.4 347.029C494.706 346.759 495.098 346.625 495.577 346.625C496.063 346.625 496.455 346.759 496.754 347.029C497.06 347.298 497.213 347.646 497.213 348.071C497.213 348.502 497.06 348.856 496.754 349.131C496.455 349.407 496.063 349.545 495.577 349.545ZM496.979 360.2H494.14V351H496.979V360.2ZM507.023 360.2H504.337V358.879H504.301C503.684 359.91 502.771 360.425 501.561 360.425C500.669 360.425 499.965 360.173 499.45 359.67C498.941 359.161 498.686 358.484 498.686 357.639C498.686 355.855 499.743 354.824 501.857 354.549L504.355 354.216C504.355 353.21 503.81 352.707 502.72 352.707C501.624 352.707 500.582 353.033 499.593 353.686V351.548C499.989 351.344 500.528 351.165 501.211 351.009C501.899 350.853 502.525 350.775 503.088 350.775C505.712 350.775 507.023 352.084 507.023 354.702V360.2ZM504.355 356.463V355.843L502.684 356.058C501.762 356.178 501.3 356.594 501.3 357.307C501.3 357.63 501.411 357.897 501.633 358.107C501.86 358.31 502.166 358.412 502.549 358.412C503.082 358.412 503.517 358.229 503.852 357.864C504.187 357.493 504.355 357.026 504.355 356.463ZM512.145 359.131H512.109V360.2H509.27V346.58H512.109V352.384H512.145C512.845 351.311 513.843 350.775 515.136 350.775C516.322 350.775 517.236 351.183 517.877 351.997C518.518 352.812 518.838 353.926 518.838 355.339C518.838 356.873 518.464 358.104 517.715 359.032C516.966 359.96 515.966 360.425 514.714 360.425C513.582 360.425 512.726 359.993 512.145 359.131ZM512.064 355.25V356.193C512.064 356.786 512.234 357.277 512.576 357.666C512.917 358.056 513.354 358.25 513.888 358.25C514.534 358.25 515.035 358.002 515.388 357.505C515.747 357.002 515.927 356.292 515.927 355.375C515.927 354.615 515.762 354.022 515.433 353.596C515.109 353.165 514.645 352.95 514.04 352.95C513.471 352.95 512.998 353.162 512.621 353.588C512.249 354.013 512.064 354.567 512.064 355.25ZM523.519 360.2H520.68V346.58H523.519V360.2ZM534.174 356.409H528.173C528.269 357.744 529.11 358.412 530.697 358.412C531.71 358.412 532.599 358.173 533.366 357.693V359.742C532.515 360.197 531.41 360.425 530.05 360.425C528.565 360.425 527.412 360.014 526.591 359.194C525.771 358.367 525.361 357.217 525.361 355.744C525.361 354.216 525.804 353.007 526.69 352.114C527.577 351.222 528.667 350.775 529.961 350.775C531.302 350.775 532.338 351.174 533.069 351.97C533.806 352.767 534.174 353.848 534.174 355.214V356.409ZM531.542 354.666C531.542 353.348 531.009 352.689 529.943 352.689C529.487 352.689 529.092 352.878 528.757 353.255C528.427 353.632 528.227 354.103 528.155 354.666H531.542Z" fill="black"/>
<path fill-rule="evenodd" clip-rule="evenodd" d="M241.738 183.046H242.986V198.13H241.738V183.046Z" fill="black"/>
<path fill-rule="evenodd" clip-rule="evenodd" d="M249.602 184.14C249.228 184.14 248.916 184.25 248.666 184.472C248.414 184.694 248.212 185.012 248.058 185.428C247.904 185.844 247.794 186.352 247.73 186.948C247.664 187.546 247.632 188.22 247.632 188.97C247.632 190.732 247.796 192.024 248.122 192.848C248.45 193.674 248.956 194.086 249.642 194.086C250.296 194.086 250.78 193.698 251.098 192.922C251.414 192.146 251.572 190.946 251.572 189.32C251.572 188.076 251.49 187.07 251.328 186.3C251.166 185.53 250.94 184.978 250.652 184.642C250.362 184.308 250.012 184.14 249.602 184.14ZM249.642 183.45C250.826 183.45 251.706 183.908 252.284 184.82C252.862 185.734 253.152 187.114 253.152 188.962C253.152 190.876 252.842 192.322 252.224 193.302C251.606 194.284 250.702 194.774 249.512 194.774C248.346 194.774 247.476 194.314 246.906 193.396C246.336 192.478 246.052 191.084 246.052 189.214C246.052 188.22 246.14 187.36 246.314 186.636C246.49 185.912 246.736 185.314 247.052 184.84C247.368 184.368 247.748 184.018 248.192 183.792C248.634 183.564 249.118 183.45 249.642 183.45Z" fill="black"/>
<path fill-rule="evenodd" clip-rule="evenodd" d="M255.898 182.326L259.134 189.606V190.206L255.898 197.492L255.032 197.184L257.634 189.906L255.032 182.618L255.898 182.326Z" fill="black"/>
<path fill-rule="evenodd" clip-rule="evenodd" d="M139.082 72.2038H140.33V87.288H139.082V72.2038Z" fill="black"/>
<path fill-rule="evenodd" clip-rule="evenodd" d="M147.588 72.609H148.032C148 73.1278 147.984 73.8464 147.984 74.7652V81.6872C147.984 82.0006 148.002 82.237 148.036 82.3964C148.072 82.5558 148.134 82.6854 148.224 82.7854C148.312 82.8854 148.44 82.9638 148.608 83.0206C148.776 83.0772 148.986 83.1204 149.24 83.1502C149.494 83.18 149.83 83.2002 150.246 83.211V83.8026H144.256V83.211C144.856 83.184 145.284 83.1476 145.54 83.1016C145.798 83.0556 145.994 82.9868 146.128 82.8948C146.264 82.803 146.362 82.6734 146.424 82.5058C146.486 82.3384 146.518 82.0654 146.518 81.6872V75.1136C146.518 74.8974 146.48 74.7394 146.404 74.6394C146.328 74.5396 146.218 74.4896 146.072 74.4896C145.898 74.4896 145.652 74.5786 145.334 74.757C145.014 74.9354 144.62 75.1812 144.15 75.4946L143.794 74.8704L147.588 72.609Z" fill="black"/>
<path fill-rule="evenodd" clip-rule="evenodd" d="M153.244 71.485L156.478 78.7636V79.3634L153.244 86.6502L152.376 86.3422L154.978 79.0636L152.376 71.7768L153.244 71.485Z" fill="black"/>
<path fill-rule="evenodd" clip-rule="evenodd" d="M207.664 115.021H208.912V130.105H207.664V115.021Z" fill="black"/>
<path fill-rule="evenodd" clip-rule="evenodd" d="M216.558 116.666H217.708V121.335H222.126V122.413H217.708V127.082H216.558V122.413H212.14V121.335H216.558V116.666Z" fill="black"/>
<path fill-rule="evenodd" clip-rule="evenodd" d="M225.034 114.302L228.268 121.58V122.18L225.034 129.467L224.166 129.159L226.768 121.88L224.166 114.594L225.034 114.302Z" fill="black"/>
<path fill-rule="evenodd" clip-rule="evenodd" d="M207.658 248.192H208.906V263.278H207.658V248.192Z" fill="black"/>
<path fill-rule="evenodd" clip-rule="evenodd" d="M212.134 254.506H222.12V255.584H212.134V254.506Z" fill="black"/>
<path fill-rule="evenodd" clip-rule="evenodd" d="M225.028 247.474L228.262 254.752V255.352L225.028 262.64L224.162 262.332L226.764 255.052L224.162 247.766L225.028 247.474Z" fill="black"/>
<path fill-rule="evenodd" clip-rule="evenodd" d="M132.146 291.76H142.132V292.838H132.146V291.76Z" fill="black"/>
<path fill-rule="evenodd" clip-rule="evenodd" d="M145.316 285.446H146.564V300.53H145.316V285.446Z" fill="black"/>
<path fill-rule="evenodd" clip-rule="evenodd" d="M153.822 285.85H154.266C154.234 286.37 154.218 287.088 154.218 288.006V294.928C154.218 295.242 154.236 295.478 154.272 295.638C154.306 295.798 154.368 295.928 154.458 296.028C154.546 296.128 154.674 296.206 154.842 296.262C155.01 296.32 155.22 296.362 155.474 296.392C155.728 296.422 156.064 296.442 156.48 296.452V297.044H150.49V296.452C151.09 296.426 151.518 296.39 151.774 296.344C152.032 296.298 152.228 296.228 152.362 296.136C152.498 296.044 152.596 295.916 152.658 295.748C152.72 295.58 152.752 295.308 152.752 294.928V288.356C152.752 288.14 152.714 287.982 152.638 287.882C152.562 287.782 152.452 287.732 152.306 287.732C152.132 287.732 151.886 287.82 151.568 287.998C151.25 288.178 150.854 288.422 150.384 288.736L150.028 288.112L153.822 285.85Z" fill="black"/>
<path fill-rule="evenodd" clip-rule="evenodd" d="M159.478 284.726L162.712 292.006V292.606L159.478 299.892L158.61 299.584L161.212 292.306L158.61 285.018L159.478 284.726Z" fill="black"/>
<path fill-rule="evenodd" clip-rule="evenodd" d="M27.8774 189.36H37.8634V190.438H27.8774V189.36Z" fill="black"/>
<path fill-rule="evenodd" clip-rule="evenodd" d="M41.0468 183.046H42.295V198.13H41.0468V183.046Z" fill="black"/>
<path fill-rule="evenodd" clip-rule="evenodd" d="M48.9114 184.14C48.5386 184.14 48.2266 184.25 47.9752 184.472C47.724 184.694 47.5214 185.012 47.3674 185.428C47.2134 185.844 47.1038 186.352 47.039 186.948C46.9742 187.546 46.9418 188.22 46.9418 188.97C46.9418 190.732 47.1052 192.024 47.4322 192.848C47.759 193.674 48.2656 194.086 48.952 194.086C49.6058 194.086 50.0908 193.698 50.4068 192.922C50.723 192.146 50.881 190.946 50.881 189.32C50.881 188.076 50.8 187.07 50.6378 186.3C50.4758 185.53 50.2502 184.978 49.961 184.642C49.672 184.308 49.322 184.14 48.9114 184.14ZM48.952 183.45C50.1354 183.45 51.0162 183.908 51.5944 184.82C52.1726 185.734 52.4616 187.114 52.4616 188.962C52.4616 190.876 52.1522 192.322 51.5336 193.302C50.9148 194.284 50.011 194.774 48.8222 194.774C47.655 194.774 46.7864 194.314 46.2164 193.396C45.6462 192.478 45.3612 191.084 45.3612 189.214C45.3612 188.22 45.449 187.36 45.6246 186.636C45.8002 185.912 46.0462 185.314 46.3622 184.84C46.6784 184.368 47.058 184.018 47.501 183.792C47.9442 183.564 48.4278 183.45 48.952 183.45Z" fill="black"/>
<path fill-rule="evenodd" clip-rule="evenodd" d="M55.2088 182.326L58.4428 189.606V190.206L55.2088 197.492L54.3414 197.184L56.9434 189.906L54.3414 182.618L55.2088 182.326Z" fill="black"/>
<path fill-rule="evenodd" clip-rule="evenodd" d="M57.2806 254.188H67.2664V255.266H57.2806V254.188Z" fill="black"/>
<path fill-rule="evenodd" clip-rule="evenodd" d="M70.4498 247.874H71.6982V262.958H70.4498V247.874Z" fill="black"/>
<path fill-rule="evenodd" clip-rule="evenodd" d="M79.3438 249.518H80.4948V254.188H84.9124V255.266H80.4948V259.934H79.3438V255.266H74.9264V254.188H79.3438V249.518Z" fill="black"/>
<path fill-rule="evenodd" clip-rule="evenodd" d="M87.8202 247.154L91.0542 254.434V255.034L87.8202 262.32L86.9528 262.012L89.5546 254.734L86.9528 247.446L87.8202 247.154Z" fill="black"/>
<path fill-rule="evenodd" clip-rule="evenodd" d="M56.6064 120.869H66.5924V121.947H56.6064V120.869Z" fill="black"/>
<path fill-rule="evenodd" clip-rule="evenodd" d="M69.7758 114.555H71.024V129.639H69.7758V114.555Z" fill="black"/>
<path fill-rule="evenodd" clip-rule="evenodd" d="M74.2522 120.869H84.2382V121.947H74.2522V120.869Z" fill="black"/>
<path fill-rule="evenodd" clip-rule="evenodd" d="M87.146 113.836L90.3802 121.115V121.714L87.146 129.001L86.2788 128.693L88.8806 121.415L86.2788 114.128L87.146 113.836Z" fill="black"/>
<path fill-rule="evenodd" clip-rule="evenodd" d="M592.678 183.046H593.926V198.13H592.678V183.046Z" fill="black"/>
<path fill-rule="evenodd" clip-rule="evenodd" d="M600.542 184.14C600.17 184.14 599.858 184.25 599.606 184.472C599.356 184.694 599.152 185.012 598.998 185.428C598.844 185.844 598.736 186.352 598.67 186.948C598.606 187.546 598.574 188.22 598.574 188.97C598.574 190.732 598.736 192.024 599.064 192.848C599.39 193.674 599.898 194.086 600.584 194.086C601.238 194.086 601.722 193.698 602.038 192.922C602.354 192.146 602.512 190.946 602.512 189.32C602.512 188.076 602.432 187.07 602.27 186.3C602.108 185.53 601.882 184.978 601.592 184.642C601.304 184.308 600.954 184.14 600.542 184.14ZM600.584 183.45C601.766 183.45 602.648 183.908 603.226 184.82C603.804 185.734 604.094 187.114 604.094 188.962C604.094 190.876 603.784 192.322 603.164 193.302C602.546 194.284 601.642 194.774 600.454 194.774C599.286 194.774 598.418 194.314 597.848 193.396C597.278 192.478 596.992 191.084 596.992 189.214C596.992 188.22 597.08 187.36 597.256 186.636C597.432 185.912 597.678 185.314 597.994 184.84C598.31 184.368 598.69 184.018 599.132 183.792C599.576 183.564 600.06 183.45 600.584 183.45Z" fill="black"/>
<path fill-rule="evenodd" clip-rule="evenodd" d="M606.84 182.326L610.074 189.606V190.206L606.84 197.492L605.972 197.184L608.574 189.906L605.972 182.618L606.84 182.326Z" fill="black"/>
<path fill-rule="evenodd" clip-rule="evenodd" d="M490.024 72.2038H491.272V87.288H490.024V72.2038Z" fill="black"/>
<path fill-rule="evenodd" clip-rule="evenodd" d="M498.528 72.609H498.974C498.942 73.1278 498.926 73.8464 498.926 74.7652V81.6872C498.926 82.0006 498.944 82.237 498.978 82.3964C499.014 82.5558 499.076 82.6854 499.164 82.7854C499.254 82.8854 499.382 82.9638 499.55 83.0206C499.718 83.0772 499.928 83.1204 500.182 83.1502C500.436 83.18 500.77 83.2002 501.186 83.211V83.8026H495.196V83.211C495.796 83.184 496.224 83.1476 496.482 83.1016C496.738 83.0556 496.934 82.9868 497.07 82.8948C497.204 82.803 497.304 82.6734 497.366 82.5058C497.428 82.3384 497.458 82.0654 497.458 81.6872V75.1136C497.458 74.8974 497.42 74.7394 497.344 74.6394C497.27 74.5396 497.158 74.4896 497.012 74.4896C496.84 74.4896 496.594 74.5786 496.276 74.757C495.956 74.9354 495.562 75.1812 495.092 75.4946L494.734 74.8704L498.528 72.609Z" fill="black"/>
<path fill-rule="evenodd" clip-rule="evenodd" d="M504.186 71.485L507.42 78.7636V79.3634L504.186 86.6502L503.318 86.3422L505.92 79.0636L503.318 71.7768L504.186 71.485Z" fill="black"/>
<path fill-rule="evenodd" clip-rule="evenodd" d="M558.604 115.021H559.852V130.105H558.604V115.021Z" fill="black"/>
<path fill-rule="evenodd" clip-rule="evenodd" d="M567.498 116.666H568.65V121.335H573.068V122.413H568.65V127.082H567.498V122.413H563.082V121.335H567.498V116.666Z" fill="black"/>
<path fill-rule="evenodd" clip-rule="evenodd" d="M575.974 114.302L579.208 121.58V122.18L575.974 129.467L575.108 129.159L577.71 121.88L575.108 114.594L575.974 114.302Z" fill="black"/>
<path fill-rule="evenodd" clip-rule="evenodd" d="M558.6 248.192H559.848V263.278H558.6V248.192Z" fill="black"/>
<path fill-rule="evenodd" clip-rule="evenodd" d="M563.076 254.506H573.062V255.584H563.076V254.506Z" fill="black"/>
<path fill-rule="evenodd" clip-rule="evenodd" d="M575.97 247.474L579.204 254.752V255.352L575.97 262.64L575.102 262.332L577.704 255.052L575.102 247.766L575.97 247.474Z" fill="black"/>
<path fill-rule="evenodd" clip-rule="evenodd" d="M483.088 291.76H493.074V292.838H483.088V291.76Z" fill="black"/>
<path fill-rule="evenodd" clip-rule="evenodd" d="M496.258 285.446H497.506V300.53H496.258V285.446Z" fill="black"/>
<path fill-rule="evenodd" clip-rule="evenodd" d="M504.762 285.85H505.208C505.176 286.37 505.16 287.088 505.16 288.006V294.928C505.16 295.242 505.178 295.478 505.212 295.638C505.248 295.798 505.31 295.928 505.398 296.028C505.488 296.128 505.616 296.206 505.784 296.262C505.952 296.32 506.162 296.362 506.416 296.392C506.67 296.422 507.004 296.442 507.42 296.452V297.044H501.432V296.452C502.03 296.426 502.46 296.39 502.716 296.344C502.972 296.298 503.168 296.228 503.304 296.136C503.438 296.044 503.538 295.916 503.6 295.748C503.662 295.58 503.692 295.308 503.692 294.928V288.356C503.692 288.14 503.654 287.982 503.578 287.882C503.504 287.782 503.392 287.732 503.246 287.732C503.074 287.732 502.828 287.82 502.51 287.998C502.19 288.178 501.796 288.422 501.326 288.736L500.968 288.112L504.762 285.85Z" fill="black"/>
<path fill-rule="evenodd" clip-rule="evenodd" d="M510.42 284.726L513.654 292.006V292.606L510.42 299.892L509.552 299.584L512.154 292.306L509.552 285.018L510.42 284.726Z" fill="black"/>
<path fill-rule="evenodd" clip-rule="evenodd" d="M378.818 189.36H388.804V190.438H378.818V189.36Z" fill="black"/>
<path fill-rule="evenodd" clip-rule="evenodd" d="M391.988 183.046H393.236V198.13H391.988V183.046Z" fill="black"/>
<path fill-rule="evenodd" clip-rule="evenodd" d="M399.852 184.14C399.48 184.14 399.168 184.25 398.916 184.472C398.666 184.694 398.462 185.012 398.308 185.428C398.154 185.844 398.046 186.352 397.98 186.948C397.916 187.546 397.882 188.22 397.882 188.97C397.882 190.732 398.046 192.024 398.374 192.848C398.7 193.674 399.206 194.086 399.894 194.086C400.546 194.086 401.032 193.698 401.348 192.922C401.664 192.146 401.822 190.946 401.822 189.32C401.822 188.076 401.742 187.07 401.58 186.3C401.416 185.53 401.192 184.978 400.902 184.642C400.614 184.308 400.264 184.14 399.852 184.14ZM399.894 183.45C401.076 183.45 401.958 183.908 402.536 184.82C403.114 185.734 403.402 187.114 403.402 188.962C403.402 190.876 403.094 192.322 402.474 193.302C401.856 194.284 400.952 194.774 399.764 194.774C398.596 194.774 397.728 194.314 397.158 193.396C396.588 192.478 396.302 191.084 396.302 189.214C396.302 188.22 396.39 187.36 396.566 186.636C396.742 185.912 396.988 185.314 397.304 184.84C397.62 184.368 398 184.018 398.442 183.792C398.886 183.564 399.368 183.45 399.894 183.45Z" fill="black"/>
<path fill-rule="evenodd" clip-rule="evenodd" d="M406.15 182.326L409.384 189.606V190.206L406.15 197.492L405.282 197.184L407.884 189.906L405.282 182.618L406.15 182.326Z" fill="black"/>
<path fill-rule="evenodd" clip-rule="evenodd" d="M408.222 254.188H418.208V255.266H408.222V254.188Z" fill="black"/>
<path fill-rule="evenodd" clip-rule="evenodd" d="M421.392 247.874H422.64V262.958H421.392V247.874Z" fill="black"/>
<path fill-rule="evenodd" clip-rule="evenodd" d="M430.286 249.518H431.436V254.188H435.854V255.266H431.436V259.934H430.286V255.266H425.868V254.188H430.286V249.518Z" fill="black"/>
<path fill-rule="evenodd" clip-rule="evenodd" d="M438.762 247.154L441.996 254.434V255.034L438.762 262.32L437.894 262.012L440.496 254.734L437.894 247.446L438.762 247.154Z" fill="black"/>
<path fill-rule="evenodd" clip-rule="evenodd" d="M407.548 120.869H417.534V121.947H407.548V120.869Z" fill="black"/>
<path fill-rule="evenodd" clip-rule="evenodd" d="M420.716 114.555H421.966V129.639H420.716V114.555Z" fill="black"/>
<path fill-rule="evenodd" clip-rule="evenodd" d="M425.194 120.869H435.18V121.947H425.194V120.869Z" fill="black"/>
<path fill-rule="evenodd" clip-rule="evenodd" d="M438.088 113.836L441.322 121.115V121.714L438.088 129.001L437.22 128.693L439.822 121.415L437.22 114.128L438.088 113.836Z" fill="black"/>
</g>
<defs>
<clipPath id="clip0_5_635">
<rect width="736.8" height="373.6" fill="white" transform="translate(0.599976 0.200012)"/>
</clipPath>
</defs>
</svg>
