<svg width="679" height="365" viewBox="0 0 679 365" fill="none" xmlns="http://www.w3.org/2000/svg">
<g clip-path="url(#clip0_6_812)">
<path fill-rule="evenodd" clip-rule="evenodd" d="M24.1 163C24.1 86.1772 86.3772 23.9 163.2 23.9C240.022 23.9 302.3 86.1772 302.3 163C302.3 239.822 240.022 302.1 163.2 302.1C86.3772 302.1 24.1 239.822 24.1 163Z" stroke="#747474" stroke-width="1.375" stroke-miterlimit="8"/>
<path fill-rule="evenodd" clip-rule="evenodd" d="M296.2 163.1C296.2 159.842 298.842 157.2 302.1 157.2C305.358 157.2 308 159.842 308 163.1C308 166.358 305.358 169 302.1 169C298.842 169 296.2 166.358 296.2 163.1Z" fill="#0070C0"/>
<path fill-rule="evenodd" clip-rule="evenodd" d="M157.3 23.8C157.3 20.5416 159.942 17.9 163.2 17.9C166.458 17.9 169.1 20.5416 169.1 23.8C169.1 27.0586 166.458 29.7 163.2 29.7C159.942 29.7 157.3 27.0586 157.3 23.8Z" fill="white" stroke="black" stroke-width="1.375" stroke-miterlimit="8"/>
<path fill-rule="evenodd" clip-rule="evenodd" d="M18 163.1C18 159.842 20.6862 157.2 24 157.2C27.3136 157.2 30 159.842 30 163.1C30 166.358 27.3136 169 24 169C20.6862 169 18 166.358 18 163.1Z" fill="#0070C0"/>
<path fill-rule="evenodd" clip-rule="evenodd" d="M157.3 302C157.3 298.742 159.942 296.1 163.2 296.1C166.458 296.1 169.1 298.742 169.1 302C169.1 305.258 166.458 307.9 163.2 307.9C159.942 307.9 157.3 305.258 157.3 302Z" fill="white" stroke="black" stroke-width="1.375" stroke-miterlimit="8"/>
<path fill-rule="evenodd" clip-rule="evenodd" d="M257.1 66.6C257.1 63.3414 259.786 60.7 263.1 60.7C266.414 60.7 269.1 63.3414 269.1 66.6C269.1 69.8584 266.414 72.5 263.1 72.5C259.786 72.5 257.1 69.8584 257.1 66.6Z" fill="white" stroke="#0070C0" stroke-width="1.375" stroke-miterlimit="8"/>
<path fill-rule="evenodd" clip-rule="evenodd" d="M257.1 259.6C257.1 256.342 259.786 253.7 263.1 253.7C266.414 253.7 269.1 256.342 269.1 259.6C269.1 262.858 266.414 265.5 263.1 265.5C259.786 265.5 257.1 262.858 257.1 259.6Z" fill="white" stroke="black" stroke-width="1.375" stroke-miterlimit="8"/>
<path fill-rule="evenodd" clip-rule="evenodd" d="M57.3 66.6C57.3 63.3414 59.9862 60.7 63.3 60.7C66.6136 60.7 69.3 63.3414 69.3 66.6C69.3 69.8584 66.6136 72.5 63.3 72.5C59.9862 72.5 57.3 69.8584 57.3 66.6Z" fill="white" stroke="black" stroke-width="1.375" stroke-miterlimit="8"/>
<path fill-rule="evenodd" clip-rule="evenodd" d="M57.3 259.6C57.3 256.342 59.9862 253.7 63.3 253.7C66.6136 253.7 69.3 256.342 69.3 259.6C69.3 262.858 66.6136 265.5 63.3 265.5C59.9862 265.5 57.3 262.858 57.3 259.6Z" fill="white" stroke="#0070C0" stroke-width="1.375" stroke-miterlimit="8"/>
<path fill-rule="evenodd" clip-rule="evenodd" d="M375.1 163C375.1 86.1772 437.332 23.9 514.1 23.9C590.868 23.9 653.1 86.1772 653.1 163C653.1 239.822 590.868 302.1 514.1 302.1C437.332 302.1 375.1 239.822 375.1 163Z" stroke="#747474" stroke-width="1.375" stroke-miterlimit="8"/>
<path fill-rule="evenodd" clip-rule="evenodd" d="M647.1 163.2C647.1 159.942 649.786 157.3 653.1 157.3C656.414 157.3 659.1 159.942 659.1 163.2C659.1 166.458 656.414 169.1 653.1 169.1C649.786 169.1 647.1 166.458 647.1 163.2Z" fill="white" stroke="black" stroke-width="1.375" stroke-miterlimit="8"/>
<path fill-rule="evenodd" clip-rule="evenodd" d="M508 23.7C508 20.4414 510.686 17.8 514 17.8C517.314 17.8 520 20.4414 520 23.7C520 26.9584 517.314 29.6 514 29.6C510.686 29.6 508 26.9584 508 23.7Z" fill="#0070C0"/>
<path fill-rule="evenodd" clip-rule="evenodd" d="M369.1 163.2C369.1 159.942 371.742 157.3 375 157.3C378.258 157.3 380.9 159.942 380.9 163.2C380.9 166.458 378.258 169.1 375 169.1C371.742 169.1 369.1 166.458 369.1 163.2Z" fill="white" stroke="black" stroke-width="1.375" stroke-miterlimit="8"/>
<path fill-rule="evenodd" clip-rule="evenodd" d="M508 301.9C508 298.642 510.686 296 514 296C517.314 296 520 298.642 520 301.9C520 305.158 517.314 307.8 514 307.8C510.686 307.8 508 305.158 508 301.9Z" fill="#0070C0"/>
<path fill-rule="evenodd" clip-rule="evenodd" d="M607.9 66.6C607.9 63.3414 610.586 60.7 613.9 60.7C617.214 60.7 619.9 63.3414 619.9 66.6C619.9 69.8584 617.214 72.5 613.9 72.5C610.586 72.5 607.9 69.8584 607.9 66.6Z" fill="white" stroke="black" stroke-width="1.375" stroke-miterlimit="8"/>
<path fill-rule="evenodd" clip-rule="evenodd" d="M607.9 259.6C607.9 256.342 610.586 253.7 613.9 253.7C617.214 253.7 619.9 256.342 619.9 259.6C619.9 262.858 617.214 265.5 613.9 265.5C610.586 265.5 607.9 262.858 607.9 259.6Z" fill="white" stroke="#0070C0" stroke-width="1.375" stroke-miterlimit="8"/>
<path fill-rule="evenodd" clip-rule="evenodd" d="M408.3 66.6C408.3 63.3414 410.942 60.7 414.2 60.7C417.458 60.7 420.1 63.3414 420.1 66.6C420.1 69.8584 417.458 72.5 414.2 72.5C410.942 72.5 408.3 69.8584 408.3 66.6Z" fill="white" stroke="#0070C0" stroke-width="1.375" stroke-miterlimit="8"/>
<path fill-rule="evenodd" clip-rule="evenodd" d="M408.3 259.6C408.3 256.342 410.942 253.7 414.2 253.7C417.458 253.7 420.1 256.342 420.1 259.6C420.1 262.858 417.458 265.5 414.2 265.5C410.942 265.5 408.3 262.858 408.3 259.6Z" fill="white" stroke="black" stroke-width="1.375" stroke-miterlimit="8"/>
<path d="M309.334 162.498H324.438L323.75 163.186V66.7L324.438 67.3876H269.1V66.0126H325.126V163.874H309.334V162.498ZM314.394 168.298L308.26 163.186L314.394 158.074C314.686 157.832 315.12 157.872 315.362 158.162C315.606 158.454 315.566 158.888 315.274 159.132L309.774 163.714V162.658L315.274 167.242C315.566 167.484 315.606 167.918 315.362 168.21C315.12 168.502 314.686 168.54 314.394 168.298Z" fill="#0070C0"/>
<path d="M17.0274 163.788H1.6L2.2876 163.1V259.586L1.6 258.898H57.2622V260.274H0.912598V162.412H17.0274V163.788ZM11.9676 157.988L18.1014 163.1L11.9676 168.212C11.676 168.454 11.2424 168.416 10.9994 168.124C10.7562 167.832 10.7956 167.398 11.0874 167.156L16.5874 162.572V163.628L11.0874 159.044C10.7956 158.802 10.7562 158.368 10.9994 158.076C11.2424 157.784 11.676 157.746 11.9676 157.988Z" fill="#0070C0"/>
<path d="M619.952 258.934H677.384L676.696 259.62V1.4002L677.384 2.0876H514.1L514.788 1.4002V16.8276H513.412V0.712601H678.072V260.308H619.952V258.934ZM519.212 11.7676L514.1 17.9014L508.988 11.7676C508.746 11.476 508.784 11.0424 509.076 10.7994C509.368 10.5562 509.802 10.5958 510.044 10.8874L514.628 16.3874H513.572L518.156 10.8874C518.398 10.5958 518.832 10.5562 519.124 10.7994C519.416 11.0424 519.454 11.476 519.212 11.7676Z" fill="#0070C0"/>
<path d="M408.3 67.3876H357.214L357.9 66.7V324.474L357.214 323.786H514.15L513.464 324.474V309.046H514.838V325.16H356.526V66.0126H408.3V67.3876ZM509.04 314.104L514.15 307.972L519.262 314.104C519.506 314.396 519.466 314.83 519.174 315.074C518.882 315.316 518.45 315.276 518.206 314.986L513.622 309.486H514.68L510.096 314.986C509.852 315.276 509.42 315.316 509.128 315.074C508.836 314.83 508.796 314.396 509.04 314.104Z" fill="#0070C0"/>
<path d="M135.063 350.342C134.123 350.797 132.895 351.025 131.38 351.025C129.403 351.025 127.849 350.444 126.717 349.282C125.585 348.12 125.019 346.571 125.019 344.637C125.019 342.576 125.654 340.905 126.924 339.623C128.199 338.342 129.852 337.701 131.883 337.701C133.141 337.701 134.201 337.86 135.063 338.177V340.971C134.201 340.456 133.219 340.198 132.117 340.198C130.907 340.198 129.93 340.579 129.188 341.339C128.445 342.1 128.074 343.13 128.074 344.43C128.074 345.676 128.424 346.67 129.125 347.413C129.825 348.15 130.769 348.518 131.955 348.518C133.087 348.518 134.123 348.242 135.063 347.691V350.342ZM141.415 351.025C139.882 351.025 138.675 350.596 137.795 349.74C136.92 348.877 136.483 347.709 136.483 346.236C136.483 344.715 136.938 343.526 137.849 342.669C138.759 341.807 139.99 341.375 141.541 341.375C143.068 341.375 144.266 341.807 145.135 342.669C146.003 343.526 146.438 344.661 146.438 346.074C146.438 347.602 145.988 348.808 145.09 349.695C144.197 350.581 142.973 351.025 141.415 351.025ZM141.487 343.55C140.816 343.55 140.295 343.78 139.924 344.241C139.553 344.703 139.367 345.355 139.367 346.2C139.367 347.967 140.08 348.85 141.505 348.85C142.865 348.85 143.545 347.943 143.545 346.128C143.545 344.409 142.859 343.55 141.487 343.55ZM157.165 350.8H154.335V345.688C154.335 344.262 153.826 343.55 152.808 343.55C152.316 343.55 151.912 343.738 151.595 344.116C151.277 344.493 151.118 344.972 151.118 345.553V350.8H148.279V341.6H151.118V343.055H151.154C151.831 341.935 152.817 341.375 154.11 341.375C156.147 341.375 157.165 342.639 157.165 345.167V350.8ZM158.818 350.557V348.257C159.285 348.539 159.749 348.749 160.211 348.886C160.678 349.024 161.118 349.093 161.531 349.093C162.034 349.093 162.43 349.024 162.717 348.886C163.011 348.749 163.158 348.539 163.158 348.257C163.158 348.078 163.092 347.928 162.96 347.808C162.828 347.688 162.657 347.584 162.448 347.494C162.244 347.404 162.019 347.323 161.774 347.251C161.528 347.179 161.292 347.098 161.064 347.009C160.699 346.871 160.375 346.724 160.094 346.568C159.818 346.407 159.585 346.221 159.393 346.011C159.207 345.802 159.064 345.559 158.962 345.284C158.866 345.008 158.818 344.682 158.818 344.304C158.818 343.789 158.929 343.346 159.15 342.975C159.378 342.603 159.678 342.301 160.049 342.067C160.426 341.828 160.855 341.654 161.334 341.546C161.819 341.432 162.322 341.375 162.843 341.375C163.25 341.375 163.664 341.408 164.083 341.474C164.502 341.534 164.915 341.624 165.323 341.744V343.936C164.963 343.726 164.577 343.571 164.164 343.469C163.756 343.361 163.355 343.307 162.96 343.307C162.774 343.307 162.597 343.325 162.43 343.361C162.268 343.391 162.124 343.439 161.999 343.505C161.873 343.565 161.774 343.645 161.702 343.747C161.63 343.843 161.594 343.954 161.594 344.08C161.594 344.247 161.648 344.391 161.756 344.511C161.864 344.631 162.005 344.736 162.178 344.825C162.352 344.909 162.544 344.987 162.753 345.059C162.969 345.125 163.181 345.194 163.391 345.266C163.768 345.397 164.11 345.541 164.415 345.697C164.721 345.853 164.981 346.035 165.197 346.245C165.419 346.455 165.586 346.7 165.7 346.982C165.82 347.263 165.88 347.599 165.88 347.988C165.88 348.533 165.76 349 165.52 349.389C165.287 349.773 164.972 350.087 164.577 350.333C164.188 350.572 163.736 350.746 163.22 350.854C162.711 350.968 162.181 351.025 161.63 351.025C160.618 351.025 159.681 350.869 158.818 350.557ZM173.085 350.692C172.666 350.914 172.034 351.025 171.19 351.025C169.189 351.025 168.189 349.985 168.189 347.907V343.693H166.697V341.6H168.189V339.614L171.019 338.806V341.6H173.085V343.693H171.019V347.413C171.019 348.371 171.399 348.85 172.16 348.85C172.459 348.85 172.768 348.764 173.085 348.59V350.692ZM182.348 350.8H179.662V349.479H179.626C179.009 350.51 178.096 351.025 176.886 351.025C175.993 351.025 175.289 350.773 174.774 350.27C174.265 349.761 174.011 349.084 174.011 348.239C174.011 346.455 175.068 345.424 177.182 345.149L179.68 344.816C179.68 343.81 179.135 343.307 178.045 343.307C176.949 343.307 175.906 343.633 174.918 344.286V342.148C175.313 341.944 175.852 341.765 176.535 341.609C177.224 341.453 177.85 341.375 178.413 341.375C181.036 341.375 182.348 342.684 182.348 345.302V350.8ZM179.68 347.063V346.443L178.009 346.658C177.086 346.778 176.625 347.194 176.625 347.907C176.625 348.23 176.736 348.497 176.958 348.707C177.185 348.91 177.491 349.012 177.874 349.012C178.407 349.012 178.841 348.829 179.177 348.464C179.512 348.093 179.68 347.626 179.68 347.063ZM193.48 350.8H190.65V345.688C190.65 344.262 190.141 343.55 189.122 343.55C188.631 343.55 188.227 343.738 187.909 344.116C187.592 344.493 187.433 344.972 187.433 345.553V350.8H184.594V341.6H187.433V343.055H187.469C188.146 341.935 189.131 341.375 190.425 341.375C192.462 341.375 193.48 342.639 193.48 345.167V350.8ZM201.296 350.692C200.877 350.914 200.245 351.025 199.4 351.025C197.4 351.025 196.4 349.985 196.4 347.907V343.693H194.908V341.6H196.4V339.614L199.23 338.806V341.6H201.296V343.693H199.23V347.413C199.23 348.371 199.61 348.85 200.371 348.85C200.67 348.85 200.979 348.764 201.296 348.59V350.692Z" fill="black"/>
<path d="M491.275 337.916L486.837 350.8H483.548L479.164 337.916H482.29L484.977 346.883C485.121 347.368 485.207 347.796 485.237 348.168H485.291C485.333 347.766 485.426 347.326 485.57 346.847L488.238 337.916H491.275ZM498.813 350.8H496.126V349.479H496.09C495.474 350.51 494.56 351.025 493.35 351.025C492.458 351.025 491.754 350.773 491.239 350.27C490.73 349.761 490.475 349.084 490.475 348.239C490.475 346.455 491.532 345.424 493.647 345.149L496.144 344.816C496.144 343.81 495.599 343.307 494.509 343.307C493.413 343.307 492.371 343.633 491.383 344.286V342.148C491.778 341.944 492.317 341.765 493 341.609C493.689 341.453 494.315 341.375 494.878 341.375C497.501 341.375 498.813 342.684 498.813 345.302V350.8ZM496.144 347.063V346.443L494.473 346.658C493.551 346.778 493.09 347.194 493.09 347.907C493.09 348.23 493.2 348.497 493.422 348.707C493.65 348.91 493.955 349.012 494.338 349.012C494.872 349.012 495.306 348.829 495.641 348.464C495.977 348.093 496.144 347.626 496.144 347.063ZM507.06 344.161C506.719 343.975 506.321 343.882 505.865 343.882C505.249 343.882 504.766 344.11 504.419 344.565C504.072 345.014 503.898 345.628 503.898 346.407V350.8H501.059V341.6H503.898V343.307H503.934C504.383 342.061 505.192 341.438 506.36 341.438C506.659 341.438 506.893 341.474 507.06 341.546V344.161ZM509.899 340.145C509.42 340.145 509.028 340.004 508.722 339.722C508.417 339.435 508.264 339.084 508.264 338.671C508.264 338.246 508.417 337.898 508.722 337.629C509.028 337.359 509.42 337.225 509.899 337.225C510.385 337.225 510.777 337.359 511.076 337.629C511.382 337.898 511.535 338.246 511.535 338.671C511.535 339.102 511.382 339.456 511.076 339.731C510.777 340.007 510.385 340.145 509.899 340.145ZM511.301 350.8H508.462V341.6H511.301V350.8ZM521.346 350.8H518.659V349.479H518.623C518.006 350.51 517.093 351.025 515.883 351.025C514.991 351.025 514.287 350.773 513.772 350.27C513.263 349.761 513.008 349.084 513.008 348.239C513.008 346.455 514.065 345.424 516.18 345.149L518.677 344.816C518.677 343.81 518.132 343.307 517.042 343.307C515.946 343.307 514.904 343.633 513.915 344.286V342.148C514.311 341.944 514.85 341.765 515.533 341.609C516.221 341.453 516.847 341.375 517.41 341.375C520.034 341.375 521.346 342.684 521.346 345.302V350.8ZM518.677 347.063V346.443L517.006 346.658C516.084 346.778 515.622 347.194 515.622 347.907C515.622 348.23 515.733 348.497 515.955 348.707C516.182 348.91 516.488 349.012 516.871 349.012C517.404 349.012 517.839 348.829 518.174 348.464C518.509 348.093 518.677 347.626 518.677 347.063ZM526.467 349.731H526.431V350.8H523.592V337.18H526.431V342.984H526.467C527.167 341.911 528.165 341.375 529.458 341.375C530.644 341.375 531.558 341.783 532.199 342.597C532.84 343.412 533.16 344.526 533.16 345.939C533.16 347.473 532.786 348.704 532.037 349.632C531.288 350.56 530.288 351.025 529.036 351.025C527.904 351.025 527.048 350.593 526.467 349.731ZM526.386 345.85V346.793C526.386 347.386 526.556 347.877 526.898 348.266C527.239 348.656 527.677 348.85 528.21 348.85C528.856 348.85 529.357 348.602 529.71 348.105C530.069 347.602 530.249 346.892 530.249 345.975C530.249 345.215 530.084 344.622 529.755 344.196C529.431 343.765 528.967 343.55 528.362 343.55C527.793 343.55 527.32 343.762 526.943 344.188C526.571 344.613 526.386 345.167 526.386 345.85ZM537.841 350.8H535.002V337.18H537.841V350.8ZM548.496 347.009H542.495C542.591 348.344 543.432 349.012 545.019 349.012C546.032 349.012 546.921 348.773 547.688 348.293V350.342C546.837 350.797 545.732 351.025 544.372 351.025C542.887 351.025 541.734 350.614 540.913 349.794C540.093 348.967 539.683 347.817 539.683 346.344C539.683 344.816 540.126 343.607 541.012 342.714C541.899 341.822 542.989 341.375 544.283 341.375C545.624 341.375 546.66 341.774 547.391 342.57C548.128 343.367 548.496 344.448 548.496 345.814V347.009ZM545.864 345.266C545.864 343.948 545.331 343.289 544.265 343.289C543.809 343.289 543.414 343.478 543.079 343.855C542.749 344.232 542.549 344.703 542.477 345.266H545.864Z" fill="black"/>
<path fill-rule="evenodd" clip-rule="evenodd" d="M258.554 156.376H259.802V171.46H258.554V156.376Z" fill="black"/>
<path fill-rule="evenodd" clip-rule="evenodd" d="M266.418 157.47C266.046 157.47 265.734 157.58 265.482 157.802C265.23 158.024 265.028 158.342 264.874 158.758C264.72 159.174 264.61 159.682 264.546 160.278C264.482 160.876 264.448 161.55 264.448 162.3C264.448 164.062 264.612 165.354 264.938 166.178C265.266 167.002 265.772 167.414 266.458 167.414C267.112 167.414 267.598 167.028 267.914 166.252C268.23 165.476 268.388 164.276 268.388 162.648C268.388 161.406 268.306 160.4 268.144 159.63C267.982 158.86 267.756 158.308 267.468 157.972C267.178 157.638 266.828 157.47 266.418 157.47ZM266.458 156.78C267.642 156.78 268.522 157.238 269.102 158.15C269.68 159.064 269.968 160.444 269.968 162.292C269.968 164.206 269.66 165.652 269.04 166.632C268.422 167.614 267.518 168.104 266.33 168.104C265.162 168.104 264.294 167.644 263.724 166.726C263.154 165.808 262.868 164.414 262.868 162.544C262.868 161.55 262.956 160.69 263.132 159.966C263.308 159.242 263.552 158.644 263.87 158.17C264.186 157.698 264.564 157.348 265.008 157.122C265.45 156.894 265.934 156.78 266.458 156.78Z" fill="black"/>
<path fill-rule="evenodd" clip-rule="evenodd" d="M272.716 155.656L275.95 162.936V163.534L272.716 170.822L271.848 170.514L274.45 163.236L271.848 155.948L272.716 155.656Z" fill="black"/>
<path fill-rule="evenodd" clip-rule="evenodd" d="M155.898 45.5336H157.148V60.618H155.898V45.5336Z" fill="black"/>
<path fill-rule="evenodd" clip-rule="evenodd" d="M164.404 45.939H164.85C164.818 46.4576 164.8 47.1764 164.8 48.095V55.017C164.8 55.3304 164.818 55.5668 164.854 55.7262C164.888 55.8856 164.95 56.0154 165.04 56.1154C165.13 56.2154 165.258 56.2936 165.424 56.3504C165.592 56.4072 165.804 56.4504 166.058 56.48C166.312 56.5098 166.646 56.53 167.062 56.5408V57.1326H161.072V56.5408C161.672 56.5138 162.1 56.4774 162.358 56.4314C162.614 56.3856 162.81 56.3166 162.944 56.2248C163.08 56.133 163.178 56.0032 163.24 55.8358C163.302 55.6682 163.334 55.3954 163.334 55.017V48.4436C163.334 48.2274 163.296 48.0694 163.22 47.9694C163.144 47.8694 163.034 47.8194 162.888 47.8194C162.716 47.8194 162.47 47.9086 162.15 48.0868C161.832 48.2652 161.438 48.511 160.966 48.8244L160.61 48.2004L164.404 45.939Z" fill="black"/>
<path fill-rule="evenodd" clip-rule="evenodd" d="M170.06 44.8148L173.294 52.0936V52.6934L170.06 59.9802L169.194 59.6722L171.796 52.3934L169.194 45.1066L170.06 44.8148Z" fill="black"/>
<path fill-rule="evenodd" clip-rule="evenodd" d="M224.48 88.3506H225.728V103.435H224.48V88.3506Z" fill="black"/>
<path fill-rule="evenodd" clip-rule="evenodd" d="M233.374 89.996H234.526V94.6646H238.942V95.7426H234.526V100.411H233.374V95.7426H228.956V94.6646H233.374V89.996Z" fill="black"/>
<path fill-rule="evenodd" clip-rule="evenodd" d="M241.85 87.6316L245.084 94.9104V95.5102L241.85 102.797L240.984 102.489L243.584 95.2102L240.984 87.9234L241.85 87.6316Z" fill="black"/>
<path fill-rule="evenodd" clip-rule="evenodd" d="M224.474 221.522H225.724V236.606H224.474V221.522Z" fill="black"/>
<path fill-rule="evenodd" clip-rule="evenodd" d="M228.952 227.836H238.938V228.914H228.952V227.836Z" fill="black"/>
<path fill-rule="evenodd" clip-rule="evenodd" d="M241.846 220.804L245.08 228.082V228.682L241.846 235.97L240.978 235.662L243.58 228.382L240.978 221.096L241.846 220.804Z" fill="black"/>
<path fill-rule="evenodd" clip-rule="evenodd" d="M148.964 265.09H158.95V266.168H148.964V265.09Z" fill="black"/>
<path fill-rule="evenodd" clip-rule="evenodd" d="M162.132 258.776H163.382V273.86H162.132V258.776Z" fill="black"/>
<path fill-rule="evenodd" clip-rule="evenodd" d="M170.638 259.18H171.084C171.052 259.7 171.034 260.418 171.034 261.336V268.258C171.034 268.572 171.052 268.808 171.088 268.968C171.122 269.128 171.184 269.258 171.274 269.358C171.364 269.458 171.492 269.536 171.66 269.592C171.826 269.648 172.038 269.692 172.292 269.722C172.546 269.752 172.88 269.772 173.296 269.782V270.374H167.306V269.782C167.906 269.756 168.334 269.72 168.592 269.674C168.848 269.628 169.044 269.558 169.178 269.466C169.314 269.374 169.412 269.244 169.474 269.078C169.536 268.91 169.568 268.638 169.568 268.258V261.686C169.568 261.47 169.53 261.312 169.454 261.212C169.378 261.112 169.268 261.062 169.122 261.062C168.95 261.062 168.704 261.15 168.384 261.328C168.066 261.506 167.672 261.752 167.202 262.066L166.844 261.442L170.638 259.18Z" fill="black"/>
<path fill-rule="evenodd" clip-rule="evenodd" d="M176.294 258.056L179.528 265.336V265.936L176.294 273.222L175.428 272.914L178.03 265.636L175.428 258.348L176.294 258.056Z" fill="black"/>
<path fill-rule="evenodd" clip-rule="evenodd" d="M44.694 162.69H54.68V163.768H44.694V162.69Z" fill="black"/>
<path fill-rule="evenodd" clip-rule="evenodd" d="M57.8634 156.376H59.1116V171.46H57.8634V156.376Z" fill="black"/>
<path fill-rule="evenodd" clip-rule="evenodd" d="M65.728 157.47C65.3552 157.47 65.043 157.58 64.7918 157.802C64.5406 158.024 64.338 158.342 64.184 158.758C64.03 159.174 63.9204 159.682 63.8556 160.278C63.7908 160.876 63.7584 161.55 63.7584 162.3C63.7584 164.062 63.9218 165.354 64.2488 166.178C64.5756 167.002 65.0822 167.414 65.7686 167.414C66.4224 167.414 66.9074 167.028 67.2234 166.252C67.5396 165.476 67.6976 164.276 67.6976 162.648C67.6976 161.406 67.6166 160.4 67.4544 159.63C67.2924 158.86 67.0668 158.308 66.7776 157.972C66.4886 157.638 66.1386 157.47 65.728 157.47ZM65.7686 156.78C66.952 156.78 67.8328 157.238 68.411 158.15C68.989 159.064 69.2782 160.444 69.2782 162.292C69.2782 164.206 68.9688 165.652 68.3502 166.632C67.7314 167.614 66.8276 168.104 65.6388 168.104C64.4716 168.104 63.603 167.644 63.033 166.726C62.4628 165.808 62.1778 164.414 62.1778 162.544C62.1778 161.55 62.2656 160.69 62.4412 159.966C62.6168 159.242 62.8628 158.644 63.1788 158.17C63.495 157.698 63.8746 157.348 64.3176 157.122C64.7608 156.894 65.2444 156.78 65.7686 156.78Z" fill="black"/>
<path fill-rule="evenodd" clip-rule="evenodd" d="M72.0254 155.656L75.2594 162.936V163.534L72.0254 170.822L71.158 170.514L73.76 163.236L71.158 155.948L72.0254 155.656Z" fill="black"/>
<path fill-rule="evenodd" clip-rule="evenodd" d="M74.0972 227.518H84.083V228.596H74.0972V227.518Z" fill="black"/>
<path fill-rule="evenodd" clip-rule="evenodd" d="M87.2664 221.204H88.5148V236.288H87.2664V221.204Z" fill="black"/>
<path fill-rule="evenodd" clip-rule="evenodd" d="M96.1604 222.848H97.3114V227.518H101.729V228.596H97.3114V233.264H96.1604V228.596H91.743V227.518H96.1604V222.848Z" fill="black"/>
<path fill-rule="evenodd" clip-rule="evenodd" d="M104.637 220.484L107.871 227.764V228.362L104.637 235.65L103.769 235.342L106.371 228.064L103.769 220.776L104.637 220.484Z" fill="black"/>
<path fill-rule="evenodd" clip-rule="evenodd" d="M73.423 94.1988H83.409V95.2768H73.423V94.1988Z" fill="black"/>
<path fill-rule="evenodd" clip-rule="evenodd" d="M86.5924 87.8846H87.8406V102.969H86.5924V87.8846Z" fill="black"/>
<path fill-rule="evenodd" clip-rule="evenodd" d="M91.0688 94.1988H101.055V95.2768H91.0688V94.1988Z" fill="black"/>
<path fill-rule="evenodd" clip-rule="evenodd" d="M103.963 87.1658L107.197 94.4446V95.0444L103.963 102.331L103.095 102.023L105.697 94.7444L103.095 87.4576L103.963 87.1658Z" fill="black"/>
<path fill-rule="evenodd" clip-rule="evenodd" d="M607.734 156.376H608.982V171.46H607.734V156.376Z" fill="black"/>
<path fill-rule="evenodd" clip-rule="evenodd" d="M615.598 157.47C615.224 157.47 614.912 157.58 614.662 157.802C614.41 158.024 614.208 158.342 614.054 158.758C613.9 159.174 613.79 159.682 613.726 160.278C613.66 160.876 613.628 161.55 613.628 162.3C613.628 164.062 613.792 165.354 614.118 166.178C614.446 167.002 614.952 167.414 615.638 167.414C616.292 167.414 616.778 167.028 617.094 166.252C617.41 165.476 617.568 164.276 617.568 162.648C617.568 161.406 617.486 160.4 617.324 159.63C617.162 158.86 616.936 158.308 616.648 157.972C616.358 157.638 616.008 157.47 615.598 157.47ZM615.638 156.78C616.822 156.78 617.702 157.238 618.28 158.15C618.858 159.064 619.148 160.444 619.148 162.292C619.148 164.206 618.838 165.652 618.22 166.632C617.602 167.614 616.698 168.104 615.508 168.104C614.342 168.104 613.472 167.644 612.902 166.726C612.332 165.808 612.048 164.414 612.048 162.544C612.048 161.55 612.136 160.69 612.31 159.966C612.486 159.242 612.732 158.644 613.048 158.17C613.364 157.698 613.744 157.348 614.188 157.122C614.63 156.894 615.114 156.78 615.638 156.78Z" fill="black"/>
<path fill-rule="evenodd" clip-rule="evenodd" d="M621.896 155.656L625.13 162.936V163.534L621.896 170.822L621.028 170.514L623.63 163.236L621.028 155.948L621.896 155.656Z" fill="black"/>
<path fill-rule="evenodd" clip-rule="evenodd" d="M505.078 45.5336H506.326V60.618H505.078V45.5336Z" fill="black"/>
<path fill-rule="evenodd" clip-rule="evenodd" d="M513.584 45.939H514.028C513.996 46.4576 513.98 47.1764 513.98 48.095V55.017C513.98 55.3304 513.998 55.5668 514.034 55.7262C514.068 55.8856 514.13 56.0154 514.22 56.1154C514.308 56.2154 514.436 56.2936 514.604 56.3504C514.772 56.4072 514.982 56.4504 515.236 56.48C515.49 56.5098 515.826 56.53 516.242 56.5408V57.1326H510.252V56.5408C510.852 56.5138 511.28 56.4774 511.536 56.4314C511.794 56.3856 511.99 56.3166 512.124 56.2248C512.26 56.133 512.358 56.0032 512.42 55.8358C512.482 55.6682 512.514 55.3954 512.514 55.017V48.4436C512.514 48.2274 512.476 48.0694 512.4 47.9694C512.324 47.8694 512.214 47.8194 512.068 47.8194C511.894 47.8194 511.648 47.9086 511.33 48.0868C511.012 48.2652 510.616 48.511 510.146 48.8244L509.79 48.2004L513.584 45.939Z" fill="black"/>
<path fill-rule="evenodd" clip-rule="evenodd" d="M519.24 44.8148L522.474 52.0936V52.6934L519.24 59.9802L518.372 59.6722L520.974 52.3934L518.372 45.1066L519.24 44.8148Z" fill="black"/>
<path fill-rule="evenodd" clip-rule="evenodd" d="M573.66 88.3506H574.908V103.435H573.66V88.3506Z" fill="black"/>
<path fill-rule="evenodd" clip-rule="evenodd" d="M582.554 89.996H583.704V94.6646H588.122V95.7426H583.704V100.411H582.554V95.7426H578.136V94.6646H582.554V89.996Z" fill="black"/>
<path fill-rule="evenodd" clip-rule="evenodd" d="M591.03 87.6316L594.264 94.9104V95.5102L591.03 102.797L590.162 102.489L592.764 95.2102L590.162 87.9234L591.03 87.6316Z" fill="black"/>
<path fill-rule="evenodd" clip-rule="evenodd" d="M573.654 221.522H574.902V236.606H573.654V221.522Z" fill="black"/>
<path fill-rule="evenodd" clip-rule="evenodd" d="M578.13 227.836H588.116V228.914H578.13V227.836Z" fill="black"/>
<path fill-rule="evenodd" clip-rule="evenodd" d="M591.024 220.804L594.258 228.082V228.682L591.024 235.97L590.158 235.662L592.76 228.382L590.158 221.096L591.024 220.804Z" fill="black"/>
<path fill-rule="evenodd" clip-rule="evenodd" d="M498.142 265.09H508.128V266.168H498.142V265.09Z" fill="black"/>
<path fill-rule="evenodd" clip-rule="evenodd" d="M511.312 258.776H512.56V273.86H511.312V258.776Z" fill="black"/>
<path fill-rule="evenodd" clip-rule="evenodd" d="M519.818 259.18H520.264C520.23 259.7 520.214 260.418 520.214 261.336V268.258C520.214 268.572 520.232 268.808 520.268 268.968C520.302 269.128 520.364 269.258 520.454 269.358C520.542 269.458 520.67 269.536 520.838 269.592C521.006 269.648 521.216 269.692 521.47 269.722C521.724 269.752 522.06 269.772 522.476 269.782V270.374H516.486V269.782C517.086 269.756 517.514 269.72 517.77 269.674C518.028 269.628 518.224 269.558 518.358 269.466C518.494 269.374 518.592 269.244 518.654 269.078C518.716 268.91 518.748 268.638 518.748 268.258V261.686C518.748 261.47 518.71 261.312 518.634 261.212C518.558 261.112 518.448 261.062 518.302 261.062C518.128 261.062 517.882 261.15 517.564 261.328C517.246 261.506 516.85 261.752 516.38 262.066L516.024 261.442L519.818 259.18Z" fill="black"/>
<path fill-rule="evenodd" clip-rule="evenodd" d="M525.474 258.056L528.708 265.336V265.936L525.474 273.222L524.606 272.914L527.208 265.636L524.606 258.348L525.474 258.056Z" fill="black"/>
<path fill-rule="evenodd" clip-rule="evenodd" d="M393.874 162.69H403.86V163.768H393.874V162.69Z" fill="black"/>
<path fill-rule="evenodd" clip-rule="evenodd" d="M407.042 156.376H408.292V171.46H407.042V156.376Z" fill="black"/>
<path fill-rule="evenodd" clip-rule="evenodd" d="M414.908 157.47C414.534 157.47 414.222 157.58 413.972 157.802C413.72 158.024 413.518 158.342 413.364 158.758C413.21 159.174 413.1 159.682 413.036 160.278C412.97 160.876 412.938 161.55 412.938 162.3C412.938 164.062 413.102 165.354 413.428 166.178C413.756 167.002 414.262 167.414 414.948 167.414C415.602 167.414 416.086 167.028 416.402 166.252C416.72 165.476 416.878 164.276 416.878 162.648C416.878 161.406 416.796 160.4 416.634 159.63C416.472 158.86 416.246 158.308 415.958 157.972C415.668 157.638 415.318 157.47 414.908 157.47ZM414.948 156.78C416.132 156.78 417.012 157.238 417.59 158.15C418.168 159.064 418.458 160.444 418.458 162.292C418.458 164.206 418.148 165.652 417.53 166.632C416.91 167.614 416.008 168.104 414.818 168.104C413.652 168.104 412.782 167.644 412.212 166.726C411.642 165.808 411.358 164.414 411.358 162.544C411.358 161.55 411.446 160.69 411.62 159.966C411.796 159.242 412.042 158.644 412.358 158.17C412.674 157.698 413.054 157.348 413.498 157.122C413.94 156.894 414.424 156.78 414.948 156.78Z" fill="black"/>
<path fill-rule="evenodd" clip-rule="evenodd" d="M421.204 155.656L424.438 162.936V163.534L421.204 170.822L420.338 170.514L422.94 163.236L420.338 155.948L421.204 155.656Z" fill="black"/>
<path fill-rule="evenodd" clip-rule="evenodd" d="M423.276 227.518H433.262V228.596H423.276V227.518Z" fill="black"/>
<path fill-rule="evenodd" clip-rule="evenodd" d="M436.446 221.204H437.694V236.288H436.446V221.204Z" fill="black"/>
<path fill-rule="evenodd" clip-rule="evenodd" d="M445.34 222.848H446.49V227.518H450.908V228.596H446.49V233.264H445.34V228.596H440.922V227.518H445.34V222.848Z" fill="black"/>
<path fill-rule="evenodd" clip-rule="evenodd" d="M453.816 220.484L457.05 227.764V228.362L453.816 235.65L452.948 235.342L455.55 228.064L452.948 220.776L453.816 220.484Z" fill="black"/>
<path fill-rule="evenodd" clip-rule="evenodd" d="M422.602 94.1988H432.588V95.2768H422.602V94.1988Z" fill="black"/>
<path fill-rule="evenodd" clip-rule="evenodd" d="M435.772 87.8846H437.02V102.969H435.772V87.8846Z" fill="black"/>
<path fill-rule="evenodd" clip-rule="evenodd" d="M440.248 94.1988H450.234V95.2768H440.248V94.1988Z" fill="black"/>
<path fill-rule="evenodd" clip-rule="evenodd" d="M453.142 87.1658L456.376 94.4446V95.0444L453.142 102.331L452.274 102.023L454.876 94.7444L452.274 87.4576L453.142 87.1658Z" fill="black"/>
</g>
<defs>
<clipPath id="clip0_6_812">
<rect width="677.4" height="363.8" fill="white" transform="translate(0.799988 0.600006)"/>
</clipPath>
</defs>
</svg>
