<?xml version="1.0" encoding="UTF-8"?>
<svg width="738" height="374" fill="none" version="1.1" viewBox="0 0 738 374" xmlns="http://www.w3.org/2000/svg"><g clip-path="url(#clip0_5_635)"><g clip-rule="evenodd" fill-rule="evenodd"><path d="m7.3 189c0-76.8 62.3-139 139-139 76.8 0 139 62.3 139 139 0 76.8-62.3 139-139 139-76.8 0-139-62.3-139-139z" stroke="#747474" stroke-miterlimit="8" stroke-width="1.38"/><g fill="#fff" stroke="#000" stroke-miterlimit="8"><path d="m279 189c0-3.26 2.69-5.9 6-5.9s6 2.64 6 5.9-2.69 5.9-6 5.9-6-2.64-6-5.9z" stroke-width="1.15"/><g stroke-width="1.38"><path d="m140 49.4c0-3.26 2.64-5.9 5.9-5.9s5.9 2.64 5.9 5.9c0 3.26-2.64 5.9-5.9 5.9s-5.9-2.64-5.9-5.9z"/><path d="m1.3 189c0-3.26 2.69-5.9 6-5.9 3.31 0 6 2.64 6 5.9s-2.69 5.9-6 5.9c-3.31 0-6-2.64-6-5.9z"/><path d="m140 328c0-3.26 2.64-5.9 5.9-5.9s5.9 2.64 5.9 5.9-2.64 5.9-5.9 5.9-5.9-2.64-5.9-5.9z"/></g></g><path d="m240 92.3c0-3.26 2.69-5.9 6-5.9s6 2.64 6 5.9c0 3.26-2.69 5.9-6 5.9s-6-2.64-6-5.9z" fill="#0070C0"/><path d="m240 285c0-3.26 2.69-5.9 6-5.9s6 2.64 6 5.9-2.69 5.9-6 5.9-6-2.64-6-5.9z" fill="#fff" stroke="#000" stroke-miterlimit="8" stroke-width="1.38"/><path d="m40.5 92.4c0-3.26 2.69-5.9 6-5.9s6 2.64 6 5.9-2.69 5.9-6 5.9-6-2.64-6-5.9z" fill="#fff" stroke="#000" stroke-miterlimit="8" stroke-width="1.38"/><path d="m40.4 285c0-3.26 2.69-5.9 6-5.9 3.31 0 6 2.64 6 5.9s-2.69 5.9-6 5.9c-3.31 0-6-2.64-6-5.9z" fill="#0070C0"/><path d="m358 189c0-76.8 62.2-139 139-139s139 62.3 139 139c0 76.8-62.2 139-139 139s-139-62.3-139-139z" stroke="#747474" stroke-miterlimit="8" stroke-width="1.38"/><g fill="#fff" stroke-miterlimit="8" stroke-width="1.38"><g stroke="#000"><path d="m630 189c0-3.26 2.69-5.9 6-5.9s6 2.64 6 5.9-2.69 5.9-6 5.9-6-2.64-6-5.9z"/><path d="m491 49.4c0-3.26 2.69-5.9 6-5.9s6 2.64 6 5.9c0 3.26-2.69 5.9-6 5.9s-6-2.64-6-5.9z"/><path d="m352 189c0-3.26 2.64-5.9 5.9-5.9s5.9 2.64 5.9 5.9-2.64 5.9-5.9 5.9-5.9-2.64-5.9-5.9z"/><path d="m491 328c0-3.26 2.69-5.9 6-5.9s6 2.64 6 5.9-2.69 5.9-6 5.9-6-2.64-6-5.9z"/></g><path d="m591 92.4c0-3.26 2.64-5.9 5.9-5.9s5.9 2.64 5.9 5.9-2.64 5.9-5.9 5.9-5.9-2.64-5.9-5.9z" stroke="#0070C0"/></g><path d="m591 285c0-3.26 2.64-5.9 5.9-5.9s5.9 2.64 5.9 5.9-2.64 5.9-5.9 5.9-5.9-2.64-5.9-5.9z" fill="#0070C0"/><path d="m391 92.3c0-3.26 2.64-5.9 5.9-5.9s5.9 2.64 5.9 5.9c0 3.26-2.64 5.9-5.9 5.9s-5.9-2.64-5.9-5.9z" fill="#0070C0"/><path d="m392 285c0-3.26 2.64-5.9 5.9-5.9s5.9 2.64 5.9 5.9-2.64 5.9-5.9 5.9-5.9-2.64-5.9-5.9z" fill="#fff" stroke="#000" stroke-miterlimit="8" stroke-width="1.38"/></g><g fill="#0070C0"><path d="m247 85.4v-15.1l-0.688 0.688h22.1l-0.687-0.688v22.1l0.687-0.688h-16.2v1.38h16.9v-23.5h-23.5v15.8h1.38zm-5.8-5.06 5.11 6.13 5.11-6.13c0.244-0.292 0.204-0.725-0.088-0.968-0.291-0.243-0.725-0.204-0.968 0.088l-4.58 5.5h1.06l-4.58-5.5c-0.243-0.292-0.677-0.331-0.968-0.088-0.292 0.243-0.332 0.677-0.088 0.968z"/><path d="m199 136-105 102 0.96 0.985 105-102-0.96-0.984zm-104 95.6-0.826 7.94 7.96-0.619c0.378-0.03 0.661-0.361 0.632-0.739-0.03-0.379-0.36-0.662-0.739-0.632l-7.14 0.555 0.737 0.757 0.741-7.12c0.0392-0.378-0.235-0.716-0.613-0.755-0.378-0.04-0.716 0.235-0.755 0.612z"/><path d="m603 91.6h58.4v194h-56.4v-1.37h55.8l-0.688 0.686v-193l0.688 0.688h-57.8v-1.38zm7.05 199-6.13-5.11 6.13-5.11c0.29-0.244 0.724-0.204 0.968 0.088 0.242 0.29 0.204 0.724-0.088 0.968l-5.5 4.58v-1.06l5.5 4.58c0.292 0.242 0.33 0.676 0.088 0.968-0.244 0.292-0.678 0.332-0.968 0.088z"/><path d="m397 85.7v-56.4h201v56.6h-1.37v-55.9l0.686 0.688h-200l0.688-0.688v55.7h-1.38zm5.8-5.06-5.11 6.13-5.11-6.13c-0.242-0.292-0.204-0.725 0.088-0.968 0.292-0.243 0.726-0.204 0.968 0.0882l4.58 5.5h-1.06l4.58-5.5c0.242-0.292 0.676-0.331 0.968-0.0882 0.292 0.243 0.33 0.677 0.088 0.968z"/></g><g clip-rule="evenodd" fill="#0078D4" fill-rule="evenodd"><path d="m231 48.1c0.516 0 0.962 0.0422 1.34 0.126l-0.308 1.34h-0.696c-0.074-0.301-0.17-0.517-0.288-0.649-0.12-0.132-0.294-0.198-0.526-0.198-0.302 0-0.556 0.083-0.764 0.249s-0.386 0.413-0.534 0.74-0.284 0.767-0.412 1.32l-0.196 0.862h2.03l-0.174 0.799h-2.04l-1.47 6.9c-0.242 1.14-0.614 2-1.12 2.56-0.5 0.562-1.13 0.842-1.89 0.842-0.222 0-0.396-0.0132-0.522-0.0396l0.134-0.696c0.054 0.0158 0.178 0.0236 0.372 0.0236 0.238 0 0.44-0.0606 0.61-0.182 0.168-0.121 0.324-0.332 0.47-0.633 0.144-0.3 0.278-0.717 0.4-1.25l1.7-7.52h-1.34l0.118-0.546c0.354-0.0212 0.608-0.0502 0.764-0.087 0.154-0.037 0.276-0.0924 0.364-0.166 0.086-0.0738 0.16-0.17 0.22-0.289 0.062-0.119 0.138-0.336 0.234-0.653 0.28-0.949 0.71-1.66 1.29-2.14 0.582-0.477 1.32-0.716 2.23-0.716z"/><path d="m250 47.3c1.54 0.406 2.72 1.28 3.55 2.63 0.826 1.35 1.24 2.97 1.24 4.88 0 1.91-0.41 3.53-1.23 4.88-0.822 1.34-2.01 2.22-3.55 2.62l-0.19-0.609c1.22-0.406 2.12-1.21 2.72-2.4 0.594-1.2 0.89-2.72 0.89-4.56 0-1.78-0.296-3.26-0.886-4.44s-1.51-1.97-2.74-2.38l0.214-0.609zm-10.1 0 0.214 0.609c-1.23 0.406-2.15 1.2-2.74 2.38-0.592 1.18-0.89 2.66-0.89 4.44 0 1.85 0.298 3.37 0.89 4.56 0.594 1.2 1.5 2 2.72 2.4l-0.19 0.609c-1.55-0.406-2.73-1.28-3.55-2.62-0.822-1.34-1.23-2.97-1.23-4.88 0-1.9 0.412-3.53 1.24-4.88s2.01-2.22 3.55-2.63z"/><path d="m243 51.7c0.162 0 0.306 0.0184 0.43 0.0554 0.124 0.0368 0.234 0.0936 0.328 0.17 0.096 0.0764 0.18 0.175 0.254 0.297s0.144 0.286 0.214 0.494c0.068 0.208 0.132 0.467 0.194 0.775 0.06 0.308 0.114 0.629 0.162 0.961h0.078c0.506-0.712 0.89-1.23 1.15-1.56 0.26-0.33 0.48-0.575 0.66-0.736s0.352-0.274 0.518-0.34c0.166-0.0658 0.386-0.0988 0.66-0.0988 0.248 0 0.452 0.0316 0.61 0.0948l-0.316 1.43h-0.554c-0.032-0.221-0.124-0.332-0.278-0.332-0.046 0-0.098 0.0078-0.15 0.0238-0.052 0.0158-0.118 0.05-0.194 0.103-0.076 0.0526-0.188 0.156-0.336 0.308-0.148 0.153-0.314 0.34-0.498 0.562-0.184 0.222-0.374 0.454-0.57 0.696l-0.538 0.672c0.096 0.506 0.186 0.944 0.27 1.31s0.158 0.676 0.224 0.922 0.124 0.439 0.174 0.581c0.052 0.142 0.106 0.249 0.164 0.32 0.058 0.0712 0.116 0.121 0.178 0.15 0.06 0.029 0.13 0.0434 0.208 0.0434 0.144 0 0.282-0.0552 0.416-0.166s0.328-0.361 0.582-0.751l0.514 0.34c-0.37 0.548-0.704 0.935-1 1.16-0.298 0.224-0.652 0.336-1.06 0.336-0.226 0-0.418-0.0408-0.576-0.123-0.158-0.0816-0.296-0.212-0.412-0.391-0.116-0.179-0.218-0.459-0.308-0.839-0.164-0.675-0.264-1.19-0.3-1.55h-0.08c-0.558 0.786-0.974 1.35-1.25 1.69s-0.496 0.596-0.672 0.759-0.348 0.278-0.514 0.344c-0.166 0.066-0.386 0.099-0.66 0.099-0.248 0-0.452-0.0316-0.61-0.095l0.316-1.43h0.554c0.032 0.221 0.124 0.332 0.278 0.332 0.072 0 0.15-0.0198 0.232-0.0594s0.2-0.134 0.352-0.285c0.154-0.15 0.364-0.386 0.634-0.708 0.268-0.322 0.658-0.804 1.17-1.45-0.08-0.417-0.16-0.817-0.246-1.2-0.084-0.385-0.17-0.744-0.26-1.08s-0.164-0.55-0.222-0.653-0.12-0.174-0.186-0.214-0.148-0.0592-0.248-0.0592c-0.112 0-0.212 0.025-0.302 0.075-0.09 0.0502-0.186 0.137-0.292 0.261-0.106 0.124-0.246 0.318-0.42 0.581l-0.514-0.34c0.332-0.501 0.652-0.875 0.958-1.12 0.306-0.248 0.666-0.372 1.08-0.372z"/><path d="m262 55.9h9.75v1.05h-9.75v-1.05zm0-3.28h9.75v1.05h-9.75v-1.05z"/><path d="m281 49.2c-0.364 0-0.668 0.108-0.914 0.324-0.244 0.216-0.442 0.527-0.592 0.933-0.15 0.406-0.258 0.901-0.32 1.48-0.064 0.583-0.096 1.24-0.096 1.97 0 1.72 0.16 2.98 0.478 3.78 0.32 0.804 0.814 1.21 1.48 1.21 0.638 0 1.11-0.378 1.42-1.14s0.462-1.93 0.462-3.52c0-1.21-0.078-2.2-0.236-2.95-0.16-0.751-0.38-1.29-0.662-1.62s-0.622-0.49-1.02-0.49zm0.04-0.672c1.15 0 2.01 0.446 2.58 1.34s0.846 2.24 0.846 4.04c0 1.87-0.3 3.28-0.904 4.24s-1.49 1.44-2.65 1.44c-1.14 0-1.99-0.448-2.54-1.34-0.556-0.897-0.834-2.26-0.834-4.08 0-0.97 0.086-1.81 0.256-2.52 0.172-0.707 0.412-1.29 0.72-1.75 0.31-0.461 0.68-0.803 1.11-1.02s0.904-0.332 1.42-0.332z"/><path d="m94.3 164c0.53 0 0.986 0.043 1.37 0.13l-0.316 1.38h-0.713c-0.0756-0.308-0.174-0.53-0.296-0.665s-0.301-0.203-0.539-0.203c-0.308 0-0.569 0.085-0.782 0.256-0.213 0.17-0.396 0.422-0.547 0.758-0.151 0.334-0.292 0.786-0.422 1.35l-0.203 0.882h2.08l-0.178 0.82h-2.09l-1.51 7.07c-0.249 1.17-0.63 2.05-1.14 2.62-0.513 0.574-1.16 0.862-1.94 0.862-0.227 0-0.405-0.012-0.535-0.04l0.138-0.714c0.054 0.016 0.181 0.026 0.381 0.026 0.243 0 0.451-0.064 0.624-0.188s0.334-0.34 0.482-0.648 0.285-0.734 0.409-1.28l1.74-7.71h-1.37l0.122-0.56c0.362-0.022 0.623-0.052 0.782-0.09s0.284-0.094 0.373-0.17c0.0892-0.076 0.165-0.174 0.227-0.296 0.0622-0.12 0.142-0.344 0.239-0.668 0.286-0.972 0.728-1.7 1.33-2.19 0.597-0.489 1.36-0.734 2.28-0.734z"/><path d="m113 163c1.58 0.416 2.79 1.31 3.64 2.7 0.846 1.38 1.27 3.05 1.27 5 0 1.96-0.422 3.62-1.26 5-0.843 1.37-2.06 2.27-3.64 2.69l-0.195-0.624c1.25-0.416 2.18-1.24 2.78-2.46 0.608-1.23 0.911-2.79 0.911-4.68 0-1.83-0.302-3.34-0.907-4.55-0.606-1.21-1.54-2.02-2.81-2.44l0.219-0.624zm-10.3 0 0.219 0.624c-1.26 0.416-2.2 1.23-2.81 2.44-0.608 1.21-0.912 2.73-0.912 4.55 0 1.89 0.304 3.45 0.912 4.68 0.608 1.23 1.54 2.05 2.78 2.46l-0.194 0.624c-1.58-0.416-2.8-1.31-3.64-2.69-0.843-1.38-1.26-3.04-1.26-5 0-1.95 0.423-3.62 1.27-5 0.846-1.38 2.06-2.28 3.64-2.7z"/><path d="m106 168c0.168 0 0.315 0.02 0.442 0.058s0.239 0.096 0.336 0.174c0.098 0.078 0.184 0.18 0.26 0.304 0.075 0.124 0.148 0.292 0.219 0.506 0.07 0.214 0.136 0.478 0.198 0.794s0.118 0.646 0.166 0.986h0.081c0.519-0.73 0.912-1.26 1.18-1.6 0.267-0.338 0.493-0.588 0.677-0.754 0.183-0.164 0.36-0.28 0.53-0.348 0.171-0.068 0.396-0.1 0.677-0.1 0.254 0 0.462 0.032 0.624 0.096l-0.324 1.47h-0.567c-0.033-0.228-0.127-0.342-0.284-0.342-0.049 0-0.1 0.01-0.154 0.026s-0.12 0.05-0.199 0.104c-0.078 0.054-0.193 0.16-0.344 0.316-0.151 0.158-0.322 0.35-0.511 0.576-0.189 0.228-0.383 0.464-0.583 0.714l-0.551 0.688c0.097 0.52 0.189 0.968 0.275 1.35 0.087 0.378 0.164 0.694 0.231 0.944 0.068 0.252 0.127 0.45 0.178 0.596 0.052 0.146 0.107 0.256 0.167 0.328 0.059 0.074 0.12 0.124 0.182 0.154s0.134 0.044 0.215 0.044c0.146 0 0.288-0.056 0.425-0.17 0.138-0.112 0.337-0.37 0.596-0.77l0.527 0.35c-0.378 0.562-0.72 0.956-1.02 1.19-0.306 0.23-0.669 0.346-1.09 0.346-0.232 0-0.429-0.042-0.591-0.126s-0.303-0.218-0.422-0.402-0.224-0.47-0.316-0.858c-0.167-0.692-0.27-1.22-0.308-1.59h-0.081c-0.573 0.806-0.998 1.38-1.28 1.73-0.278 0.352-0.507 0.612-0.689 0.78-0.181 0.166-0.356 0.284-0.526 0.352-0.171 0.068-0.396 0.102-0.677 0.102-0.254 0-0.462-0.034-0.624-0.098l0.324-1.47h0.567c0.033 0.228 0.127 0.342 0.284 0.342 0.076 0 0.155-0.022 0.239-0.062s0.204-0.138 0.361-0.292 0.373-0.396 0.648-0.724c0.276-0.33 0.676-0.824 1.2-1.48-0.081-0.428-0.165-0.838-0.251-1.23-0.087-0.394-0.176-0.762-0.268-1.1-0.092-0.342-0.167-0.564-0.227-0.67-0.059-0.104-0.123-0.178-0.19-0.218-0.068-0.04-0.153-0.06-0.256-0.06-0.113 0-0.216 0.024-0.308 0.076s-0.191 0.14-0.3 0.268c-0.108 0.126-0.251 0.326-0.429 0.596l-0.527-0.35c0.34-0.512 0.667-0.896 0.981-1.15 0.313-0.254 0.683-0.382 1.11-0.382z"/><path d="m125 172h9.99v1.08h-9.99v-1.08zm0-3.36h9.99v1.08h-9.99v-1.08z"/><path d="m146 164h0.446c-0.032 0.519-0.048 1.24-0.048 2.16v6.92c0 0.314 0.018 0.55 0.052 0.71 0.036 0.158 0.098 0.288 0.186 0.388 0.09 0.1 0.218 0.178 0.386 0.236 0.168 0.056 0.378 0.1 0.632 0.128 0.254 0.03 0.588 0.05 1 0.062v0.592h-5.99v-0.592c0.6-0.028 1.03-0.064 1.29-0.11s0.452-0.114 0.588-0.206c0.134-0.092 0.234-0.222 0.296-0.39 0.062-0.166 0.092-0.44 0.092-0.818v-6.57c0-0.216-0.038-0.374-0.114-0.474-0.074-0.1-0.186-0.15-0.332-0.15-0.172 0-0.418 0.09-0.736 0.268-0.32 0.178-0.714 0.424-1.18 0.738l-0.358-0.624 3.79-2.26z"/><path d="m676 183c0.516 0 0.962 0.044 1.34 0.128l-0.308 1.34h-0.696c-0.074-0.3-0.17-0.516-0.288-0.648-0.12-0.132-0.294-0.198-0.528-0.198-0.3 0-0.554 0.082-0.762 0.248-0.208 0.168-0.386 0.414-0.534 0.74-0.148 0.328-0.286 0.768-0.412 1.32l-0.198 0.862h2.03l-0.174 0.798h-2.04l-1.47 6.9c-0.244 1.14-0.614 2-1.12 2.56-0.5 0.56-1.13 0.842-1.89 0.842-0.222 0-0.396-0.014-0.522-0.04l0.134-0.696c0.052 0.016 0.176 0.024 0.372 0.024 0.238 0 0.44-0.06 0.608-0.182 0.17-0.122 0.326-0.332 0.472-0.632 0.144-0.302 0.278-0.718 0.398-1.25l1.7-7.52h-1.34l0.12-0.546c0.352-0.02 0.608-0.05 0.762-0.086 0.156-0.038 0.278-0.092 0.364-0.166 0.088-0.074 0.162-0.17 0.222-0.288 0.06-0.12 0.138-0.338 0.234-0.654 0.278-0.948 0.71-1.66 1.29-2.14 0.584-0.476 1.33-0.716 2.23-0.716z"/><path d="m694 182c1.54 0.406 2.72 1.28 3.55 2.63 0.826 1.35 1.24 2.97 1.24 4.88 0 1.91-0.412 3.53-1.23 4.88s-2.01 2.22-3.55 2.62l-0.19-0.608c1.22-0.406 2.12-1.21 2.72-2.41 0.594-1.2 0.89-2.72 0.89-4.56 0-1.78-0.296-3.26-0.886-4.44-0.59-1.18-1.51-1.97-2.74-2.38l0.212-0.608zm-10.1 0 0.212 0.608c-1.23 0.406-2.15 1.2-2.74 2.38-0.594 1.18-0.89 2.66-0.89 4.44 0 1.85 0.296 3.37 0.89 4.56 0.594 1.2 1.5 2 2.72 2.41l-0.19 0.608c-1.55-0.406-2.73-1.28-3.55-2.62-0.824-1.34-1.23-2.97-1.23-4.88 0-1.9 0.412-3.53 1.24-4.88 0.824-1.35 2.01-2.22 3.55-2.63z"/><path d="m688 187c0.164 0 0.308 0.018 0.432 0.054 0.124 0.038 0.234 0.094 0.328 0.17 0.096 0.078 0.18 0.176 0.254 0.298 0.074 0.12 0.144 0.286 0.212 0.494 0.07 0.208 0.134 0.466 0.194 0.774 0.062 0.31 0.116 0.63 0.162 0.962h0.08c0.506-0.712 0.89-1.23 1.15-1.56 0.262-0.33 0.482-0.576 0.662-0.736 0.178-0.16 0.352-0.274 0.518-0.34s0.386-0.098 0.66-0.098c0.248 0 0.45 0.03 0.61 0.094l-0.318 1.43h-0.554c-0.03-0.222-0.122-0.332-0.276-0.332-0.048 0-0.098 8e-3 -0.15 0.024s-0.118 0.05-0.194 0.102-0.188 0.156-0.336 0.308c-0.148 0.154-0.314 0.34-0.498 0.562-0.186 0.222-0.374 0.454-0.57 0.696l-0.538 0.672c0.094 0.506 0.184 0.944 0.27 1.31 0.084 0.368 0.158 0.676 0.224 0.922 0.066 0.244 0.124 0.438 0.174 0.58 0.05 0.144 0.104 0.25 0.162 0.322 0.058 0.07 0.118 0.12 0.178 0.15 0.062 0.028 0.132 0.042 0.21 0.042 0.142 0 0.282-0.054 0.416-0.166 0.134-0.11 0.328-0.36 0.58-0.75l0.516 0.34c-0.37 0.548-0.704 0.934-1 1.16s-0.652 0.336-1.06 0.336c-0.226 0-0.418-0.04-0.576-0.122-0.16-0.082-0.296-0.212-0.412-0.392s-0.22-0.458-0.308-0.838c-0.164-0.676-0.264-1.19-0.302-1.55h-0.078c-0.56 0.786-0.974 1.35-1.25 1.69s-0.496 0.596-0.672 0.76c-0.178 0.164-0.348 0.278-0.514 0.344s-0.388 0.098-0.662 0.098c-0.248 0-0.45-0.032-0.608-0.094l0.316-1.43h0.554c0.032 0.222 0.124 0.332 0.276 0.332 0.074 0 0.152-0.02 0.234-0.06 0.082-0.038 0.2-0.134 0.352-0.284s0.364-0.386 0.632-0.708c0.27-0.322 0.66-0.804 1.17-1.45-0.08-0.416-0.162-0.816-0.246-1.2-0.084-0.384-0.172-0.744-0.26-1.08-0.09-0.332-0.164-0.55-0.222-0.652-0.058-0.104-0.12-0.174-0.186-0.214s-0.15-0.06-0.25-0.06c-0.11 0-0.21 0.026-0.3 0.076s-0.188 0.138-0.292 0.262c-0.106 0.122-0.246 0.316-0.42 0.58l-0.514-0.34c0.332-0.5 0.652-0.876 0.958-1.12 0.304-0.248 0.666-0.372 1.08-0.372z"/><path d="m706 191h9.75v1.05h-9.75v-1.05zm0-3.28h9.75v1.05h-9.75v-1.05z"/><path d="m725 187c0.162 0 0.306 0.018 0.43 0.054 0.124 0.038 0.234 0.094 0.328 0.17 0.096 0.078 0.18 0.176 0.254 0.298 0.074 0.12 0.144 0.286 0.214 0.494 0.068 0.208 0.132 0.466 0.194 0.774 0.06 0.31 0.114 0.63 0.162 0.962h0.078c0.506-0.712 0.89-1.23 1.15-1.56 0.26-0.33 0.48-0.576 0.66-0.736s0.352-0.274 0.518-0.34 0.386-0.098 0.66-0.098c0.248 0 0.452 0.03 0.61 0.094l-0.316 1.43h-0.554c-0.032-0.222-0.124-0.332-0.278-0.332-0.046 0-0.096 8e-3 -0.15 0.024-0.052 0.016-0.118 0.05-0.194 0.102s-0.188 0.156-0.336 0.308c-0.148 0.154-0.314 0.34-0.498 0.562s-0.374 0.454-0.57 0.696l-0.538 0.672c0.096 0.506 0.186 0.944 0.27 1.31 0.084 0.368 0.16 0.676 0.224 0.922 0.066 0.244 0.124 0.438 0.174 0.58 0.052 0.144 0.106 0.25 0.164 0.322 0.058 0.07 0.116 0.12 0.178 0.15 0.06 0.028 0.13 0.042 0.208 0.042 0.144 0 0.282-0.054 0.416-0.166 0.134-0.11 0.328-0.36 0.582-0.75l0.514 0.34c-0.37 0.548-0.704 0.934-1 1.16s-0.652 0.336-1.06 0.336c-0.228 0-0.42-0.04-0.578-0.122s-0.296-0.212-0.412-0.392-0.218-0.458-0.308-0.838c-0.164-0.676-0.264-1.19-0.3-1.55h-0.08c-0.558 0.786-0.974 1.35-1.25 1.69s-0.496 0.596-0.672 0.76-0.348 0.278-0.514 0.344-0.386 0.098-0.66 0.098c-0.248 0-0.452-0.032-0.61-0.094l0.316-1.43h0.554c0.032 0.222 0.124 0.332 0.278 0.332 0.072 0 0.15-0.02 0.232-0.06 0.082-0.038 0.2-0.134 0.352-0.284 0.154-0.15 0.364-0.386 0.634-0.708 0.268-0.322 0.658-0.804 1.17-1.45-0.08-0.416-0.16-0.816-0.246-1.2-0.084-0.384-0.17-0.744-0.26-1.08s-0.164-0.55-0.222-0.652c-0.058-0.104-0.12-0.174-0.186-0.214s-0.148-0.06-0.248-0.06c-0.112 0-0.212 0.026-0.302 0.076s-0.186 0.138-0.292 0.262c-0.106 0.122-0.246 0.316-0.42 0.58l-0.514-0.34c0.332-0.5 0.652-0.876 0.958-1.12 0.306-0.248 0.666-0.372 1.08-0.372z"/><path d="m463 7.88c0.516 0 0.962 0.0422 1.34 0.127l-0.308 1.34h-0.696c-0.074-0.301-0.17-0.517-0.288-0.649-0.12-0.132-0.294-0.198-0.526-0.198-0.302 0-0.556 0.083-0.764 0.249-0.208 0.166-0.386 0.413-0.534 0.74-0.148 0.327-0.284 0.767-0.412 1.32l-0.198 0.862h2.03l-0.174 0.799h-2.04l-1.47 6.9c-0.244 1.14-0.614 2-1.12 2.56-0.5 0.562-1.13 0.842-1.89 0.842-0.222 0-0.396-0.0132-0.522-0.0394l0.134-0.696c0.052 0.0158 0.176 0.0238 0.372 0.0238 0.238 0 0.44-0.0606 0.608-0.182 0.17-0.121 0.326-0.332 0.472-0.633 0.144-0.301 0.278-0.717 0.4-1.25l1.7-7.52h-1.34l0.12-0.546c0.352-0.021 0.608-0.05 0.762-0.087 0.156-0.0368 0.278-0.0922 0.364-0.166 0.088-0.074 0.162-0.17 0.222-0.289s0.138-0.336 0.234-0.653c0.28-0.949 0.71-1.66 1.29-2.14 0.584-0.477 1.33-0.716 2.23-0.716z"/><path d="m482 7.11c1.54 0.406 2.72 1.28 3.55 2.63 0.826 1.35 1.24 2.97 1.24 4.88 0 1.91-0.41 3.53-1.23 4.88-0.822 1.34-2.01 2.22-3.55 2.62l-0.19-0.609c1.22-0.406 2.12-1.21 2.72-2.4s0.89-2.72 0.89-4.56c0-1.78-0.296-3.26-0.886-4.44-0.59-1.18-1.51-1.97-2.74-2.38l0.212-0.609zm-10.1 0 0.212 0.609c-1.23 0.406-2.15 1.2-2.74 2.38-0.594 1.18-0.89 2.66-0.89 4.44 0 1.85 0.296 3.37 0.89 4.56s1.5 2 2.72 2.4l-0.19 0.609c-1.55-0.406-2.73-1.28-3.55-2.62-0.824-1.34-1.23-2.97-1.23-4.88 0-1.9 0.412-3.53 1.24-4.88 0.824-1.35 2.01-2.22 3.55-2.63z"/><path d="m475 11.5c0.164 0 0.308 0.0184 0.432 0.0554s0.234 0.0936 0.328 0.17c0.096 0.0766 0.18 0.175 0.254 0.297 0.074 0.121 0.144 0.286 0.212 0.494 0.07 0.208 0.134 0.467 0.194 0.775 0.062 0.309 0.116 0.629 0.162 0.961h0.08c0.506-0.712 0.89-1.23 1.15-1.56 0.262-0.33 0.482-0.575 0.662-0.736 0.178-0.161 0.352-0.274 0.518-0.34 0.166-0.066 0.386-0.099 0.66-0.099 0.248 0 0.45 0.0318 0.61 0.095l-0.318 1.43h-0.552c-0.032-0.222-0.124-0.332-0.278-0.332-0.048 0-0.098 8e-3 -0.15 0.0238s-0.118 0.0502-0.194 0.103c-0.076 0.0528-0.188 0.156-0.336 0.309-0.148 0.153-0.314 0.34-0.498 0.562-0.186 0.221-0.374 0.453-0.57 0.696l-0.538 0.672c0.096 0.506 0.184 0.944 0.27 1.31 0.084 0.369 0.158 0.676 0.224 0.921s0.124 0.439 0.174 0.581 0.104 0.249 0.162 0.32 0.118 0.121 0.178 0.15c0.062 0.029 0.132 0.0434 0.21 0.0434 0.142 0 0.282-0.0554 0.416-0.166 0.134-0.111 0.328-0.361 0.58-0.751l0.516 0.34c-0.37 0.548-0.704 0.935-1 1.16s-0.652 0.336-1.06 0.336c-0.226 0-0.418-0.0408-0.576-0.123-0.16-0.0818-0.296-0.212-0.412-0.392-0.116-0.179-0.22-0.459-0.308-0.838-0.164-0.675-0.264-1.19-0.302-1.55h-0.078c-0.56 0.786-0.974 1.35-1.25 1.69s-0.496 0.596-0.672 0.759c-0.178 0.163-0.348 0.278-0.514 0.344s-0.388 0.0988-0.662 0.0988c-0.248 0-0.45-0.0316-0.608-0.0948l0.316-1.43h0.554c0.032 0.222 0.124 0.332 0.276 0.332 0.074 0 0.152-0.0198 0.234-0.0592 0.082-0.0396 0.2-0.135 0.352-0.285 0.152-0.15 0.364-0.386 0.632-0.708 0.27-0.322 0.66-0.804 1.17-1.45-0.08-0.417-0.162-0.817-0.246-1.2-0.084-0.385-0.172-0.743-0.26-1.08-0.09-0.332-0.164-0.55-0.222-0.653-0.058-0.103-0.12-0.174-0.186-0.214-0.066-0.0396-0.15-0.0594-0.25-0.0594-0.11 0-0.21 0.025-0.3 0.0752-0.09 0.05-0.188 0.137-0.292 0.261-0.106 0.124-0.246 0.318-0.42 0.581l-0.514-0.34c0.332-0.501 0.652-0.875 0.958-1.12s0.666-0.372 1.08-0.372z"/><path d="m494 15.7h9.75v1.05h-9.75v-1.05zm0-3.28h9.75v1.05h-9.75v-1.05z"/><path d="m510 14h9.74v5.58h-1.12v-4.54h-8.62v-1.04z"/><path d="m524 11.5c0.164 0 0.308 0.0184 0.432 0.0554s0.234 0.0936 0.328 0.17c0.094 0.0766 0.18 0.175 0.254 0.297 0.072 0.121 0.144 0.286 0.212 0.494 0.07 0.208 0.134 0.467 0.194 0.775 0.062 0.309 0.116 0.629 0.162 0.961h0.08c0.506-0.712 0.89-1.23 1.15-1.56 0.262-0.33 0.482-0.575 0.662-0.736 0.178-0.161 0.352-0.274 0.518-0.34 0.166-0.066 0.386-0.099 0.66-0.099 0.248 0 0.45 0.0318 0.608 0.095l-0.316 1.43h-0.554c-0.03-0.222-0.124-0.332-0.276-0.332-0.048 0-0.098 8e-3 -0.15 0.0238-0.054 0.0158-0.118 0.0502-0.194 0.103-0.076 0.0528-0.188 0.156-0.336 0.309-0.148 0.153-0.314 0.34-0.498 0.562-0.186 0.221-0.376 0.453-0.57 0.696l-0.538 0.672c0.094 0.506 0.184 0.944 0.268 1.31 0.086 0.369 0.16 0.676 0.226 0.921s0.124 0.439 0.174 0.581 0.104 0.249 0.162 0.32 0.118 0.121 0.178 0.15c0.062 0.029 0.13 0.0434 0.21 0.0434 0.142 0 0.28-0.0554 0.416-0.166 0.134-0.111 0.328-0.361 0.58-0.751l0.514 0.34c-0.368 0.548-0.702 0.935-1 1.16s-0.652 0.336-1.06 0.336c-0.226 0-0.418-0.0408-0.578-0.123-0.158-0.0818-0.294-0.212-0.41-0.392-0.116-0.179-0.22-0.459-0.308-0.838-0.164-0.675-0.264-1.19-0.302-1.55h-0.078c-0.56 0.786-0.974 1.35-1.25 1.69s-0.496 0.596-0.672 0.759c-0.178 0.163-0.348 0.278-0.514 0.344-0.168 0.066-0.388 0.0988-0.662 0.0988-0.248 0-0.45-0.0316-0.608-0.0948l0.316-1.43h0.554c0.032 0.222 0.124 0.332 0.276 0.332 0.074 0 0.152-0.0198 0.234-0.0592 0.082-0.0396 0.198-0.135 0.352-0.285 0.152-0.15 0.364-0.386 0.632-0.708 0.27-0.322 0.66-0.804 1.17-1.45-0.08-0.417-0.162-0.817-0.246-1.2-0.084-0.385-0.172-0.743-0.26-1.08-0.09-0.332-0.164-0.55-0.222-0.653-0.058-0.103-0.12-0.174-0.186-0.214-0.066-0.0396-0.15-0.0594-0.25-0.0594-0.11 0-0.21 0.025-0.3 0.0752-0.09 0.05-0.188 0.137-0.292 0.261-0.106 0.124-0.246 0.318-0.42 0.581l-0.514-0.34c0.332-0.501 0.652-0.875 0.956-1.12 0.306-0.248 0.668-0.372 1.08-0.372z"/></g><path d="m121 360c-0.941 0.455-2.17 0.683-3.68 0.683-1.98 0-3.53-0.581-4.66-1.74s-1.7-2.71-1.7-4.64c0-2.06 0.635-3.73 1.9-5.01 1.28-1.28 2.93-1.92 4.96-1.92 1.26 0 2.32 0.159 3.18 0.476v2.79c-0.863-0.515-1.84-0.773-2.95-0.773-1.21 0-2.19 0.381-2.93 1.14-0.743 0.761-1.11 1.79-1.11 3.09 0 1.25 0.35 2.24 1.05 2.98 0.701 0.737 1.64 1.1 2.83 1.1 1.13 0 2.17-0.276 3.11-0.827v2.65zm6.35 0.683c-1.53 0-2.74-0.429-3.62-1.28-0.875-0.863-1.31-2.03-1.31-3.5 0-1.52 0.455-2.71 1.37-3.57 0.91-0.862 2.14-1.29 3.69-1.29 1.53 0 2.73 0.432 3.59 1.29 0.869 0.857 1.3 1.99 1.3 3.4 0 1.53-0.449 2.73-1.35 3.62-0.892 0.886-2.12 1.33-3.67 1.33zm0.071-7.48c-0.67 0-1.19 0.23-1.56 0.691-0.371 0.462-0.557 1.11-0.557 1.96 0 1.77 0.713 2.65 2.14 2.65 1.36 0 2.04-0.907 2.04-2.72 0-1.72-0.686-2.58-2.06-2.58zm15.7 7.25h-2.83v-5.11c0-1.43-0.509-2.14-1.53-2.14-0.491 0-0.896 0.188-1.21 0.566-0.318 0.377-0.476 0.856-0.476 1.44v5.25h-2.84v-9.2h2.84v1.46h0.036c0.676-1.12 1.66-1.68 2.96-1.68 2.04 0 3.06 1.26 3.06 3.79v5.63zm1.65-0.243v-2.3c0.467 0.282 0.932 0.492 1.39 0.629 0.467 0.138 0.907 0.207 1.32 0.207 0.503 0 0.898-0.069 1.19-0.207 0.293-0.137 0.44-0.347 0.44-0.629 0-0.179-0.066-0.329-0.198-0.449s-0.302-0.224-0.512-0.314c-0.204-0.09-0.428-0.171-0.674-0.243-0.245-0.072-0.482-0.153-0.71-0.242-0.365-0.138-0.688-0.285-0.97-0.441-0.275-0.161-0.509-0.347-0.701-0.557-0.185-0.209-0.329-0.452-0.431-0.727-0.096-0.276-0.144-0.602-0.144-0.98 0-0.515 0.111-0.958 0.333-1.33 0.227-0.372 0.527-0.674 0.898-0.908 0.377-0.239 0.806-0.413 1.28-0.521 0.485-0.114 0.988-0.171 1.51-0.171 0.408 0 0.821 0.033 1.24 0.099 0.419 0.06 0.833 0.15 1.24 0.27v2.19c-0.359-0.21-0.746-0.365-1.16-0.467-0.407-0.108-0.809-0.162-1.2-0.162-0.186 0-0.362 0.018-0.53 0.054-0.162 0.03-0.305 0.078-0.431 0.144-0.126 0.06-0.225 0.14-0.297 0.242-0.072 0.096-0.108 0.207-0.108 0.333 0 0.167 0.054 0.311 0.162 0.431s0.249 0.225 0.422 0.314c0.174 0.084 0.366 0.162 0.575 0.234 0.216 0.066 0.429 0.135 0.638 0.207 0.378 0.131 0.719 0.275 1.02 0.431 0.305 0.156 0.566 0.338 0.781 0.548 0.222 0.21 0.39 0.455 0.503 0.737 0.12 0.281 0.18 0.617 0.18 1.01 0 0.545-0.12 1.01-0.359 1.4-0.234 0.384-0.548 0.698-0.944 0.944-0.389 0.239-0.841 0.413-1.36 0.521-0.509 0.114-1.04 0.171-1.59 0.171-1.01 0-1.95-0.156-2.81-0.468zm14.3 0.135c-0.419 0.222-1.05 0.333-1.9 0.333-2 0-3-1.04-3-3.12v-4.21h-1.49v-2.09h1.49v-1.99l2.83-0.808v2.79h2.07v2.09h-2.07v3.72c0 0.958 0.38 1.44 1.14 1.44 0.3 0 0.608-0.086 0.925-0.26v2.1zm9.26 0.108h-2.69v-1.32h-0.036c-0.617 1.03-1.53 1.55-2.74 1.55-0.893 0-1.6-0.252-2.11-0.755-0.51-0.509-0.764-1.19-0.764-2.03 0-1.78 1.06-2.82 3.17-3.09l2.5-0.333c0-1.01-0.545-1.51-1.64-1.51-1.1 0-2.14 0.326-3.13 0.979v-2.14c0.396-0.204 0.935-0.383 1.62-0.539 0.689-0.156 1.32-0.234 1.88-0.234 2.62 0 3.94 1.31 3.94 3.93v5.5zm-2.67-3.74v-0.62l-1.67 0.215c-0.922 0.12-1.38 0.536-1.38 1.25 0 0.323 0.111 0.59 0.333 0.8 0.227 0.203 0.533 0.305 0.916 0.305 0.533 0 0.967-0.183 1.3-0.548 0.335-0.371 0.503-0.838 0.503-1.4zm13.8 3.74h-2.83v-5.11c0-1.43-0.509-2.14-1.53-2.14-0.492 0-0.896 0.188-1.21 0.566-0.318 0.377-0.476 0.856-0.476 1.44v5.25h-2.84v-9.2h2.84v1.46h0.035c0.677-1.12 1.66-1.68 2.96-1.68 2.04 0 3.06 1.26 3.06 3.79v5.63zm7.82-0.108c-0.419 0.222-1.05 0.333-1.9 0.333-2 0-3-1.04-3-3.12v-4.21h-1.49v-2.09h1.49v-1.99l2.83-0.808v2.79h2.07v2.09h-2.07v3.72c0 0.958 0.38 1.44 1.14 1.44 0.3 0 0.608-0.086 0.925-0.26v2.1z" fill="#000"/><path d="m477 347-4.44 12.9h-3.29l-4.38-12.9h3.13l2.69 8.97c0.143 0.485 0.23 0.913 0.26 1.28h0.054c0.042-0.402 0.135-0.842 0.279-1.32l2.67-8.93h3.04zm7.54 12.9h-2.69v-1.32h-0.036c-0.617 1.03-1.53 1.55-2.74 1.55-0.892 0-1.6-0.252-2.11-0.755-0.509-0.509-0.764-1.19-0.764-2.03 0-1.78 1.06-2.82 3.17-3.09l2.5-0.333c0-1.01-0.545-1.51-1.64-1.51-1.1 0-2.14 0.326-3.13 0.979v-2.14c0.395-0.204 0.934-0.383 1.62-0.539 0.689-0.156 1.32-0.234 1.88-0.234 2.62 0 3.94 1.31 3.94 3.93v5.5zm-2.67-3.74v-0.62l-1.67 0.215c-0.922 0.12-1.38 0.536-1.38 1.25 0 0.323 0.11 0.59 0.332 0.8 0.228 0.203 0.533 0.305 0.916 0.305 0.534 0 0.968-0.183 1.3-0.548 0.336-0.371 0.503-0.838 0.503-1.4zm10.9-2.9c-0.341-0.186-0.739-0.279-1.2-0.279-0.617 0-1.1 0.228-1.45 0.683-0.347 0.449-0.521 1.06-0.521 1.84v4.39h-2.84v-9.2h2.84v1.71h0.036c0.449-1.25 1.26-1.87 2.43-1.87 0.299 0 0.533 0.036 0.7 0.108v2.62zm2.84-4.02c-0.479 0-0.871-0.141-1.18-0.423-0.305-0.287-0.458-0.638-0.458-1.05 0-0.425 0.153-0.773 0.458-1.04 0.306-0.27 0.698-0.404 1.18-0.404 0.486 0 0.878 0.134 1.18 0.404 0.306 0.269 0.459 0.617 0.459 1.04 0 0.431-0.153 0.785-0.459 1.06-0.299 0.276-0.691 0.414-1.18 0.414zm1.4 10.7h-2.84v-9.2h2.84v9.2zm10 0h-2.69v-1.32h-0.036c-0.617 1.03-1.53 1.55-2.74 1.55-0.892 0-1.6-0.252-2.11-0.755-0.509-0.509-0.764-1.19-0.764-2.03 0-1.78 1.06-2.82 3.17-3.09l2.5-0.333c0-1.01-0.545-1.51-1.64-1.51-1.1 0-2.14 0.326-3.13 0.979v-2.14c0.396-0.204 0.935-0.383 1.62-0.539 0.688-0.156 1.31-0.234 1.88-0.234 2.62 0 3.94 1.31 3.94 3.93v5.5zm-2.67-3.74v-0.62l-1.67 0.215c-0.922 0.12-1.38 0.536-1.38 1.25 0 0.323 0.111 0.59 0.333 0.8 0.227 0.203 0.533 0.305 0.916 0.305 0.533 0 0.968-0.183 1.3-0.548 0.335-0.371 0.503-0.838 0.503-1.4zm7.79 2.67h-0.036v1.07h-2.84v-13.6h2.84v5.8h0.036c0.7-1.07 1.7-1.61 2.99-1.61 1.19 0 2.1 0.408 2.74 1.22 0.641 0.815 0.961 1.93 0.961 3.34 0 1.53-0.374 2.76-1.12 3.69s-1.75 1.39-3 1.39c-1.13 0-1.99-0.432-2.57-1.29zm-0.081-3.88v0.943c0 0.593 0.17 1.08 0.512 1.47 0.341 0.39 0.778 0.584 1.31 0.584 0.646 0 1.15-0.248 1.5-0.745 0.359-0.503 0.539-1.21 0.539-2.13 0-0.76-0.165-1.35-0.494-1.78-0.324-0.431-0.788-0.646-1.39-0.646-0.569 0-1.04 0.212-1.42 0.638-0.372 0.425-0.557 0.979-0.557 1.66zm11.5 4.95h-2.84v-13.6h2.84v13.6zm10.7-3.79h-6c0.096 1.34 0.937 2 2.52 2 1.01 0 1.9-0.239 2.67-0.719v2.05c-0.851 0.455-1.96 0.683-3.32 0.683-1.48 0-2.64-0.411-3.46-1.23-0.82-0.827-1.23-1.98-1.23-3.45 0-1.53 0.443-2.74 1.33-3.63 0.887-0.892 1.98-1.34 3.27-1.34 1.34 0 2.38 0.399 3.11 1.2 0.737 0.797 1.1 1.88 1.1 3.24v1.2zm-2.63-1.74c0-1.32-0.533-1.98-1.6-1.98-0.456 0-0.851 0.189-1.19 0.566-0.33 0.377-0.53 0.848-0.602 1.41h3.39z" fill="#000"/><g clip-rule="evenodd" fill="#000" fill-rule="evenodd"><path d="m242 183h1.25v15.1h-1.25v-15.1z"/><path d="m250 184c-0.374 0-0.686 0.11-0.936 0.332-0.252 0.222-0.454 0.54-0.608 0.956s-0.264 0.924-0.328 1.52c-0.066 0.598-0.098 1.27-0.098 2.02 0 1.76 0.164 3.05 0.49 3.88 0.328 0.826 0.834 1.24 1.52 1.24 0.654 0 1.14-0.388 1.46-1.16 0.316-0.776 0.474-1.98 0.474-3.6 0-1.24-0.082-2.25-0.244-3.02s-0.388-1.32-0.676-1.66c-0.29-0.334-0.64-0.502-1.05-0.502zm0.04-0.69c1.18 0 2.06 0.458 2.64 1.37 0.578 0.914 0.868 2.29 0.868 4.14 0 1.91-0.31 3.36-0.928 4.34-0.618 0.982-1.52 1.47-2.71 1.47-1.17 0-2.04-0.46-2.61-1.38s-0.854-2.31-0.854-4.18c0-0.994 0.088-1.85 0.262-2.58 0.176-0.724 0.422-1.32 0.738-1.8 0.316-0.472 0.696-0.822 1.14-1.05 0.442-0.228 0.926-0.342 1.45-0.342z"/><path d="m256 182 3.24 7.28v0.6l-3.24 7.29-0.866-0.308 2.6-7.28-2.6-7.29 0.866-0.292z"/><path d="m139 72.2h1.25v15.1h-1.25v-15.1z"/><path d="m148 72.6h0.444c-0.032 0.519-0.048 1.24-0.048 2.16v6.92c0 0.313 0.018 0.55 0.052 0.709 0.036 0.159 0.098 0.289 0.188 0.389 0.088 0.1 0.216 0.178 0.384 0.235 0.168 0.0566 0.378 0.0998 0.632 0.13s0.59 0.05 1.01 0.0608v0.592h-5.99v-0.592c0.6-0.027 1.03-0.0634 1.28-0.109 0.258-0.046 0.454-0.115 0.588-0.207 0.136-0.0918 0.234-0.221 0.296-0.389 0.062-0.167 0.094-0.44 0.094-0.819v-6.57c0-0.216-0.038-0.374-0.114-0.474-0.076-0.0998-0.186-0.15-0.332-0.15-0.174 0-0.42 0.089-0.738 0.267-0.32 0.178-0.714 0.424-1.18 0.738l-0.356-0.624 3.79-2.26z"/><path d="m153 71.5 3.23 7.28v0.6l-3.23 7.29-0.868-0.308 2.6-7.28-2.6-7.29 0.868-0.292z"/><path d="m208 115h1.25v15.1h-1.25v-15.1z"/><path d="m217 117h1.15v4.67h4.42v1.08h-4.42v4.67h-1.15v-4.67h-4.42v-1.08h4.42v-4.67z"/><path d="m225 114 3.23 7.28v0.6l-3.23 7.29-0.868-0.308 2.6-7.28-2.6-7.29 0.868-0.292z"/><path d="m208 248h1.25v15.1h-1.25v-15.1z"/><path d="m212 255h9.99v1.08h-9.99v-1.08z"/><path d="m225 247 3.23 7.28v0.6l-3.23 7.29-0.866-0.308 2.6-7.28-2.6-7.29 0.866-0.292z"/><path d="m132 292h9.99v1.08h-9.99v-1.08z"/><path d="m145 285h1.25v15.1h-1.25v-15.1z"/><path d="m154 286h0.444c-0.032 0.52-0.048 1.24-0.048 2.16v6.92c0 0.314 0.018 0.55 0.054 0.71 0.034 0.16 0.096 0.29 0.186 0.39 0.088 0.1 0.216 0.178 0.384 0.234 0.168 0.058 0.378 0.1 0.632 0.13s0.59 0.05 1.01 0.06v0.592h-5.99v-0.592c0.6-0.026 1.03-0.062 1.28-0.108 0.258-0.046 0.454-0.116 0.588-0.208 0.136-0.092 0.234-0.22 0.296-0.388s0.094-0.44 0.094-0.82v-6.57c0-0.216-0.038-0.374-0.114-0.474s-0.186-0.15-0.332-0.15c-0.174 0-0.42 0.088-0.738 0.266-0.318 0.18-0.714 0.424-1.18 0.738l-0.356-0.624 3.79-2.26z"/><path d="m159 285 3.23 7.28v0.6l-3.23 7.29-0.868-0.308 2.6-7.28-2.6-7.29 0.868-0.292z"/><path d="m27.9 189h9.99v1.08h-9.99v-1.08z"/><path d="m41 183h1.25v15.1h-1.25v-15.1z"/><path d="m48.9 184c-0.373 0-0.685 0.11-0.936 0.332-0.251 0.222-0.454 0.54-0.608 0.956s-0.264 0.924-0.328 1.52c-0.0648 0.598-0.0972 1.27-0.0972 2.02 0 1.76 0.163 3.05 0.49 3.88 0.327 0.826 0.833 1.24 1.52 1.24 0.654 0 1.14-0.388 1.45-1.16 0.316-0.776 0.474-1.98 0.474-3.6 0-1.24-0.081-2.25-0.243-3.02-0.162-0.77-0.388-1.32-0.677-1.66-0.289-0.334-0.639-0.502-1.05-0.502zm0.0406-0.69c1.18 0 2.06 0.458 2.64 1.37 0.578 0.914 0.867 2.29 0.867 4.14 0 1.91-0.309 3.36-0.928 4.34-0.619 0.982-1.52 1.47-2.71 1.47-1.17 0-2.04-0.46-2.61-1.38-0.57-0.918-0.855-2.31-0.855-4.18 0-0.994 0.0878-1.85 0.263-2.58s0.422-1.32 0.738-1.8c0.316-0.472 0.696-0.822 1.14-1.05 0.443-0.228 0.927-0.342 1.45-0.342z"/><path d="m55.2 182 3.23 7.28v0.6l-3.23 7.29-0.867-0.308 2.6-7.28-2.6-7.29 0.867-0.292z"/><path d="m57.3 254h9.99v1.08h-9.99v-1.08z"/><path d="m70.4 248h1.25v15.1h-1.25v-15.1z"/><path d="m79.3 250h1.15v4.67h4.42v1.08h-4.42v4.67h-1.15v-4.67h-4.42v-1.08h4.42v-4.67z"/><path d="m87.8 247 3.23 7.28v0.6l-3.23 7.29-0.867-0.308 2.6-7.28-2.6-7.29 0.867-0.292z"/><path d="m56.6 121h9.99v1.08h-9.99v-1.08z"/><path d="m69.8 115h1.25v15.1h-1.25v-15.1z"/><path d="m74.3 121h9.99v1.08h-9.99v-1.08z"/><path d="m87.1 114 3.23 7.28v0.599l-3.23 7.29-0.867-0.308 2.6-7.28-2.6-7.29 0.867-0.292z"/><path d="m593 183h1.25v15.1h-1.25v-15.1z"/><path d="m601 184c-0.372 0-0.684 0.11-0.936 0.332-0.25 0.222-0.454 0.54-0.608 0.956s-0.262 0.924-0.328 1.52c-0.064 0.598-0.096 1.27-0.096 2.02 0 1.76 0.162 3.05 0.49 3.88 0.326 0.826 0.834 1.24 1.52 1.24 0.654 0 1.14-0.388 1.45-1.16s0.474-1.98 0.474-3.6c0-1.24-0.08-2.25-0.242-3.02s-0.388-1.32-0.678-1.66c-0.288-0.334-0.638-0.502-1.05-0.502zm0.042-0.69c1.18 0 2.06 0.458 2.64 1.37 0.578 0.914 0.868 2.29 0.868 4.14 0 1.91-0.31 3.36-0.93 4.34-0.618 0.982-1.52 1.47-2.71 1.47-1.17 0-2.04-0.46-2.61-1.38s-0.856-2.31-0.856-4.18c0-0.994 0.088-1.85 0.264-2.58s0.422-1.32 0.738-1.8c0.316-0.472 0.696-0.822 1.14-1.05 0.444-0.228 0.928-0.342 1.45-0.342z"/><path d="m607 182 3.23 7.28v0.6l-3.23 7.29-0.868-0.308 2.6-7.28-2.6-7.29 0.868-0.292z"/><path d="m490 72.2h1.25v15.1h-1.25v-15.1z"/><path d="m499 72.6h0.446c-0.032 0.519-0.048 1.24-0.048 2.16v6.92c0 0.313 0.018 0.55 0.052 0.709 0.036 0.159 0.098 0.289 0.186 0.389 0.09 0.1 0.218 0.178 0.386 0.235 0.168 0.0566 0.378 0.0998 0.632 0.13s0.588 0.05 1 0.0608v0.592h-5.99v-0.592c0.6-0.027 1.03-0.0634 1.29-0.109 0.256-0.046 0.452-0.115 0.588-0.207 0.134-0.0918 0.234-0.221 0.296-0.389 0.062-0.167 0.092-0.44 0.092-0.819v-6.57c0-0.216-0.038-0.374-0.114-0.474-0.074-0.0998-0.186-0.15-0.332-0.15-0.172 0-0.418 0.089-0.736 0.267-0.32 0.178-0.714 0.424-1.18 0.738l-0.358-0.624 3.79-2.26z"/><path d="m504 71.5 3.23 7.28v0.6l-3.23 7.29-0.868-0.308 2.6-7.28-2.6-7.29 0.868-0.292z"/><path d="m559 115h1.25v15.1h-1.25v-15.1z"/><path d="m567 117h1.15v4.67h4.42v1.08h-4.42v4.67h-1.15v-4.67h-4.42v-1.08h4.42v-4.67z"/><path d="m576 114 3.23 7.28v0.6l-3.23 7.29-0.866-0.308 2.6-7.28-2.6-7.29 0.866-0.292z"/><path d="m559 248h1.25v15.1h-1.25v-15.1z"/><path d="m563 255h9.99v1.08h-9.99v-1.08z"/><path d="m576 247 3.23 7.28v0.6l-3.23 7.29-0.868-0.308 2.6-7.28-2.6-7.29 0.868-0.292z"/><path d="m483 292h9.99v1.08h-9.99v-1.08z"/><path d="m496 285h1.25v15.1h-1.25v-15.1z"/><path d="m505 286h0.446c-0.032 0.52-0.048 1.24-0.048 2.16v6.92c0 0.314 0.018 0.55 0.052 0.71 0.036 0.16 0.098 0.29 0.186 0.39 0.09 0.1 0.218 0.178 0.386 0.234 0.168 0.058 0.378 0.1 0.632 0.13s0.588 0.05 1 0.06v0.592h-5.99v-0.592c0.598-0.026 1.03-0.062 1.28-0.108s0.452-0.116 0.588-0.208c0.134-0.092 0.234-0.22 0.296-0.388s0.092-0.44 0.092-0.82v-6.57c0-0.216-0.038-0.374-0.114-0.474-0.074-0.1-0.186-0.15-0.332-0.15-0.172 0-0.418 0.088-0.736 0.266-0.32 0.18-0.714 0.424-1.18 0.738l-0.358-0.624 3.79-2.26z"/><path d="m510 285 3.23 7.28v0.6l-3.23 7.29-0.868-0.308 2.6-7.28-2.6-7.29 0.868-0.292z"/><path d="m379 189h9.99v1.08h-9.99v-1.08z"/><path d="m392 183h1.25v15.1h-1.25v-15.1z"/><path d="m400 184c-0.372 0-0.684 0.11-0.936 0.332-0.25 0.222-0.454 0.54-0.608 0.956s-0.262 0.924-0.328 1.52c-0.064 0.598-0.098 1.27-0.098 2.02 0 1.76 0.164 3.05 0.492 3.88 0.326 0.826 0.832 1.24 1.52 1.24 0.652 0 1.14-0.388 1.45-1.16s0.474-1.98 0.474-3.6c0-1.24-0.08-2.25-0.242-3.02-0.164-0.77-0.388-1.32-0.678-1.66-0.288-0.334-0.638-0.502-1.05-0.502zm0.042-0.69c1.18 0 2.06 0.458 2.64 1.37 0.578 0.914 0.866 2.29 0.866 4.14 0 1.91-0.308 3.36-0.928 4.34-0.618 0.982-1.52 1.47-2.71 1.47-1.17 0-2.04-0.46-2.61-1.38s-0.856-2.31-0.856-4.18c0-0.994 0.088-1.85 0.264-2.58s0.422-1.32 0.738-1.8c0.316-0.472 0.696-0.822 1.14-1.05 0.444-0.228 0.926-0.342 1.45-0.342z"/><path d="m406 182 3.23 7.28v0.6l-3.23 7.29-0.868-0.308 2.6-7.28-2.6-7.29 0.868-0.292z"/><path d="m408 254h9.99v1.08h-9.99v-1.08z"/><path d="m421 248h1.25v15.1h-1.25v-15.1z"/><path d="m430 250h1.15v4.67h4.42v1.08h-4.42v4.67h-1.15v-4.67h-4.42v-1.08h4.42v-4.67z"/><path d="m439 247 3.23 7.28v0.6l-3.23 7.29-0.868-0.308 2.6-7.28-2.6-7.29 0.868-0.292z"/><path d="m408 121h9.99v1.08h-9.99v-1.08z"/><path d="m421 115h1.25v15.1h-1.25v-15.1z"/><path d="m425 121h9.99v1.08h-9.99v-1.08z"/><path d="m438 114 3.23 7.28v0.599l-3.23 7.29-0.868-0.308 2.6-7.28-2.6-7.29 0.868-0.292z"/></g></g><defs><clipPath id="clip0_5_635"><rect transform="translate(.6 .2)" width="737" height="374" fill="#fff"/></clipPath></defs></svg>
