<?xml version="1.0" encoding="UTF-8"?>
<svg id="Layer_1" data-name="Layer 1" xmlns="http://www.w3.org/2000/svg" viewBox="0 0 901 665">
  <defs>
    <style>
      .cls-1, .cls-2, .cls-3, .cls-4 {
        fill-rule: evenodd;
      }

      .cls-1, .cls-5 {
        fill: #0070c0;
      }

      .cls-1, .cls-4, .cls-6 {
        stroke-width: 0px;
      }

      .cls-2, .cls-3 {
        fill: #fff;
      }

      .cls-2, .cls-3, .cls-7 {
        stroke-miterlimit: 8;
        stroke-width: 2px;
      }

      .cls-2, .cls-5 {
        stroke: #0070c0;
      }

      .cls-3 {
        stroke: #000;
      }

      .cls-5 {
        stroke-miterlimit: 10;
        stroke-width: .5px;
      }

      .cls-7 {
        fill: none;
        stroke: #747474;
      }
    </style>
  </defs>
  <path class="cls-4" d="M730.54,313.01h.91v11.04h-.91v-11.04Z"/>
  <path class="cls-4" d="M736.31,313.81c-.27,0-.5.08-.68.24-.18.16-.33.4-.45.7-.11.3-.19.67-.24,1.11-.05.44-.07.93-.07,1.48,0,1.29.12,2.23.36,2.84.24.61.61.91,1.11.91.48,0,.83-.29,1.06-.85.23-.57.35-1.45.35-2.64,0-.91-.06-1.65-.18-2.21-.12-.56-.28-.97-.49-1.21-.21-.25-.47-.37-.77-.37ZM736.34,313.31c.86,0,1.51.34,1.93,1,.42.67.63,1.68.63,3.03s-.23,2.46-.68,3.18c-.45.72-1.11,1.08-1.98,1.08s-1.49-.34-1.91-1.01c-.42-.67-.63-1.69-.63-3.06,0-.73.07-1.36.19-1.89.13-.53.31-.97.54-1.31.23-.34.51-.6.83-.77.32-.17.68-.25,1.06-.25Z"/>
  <path class="cls-4" d="M740.91,312.49l2.37,5.33v.44l-2.37,5.33-.63-.22,1.9-5.33-1.9-5.33.63-.21Z"/>
  <path class="cls-4" d="M748.25,318.87h7.31v.79h-7.31v-.79ZM748.25,316.41h7.31v.79h-7.31v-.79Z"/>
  <path class="cls-4" d="M774.09,302.55c1.62,1.39,2.92,3.47,3.87,6.23.96,2.76,1.43,5.84,1.43,9.24s-.48,6.43-1.43,9.23c-.95,2.8-2.25,4.89-3.87,6.28l-.28-.44c1.4-1.43,2.49-3.49,3.24-6.2.76-2.7,1.14-5.66,1.14-8.86s-.38-6.25-1.14-8.91c-.76-2.66-1.84-4.7-3.24-6.13l.28-.44ZM766.06,302.55l.28.44c-1.4,1.43-2.48,3.47-3.24,6.13-.76,2.66-1.14,5.63-1.14,8.91s.38,6.16,1.14,8.86c.76,2.71,1.84,4.77,3.24,6.2l-.28.44c-1.62-1.39-2.91-3.48-3.87-6.28-.95-2.8-1.43-5.88-1.43-9.23s.48-6.48,1.43-9.24c.96-2.76,2.25-4.84,3.87-6.23Z"/>
  <path class="cls-4" d="M770.55,304.13h.33c-.02.38-.04.91-.04,1.58v5.07c0,.23.01.4.04.52.03.12.07.21.14.29.07.07.16.13.28.17.12.04.28.07.46.09.19.02.43.04.74.04v.43h-4.39v-.43c.44-.02.75-.05.94-.08.19-.03.33-.09.43-.15.1-.07.17-.16.22-.28.04-.12.07-.32.07-.6v-4.81c0-.16-.03-.27-.08-.35-.05-.07-.14-.11-.24-.11-.13,0-.31.07-.54.2-.23.13-.52.31-.87.54l-.26-.46,2.78-1.66Z"/>
  <path class="cls-4" d="M770.08,321.92c-.27,0-.5.08-.69.24-.18.16-.33.4-.45.7-.11.3-.19.67-.24,1.11-.05.44-.07.93-.07,1.48,0,1.29.12,2.24.36,2.84.24.6.61.9,1.11.9s.83-.28,1.06-.85c.23-.57.35-1.45.35-2.64,0-.91-.06-1.65-.18-2.21-.12-.56-.28-.97-.5-1.21-.21-.25-.47-.37-.77-.37ZM770.11,321.41c.87,0,1.51.33,1.93,1,.42.67.63,1.68.63,3.03s-.23,2.46-.68,3.18c-.45.72-1.12,1.08-1.98,1.08s-1.49-.34-1.91-1.01c-.42-.67-.63-1.69-.63-3.06,0-.73.06-1.36.19-1.89.13-.53.31-.97.54-1.31.23-.35.51-.6.83-.77.32-.16.68-.25,1.06-.25Z"/>
  <path class="cls-4" d="M595.61,186.3h.91v11.04h-.91v-11.04Z"/>
  <path class="cls-4" d="M601.84,186.6h.33c-.02.38-.04.91-.04,1.58v5.07c0,.23.01.4.04.52.03.12.07.21.14.28.07.07.16.13.28.17.12.04.28.07.46.09.18.02.43.04.74.04v.43h-4.39v-.43c.44-.02.75-.05.94-.08.19-.03.33-.08.43-.15.1-.07.17-.16.22-.28.04-.12.07-.32.07-.6v-4.81c0-.16-.03-.27-.08-.35s-.14-.11-.24-.11c-.13,0-.31.07-.54.2-.23.13-.52.31-.87.54l-.26-.46,2.78-1.66Z"/>
  <path class="cls-4" d="M605.98,185.78l2.37,5.33v.44l-2.37,5.33-.63-.23,1.91-5.33-1.91-5.33.63-.21Z"/>
  <path class="cls-4" d="M613.32,192.16h7.31v.79h-7.31v-.79ZM613.32,189.7h7.31v.79h-7.31v-.79Z"/>
  <path class="cls-4" d="M641.86,175.84c1.63,1.39,2.92,3.47,3.87,6.23.95,2.76,1.43,5.84,1.43,9.24s-.48,6.43-1.43,9.23c-.96,2.8-2.25,4.9-3.87,6.28l-.28-.44c1.4-1.43,2.49-3.49,3.25-6.2.76-2.71,1.14-5.66,1.14-8.86s-.38-6.25-1.15-8.9c-.76-2.66-1.84-4.7-3.24-6.13l.28-.45ZM633.84,175.84l.28.45c-1.4,1.43-2.48,3.47-3.24,6.13-.76,2.66-1.14,5.63-1.14,8.9s.38,6.16,1.14,8.86c.76,2.71,1.84,4.77,3.24,6.2l-.28.44c-1.63-1.38-2.92-3.48-3.87-6.28-.95-2.8-1.43-5.88-1.43-9.23s.48-6.48,1.43-9.24c.96-2.76,2.25-4.84,3.87-6.23Z"/>
  <path class="cls-4" d="M637.85,177.93c-.27,0-.5.08-.68.24-.18.16-.33.4-.45.7-.11.3-.19.68-.24,1.11-.05.44-.07.93-.07,1.48,0,1.29.12,2.24.36,2.84s.61.9,1.11.9.83-.28,1.07-.85c.23-.57.35-1.45.35-2.64,0-.91-.06-1.65-.18-2.21-.12-.56-.28-.97-.49-1.21-.21-.25-.47-.37-.77-.37ZM637.88,177.43c.87,0,1.51.33,1.94,1,.42.67.63,1.68.63,3.03s-.23,2.46-.68,3.18c-.45.72-1.11,1.08-1.98,1.08s-1.49-.34-1.91-1.01c-.42-.67-.63-1.69-.63-3.06,0-.73.07-1.36.19-1.89.13-.53.31-.97.54-1.31s.51-.6.83-.77c.33-.17.68-.25,1.06-.25Z"/>
  <path class="cls-4" d="M638.32,194.71h.33c-.02.38-.03.91-.03,1.58v5.07c0,.23.01.4.04.52.02.12.07.21.13.28s.16.13.28.17c.12.04.28.07.46.09.19.02.43.04.74.04v.43h-4.38v-.43c.44-.02.75-.05.94-.08.19-.03.33-.08.43-.15.1-.07.17-.16.22-.28.04-.12.07-.32.07-.6v-4.81c0-.16-.03-.27-.08-.35-.06-.07-.14-.11-.25-.11-.13,0-.31.07-.54.2-.23.13-.52.31-.86.54l-.26-.46,2.78-1.66Z"/>
  <path class="cls-4" d="M677.3,232.93h.92v11.04h-.92v-11.04Z"/>
  <path class="cls-4" d="M683.82,234.14h.84v3.42h3.23v.79h-3.23v3.42h-.84v-3.42h-3.23v-.79h3.23v-3.42Z"/>
  <path class="cls-4" d="M689.99,232.41l2.37,5.33v.44l-2.37,5.33-.63-.23,1.9-5.33-1.9-5.33.63-.21Z"/>
  <path class="cls-4" d="M697.34,238.79h7.31v.79h-7.31v-.79ZM697.34,236.33h7.31v.79h-7.31v-.79Z"/>
  <path class="cls-4" d="M733.35,210.79c2.17,2.82,3.91,6.57,5.21,11.24,1.14,4.09,1.78,8.44,1.93,13.06l.03,1.93h0v1.84h0l-.03,1.93c-.15,4.62-.79,8.97-1.93,13.06-1.3,4.67-3.04,8.42-5.21,11.24l-.46-.39c2.04-2.89,3.61-6.65,4.71-11.29,1.1-4.64,1.65-9.51,1.66-14.62v-1.72c0-5.11-.56-9.98-1.66-14.62-1.1-4.64-2.67-8.4-4.71-11.29l.46-.39ZM717.41,210.78l.46.39c-2.04,2.89-3.61,6.65-4.71,11.29-1.1,4.64-1.65,9.51-1.66,14.62v1.72c0,5.11.56,9.98,1.66,14.62,1.1,4.64,2.67,8.4,4.71,11.29l-.46.39c-2.17-2.82-3.91-6.57-5.21-11.24-1.14-4.09-1.78-8.44-1.93-13.06l-.03-1.93h0v-1.84h0l.03-1.93c.14-4.62.79-8.97,1.93-13.06,1.3-4.67,3.04-8.42,5.21-11.24Z"/>
  <path class="cls-4" d="M725.85,210.91h.33c-.02.38-.04.91-.04,1.58v5.07c0,.23.01.4.04.52.03.12.07.21.14.28.07.07.16.13.28.17.12.04.28.07.46.09.18.02.43.04.74.04v.43h-4.39v-.43c.44-.02.75-.05.94-.08.19-.03.33-.08.43-.15.1-.07.17-.16.22-.28.05-.12.07-.32.07-.6v-4.81c0-.16-.03-.27-.08-.35-.06-.07-.14-.11-.24-.11-.13,0-.31.07-.54.2-.23.13-.52.31-.87.54l-.26-.46,2.78-1.66Z"/>
  <path class="cls-4" d="M725.22,224.7h1.51v.07h6v.9h-6.75v-.18h-.32l-3.19,10.9h-.57l-2.46-5.28-1,.44-.18-.44,1.95-.89,2.09,4.6,2.93-10.13Z"/>
  <path class="cls-4" d="M729.42,227.24c.74,0,1.29.16,1.67.48.38.32.56.79.56,1.4,0,.21-.02.4-.06.58-.04.18-.11.35-.2.52-.09.17-.21.36-.36.55-.15.2-.31.4-.5.6-.18.2-.5.54-.94,1.02-.75.79-1.31,1.49-1.66,2.08h2.24c.19,0,.35-.01.47-.04.12-.02.21-.06.29-.12.07-.06.13-.13.17-.22.04-.09.09-.23.16-.41h.5l-.1,1.73h-4.88v-.28c.17-.42.4-.84.69-1.28.29-.43.7-.95,1.23-1.54.46-.51.79-.89.99-1.15.22-.28.39-.53.5-.74.11-.21.19-.4.24-.59.05-.18.07-.37.07-.55,0-.3-.05-.56-.14-.79-.09-.23-.24-.41-.44-.54-.2-.13-.44-.2-.74-.2-.74,0-1.24.41-1.5,1.23h-.72v-1.14c.48-.23.93-.39,1.35-.49.42-.1.79-.15,1.12-.15Z"/>
  <path class="cls-4" d="M718.11,222.3h14.62v.9h-14.62v-.9Z"/>
  <path class="cls-4" d="M725.85,240.28h.33c-.02.38-.04.91-.04,1.58v5.07c0,.23.01.4.04.52.03.12.07.21.14.28.07.07.16.13.28.17.12.04.28.07.46.09.18.02.43.04.74.04v.43h-4.39v-.43c.44-.02.75-.05.94-.08.19-.03.33-.08.43-.15.1-.07.17-.16.22-.28.05-.12.07-.32.07-.6v-4.81c0-.16-.03-.27-.08-.35s-.14-.11-.24-.11c-.13,0-.31.07-.54.2-.23.13-.52.31-.87.54l-.26-.46,2.78-1.66Z"/>
  <path class="cls-4" d="M725.98,254.02h6.75v.9h-6.75v-.06h-.32l-3.19,10.9h-.57l-2.46-5.28-1,.45-.18-.45,1.95-.89,2.09,4.6,2.93-10.13h.76v-.05Z"/>
  <path class="cls-4" d="M729.42,256.61c.74,0,1.29.16,1.67.48.38.32.56.79.56,1.4,0,.21-.02.4-.06.58-.04.18-.11.35-.2.52-.09.17-.21.36-.36.55-.15.2-.31.4-.5.6-.18.2-.5.54-.94,1.02-.75.8-1.31,1.49-1.66,2.08h2.24c.19,0,.35-.01.47-.04.12-.02.21-.06.29-.12.07-.06.13-.13.17-.22.04-.09.09-.23.16-.41h.5l-.1,1.73h-4.88v-.28c.17-.42.4-.84.69-1.28.29-.44.7-.95,1.23-1.54.46-.51.79-.89.99-1.15.22-.28.39-.53.5-.74.11-.21.19-.4.24-.59.05-.18.07-.37.07-.55,0-.3-.05-.56-.14-.79-.09-.23-.24-.41-.44-.54-.2-.13-.44-.2-.74-.2-.74,0-1.24.41-1.5,1.23h-.72v-1.14c.48-.23.93-.39,1.35-.49.42-.1.79-.15,1.12-.15Z"/>
  <path class="cls-4" d="M718.11,251.77h14.62v.9h-14.62v-.9Z"/>
  <path class="cls-4" d="M677.41,389.9h.91v11.04h-.91v-11.04Z"/>
  <path class="cls-4" d="M680.69,394.52h7.31v.79h-7.31v-.79Z"/>
  <path class="cls-4" d="M690.1,389.37l2.37,5.33v.44l-2.37,5.33-.63-.23,1.91-5.33-1.91-5.33.63-.21Z"/>
  <path class="cls-4" d="M697.44,395.75h7.31v.79h-7.31v-.79ZM697.44,393.29h7.31v.79h-7.31v-.79Z"/>
  <path class="cls-4" d="M734.51,367.75c2.17,2.82,3.91,6.57,5.21,11.24,1.14,4.09,1.78,8.44,1.93,13.06l.03,1.93h0v1.84h0l-.03,1.93c-.15,4.62-.79,8.97-1.93,13.06-1.31,4.67-3.04,8.42-5.21,11.24l-.46-.38c2.04-2.89,3.61-6.65,4.71-11.29,1.1-4.64,1.65-9.51,1.66-14.62v-1.72c0-5.11-.56-9.98-1.66-14.62-1.1-4.64-2.67-8.4-4.71-11.29l.46-.38ZM717.52,367.75l.46.38c-2.04,2.89-3.61,6.65-4.71,11.29-1.1,4.64-1.65,9.51-1.66,14.62v1.72c0,5.11.56,9.98,1.66,14.62,1.1,4.64,2.67,8.4,4.71,11.29l-.46.39c-2.17-2.82-3.91-6.57-5.21-11.24-1.14-4.09-1.78-8.44-1.93-13.06l-.03-1.93h0v-1.84h0l.03-1.93c.15-4.62.79-8.97,1.93-13.06,1.31-4.67,3.04-8.42,5.21-11.24Z"/>
  <path class="cls-4" d="M726.49,367.88h.33c-.02.38-.04.91-.04,1.58v5.07c0,.23.01.4.04.52.02.12.07.21.14.28.07.07.16.13.28.17.12.04.28.07.46.09.19.02.43.04.74.05v.43h-4.38v-.43c.44-.02.75-.05.94-.08.19-.03.33-.08.43-.15s.17-.16.22-.29c.04-.12.07-.32.07-.6v-4.81c0-.16-.03-.27-.08-.35-.05-.07-.13-.11-.24-.11-.13,0-.31.07-.54.2-.23.13-.52.31-.87.54l-.26-.46,2.78-1.66Z"/>
  <path class="cls-4" d="M725.85,381.67h1.51v.07h5.97v.9h-6.75v-.18h-.29l-3.19,10.9h-.58l-2.46-5.28-1,.45-.18-.45,1.95-.89,2.09,4.6,2.93-10.13Z"/>
  <path class="cls-4" d="M730.05,384.21c.74,0,1.29.16,1.67.48.38.32.56.79.56,1.4,0,.21-.02.4-.06.58-.04.18-.11.35-.2.52-.09.17-.21.36-.36.56-.15.2-.32.4-.5.6-.18.2-.49.54-.94,1.02-.75.79-1.3,1.49-1.66,2.08h2.24c.19,0,.35-.01.47-.04.12-.02.21-.06.28-.12.07-.06.13-.13.17-.22.04-.09.09-.23.16-.41h.5l-.1,1.73h-4.88v-.28c.17-.42.4-.84.69-1.28.29-.44.7-.95,1.23-1.54.46-.51.79-.89.99-1.15.22-.28.39-.53.5-.74.11-.21.19-.4.23-.59.05-.18.07-.37.07-.56,0-.29-.05-.56-.14-.79-.09-.23-.24-.41-.44-.54-.2-.13-.44-.2-.74-.2-.74,0-1.24.41-1.49,1.24h-.72v-1.14c.48-.23.92-.39,1.34-.49.42-.1.79-.15,1.12-.15Z"/>
  <path class="cls-4" d="M718.71,379.26h14.62v.9h-14.62v-.9Z"/>
  <path class="cls-4" d="M719.03,401.57h7.31v.79h-7.31v-.79Z"/>
  <path class="cls-4" d="M731,397.25h.33c-.02.38-.04.91-.04,1.58v5.07c0,.23.01.4.04.52.02.12.07.21.14.29.07.07.16.13.28.17.12.04.28.07.46.09.18.02.43.04.74.04v.43h-4.39v-.43c.44-.02.75-.04.94-.08.19-.03.33-.09.43-.15.1-.07.17-.16.22-.28.05-.12.07-.32.07-.6v-4.81c0-.16-.03-.27-.08-.35-.06-.07-.14-.11-.24-.11-.13,0-.31.07-.54.2-.23.13-.52.31-.87.54l-.26-.46,2.78-1.66Z"/>
  <path class="cls-4" d="M726.58,410.99h6.75v.9h-6.75v-.06h-.29l-3.19,10.9h-.58l-2.46-5.28-1,.44-.18-.44,1.95-.89,2.09,4.6,2.93-10.13h.73v-.05Z"/>
  <path class="cls-4" d="M730.05,413.58c.74,0,1.29.16,1.67.48.38.32.56.79.56,1.4,0,.21-.02.4-.06.58-.04.18-.11.35-.2.52-.09.17-.21.36-.36.55-.15.2-.32.4-.5.6-.18.2-.49.54-.94,1.02-.75.79-1.3,1.49-1.66,2.08h2.24c.19,0,.35-.01.47-.04.12-.02.21-.06.28-.12.07-.06.13-.13.17-.22.04-.09.09-.23.16-.41h.5l-.1,1.73h-4.88v-.28c.17-.42.4-.84.69-1.28.29-.43.7-.95,1.23-1.54.46-.51.79-.89.99-1.15.22-.29.39-.53.5-.74.11-.21.19-.4.23-.59.05-.18.07-.37.07-.55,0-.3-.05-.56-.14-.79-.09-.23-.24-.4-.44-.54-.2-.13-.44-.2-.74-.2-.74,0-1.24.41-1.49,1.23h-.72v-1.14c.48-.23.92-.39,1.34-.49.42-.1.79-.15,1.12-.15Z"/>
  <path class="cls-4" d="M718.26,408.74h15.75v.9h-15.75v-.9Z"/>
  <path class="cls-7" d="M86.93,317.35c0-86.43,70.06-156.49,156.49-156.49s156.49,70.06,156.49,156.49-70.06,156.49-156.49,156.49-156.49-70.06-156.49-156.49Z"/>
  <path class="cls-2" d="M393.15,317.58c0-3.67,3.02-6.64,6.75-6.64s6.75,2.97,6.75,6.64-3.02,6.64-6.75,6.64-6.75-2.97-6.75-6.64Z"/>
  <path class="cls-3" d="M236.78,160.98c0-3.67,2.97-6.64,6.64-6.64s6.64,2.97,6.64,6.64-2.97,6.64-6.64,6.64-6.64-2.97-6.64-6.64Z"/>
  <path class="cls-3" d="M80.4,317.58c0-3.67,2.97-6.64,6.64-6.64s6.64,2.97,6.64,6.64-2.97,6.64-6.64,6.64-6.64-2.97-6.64-6.64Z"/>
  <path class="cls-3" d="M236.78,473.95c0-3.67,2.97-6.64,6.64-6.64s6.64,2.97,6.64,6.64-2.97,6.64-6.64,6.64-6.64-2.97-6.64-6.64Z"/>
  <path class="cls-1" d="M348.94,209.02c0-3.67,3.02-6.64,6.75-6.64s6.75,2.97,6.75,6.64-3.02,6.64-6.75,6.64-6.75-2.97-6.75-6.64Z"/>
  <path class="cls-3" d="M349.05,426.25c0-3.67,3.02-6.64,6.75-6.64s6.75,2.97,6.75,6.64-3.02,6.64-6.75,6.64-6.75-2.97-6.75-6.64Z"/>
  <path class="cls-3" d="M124.28,209.13c0-3.67,3.02-6.64,6.75-6.64s6.75,2.97,6.75,6.64-3.02,6.64-6.75,6.64-6.75-2.97-6.75-6.64Z"/>
  <path class="cls-3" d="M124.28,426.25c0-3.67,3.02-6.64,6.75-6.64s6.75,2.97,6.75,6.64-3.02,6.64-6.75,6.64-6.75-2.97-6.75-6.64Z"/>
  <path class="cls-4" d="M123.66,302.73c1.63,1.39,2.92,3.47,3.87,6.23.96,2.76,1.43,5.84,1.43,9.24s-.48,6.43-1.43,9.23c-.96,2.8-2.25,4.9-3.87,6.28l-.28-.44c1.4-1.43,2.49-3.49,3.25-6.2.76-2.71,1.14-5.66,1.14-8.87s-.38-6.25-1.15-8.9c-.76-2.66-1.84-4.7-3.24-6.13l.28-.44ZM106.6,302.73l.28.44c-1.4,1.43-2.48,3.47-3.24,6.13-.76,2.66-1.14,5.63-1.14,8.9s.38,6.16,1.14,8.87c.76,2.7,1.84,4.77,3.25,6.2l-.28.44c-1.63-1.38-2.92-3.48-3.87-6.28-.96-2.8-1.43-5.88-1.43-9.23s.48-6.48,1.43-9.24c.96-2.76,2.25-4.84,3.87-6.23Z"/>
  <path class="cls-4" d="M108.14,308.64h7.31v.79h-7.31v-.79Z"/>
  <path class="cls-4" d="M120.12,304.31h.33c-.02.38-.04.91-.04,1.58v5.07c0,.23.01.4.04.52.03.12.07.21.14.29.07.07.16.13.28.17.12.04.28.07.46.1.19.02.43.04.74.04v.43h-4.38v-.43c.44-.02.75-.05.94-.08.19-.03.33-.09.43-.15.1-.07.17-.16.22-.29.05-.12.07-.32.07-.6v-4.81c0-.16-.03-.27-.08-.35-.06-.07-.14-.11-.24-.11-.13,0-.31.07-.54.2-.23.13-.52.31-.87.54l-.26-.46,2.78-1.66Z"/>
  <path class="cls-4" d="M115.14,322.1c-.27,0-.5.08-.69.24-.18.16-.33.4-.45.7-.11.31-.19.68-.24,1.11-.05.44-.07.93-.07,1.48,0,1.29.12,2.23.36,2.84.24.6.61.9,1.11.9s.83-.28,1.06-.85c.23-.57.35-1.45.35-2.64,0-.91-.06-1.65-.18-2.21-.12-.56-.28-.97-.5-1.21-.21-.25-.47-.37-.77-.37ZM115.16,321.59c.87,0,1.51.34,1.93,1,.42.67.63,1.68.63,3.03s-.23,2.46-.68,3.18c-.45.72-1.11,1.08-1.98,1.08s-1.49-.34-1.91-1.01c-.42-.67-.63-1.69-.63-3.06,0-.73.06-1.36.19-1.89.13-.53.31-.97.54-1.31.23-.35.51-.6.83-.77.32-.17.68-.25,1.06-.25Z"/>
  <path class="cls-4" d="M250.72,429.26c1.63,1.39,2.92,3.47,3.87,6.23.95,2.76,1.43,5.84,1.43,9.24s-.48,6.43-1.43,9.23c-.96,2.8-2.25,4.9-3.87,6.28l-.28-.44c1.4-1.43,2.49-3.49,3.25-6.2.76-2.71,1.14-5.66,1.14-8.87s-.38-6.25-1.15-8.9c-.76-2.66-1.84-4.7-3.24-6.13l.28-.45ZM233.67,429.26l.28.45c-1.4,1.43-2.48,3.47-3.24,6.13-.76,2.66-1.14,5.62-1.14,8.9s.38,6.16,1.14,8.87c.76,2.7,1.84,4.77,3.25,6.2l-.28.44c-1.63-1.38-2.92-3.48-3.87-6.28-.96-2.8-1.43-5.88-1.43-9.23s.48-6.48,1.43-9.24c.96-2.76,2.25-4.84,3.87-6.23Z"/>
  <path class="cls-4" d="M242.2,431.35c-.27,0-.5.08-.69.24-.18.16-.33.4-.44.7-.11.31-.19.68-.24,1.11-.05.44-.07.93-.07,1.48,0,1.29.12,2.24.36,2.84.24.6.61.9,1.11.9s.83-.28,1.06-.85c.23-.57.35-1.45.35-2.64,0-.91-.06-1.65-.18-2.21-.12-.56-.28-.97-.5-1.22-.21-.25-.47-.37-.77-.37ZM242.23,430.84c.87,0,1.51.33,1.93,1,.42.67.63,1.68.63,3.03s-.23,2.46-.68,3.18c-.45.72-1.11,1.08-1.98,1.08s-1.49-.34-1.91-1.01c-.42-.67-.63-1.69-.63-3.06,0-.73.06-1.36.19-1.89.13-.53.31-.97.54-1.31.23-.35.51-.6.83-.77.32-.17.68-.25,1.06-.25Z"/>
  <path class="cls-4" d="M235.21,452.44h7.31v.79h-7.31v-.79Z"/>
  <path class="cls-4" d="M247.18,448.12h.33c-.02.38-.04.91-.04,1.58v5.06c0,.23.01.4.04.52s.07.21.14.29c.07.07.16.13.28.17.12.04.28.07.46.09.19.02.43.04.74.05v.43h-4.38v-.43c.44-.02.75-.05.94-.08.19-.03.33-.08.43-.15.1-.07.17-.16.22-.28.05-.12.07-.32.07-.6v-4.81c0-.16-.03-.27-.08-.35-.06-.07-.14-.11-.24-.11-.13,0-.31.07-.54.2-.23.13-.52.31-.87.54l-.26-.46,2.78-1.66Z"/>
  <path class="cls-4" d="M335.78,313.01h.91v11.04h-.91v-11.04Z"/>
  <path class="cls-4" d="M341.55,313.81c-.27,0-.5.08-.69.24-.18.16-.33.4-.45.7-.11.3-.19.67-.24,1.11-.05.44-.07.93-.07,1.48,0,1.29.12,2.23.36,2.84.24.61.61.91,1.11.91s.83-.29,1.06-.85c.23-.57.35-1.45.35-2.64,0-.91-.06-1.65-.18-2.21-.12-.56-.28-.97-.49-1.21-.21-.25-.47-.37-.77-.37ZM341.58,313.31c.87,0,1.51.34,1.93,1,.42.67.64,1.68.64,3.03s-.23,2.46-.68,3.18c-.45.72-1.12,1.08-1.98,1.08s-1.49-.34-1.91-1.01c-.42-.67-.63-1.69-.63-3.06,0-.73.06-1.36.19-1.89.13-.53.31-.97.54-1.31.23-.34.51-.6.83-.77.32-.17.68-.25,1.06-.25Z"/>
  <path class="cls-4" d="M346.15,312.49l2.37,5.33v.44l-2.37,5.33-.63-.22,1.91-5.33-1.91-5.33.63-.21Z"/>
  <path class="cls-4" d="M353.5,318.87h7.31v.79h-7.31v-.79ZM353.5,316.41h7.31v.79h-7.31v-.79Z"/>
  <path class="cls-4" d="M379.33,302.55c1.63,1.39,2.92,3.47,3.87,6.23.95,2.76,1.43,5.84,1.43,9.24s-.48,6.43-1.43,9.23c-.96,2.8-2.25,4.89-3.87,6.28l-.28-.44c1.4-1.43,2.49-3.49,3.25-6.2.76-2.7,1.14-5.66,1.14-8.86s-.38-6.25-1.15-8.91c-.76-2.66-1.84-4.7-3.24-6.13l.28-.44ZM371.3,302.55l.28.44c-1.4,1.43-2.48,3.47-3.24,6.13-.76,2.66-1.14,5.63-1.14,8.91s.38,6.16,1.14,8.86c.76,2.71,1.84,4.77,3.25,6.2l-.28.44c-1.63-1.39-2.92-3.48-3.87-6.28-.95-2.8-1.43-5.88-1.43-9.23s.48-6.48,1.43-9.24c.96-2.76,2.25-4.84,3.87-6.23Z"/>
  <path class="cls-4" d="M375.79,304.13h.33c-.02.38-.03.91-.03,1.58v5.07c0,.23.01.4.04.52.02.12.07.21.13.29.07.07.16.13.28.17.12.04.28.07.46.09.19.02.43.04.74.04v.43h-4.38v-.43c.44-.02.75-.05.94-.08.19-.03.33-.09.43-.15.1-.07.17-.16.22-.28.04-.12.07-.32.07-.6v-4.81c0-.16-.03-.27-.08-.35-.05-.07-.13-.11-.24-.11-.13,0-.31.07-.54.2-.23.13-.52.31-.87.54l-.26-.46,2.78-1.66Z"/>
  <path class="cls-4" d="M375.32,321.92c-.27,0-.5.08-.69.24-.18.16-.33.4-.44.7s-.19.67-.24,1.11c-.05.44-.07.93-.07,1.48,0,1.29.12,2.24.36,2.84.24.6.61.9,1.11.9s.83-.28,1.07-.85c.23-.57.35-1.45.35-2.64,0-.91-.06-1.65-.18-2.21-.12-.56-.28-.97-.5-1.21-.21-.25-.47-.37-.77-.37ZM375.35,321.41c.87,0,1.51.33,1.93,1s.63,1.68.63,3.03-.23,2.46-.68,3.18c-.45.72-1.11,1.08-1.98,1.08s-1.49-.34-1.91-1.01c-.42-.67-.63-1.69-.63-3.06,0-.73.07-1.36.19-1.89.13-.53.31-.97.54-1.31.23-.35.51-.6.83-.77.32-.16.68-.25,1.06-.25Z"/>
  <path class="cls-4" d="M200.85,186.3h.91v11.04h-.91v-11.04Z"/>
  <path class="cls-4" d="M207.08,186.6h.33c-.02.38-.04.91-.04,1.58v5.07c0,.23.01.4.04.52.03.12.07.21.14.28.07.07.16.13.28.17.12.04.28.07.46.09.19.02.43.04.74.04v.43h-4.38v-.43c.44-.02.75-.05.94-.08.19-.03.33-.08.43-.15.1-.07.17-.16.22-.28.05-.12.07-.32.07-.6v-4.81c0-.16-.03-.27-.08-.35-.06-.07-.14-.11-.24-.11-.13,0-.31.07-.54.2-.23.13-.52.31-.87.54l-.26-.46,2.78-1.66Z"/>
  <path class="cls-4" d="M211.22,185.78l2.37,5.33v.44l-2.37,5.33-.63-.23,1.9-5.33-1.9-5.33.63-.21Z"/>
  <path class="cls-4" d="M218.56,192.16h7.31v.79h-7.31v-.79ZM218.56,189.7h7.31v.79h-7.31v-.79Z"/>
  <path class="cls-4" d="M247.1,175.84c1.63,1.39,2.92,3.47,3.87,6.23.96,2.76,1.43,5.84,1.43,9.24s-.48,6.43-1.43,9.23c-.96,2.8-2.25,4.9-3.87,6.28l-.28-.44c1.4-1.43,2.49-3.49,3.25-6.2.76-2.71,1.14-5.66,1.14-8.86s-.38-6.25-1.15-8.9c-.76-2.66-1.84-4.7-3.24-6.13l.28-.45ZM239.08,175.84l.28.45c-1.4,1.43-2.48,3.47-3.24,6.13-.76,2.66-1.14,5.63-1.14,8.9s.38,6.16,1.14,8.86c.76,2.71,1.84,4.77,3.25,6.2l-.28.44c-1.63-1.38-2.92-3.48-3.87-6.28-.96-2.8-1.43-5.88-1.43-9.23s.48-6.48,1.43-9.24c.96-2.76,2.25-4.84,3.87-6.23Z"/>
  <path class="cls-4" d="M243.1,177.93c-.27,0-.5.08-.69.24-.18.16-.33.4-.44.7-.11.3-.19.68-.24,1.11-.05.44-.07.93-.07,1.48,0,1.29.12,2.24.36,2.84.24.6.61.9,1.11.9s.83-.28,1.06-.85c.23-.57.35-1.45.35-2.64,0-.91-.06-1.65-.18-2.21-.12-.56-.28-.97-.5-1.21-.21-.25-.47-.37-.77-.37ZM243.12,177.43c.87,0,1.51.33,1.93,1,.42.67.63,1.68.63,3.03s-.23,2.46-.68,3.18c-.45.72-1.11,1.08-1.98,1.08s-1.49-.34-1.91-1.01c-.42-.67-.63-1.69-.63-3.06,0-.73.06-1.36.19-1.89.13-.53.31-.97.54-1.31.23-.35.51-.6.83-.77.32-.17.68-.25,1.06-.25Z"/>
  <path class="cls-4" d="M243.56,194.71h.33c-.02.38-.04.91-.04,1.58v5.07c0,.23.01.4.04.52.03.12.07.21.14.28.07.07.16.13.28.17.12.04.28.07.46.09.19.02.43.04.74.04v.43h-4.38v-.43c.44-.02.75-.05.94-.08.19-.03.33-.08.43-.15.1-.07.17-.16.22-.28.05-.12.07-.32.07-.6v-4.81c0-.16-.03-.27-.08-.35-.06-.07-.14-.11-.24-.11-.13,0-.31.07-.54.2-.23.13-.52.31-.87.54l-.26-.46,2.78-1.66Z"/>
  <path class="cls-4" d="M282.54,232.93h.91v11.04h-.91v-11.04Z"/>
  <path class="cls-4" d="M289.06,234.14h.84v3.42h3.23v.79h-3.23v3.42h-.84v-3.42h-3.23v-.79h3.23v-3.42Z"/>
  <path class="cls-4" d="M295.23,232.41l2.37,5.33v.44l-2.37,5.33-.63-.23,1.91-5.33-1.91-5.33.63-.21Z"/>
  <path class="cls-4" d="M302.57,238.79h7.31v.79h-7.31v-.79ZM302.57,236.33h7.31v.79h-7.31v-.79Z"/>
  <path class="cls-4" d="M338.59,210.79c2.17,2.82,3.91,6.57,5.21,11.24,1.14,4.09,1.78,8.44,1.93,13.06l.03,1.93h0v1.84h0l-.03,1.93c-.15,4.62-.79,8.97-1.93,13.06-1.31,4.67-3.04,8.42-5.21,11.24l-.46-.39c2.04-2.89,3.61-6.65,4.71-11.29s1.65-9.51,1.66-14.62v-1.72c0-5.11-.56-9.98-1.66-14.62-1.1-4.64-2.67-8.4-4.71-11.29l.46-.39ZM322.65,210.78l.46.39c-2.04,2.89-3.61,6.65-4.71,11.29-1.1,4.64-1.65,9.51-1.66,14.62v1.72c0,5.11.56,9.98,1.66,14.62,1.1,4.64,2.67,8.4,4.71,11.29l-.46.39c-2.17-2.82-3.91-6.57-5.21-11.24-1.14-4.09-1.78-8.44-1.93-13.06l-.03-1.93h0v-1.84h0l.03-1.93c.15-4.62.79-8.97,1.93-13.06,1.3-4.67,3.04-8.42,5.21-11.24Z"/>
  <path class="cls-4" d="M331.09,210.91h.33c-.02.38-.04.91-.04,1.58v5.07c0,.23.01.4.04.52.02.12.07.21.13.28.07.07.16.13.28.17.12.04.28.07.46.09.19.02.43.04.74.04v.43h-4.38v-.43c.44-.02.75-.05.94-.08.19-.03.33-.08.43-.15.1-.07.17-.16.22-.28.04-.12.07-.32.07-.6v-4.81c0-.16-.03-.27-.08-.35-.05-.07-.13-.11-.24-.11-.13,0-.31.07-.54.2-.23.13-.52.31-.87.54l-.26-.46,2.78-1.66Z"/>
  <path class="cls-4" d="M330.46,224.7h1.51v.07h6v.9h-6.75v-.18h-.32l-3.19,10.9h-.58l-2.46-5.28-1,.44-.18-.44,1.95-.89,2.09,4.6,2.93-10.13Z"/>
  <path class="cls-4" d="M334.66,227.24c.74,0,1.29.16,1.67.48.38.32.56.79.56,1.4,0,.21-.02.4-.06.58-.04.18-.11.35-.2.52-.09.17-.21.36-.36.55-.15.2-.32.4-.5.6-.18.2-.49.54-.94,1.02-.75.79-1.3,1.49-1.66,2.08h2.24c.19,0,.35-.01.47-.04.12-.02.21-.06.28-.12.07-.06.13-.13.17-.22.04-.09.09-.23.16-.41h.5l-.1,1.73h-4.88v-.28c.17-.42.4-.84.69-1.28.29-.43.7-.95,1.23-1.54.46-.51.79-.89.99-1.15.22-.28.38-.53.5-.74.11-.21.19-.4.23-.59.05-.18.07-.37.07-.55,0-.3-.05-.56-.14-.79-.09-.23-.24-.41-.44-.54-.2-.13-.44-.2-.74-.2-.74,0-1.24.41-1.49,1.23h-.72v-1.14c.48-.23.92-.39,1.34-.49.42-.1.79-.15,1.12-.15Z"/>
  <path class="cls-4" d="M323.35,222.3h14.62v.9h-14.62v-.9Z"/>
  <path class="cls-4" d="M331.09,240.28h.33c-.02.38-.04.91-.04,1.58v5.07c0,.23.01.4.04.52.02.12.07.21.13.28.07.07.16.13.28.17.12.04.28.07.46.09.19.02.43.04.74.04v.43h-4.38v-.43c.44-.02.75-.05.94-.08.19-.03.33-.08.43-.15.1-.07.17-.16.22-.28.04-.12.07-.32.07-.6v-4.81c0-.16-.03-.27-.08-.35-.05-.07-.13-.11-.24-.11-.13,0-.31.07-.54.2-.23.13-.52.31-.87.54l-.26-.46,2.78-1.66Z"/>
  <path class="cls-4" d="M331.22,254.02h6.75v.9h-6.75v-.06h-.32l-3.19,10.9h-.58l-2.46-5.28-1,.45-.18-.45,1.95-.89,2.09,4.6,2.93-10.13h.76v-.05Z"/>
  <path class="cls-4" d="M334.66,256.61c.74,0,1.29.16,1.67.48.38.32.56.79.56,1.4,0,.21-.02.4-.06.58-.04.18-.11.35-.2.52-.09.17-.21.36-.36.55-.15.2-.32.4-.5.6-.18.2-.49.54-.94,1.02-.75.8-1.3,1.49-1.66,2.08h2.24c.19,0,.35-.01.47-.04.12-.02.21-.06.28-.12.07-.06.13-.13.17-.22.04-.09.09-.23.16-.41h.5l-.1,1.73h-4.88v-.28c.17-.42.4-.84.69-1.28.29-.44.7-.95,1.23-1.54.46-.51.79-.89.99-1.15.22-.28.38-.53.5-.74.11-.21.19-.4.23-.59.05-.18.07-.37.07-.55,0-.3-.05-.56-.14-.79s-.24-.41-.44-.54-.44-.2-.74-.2c-.74,0-1.24.41-1.49,1.23h-.72v-1.14c.48-.23.92-.39,1.34-.49.42-.1.79-.15,1.12-.15Z"/>
  <path class="cls-4" d="M323.35,251.77h14.62v.9h-14.62v-.9Z"/>
  <path class="cls-4" d="M282.65,389.9h.91v11.04h-.91v-11.04Z"/>
  <path class="cls-4" d="M285.94,394.52h7.31v.79h-7.31v-.79Z"/>
  <path class="cls-4" d="M295.34,389.37l2.37,5.33v.44l-2.37,5.33-.63-.23,1.9-5.33-1.9-5.33.63-.21Z"/>
  <path class="cls-4" d="M302.68,395.75h7.31v.79h-7.31v-.79ZM302.68,393.29h7.31v.79h-7.31v-.79Z"/>
  <path class="cls-4" d="M339.76,367.75c2.17,2.82,3.91,6.57,5.21,11.24,1.14,4.09,1.78,8.44,1.93,13.06l.03,1.93h0v1.84h0l-.03,1.93c-.15,4.62-.79,8.97-1.93,13.06-1.3,4.67-3.04,8.42-5.21,11.24l-.46-.38c2.04-2.89,3.61-6.65,4.71-11.29,1.1-4.64,1.65-9.51,1.66-14.62v-1.72c0-5.11-.56-9.98-1.66-14.62-1.1-4.64-2.67-8.4-4.71-11.29l.46-.38ZM322.76,367.75l.46.38c-2.04,2.89-3.61,6.65-4.71,11.29-1.1,4.64-1.65,9.51-1.66,14.62v1.72c0,5.11.56,9.98,1.66,14.62,1.1,4.64,2.67,8.4,4.71,11.29l-.46.39c-2.17-2.82-3.91-6.57-5.21-11.24-1.14-4.09-1.78-8.44-1.93-13.06l-.03-1.93h0v-1.84h0l.03-1.93c.15-4.62.79-8.97,1.93-13.06,1.3-4.67,3.04-8.42,5.21-11.24Z"/>
  <path class="cls-4" d="M331.73,367.88h.33c-.02.38-.03.91-.03,1.58v5.07c0,.23.01.4.04.52.02.12.07.21.14.28.07.07.16.13.28.17.12.04.28.07.46.09.19.02.43.04.74.05v.43h-4.38v-.43c.44-.02.75-.05.94-.08.19-.03.33-.08.43-.15s.17-.16.22-.29c.05-.12.07-.32.07-.6v-4.81c0-.16-.03-.27-.08-.35-.06-.07-.14-.11-.25-.11-.13,0-.31.07-.54.2-.23.13-.52.31-.87.54l-.26-.46,2.78-1.66Z"/>
  <path class="cls-4" d="M331.09,381.67h1.51v.07h5.97v.9h-6.75v-.18h-.29l-3.19,10.9h-.58l-2.45-5.28-1,.45-.18-.45,1.95-.89,2.09,4.6,2.93-10.13Z"/>
  <path class="cls-4" d="M335.29,384.21c.74,0,1.29.16,1.67.48.38.32.56.79.56,1.4,0,.21-.02.4-.06.58-.04.18-.11.35-.2.52-.09.17-.21.36-.36.56s-.32.4-.5.6c-.18.2-.5.54-.94,1.02-.75.79-1.3,1.49-1.65,2.08h2.24c.19,0,.35-.01.47-.04.12-.02.21-.06.28-.12.07-.06.13-.13.17-.22.04-.09.09-.23.16-.41h.51l-.1,1.73h-4.88v-.28c.17-.42.4-.84.69-1.28.29-.44.7-.95,1.23-1.54.46-.51.79-.89.99-1.15.22-.28.39-.53.49-.74.11-.21.19-.4.23-.59.05-.18.07-.37.07-.56,0-.29-.05-.56-.14-.79-.09-.23-.24-.41-.43-.54-.2-.13-.44-.2-.74-.2-.74,0-1.24.41-1.49,1.24h-.72v-1.14c.48-.23.93-.39,1.34-.49.42-.1.79-.15,1.12-.15Z"/>
  <path class="cls-4" d="M323.95,379.26h14.62v.9h-14.62v-.9Z"/>
  <path class="cls-4" d="M324.27,401.57h7.31v.79h-7.31v-.79Z"/>
  <path class="cls-4" d="M336.24,397.25h.33c-.02.38-.04.91-.04,1.58v5.07c0,.23.01.4.04.52.03.12.07.21.14.29.07.07.16.13.28.17.12.04.28.07.46.09.18.02.43.04.74.04v.43h-4.39v-.43c.44-.02.75-.04.94-.08.19-.03.33-.09.43-.15.1-.07.17-.16.22-.28.04-.12.07-.32.07-.6v-4.81c0-.16-.03-.27-.08-.35-.06-.07-.14-.11-.24-.11-.13,0-.31.07-.54.2-.23.13-.52.31-.87.54l-.26-.46,2.78-1.66Z"/>
  <path class="cls-4" d="M331.82,410.99h6.75v.9h-6.75v-.06h-.29l-3.19,10.9h-.58l-2.45-5.28-1,.44-.18-.44,1.95-.89,2.09,4.6,2.93-10.13h.73v-.05Z"/>
  <path class="cls-4" d="M335.29,413.58c.74,0,1.29.16,1.67.48.38.32.56.79.56,1.4,0,.21-.02.4-.06.58-.04.18-.11.35-.2.52-.09.17-.21.36-.36.55s-.32.4-.5.6c-.18.2-.5.54-.94,1.02-.75.79-1.3,1.49-1.65,2.08h2.24c.19,0,.35-.01.47-.04.12-.02.21-.06.28-.12.07-.06.13-.13.17-.22.04-.09.09-.23.16-.41h.51l-.1,1.73h-4.88v-.28c.17-.42.4-.84.69-1.28.29-.43.7-.95,1.23-1.54.46-.51.79-.89.99-1.15.22-.29.39-.53.49-.74.11-.21.19-.4.23-.59.05-.18.07-.37.07-.55,0-.3-.05-.56-.14-.79-.09-.23-.24-.4-.43-.54-.2-.13-.44-.2-.74-.2-.74,0-1.24.41-1.49,1.23h-.72v-1.14c.48-.23.93-.39,1.34-.49.42-.1.79-.15,1.12-.15Z"/>
  <path class="cls-4" d="M323.5,408.74h15.75v.9h-15.75v-.9Z"/>
  <path class="cls-4" d="M162.74,217.77c2.17,2.82,3.91,6.57,5.21,11.24,1.14,4.09,1.78,8.44,1.93,13.06l.03,1.93h0v1.84h0l-.03,1.93c-.15,4.62-.79,8.97-1.93,13.06-1.3,4.67-3.04,8.42-5.21,11.24l-.46-.39c2.04-2.89,3.61-6.65,4.71-11.29,1.1-4.64,1.65-9.51,1.66-14.62v-1.72c0-5.11-.56-9.98-1.66-14.62-1.1-4.64-2.67-8.4-4.71-11.29l.46-.39ZM145.75,217.77l.46.39c-2.04,2.89-3.61,6.65-4.71,11.29-1.1,4.64-1.65,9.51-1.66,14.62v1.72c0,5.11.56,9.98,1.66,14.62,1.1,4.64,2.67,8.4,4.71,11.29l-.46.39c-2.17-2.82-3.91-6.57-5.21-11.24-1.14-4.09-1.78-8.44-1.93-13.06l-.03-1.93h0v-1.84h0l.03-1.93c.15-4.62.79-8.97,1.93-13.06,1.3-4.67,3.04-8.42,5.21-11.24Z"/>
  <path class="cls-4" d="M147.26,222.22h7.31v.79h-7.31v-.79Z"/>
  <path class="cls-4" d="M159.23,217.9h.33c-.02.38-.04.91-.04,1.58v5.07c0,.23.01.4.04.52.03.12.07.21.14.28.07.07.16.13.28.17.12.04.28.07.46.09.19.02.43.04.74.04v.43h-4.38v-.43c.44-.02.75-.05.94-.08.19-.03.33-.08.43-.15.1-.07.17-.16.22-.28.05-.12.07-.32.07-.6v-4.81c0-.16-.03-.27-.08-.35-.06-.07-.14-.11-.24-.11-.13,0-.31.07-.54.2-.23.13-.52.31-.87.54l-.26-.46,2.78-1.66Z"/>
  <path class="cls-4" d="M154.08,231.68h1.51v.07h6.11v.9h-6.75v-.18h-.43l-3.19,10.9h-.58l-2.46-5.28-1,.44-.18-.44,1.95-.89,2.09,4.6,2.93-10.13Z"/>
  <path class="cls-4" d="M158.28,234.23c.74,0,1.29.16,1.67.48.38.32.56.79.56,1.4,0,.21-.02.4-.06.58-.04.18-.11.35-.2.52-.09.17-.21.36-.36.55-.15.2-.32.4-.5.6-.18.2-.5.54-.94,1.02-.75.79-1.3,1.49-1.66,2.08h2.24c.19,0,.35-.01.47-.04.12-.02.21-.06.28-.12.07-.06.13-.13.17-.22.04-.09.09-.23.16-.41h.5l-.1,1.73h-4.88v-.28c.17-.42.4-.84.69-1.28.29-.43.7-.95,1.23-1.54.46-.51.79-.89.99-1.15.22-.28.39-.53.5-.74.11-.21.19-.4.23-.59.05-.18.07-.37.07-.55,0-.3-.05-.56-.14-.79-.09-.23-.24-.41-.44-.54-.2-.13-.44-.2-.74-.2-.74,0-1.24.41-1.49,1.23h-.72v-1.14c.48-.23.93-.39,1.34-.49.42-.1.79-.15,1.12-.15Z"/>
  <path class="cls-4" d="M146.4,229.28h15.75v.9h-15.75v-.9Z"/>
  <path class="cls-4" d="M154.72,247.27h.33c-.02.38-.04.91-.04,1.58v5.07c0,.23.01.4.04.52.03.12.07.21.14.28.07.07.16.13.28.17.12.04.28.07.46.09.19.02.43.04.74.04v.43h-4.38v-.43c.44-.02.75-.05.94-.08.19-.03.33-.08.43-.15.1-.07.17-.16.22-.28.05-.12.07-.32.07-.6v-4.81c0-.16-.03-.27-.08-.35-.06-.07-.14-.11-.24-.11-.13,0-.31.07-.54.2-.23.13-.52.31-.87.54l-.26-.46,2.78-1.66Z"/>
  <path class="cls-4" d="M154.95,261h6.75v.9h-6.75v-.06h-.43l-3.19,10.9h-.58l-2.46-5.28-1,.45-.18-.45,1.95-.89,2.09,4.6,2.93-10.13h.87v-.05Z"/>
  <path class="cls-4" d="M158.28,263.6c.74,0,1.29.16,1.67.48s.56.79.56,1.4c0,.21-.02.4-.06.58-.04.18-.11.35-.2.52-.09.17-.21.36-.36.55-.15.2-.32.4-.5.6-.18.2-.5.54-.94,1.02-.75.8-1.3,1.49-1.66,2.08h2.24c.19,0,.35-.01.47-.04.12-.02.21-.06.28-.12.07-.06.13-.13.17-.22.04-.09.09-.23.16-.41h.5l-.1,1.73h-4.88v-.28c.17-.42.4-.84.69-1.28.29-.43.7-.95,1.23-1.54.46-.51.79-.89.99-1.15.22-.28.39-.53.5-.74.11-.21.19-.4.23-.59.05-.18.07-.37.07-.55,0-.3-.05-.56-.14-.79-.09-.23-.24-.41-.44-.54-.2-.13-.44-.2-.74-.2-.74,0-1.24.41-1.49,1.23h-.72v-1.14c.48-.23.93-.39,1.34-.49.42-.1.79-.15,1.12-.15Z"/>
  <path class="cls-4" d="M146.85,258.75h14.62v.9h-14.62v-.9Z"/>
  <path class="cls-4" d="M162.26,367.75c2.17,2.82,3.91,6.57,5.21,11.24,1.14,4.09,1.78,8.44,1.93,13.06l.03,1.93h0v1.84h0l-.03,1.93c-.15,4.62-.79,8.97-1.93,13.06-1.3,4.67-3.04,8.42-5.21,11.24l-.46-.38c2.04-2.89,3.61-6.65,4.71-11.29,1.1-4.64,1.65-9.51,1.66-14.62v-1.72c0-5.11-.56-9.98-1.66-14.62-1.1-4.64-2.67-8.4-4.71-11.29l.46-.38ZM145.27,367.75l.46.38c-2.04,2.89-3.61,6.65-4.71,11.29-1.1,4.64-1.65,9.51-1.66,14.62v1.72c0,5.11.56,9.98,1.66,14.62,1.1,4.64,2.67,8.4,4.71,11.29l-.46.39c-2.17-2.82-3.91-6.57-5.21-11.24-1.14-4.09-1.78-8.44-1.93-13.06l-.03-1.93h0v-1.84h0l.03-1.93c.15-4.62.79-8.97,1.93-13.06,1.3-4.67,3.04-8.42,5.21-11.24Z"/>
  <path class="cls-4" d="M146.78,372.2h7.31v.79h-7.31v-.79Z"/>
  <path class="cls-4" d="M158.75,367.88h.33c-.02.38-.04.91-.04,1.58v5.07c0,.23.01.4.04.52.03.12.07.21.14.28.07.07.16.13.28.17.12.04.28.07.46.09s.43.04.74.05v.43h-4.38v-.43c.44-.02.75-.05.94-.08.19-.03.33-.08.43-.15.1-.07.17-.16.22-.29.05-.12.07-.32.07-.6v-4.81c0-.16-.03-.27-.08-.35-.06-.07-.14-.11-.24-.11-.13,0-.31.07-.54.2-.23.13-.52.31-.87.54l-.26-.46,2.78-1.66Z"/>
  <path class="cls-4" d="M153.6,381.67h1.51v.07h6.11v.9h-6.75v-.18h-.43l-3.19,10.9h-.58l-2.46-5.28-1,.45-.18-.45,1.95-.89,2.09,4.6,2.93-10.13Z"/>
  <path class="cls-4" d="M157.8,384.21c.74,0,1.29.16,1.67.48.38.32.56.79.56,1.4,0,.21-.02.4-.06.58-.04.18-.11.35-.2.52-.09.17-.21.36-.36.56-.15.2-.32.4-.5.6-.18.2-.5.54-.94,1.02-.75.79-1.3,1.49-1.66,2.08h2.24c.19,0,.35-.01.47-.04.12-.02.21-.06.28-.12.07-.06.13-.13.17-.22.04-.09.09-.23.16-.41h.5l-.1,1.73h-4.88v-.28c.17-.42.4-.84.69-1.28.29-.44.7-.95,1.23-1.54.46-.51.79-.89.99-1.15.22-.28.39-.53.5-.74.11-.21.19-.4.23-.59.05-.18.07-.37.07-.56,0-.29-.05-.56-.14-.79-.09-.23-.24-.41-.44-.54-.2-.13-.44-.2-.74-.2-.74,0-1.24.41-1.49,1.24h-.72v-1.14c.48-.23.93-.39,1.34-.49.42-.1.79-.15,1.12-.15Z"/>
  <path class="cls-4" d="M145.92,379.26h15.75v.9h-15.75v-.9Z"/>
  <path class="cls-4" d="M146.78,401.57h7.31v.79h-7.31v-.79Z"/>
  <path class="cls-4" d="M158.75,397.25h.33c-.02.38-.04.91-.04,1.58v5.07c0,.23.01.4.04.52.03.12.07.21.14.29.07.07.16.13.28.17.12.04.28.07.46.09.19.02.43.04.74.04v.43h-4.38v-.43c.44-.02.75-.04.94-.08.19-.03.33-.09.43-.15.1-.07.17-.16.22-.28.05-.12.07-.32.07-.6v-4.81c0-.16-.03-.27-.08-.35-.06-.07-.14-.11-.24-.11-.13,0-.31.07-.54.2-.23.13-.52.31-.87.54l-.26-.46,2.78-1.66Z"/>
  <path class="cls-4" d="M154.47,410.99h6.75v.9h-6.75v-.06h-.43l-3.19,10.9h-.58l-2.46-5.28-1,.44-.18-.44,1.95-.89,2.09,4.6,2.93-10.13h.87v-.05Z"/>
  <path class="cls-4" d="M157.8,413.58c.74,0,1.29.16,1.67.48.38.32.56.79.56,1.4,0,.21-.02.4-.06.58-.04.18-.11.35-.2.52-.09.17-.21.36-.36.55-.15.2-.32.4-.5.6-.18.2-.5.54-.94,1.02-.75.79-1.3,1.49-1.66,2.08h2.24c.19,0,.35-.01.47-.04.12-.02.21-.06.28-.12.07-.06.13-.13.17-.22.04-.09.09-.23.16-.41h.5l-.1,1.73h-4.88v-.28c.17-.42.4-.84.69-1.28.29-.43.7-.95,1.23-1.54.46-.51.79-.89.99-1.15.22-.29.39-.53.5-.74.11-.21.19-.4.23-.59.05-.18.07-.37.07-.55,0-.3-.05-.56-.14-.79s-.24-.4-.44-.54c-.2-.13-.44-.2-.74-.2-.74,0-1.24.41-1.49,1.23h-.72v-1.14c.48-.23.93-.39,1.34-.49.42-.1.79-.15,1.12-.15Z"/>
  <path class="cls-4" d="M145.92,408.74h15.75v.9h-15.75v-.9Z"/>
  <path class="cls-7" d="M481.69,317.35c0-86.43,70.06-156.49,156.49-156.49s156.49,70.06,156.49,156.49-70.06,156.49-156.49,156.49-156.49-70.06-156.49-156.49Z"/>
  <path class="cls-2" d="M788.03,317.58c0-3.67,2.97-6.64,6.64-6.64s6.64,2.97,6.64,6.64-2.97,6.64-6.64,6.64-6.64-2.97-6.64-6.64Z"/>
  <path class="cls-3" d="M631.43,160.98c0-3.67,3.02-6.64,6.75-6.64s6.75,2.97,6.75,6.64-3.02,6.64-6.75,6.64-6.75-2.97-6.75-6.64Z"/>
  <path class="cls-3" d="M475.05,317.58c0-3.67,3.02-6.64,6.75-6.64s6.75,2.97,6.75,6.64-3.02,6.64-6.75,6.64-6.75-2.97-6.75-6.64Z"/>
  <path class="cls-3" d="M631.43,473.95c0-3.67,3.02-6.64,6.75-6.64s6.75,2.97,6.75,6.64-3.02,6.64-6.75,6.64-6.75-2.97-6.75-6.64Z"/>
  <path class="cls-1" d="M743.82,209.02c0-3.67,2.97-6.64,6.64-6.64s6.64,2.97,6.64,6.64-2.97,6.64-6.64,6.64-6.64-2.97-6.64-6.64Z"/>
  <path class="cls-3" d="M743.93,426.25c0-3.67,2.97-6.64,6.64-6.64s6.64,2.97,6.64,6.64-2.97,6.64-6.64,6.64-6.64-2.97-6.64-6.64Z"/>
  <path class="cls-3" d="M519.15,209.13c0-3.67,2.97-6.64,6.64-6.64s6.64,2.97,6.64,6.64-2.97,6.64-6.64,6.64-6.64-2.97-6.64-6.64Z"/>
  <path class="cls-3" d="M519.15,426.25c0-3.67,2.97-6.64,6.64-6.64s6.64,2.97,6.64,6.64-2.97,6.64-6.64,6.64-6.64-2.97-6.64-6.64Z"/>
  <path class="cls-4" d="M518.42,302.73c1.63,1.39,2.92,3.47,3.87,6.23.95,2.76,1.43,5.84,1.43,9.24s-.48,6.43-1.43,9.23c-.96,2.8-2.25,4.9-3.87,6.28l-.28-.44c1.4-1.43,2.49-3.49,3.25-6.2.76-2.71,1.14-5.66,1.14-8.87s-.38-6.25-1.15-8.9c-.76-2.66-1.84-4.7-3.24-6.13l.28-.44ZM501.36,302.73l.28.44c-1.4,1.43-2.48,3.47-3.24,6.13-.76,2.66-1.14,5.63-1.14,8.9s.38,6.16,1.14,8.87c.76,2.7,1.84,4.77,3.25,6.2l-.28.44c-1.63-1.38-2.92-3.48-3.87-6.28-.95-2.8-1.43-5.88-1.43-9.23s.48-6.48,1.43-9.24c.96-2.76,2.25-4.84,3.87-6.23Z"/>
  <path class="cls-4" d="M502.9,308.64h7.31v.79h-7.31v-.79Z"/>
  <path class="cls-4" d="M514.88,304.31h.33c-.02.38-.04.91-.04,1.58v5.07c0,.23.01.4.04.52.02.12.07.21.14.29.07.07.16.13.28.17.12.04.28.07.46.1.19.02.43.04.74.04v.43h-4.38v-.43c.44-.02.75-.05.94-.08.19-.03.33-.09.43-.15.1-.07.17-.16.22-.29.04-.12.07-.32.07-.6v-4.81c0-.16-.03-.27-.08-.35-.06-.07-.14-.11-.24-.11-.13,0-.31.07-.54.2-.23.13-.52.31-.87.54l-.26-.46,2.78-1.66Z"/>
  <path class="cls-4" d="M509.89,322.1c-.27,0-.5.08-.68.24-.18.16-.33.4-.45.7-.11.31-.19.68-.24,1.11-.05.44-.07.93-.07,1.48,0,1.29.12,2.23.36,2.84.24.6.61.9,1.11.9s.83-.28,1.07-.85c.23-.57.35-1.45.35-2.64,0-.91-.06-1.65-.18-2.21-.12-.56-.28-.97-.49-1.21-.21-.25-.47-.37-.77-.37ZM509.92,321.59c.87,0,1.51.34,1.94,1,.42.67.63,1.68.63,3.03s-.23,2.46-.68,3.18c-.45.72-1.11,1.08-1.98,1.08s-1.49-.34-1.91-1.01c-.42-.67-.63-1.69-.63-3.06,0-.73.07-1.36.19-1.89.13-.53.31-.97.54-1.31.23-.35.51-.6.83-.77.32-.17.68-.25,1.06-.25Z"/>
  <path class="cls-4" d="M645.48,429.26c1.63,1.39,2.92,3.47,3.87,6.23.95,2.76,1.43,5.84,1.43,9.24s-.48,6.43-1.43,9.23c-.96,2.8-2.25,4.9-3.87,6.28l-.28-.44c1.4-1.43,2.49-3.49,3.25-6.2.76-2.71,1.14-5.66,1.14-8.87s-.38-6.25-1.15-8.9c-.76-2.66-1.84-4.7-3.24-6.13l.28-.45ZM628.43,429.26l.28.45c-1.4,1.43-2.48,3.47-3.24,6.13-.76,2.66-1.14,5.62-1.14,8.9s.38,6.16,1.14,8.87c.76,2.7,1.84,4.77,3.24,6.2l-.28.44c-1.62-1.38-2.92-3.48-3.87-6.28-.96-2.8-1.43-5.88-1.43-9.23s.48-6.48,1.43-9.24c.95-2.76,2.25-4.84,3.87-6.23Z"/>
  <path class="cls-4" d="M636.96,431.35c-.27,0-.5.08-.69.24-.18.16-.33.4-.44.7-.11.31-.19.68-.24,1.11-.05.44-.07.93-.07,1.48,0,1.29.12,2.24.36,2.84.24.6.61.9,1.11.9s.83-.28,1.06-.85c.23-.57.35-1.45.35-2.64,0-.91-.06-1.65-.18-2.21-.12-.56-.28-.97-.49-1.22s-.47-.37-.77-.37ZM636.99,430.84c.87,0,1.51.33,1.94,1,.42.67.63,1.68.63,3.03s-.23,2.46-.68,3.18c-.45.72-1.11,1.08-1.98,1.08s-1.49-.34-1.91-1.01c-.42-.67-.63-1.69-.63-3.06,0-.73.07-1.36.19-1.89.13-.53.31-.97.54-1.31.23-.35.51-.6.83-.77.32-.17.68-.25,1.06-.25Z"/>
  <path class="cls-4" d="M629.97,452.44h7.31v.79h-7.31v-.79Z"/>
  <path class="cls-4" d="M641.94,448.12h.33c-.02.38-.03.91-.03,1.58v5.06c0,.23.01.4.04.52.02.12.07.21.14.29.07.07.16.13.28.17.12.04.28.07.46.09.19.02.43.04.74.05v.43h-4.38v-.43c.44-.02.75-.05.94-.08.19-.03.33-.08.43-.15.1-.07.17-.16.22-.28.04-.12.07-.32.07-.6v-4.81c0-.16-.03-.27-.08-.35-.05-.07-.14-.11-.24-.11-.13,0-.31.07-.54.2-.23.13-.52.31-.87.54l-.26-.46,2.78-1.66Z"/>
  <path class="cls-4" d="M557.5,217.77c2.17,2.82,3.91,6.57,5.21,11.24,1.14,4.09,1.78,8.44,1.93,13.06l.03,1.93h0v1.84h0l-.03,1.93c-.15,4.62-.79,8.97-1.93,13.06-1.3,4.67-3.04,8.42-5.21,11.24l-.46-.39c2.04-2.89,3.61-6.65,4.71-11.29,1.1-4.64,1.65-9.51,1.66-14.62v-1.72c0-5.11-.56-9.98-1.66-14.62-1.1-4.64-2.67-8.4-4.71-11.29l.46-.39ZM540.51,217.77l.46.39c-2.04,2.89-3.61,6.65-4.71,11.29-1.1,4.64-1.65,9.51-1.66,14.62v1.72c0,5.11.56,9.98,1.66,14.62,1.1,4.64,2.67,8.4,4.71,11.29l-.46.39c-2.17-2.82-3.91-6.57-5.21-11.24-1.14-4.09-1.78-8.44-1.93-13.06l-.03-1.93h0v-1.84h0l.03-1.93c.15-4.62.79-8.97,1.93-13.06,1.3-4.67,3.04-8.42,5.21-11.24Z"/>
  <path class="cls-4" d="M542.02,222.22h7.31v.79h-7.31v-.79Z"/>
  <path class="cls-4" d="M553.99,217.9h.33c-.02.38-.04.91-.04,1.58v5.07c0,.23.01.4.04.52.03.12.07.21.14.28.07.07.16.13.28.17.12.04.28.07.46.09.18.02.43.04.74.04v.43h-4.39v-.43c.44-.02.75-.05.94-.08.19-.03.33-.08.43-.15.1-.07.17-.16.22-.28.04-.12.07-.32.07-.6v-4.81c0-.16-.03-.27-.08-.35-.06-.07-.14-.11-.24-.11-.13,0-.31.07-.54.2-.23.13-.52.31-.87.54l-.26-.46,2.78-1.66Z"/>
  <path class="cls-4" d="M548.84,231.68h1.51v.07h6.11v.9h-6.75v-.18h-.43l-3.19,10.9h-.58l-2.45-5.28-1,.44-.18-.44,1.95-.89,2.09,4.6,2.93-10.13Z"/>
  <path class="cls-4" d="M553.04,234.23c.74,0,1.29.16,1.67.48.38.32.56.79.56,1.4,0,.21-.02.4-.06.58-.04.18-.11.35-.2.52-.09.17-.21.36-.36.55-.15.2-.32.4-.5.6-.18.2-.49.54-.94,1.02-.75.79-1.3,1.49-1.65,2.08h2.24c.19,0,.35-.01.47-.04.12-.02.21-.06.28-.12.07-.06.13-.13.17-.22.04-.09.09-.23.16-.41h.51l-.1,1.73h-4.88v-.28c.17-.42.4-.84.69-1.28.29-.43.7-.95,1.23-1.54.46-.51.79-.89.99-1.15.22-.28.39-.53.49-.74.11-.21.19-.4.23-.59.05-.18.07-.37.07-.55,0-.3-.05-.56-.14-.79-.09-.23-.24-.41-.43-.54-.2-.13-.44-.2-.74-.2-.74,0-1.24.41-1.49,1.23h-.72v-1.14c.48-.23.93-.39,1.34-.49.42-.1.79-.15,1.12-.15Z"/>
  <path class="cls-4" d="M541.16,229.28h15.75v.9h-15.75v-.9Z"/>
  <path class="cls-4" d="M549.47,247.27h.33c-.02.38-.03.91-.03,1.58v5.07c0,.23.01.4.04.52.02.12.07.21.14.28s.16.13.28.17c.12.04.28.07.46.09.19.02.43.04.74.04v.43h-4.38v-.43c.44-.02.75-.05.94-.08.19-.03.33-.08.43-.15.1-.07.17-.16.22-.28.04-.12.07-.32.07-.6v-4.81c0-.16-.03-.27-.08-.35-.05-.07-.13-.11-.24-.11-.13,0-.31.07-.54.2-.23.13-.52.31-.87.54l-.26-.46,2.78-1.66Z"/>
  <path class="cls-4" d="M549.71,261h6.75v.9h-6.75v-.06h-.43l-3.19,10.9h-.58l-2.45-5.28-1,.45-.18-.45,1.95-.89,2.09,4.6,2.93-10.13h.87v-.05Z"/>
  <path class="cls-4" d="M553.04,263.6c.74,0,1.29.16,1.67.48s.56.79.56,1.4c0,.21-.02.4-.06.58-.04.18-.11.35-.2.52-.09.17-.21.36-.36.55-.15.2-.32.4-.5.6-.18.2-.49.54-.94,1.02-.75.8-1.3,1.49-1.65,2.08h2.24c.19,0,.35-.01.47-.04.12-.02.21-.06.28-.12.07-.06.13-.13.17-.22.04-.09.09-.23.16-.41h.51l-.1,1.73h-4.88v-.28c.17-.42.4-.84.69-1.28.29-.43.7-.95,1.23-1.54.46-.51.79-.89.99-1.15.22-.28.39-.53.49-.74.11-.21.19-.4.23-.59.05-.18.07-.37.07-.55,0-.3-.05-.56-.14-.79-.09-.23-.24-.41-.43-.54-.2-.13-.44-.2-.74-.2-.74,0-1.24.41-1.49,1.23h-.72v-1.14c.48-.23.93-.39,1.34-.49.42-.1.79-.15,1.12-.15Z"/>
  <path class="cls-4" d="M541.61,258.75h14.62v.9h-14.62v-.9Z"/>
  <path class="cls-4" d="M557.03,367.75c2.17,2.82,3.91,6.57,5.21,11.24,1.14,4.09,1.78,8.44,1.93,13.06l.03,1.93h0v1.84h0l-.03,1.93c-.14,4.62-.79,8.97-1.93,13.06-1.3,4.67-3.04,8.42-5.21,11.24l-.46-.38c2.04-2.89,3.61-6.65,4.71-11.29,1.1-4.64,1.65-9.51,1.66-14.62v-1.72c0-5.11-.56-9.98-1.66-14.62-1.1-4.64-2.67-8.4-4.71-11.29l.46-.38ZM540.03,367.75l.46.38c-2.04,2.89-3.61,6.65-4.71,11.29-1.1,4.64-1.65,9.51-1.66,14.62v1.72c0,5.11.56,9.98,1.66,14.62,1.1,4.64,2.67,8.4,4.71,11.29l-.46.39c-2.17-2.82-3.91-6.57-5.21-11.24-1.14-4.09-1.78-8.44-1.93-13.06l-.03-1.93h0v-1.84h0l.03-1.93c.15-4.62.79-8.97,1.93-13.06,1.3-4.67,3.04-8.42,5.21-11.24Z"/>
  <path class="cls-4" d="M541.54,372.2h7.31v.79h-7.31v-.79Z"/>
  <path class="cls-4" d="M553.51,367.88h.33c-.02.38-.04.91-.04,1.58v5.07c0,.23.01.4.04.52.03.12.07.21.14.28.07.07.16.13.28.17.12.04.28.07.46.09.19.02.43.04.74.05v.43h-4.39v-.43c.44-.02.75-.05.94-.08.19-.03.33-.08.43-.15.1-.07.17-.16.22-.29.04-.12.07-.32.07-.6v-4.81c0-.16-.03-.27-.08-.35-.06-.07-.14-.11-.24-.11-.13,0-.31.07-.54.2-.23.13-.52.31-.87.54l-.26-.46,2.78-1.66Z"/>
  <path class="cls-4" d="M548.36,381.67h1.51v.07h6.11v.9h-6.75v-.18h-.43l-3.19,10.9h-.58l-2.45-5.28-1,.45-.18-.45,1.95-.89,2.09,4.6,2.93-10.13Z"/>
  <path class="cls-4" d="M552.56,384.21c.74,0,1.29.16,1.67.48.38.32.56.79.56,1.4,0,.21-.02.4-.06.58-.04.18-.11.35-.2.52-.09.17-.21.36-.36.56-.15.2-.32.4-.5.6-.18.2-.5.54-.94,1.02-.75.79-1.3,1.49-1.65,2.08h2.24c.19,0,.35-.01.47-.04.12-.02.21-.06.29-.12.07-.06.13-.13.17-.22.04-.09.09-.23.16-.41h.5l-.1,1.73h-4.88v-.28c.17-.42.4-.84.69-1.28.29-.44.7-.95,1.23-1.54.46-.51.79-.89.99-1.15.22-.28.39-.53.5-.74s.19-.4.23-.59c.05-.18.07-.37.07-.56,0-.29-.05-.56-.14-.79-.09-.23-.24-.41-.43-.54-.2-.13-.44-.2-.74-.2-.74,0-1.24.41-1.49,1.24h-.72v-1.14c.48-.23.93-.39,1.34-.49.42-.1.79-.15,1.12-.15Z"/>
  <path class="cls-4" d="M540.68,379.26h15.75v.9h-15.75v-.9Z"/>
  <path class="cls-4" d="M541.54,401.57h7.31v.79h-7.31v-.79Z"/>
  <path class="cls-4" d="M553.51,397.25h.33c-.02.38-.04.91-.04,1.58v5.07c0,.23.01.4.04.52.03.12.07.21.14.29.07.07.16.13.28.17.12.04.28.07.46.09.19.02.43.04.74.04v.43h-4.39v-.43c.44-.02.75-.04.94-.08.19-.03.33-.09.43-.15.1-.07.17-.16.22-.28.04-.12.07-.32.07-.6v-4.81c0-.16-.03-.27-.08-.35-.06-.07-.14-.11-.24-.11-.13,0-.31.07-.54.2-.23.13-.52.31-.87.54l-.26-.46,2.78-1.66Z"/>
  <path class="cls-4" d="M549.23,410.99h6.75v.9h-6.75v-.06h-.43l-3.19,10.9h-.58l-2.45-5.28-1,.44-.18-.44,1.95-.89,2.09,4.6,2.93-10.13h.87v-.05Z"/>
  <path class="cls-4" d="M552.56,413.58c.74,0,1.29.16,1.67.48.38.32.56.79.56,1.4,0,.21-.02.4-.06.58-.04.18-.11.35-.2.52-.09.17-.21.36-.36.55-.15.2-.32.4-.5.6-.18.2-.5.54-.94,1.02-.75.79-1.3,1.49-1.65,2.08h2.24c.19,0,.35-.01.47-.04.12-.02.21-.06.29-.12.07-.06.13-.13.17-.22.04-.09.09-.23.16-.41h.5l-.1,1.73h-4.88v-.28c.17-.42.4-.84.69-1.28.29-.43.7-.95,1.23-1.54.46-.51.79-.89.99-1.15.22-.29.39-.53.5-.74.11-.21.19-.4.23-.59.05-.18.07-.37.07-.55,0-.3-.05-.56-.14-.79-.09-.23-.24-.4-.43-.54-.2-.13-.44-.2-.74-.2-.74,0-1.24.41-1.49,1.23h-.72v-1.14c.48-.23.93-.39,1.34-.49.42-.1.79-.15,1.12-.15Z"/>
  <path class="cls-4" d="M540.68,408.74h15.75v.9h-15.75v-.9Z"/>
  <path class="cls-5" d="M406.61,317.01h18.56l-.77.77v-108.55l.77.77h-61.41v-1.55h62.19v110.09h-19.34v-1.55ZM369.45,214.99l-6.9-5.75,6.9-5.75c.33-.27.82-.23,1.09.1.27.33.23.82-.1,1.09l-6.19,5.16v-1.19l6.19,5.16c.33.27.37.76.1,1.09-.27.33-.76.37-1.09.1Z"/>
  <path class="cls-5" d="M801.26,317.01h18.56l-.77.77v-108.55l.77.77h-61.41v-1.55h62.19v110.09h-19.34v-1.55ZM764.1,214.99l-6.9-5.75,6.9-5.75c.33-.27.82-.23,1.09.1.27.33.23.82-.1,1.09l-6.19,5.16v-1.19l6.19,5.16c.33.27.37.76.1,1.09-.27.33-.76.37-1.09.1Z"/>
  <g>
    <path class="cls-6" d="M188.54,510.85c-1.05.55-2.37.82-3.94.82-2.03,0-3.66-.64-4.88-1.92s-1.84-2.97-1.84-5.05c0-2.24.69-4.05,2.07-5.43s3.12-2.07,5.22-2.07c1.35,0,2.48.19,3.37.58v2.3c-.94-.56-1.99-.84-3.12-.84-1.52,0-2.75.49-3.69,1.46s-1.41,2.27-1.41,3.89.44,2.77,1.32,3.69,2.03,1.37,3.47,1.37c1.32,0,2.47-.31,3.44-.94v2.15Z"/>
    <path class="cls-6" d="M200.72,511.67c-2.02,0-3.63-.65-4.85-1.96s-1.82-3.01-1.82-5.11c0-2.25.62-4.05,1.86-5.39s2.92-2.01,5.04-2.01c1.97,0,3.55.65,4.75,1.95s1.8,3,1.8,5.11c0,2.29-.62,4.09-1.85,5.42s-2.87,1.99-4.93,1.99ZM200.83,499.24c-1.28,0-2.33.48-3.13,1.44s-1.21,2.22-1.21,3.78.39,2.81,1.17,3.76,1.8,1.43,3.07,1.43c1.34,0,2.4-.45,3.17-1.36s1.16-2.17,1.16-3.8-.38-2.97-1.13-3.88-1.79-1.37-3.11-1.37Z"/>
    <path class="cls-6" d="M225.94,511.44h-2.54l-6.69-10.29c-.17-.26-.31-.53-.42-.81h-.06c.05.3.08.94.08,1.92v9.18h-2.25v-14h2.71l6.46,10.05c.27.42.45.7.53.86h.04c-.06-.37-.1-1-.1-1.88v-9.02h2.24v14Z"/>
    <path class="cls-6" d="M232.76,510.88v-2.39c.21.2.47.37.77.53s.61.29.94.4.66.19,1,.25.64.09.92.09c.98,0,1.7-.16,2.18-.49s.72-.8.72-1.42c0-.33-.08-.62-.24-.86s-.38-.47-.67-.67-.62-.4-1.01-.58-.8-.38-1.25-.58c-.48-.25-.92-.51-1.33-.77s-.77-.55-1.07-.86-.54-.67-.71-1.07-.26-.86-.26-1.4c0-.66.15-1.23.44-1.71s.69-.89,1.17-1.2,1.04-.55,1.66-.7,1.25-.23,1.89-.23c1.46,0,2.53.17,3.2.5v2.29c-.79-.57-1.82-.86-3.07-.86-.35,0-.69.03-1.03.1s-.65.17-.92.32-.49.34-.66.58-.25.52-.25.85c0,.31.06.58.2.81s.32.44.57.62.56.37.92.55.78.37,1.25.58c.49.25.95.52,1.38.8s.81.59,1.14.93.59.71.78,1.13.29.88.29,1.41c0,.71-.14,1.31-.43,1.8s-.67.89-1.16,1.19-1.04.53-1.67.66-1.3.21-2,.21c-.23,0-.52-.02-.86-.05s-.69-.09-1.05-.16-.7-.15-1.02-.25-.58-.21-.77-.33Z"/>
    <path class="cls-6" d="M257.28,499.41h-4.02v12.03h-2.32v-12.03h-4.01v-1.97h10.36v1.97Z"/>
    <path class="cls-6" d="M273.38,511.44h-2.55l-1.26-3.56h-5.51l-1.21,3.56h-2.54l5.24-14h2.62l5.21,14ZM268.95,505.98l-1.94-5.59c-.06-.18-.12-.48-.19-.88h-.04c-.06.37-.12.66-.2.88l-1.92,5.59h4.29Z"/>
    <path class="cls-6" d="M291.18,511.44h-2.54l-6.69-10.29c-.17-.26-.31-.53-.42-.81h-.06c.05.3.08.94.08,1.92v9.18h-2.25v-14h2.71l6.46,10.05c.27.42.45.7.53.86h.04c-.06-.37-.1-1-.1-1.88v-9.02h2.24v14Z"/>
    <path class="cls-6" d="M307.63,499.41h-4.02v12.03h-2.32v-12.03h-4.01v-1.97h10.36v1.97Z"/>
  </g>
  <g>
    <path class="cls-6" d="M591.24,496.98l-5.03,14h-2.6l-4.94-14h2.54l3.46,10.62c.11.34.2.73.25,1.18h.04c.05-.37.14-.77.28-1.2l3.54-10.61h2.46Z"/>
    <path class="cls-6" d="M607.51,510.98h-2.55l-1.26-3.56h-5.51l-1.21,3.56h-2.54l5.24-14h2.62l5.21,14ZM603.08,505.52l-1.94-5.59c-.06-.18-.12-.48-.19-.88h-.04c-.06.37-.12.66-.2.88l-1.92,5.59h4.29Z"/>
    <path class="cls-6" d="M624.25,510.98h-2.71l-2.24-3.75c-.2-.34-.4-.64-.59-.88s-.39-.44-.59-.6-.42-.27-.65-.34-.5-.11-.79-.11h-.94v5.68h-2.31v-14h4.61c.66,0,1.26.08,1.82.23s1.04.39,1.45.71.73.71.96,1.18.35,1.02.35,1.66c0,.5-.07.95-.22,1.36s-.35.78-.62,1.1-.6.6-.98.83-.81.4-1.28.53v.04c.25.14.48.3.66.47s.37.35.54.53.34.39.5.62.35.5.55.81l2.49,3.94ZM615.74,498.86v4.55h1.93c.36,0,.69-.06.99-.17s.56-.27.79-.48.39-.46.52-.76.19-.63.19-1.01c0-.67-.21-1.19-.63-1.57s-1.03-.57-1.83-.57h-1.95Z"/>
    <path class="cls-6" d="M632.26,510.98h-2.39v-14h2.39v14Z"/>
    <path class="cls-6" d="M651.21,510.98h-2.55l-1.26-3.56h-5.51l-1.21,3.56h-2.54l5.24-14h2.62l5.21,14ZM646.79,505.52l-1.94-5.59c-.06-.18-.12-.48-.19-.88h-.04c-.06.37-.12.66-.2.88l-1.92,5.59h4.29Z"/>
    <path class="cls-6" d="M657.14,510.98v-14h4.44c1.35,0,2.43.3,3.22.89s1.19,1.36,1.19,2.31c0,.79-.22,1.48-.67,2.07s-1.07,1-1.87,1.25v.04c.96.11,1.73.47,2.31,1.07s.86,1.38.86,2.35c0,1.2-.47,2.17-1.42,2.91s-2.14,1.11-3.57,1.11h-4.49ZM659.45,498.84v3.98h1.5c.81,0,1.44-.19,1.9-.57s.69-.92.69-1.62c0-1.2-.8-1.8-2.4-1.8h-1.69ZM659.45,504.69v4.43h1.98c.87,0,1.53-.2,2.01-.6s.71-.95.71-1.66c0-1.45-1.01-2.18-3.02-2.18h-1.68Z"/>
    <path class="cls-6" d="M680.97,510.98h-7.75v-14h2.32v12.04h5.43v1.96Z"/>
    <path class="cls-6" d="M694.85,510.98h-7.86v-14h7.55v1.97h-5.22v3.96h4.81v1.96h-4.81v4.14h5.54v1.96Z"/>
  </g>
</svg>