<?xml version="1.0" encoding="UTF-8"?>
<svg width="660" height="334" fill="none" version="1.1" viewBox="0 0 660 334" xmlns="http://www.w3.org/2000/svg"><g clip-path="url(#clip0_4_498)"><g clip-rule="evenodd" fill-rule="evenodd"><path d="m7.1 146c0-76.8 62.3-139 139-139 76.8 0 139 62.3 139 139 0 76.8-62.3 139-139 139-76.8 0-139-62.3-139-139z" stroke="#747474" stroke-miterlimit="8" stroke-width="1.38"/><g fill="#fff" stroke-miterlimit="8" stroke-width="1.38"><path d="m279 147c0-3.26 2.69-5.9 6-5.9s6 2.64 6 5.9-2.69 5.9-6 5.9-6-2.64-6-5.9z" stroke="#0070C0"/><g stroke="#000"><path d="m140 7.4c0-3.26 2.64-5.9 5.9-5.9s5.9 2.64 5.9 5.9-2.64 5.9-5.9 5.9-5.9-2.64-5.9-5.9z"/><path d="m1.3 147c0-3.26 2.64-5.9 5.9-5.9 3.26 0 5.9 2.64 5.9 5.9s-2.64 5.9-5.9 5.9c-3.26 0-5.9-2.64-5.9-5.9z"/><path d="m140 286c0-3.26 2.64-5.9 5.9-5.9s5.9 2.64 5.9 5.9-2.64 5.9-5.9 5.9-5.9-2.64-5.9-5.9z"/></g></g><path d="m240 50.1c0-3.26 2.69-5.9 6-5.9s6 2.64 6 5.9c0 3.26-2.69 5.9-6 5.9s-6-2.64-6-5.9z" fill="#0070C0"/><g fill="#fff" stroke="#000" stroke-miterlimit="8" stroke-width="1.38"><path d="m240 243c0-3.26 2.69-5.9 6-5.9s6 2.64 6 5.9-2.69 5.9-6 5.9-6-2.64-6-5.9z"/><path d="m40.3 50.2c0-3.26 2.69-5.9 6-5.9s6 2.64 6 5.9c0 3.26-2.69 5.9-6 5.9s-6-2.64-6-5.9z"/><path d="m40.3 243c0-3.26 2.69-5.9 6-5.9s6 2.64 6 5.9-2.69 5.9-6 5.9-6-2.64-6-5.9z"/></g><path d="m358 146c0-76.8 62.2-139 139-139s139 62.3 139 139c0 76.8-62.2 139-139 139s-139-62.3-139-139z" stroke="#747474" stroke-miterlimit="8" stroke-width="1.38"/><g fill="#fff" stroke-miterlimit="8" stroke-width="1.38"><path d="m630 147c0-3.26 2.64-5.9 5.9-5.9s5.9 2.64 5.9 5.9-2.64 5.9-5.9 5.9-5.9-2.64-5.9-5.9z" stroke="#0070C0"/><g stroke="#000"><path d="m491 7.4c0-3.26 2.69-5.9 6-5.9s6 2.64 6 5.9-2.69 5.9-6 5.9-6-2.64-6-5.9z"/><path d="m352 147c0-3.26 2.69-5.9 6-5.9s6 2.64 6 5.9-2.69 5.9-6 5.9-6-2.64-6-5.9z"/><path d="m491 286c0-3.26 2.69-5.9 6-5.9s6 2.64 6 5.9-2.69 5.9-6 5.9-6-2.64-6-5.9z"/></g></g><path d="m591 50.1c0-3.26 2.64-5.9 5.9-5.9s5.9 2.64 5.9 5.9c0 3.26-2.64 5.9-5.9 5.9s-5.9-2.64-5.9-5.9z" fill="#0070C0"/><g fill="#fff" stroke="#000" stroke-miterlimit="8" stroke-width="1.38"><path d="m591 243c0-3.26 2.64-5.9 5.9-5.9s5.9 2.64 5.9 5.9-2.64 5.9-5.9 5.9-5.9-2.64-5.9-5.9z"/><path d="m391 50.2c0-3.26 2.64-5.9 5.9-5.9s5.9 2.64 5.9 5.9c0 3.26-2.64 5.9-5.9 5.9s-5.9-2.64-5.9-5.9z"/><path d="m391 243c0-3.26 2.64-5.9 5.9-5.9s5.9 2.64 5.9 5.9-2.64 5.9-5.9 5.9-5.9-2.64-5.9-5.9z"/></g></g><path d="m120 319c-0.941 0.455-2.17 0.683-3.68 0.683-1.98 0-3.53-0.581-4.66-1.74s-1.7-2.71-1.7-4.64c0-2.06 0.635-3.73 1.9-5.01 1.28-1.28 2.93-1.92 4.96-1.92 1.26 0 2.32 0.159 3.18 0.476v2.79c-0.863-0.515-1.84-0.773-2.95-0.773-1.21 0-2.19 0.381-2.93 1.14-0.743 0.761-1.11 1.79-1.11 3.09 0 1.25 0.35 2.24 1.05 2.98 0.701 0.737 1.64 1.1 2.83 1.1 1.13 0 2.17-0.276 3.11-0.827v2.65zm6.35 0.683c-1.53 0-2.74-0.429-3.62-1.28-0.875-0.863-1.31-2.03-1.31-3.5 0-1.52 0.455-2.71 1.37-3.57 0.91-0.862 2.14-1.29 3.69-1.29 1.53 0 2.73 0.432 3.59 1.29 0.869 0.857 1.3 1.99 1.3 3.4 0 1.53-0.449 2.73-1.35 3.62-0.892 0.886-2.12 1.33-3.67 1.33zm0.071-7.48c-0.67 0-1.19 0.23-1.56 0.691-0.371 0.462-0.557 1.11-0.557 1.96 0 1.77 0.713 2.65 2.14 2.65 1.36 0 2.04-0.907 2.04-2.72 0-1.72-0.686-2.58-2.06-2.58zm15.7 7.25h-2.83v-5.11c0-1.43-0.509-2.14-1.53-2.14-0.491 0-0.896 0.188-1.21 0.566-0.318 0.377-0.476 0.856-0.476 1.44v5.25h-2.84v-9.2h2.84v1.46h0.036c0.676-1.12 1.66-1.68 2.96-1.68 2.04 0 3.05 1.26 3.05 3.79v5.63zm1.65-0.243v-2.3c0.468 0.282 0.932 0.492 1.39 0.629 0.467 0.138 0.907 0.207 1.32 0.207 0.503 0 0.898-0.069 1.19-0.207 0.293-0.137 0.44-0.347 0.44-0.629 0-0.179-0.066-0.329-0.198-0.449s-0.302-0.224-0.512-0.314c-0.204-0.09-0.428-0.171-0.674-0.243-0.245-0.072-0.482-0.153-0.71-0.242-0.365-0.138-0.688-0.285-0.97-0.441-0.275-0.161-0.509-0.347-0.701-0.557-0.185-0.209-0.329-0.452-0.431-0.727-0.096-0.276-0.144-0.602-0.144-0.98 0-0.515 0.111-0.958 0.333-1.33 0.227-0.372 0.527-0.674 0.898-0.908 0.378-0.239 0.806-0.413 1.28-0.521 0.485-0.114 0.988-0.171 1.51-0.171 0.408 0 0.821 0.033 1.24 0.099 0.419 0.06 0.833 0.15 1.24 0.27v2.19c-0.359-0.21-0.746-0.365-1.16-0.467-0.407-0.108-0.809-0.162-1.2-0.162-0.186 0-0.362 0.018-0.53 0.054-0.162 0.03-0.305 0.078-0.431 0.144-0.126 0.06-0.225 0.14-0.297 0.242-0.072 0.096-0.107 0.207-0.107 0.333 0 0.167 0.053 0.311 0.161 0.431s0.249 0.225 0.422 0.314c0.174 0.084 0.366 0.162 0.575 0.234 0.216 0.066 0.429 0.135 0.638 0.207 0.378 0.131 0.719 0.275 1.02 0.431 0.305 0.156 0.566 0.338 0.781 0.548 0.222 0.21 0.39 0.455 0.503 0.737 0.12 0.281 0.18 0.617 0.18 1.01 0 0.545-0.12 1.01-0.359 1.4-0.234 0.384-0.548 0.698-0.944 0.944-0.389 0.239-0.841 0.413-1.36 0.521-0.509 0.114-1.04 0.171-1.59 0.171-1.01 0-1.95-0.156-2.81-0.468zm14.3 0.135c-0.42 0.222-1.05 0.333-1.9 0.333-2 0-3-1.04-3-3.12v-4.21h-1.49v-2.09h1.49v-1.99l2.83-0.808v2.79h2.07v2.09h-2.07v3.72c0 0.958 0.38 1.44 1.14 1.44 0.3 0 0.608-0.086 0.926-0.26v2.1zm9.26 0.108h-2.69v-1.32h-0.036c-0.617 1.03-1.53 1.55-2.74 1.55-0.893 0-1.6-0.252-2.11-0.755-0.51-0.509-0.764-1.19-0.764-2.03 0-1.78 1.06-2.82 3.17-3.09l2.5-0.333c0-1.01-0.545-1.51-1.64-1.51-1.1 0-2.14 0.326-3.13 0.979v-2.14c0.396-0.204 0.935-0.383 1.62-0.539 0.688-0.156 1.31-0.234 1.88-0.234 2.62 0 3.94 1.31 3.94 3.93v5.5zm-2.67-3.74v-0.62l-1.67 0.215c-0.922 0.12-1.38 0.536-1.38 1.25 0 0.323 0.111 0.59 0.333 0.8 0.227 0.203 0.533 0.305 0.916 0.305 0.533 0 0.968-0.183 1.3-0.548 0.335-0.371 0.503-0.838 0.503-1.4zm13.8 3.74h-2.83v-5.11c0-1.43-0.509-2.14-1.53-2.14-0.492 0-0.896 0.188-1.21 0.566-0.318 0.377-0.476 0.856-0.476 1.44v5.25h-2.84v-9.2h2.84v1.46h0.036c0.676-1.12 1.66-1.68 2.96-1.68 2.04 0 3.06 1.26 3.06 3.79v5.63zm7.82-0.108c-0.419 0.222-1.05 0.333-1.9 0.333-2 0-3-1.04-3-3.12v-4.21h-1.49v-2.09h1.49v-1.99l2.83-0.808v2.79h2.07v2.09h-2.07v3.72c0 0.958 0.38 1.44 1.14 1.44 0.3 0 0.608-0.086 0.925-0.26v2.1z" fill="#000"/><path d="m476 307-4.44 12.9h-3.29l-4.38-12.9h3.13l2.69 8.97c0.143 0.485 0.23 0.913 0.26 1.28h0.054c0.042-0.402 0.135-0.842 0.279-1.32l2.67-8.93h3.04zm7.54 12.9h-2.69v-1.32h-0.036c-0.617 1.03-1.53 1.55-2.74 1.55-0.892 0-1.6-0.252-2.11-0.755-0.509-0.509-0.764-1.19-0.764-2.03 0-1.78 1.06-2.82 3.17-3.09l2.5-0.333c0-1.01-0.545-1.51-1.64-1.51-1.1 0-2.14 0.326-3.13 0.979v-2.14c0.395-0.204 0.934-0.383 1.62-0.539 0.689-0.156 1.31-0.234 1.88-0.234 2.62 0 3.94 1.31 3.94 3.93v5.5zm-2.67-3.74v-0.62l-1.67 0.215c-0.922 0.12-1.38 0.536-1.38 1.25 0 0.323 0.11 0.59 0.332 0.8 0.228 0.203 0.533 0.305 0.916 0.305 0.533 0 0.968-0.183 1.3-0.548 0.336-0.371 0.503-0.838 0.503-1.4zm10.9-2.9c-0.341-0.186-0.739-0.279-1.2-0.279-0.617 0-1.1 0.228-1.45 0.683-0.348 0.449-0.521 1.06-0.521 1.84v4.39h-2.84v-9.2h2.84v1.71h0.036c0.449-1.25 1.26-1.87 2.42-1.87 0.3 0 0.534 0.036 0.701 0.108v2.62zm2.84-4.02c-0.479 0-0.871-0.141-1.18-0.423-0.305-0.287-0.458-0.638-0.458-1.05 0-0.425 0.153-0.773 0.458-1.04 0.306-0.27 0.698-0.404 1.18-0.404 0.485 0 0.878 0.134 1.18 0.404 0.306 0.269 0.458 0.617 0.458 1.04 0 0.431-0.152 0.785-0.458 1.06-0.299 0.276-0.692 0.414-1.18 0.414zm1.4 10.7h-2.84v-9.2h2.84v9.2zm10 0h-2.69v-1.32h-0.036c-0.617 1.03-1.53 1.55-2.74 1.55-0.893 0-1.6-0.252-2.11-0.755-0.51-0.509-0.764-1.19-0.764-2.03 0-1.78 1.06-2.82 3.17-3.09l2.5-0.333c0-1.01-0.545-1.51-1.64-1.51-1.1 0-2.14 0.326-3.13 0.979v-2.14c0.396-0.204 0.935-0.383 1.62-0.539 0.688-0.156 1.31-0.234 1.88-0.234 2.62 0 3.94 1.31 3.94 3.93v5.5zm-2.67-3.74v-0.62l-1.67 0.215c-0.922 0.12-1.38 0.536-1.38 1.25 0 0.323 0.111 0.59 0.333 0.8 0.227 0.203 0.533 0.305 0.916 0.305 0.533 0 0.968-0.183 1.3-0.548 0.335-0.371 0.503-0.838 0.503-1.4zm7.79 2.67h-0.036v1.07h-2.84v-13.6h2.84v5.8h0.036c0.7-1.07 1.7-1.61 2.99-1.61 1.19 0 2.1 0.408 2.74 1.22 0.64 0.815 0.961 1.93 0.961 3.34 0 1.53-0.374 2.76-1.12 3.69s-1.75 1.39-3 1.39c-1.13 0-1.99-0.432-2.57-1.29zm-0.081-3.88v0.943c0 0.593 0.17 1.08 0.512 1.47 0.341 0.39 0.778 0.584 1.31 0.584 0.647 0 1.15-0.248 1.5-0.745 0.359-0.503 0.539-1.21 0.539-2.13 0-0.76-0.165-1.35-0.494-1.78-0.324-0.431-0.788-0.646-1.39-0.646-0.569 0-1.04 0.212-1.42 0.638-0.372 0.425-0.557 0.979-0.557 1.66zm11.5 4.95h-2.84v-13.6h2.84v13.6zm10.7-3.79h-6c0.095 1.34 0.937 2 2.52 2 1.01 0 1.9-0.239 2.67-0.719v2.05c-0.851 0.455-1.96 0.683-3.32 0.683-1.48 0-2.64-0.411-3.46-1.23-0.82-0.827-1.23-1.98-1.23-3.45 0-1.53 0.443-2.74 1.33-3.63 0.887-0.892 1.98-1.34 3.27-1.34 1.34 0 2.38 0.399 3.11 1.2 0.737 0.797 1.1 1.88 1.1 3.24v1.2zm-2.63-1.74c0-1.32-0.533-1.98-1.6-1.98-0.456 0-0.851 0.189-1.19 0.566-0.33 0.377-0.53 0.848-0.602 1.41h3.39z" fill="#000"/><path d="m291 146h16.5l-0.688 0.688v-96.5l0.688 0.687h-54.6v-1.38h55.3v97.9h-17.2v-1.38zm-33-90.7-6.13-5.11 6.13-5.11c0.292-0.243 0.726-0.204 0.968 0.088 0.244 0.292 0.204 0.725-0.088 0.968l-5.5 4.58v-1.06l5.5 4.58c0.292 0.243 0.332 0.677 0.088 0.968-0.242 0.292-0.676 0.331-0.968 0.088z" fill="#0070C0"/><path d="m642 146h16.5l-0.688 0.688v-96.5l0.688 0.687h-54.6v-1.38h55.3v97.9h-17.2v-1.38zm-33-90.7-6.13-5.11 6.13-5.11c0.292-0.243 0.726-0.204 0.968 0.088 0.244 0.292 0.204 0.725-0.088 0.968l-5.5 4.58v-1.06l5.5 4.58c0.292 0.243 0.332 0.677 0.088 0.968-0.242 0.292-0.676 0.331-0.968 0.088z" fill="#0070C0"/><g clip-rule="evenodd" fill="#000" fill-rule="evenodd"><path d="m242 141h1.25v15.1h-1.25v-15.1z"/><path d="m250 142c-0.374 0-0.686 0.11-0.936 0.332-0.252 0.222-0.454 0.54-0.608 0.956-0.154 0.418-0.264 0.924-0.328 1.52-0.066 0.598-0.098 1.27-0.098 2.02 0 1.76 0.164 3.05 0.49 3.88 0.328 0.824 0.834 1.24 1.52 1.24 0.654 0 1.14-0.388 1.45-1.16 0.316-0.774 0.476-1.98 0.476-3.6 0-1.24-0.082-2.25-0.244-3.02s-0.388-1.32-0.676-1.66c-0.29-0.334-0.64-0.502-1.05-0.502zm0.04-0.688c1.18 0 2.06 0.456 2.64 1.37 0.578 0.912 0.868 2.29 0.868 4.14 0 1.91-0.31 3.36-0.928 4.34-0.62 0.98-1.52 1.47-2.71 1.47-1.17 0-2.04-0.458-2.61-1.38-0.57-0.918-0.854-2.31-0.854-4.18 0-0.994 0.088-1.85 0.262-2.58 0.176-0.724 0.422-1.32 0.738-1.79 0.316-0.474 0.696-0.824 1.14-1.05 0.442-0.228 0.926-0.34 1.45-0.34z"/><path d="m256 140 3.23 7.28v0.6l-3.23 7.29-0.866-0.308 2.6-7.28-2.6-7.29 0.866-0.29z"/><path d="m140 30.2h1.25v15.1h-1.25v-15.1z"/><path d="m148 30.6h0.446c-0.033 0.519-0.049 1.24-0.049 2.16v6.92c0 0.313 0.018 0.55 0.053 0.709s0.097 0.289 0.186 0.389 0.218 0.178 0.385 0.235c0.168 0.0568 0.378 0.1 0.632 0.13 0.254 0.0296 0.589 0.05 1 0.0608v0.592h-5.99v-0.592c0.599-0.0272 1.03-0.0636 1.28-0.11 0.257-0.0458 0.453-0.115 0.588-0.207s0.234-0.222 0.296-0.389c0.062-0.168 0.093-0.44 0.093-0.819v-6.57c0-0.216-0.038-0.374-0.114-0.474-0.075-0.1-0.186-0.15-0.332-0.15-0.173 0-0.419 0.0892-0.737 0.268-0.319 0.178-0.714 0.424-1.18 0.738l-0.356-0.624 3.79-2.26z"/><path d="m154 29.4 3.23 7.28v0.6l-3.23 7.29-0.867-0.308 2.6-7.28-2.6-7.29 0.867-0.292z"/><path d="m208 73h1.25v15.1h-1.25v-15.1z"/><path d="m217 74.6h1.15v4.67h4.42v1.08h-4.42v4.67h-1.15v-4.67h-4.42v-1.08h4.42v-4.67z"/><path d="m226 72.3 3.23 7.28v0.6l-3.23 7.29-0.868-0.308 2.6-7.28-2.6-7.29 0.868-0.292z"/><path d="m208 206h1.25v15.1h-1.25v-15.1z"/><path d="m213 212h9.99v1.08h-9.99v-1.08z"/><path d="m226 205 3.23 7.28v0.598l-3.23 7.29-0.866-0.308 2.6-7.28-2.6-7.29 0.866-0.292z"/><path d="m133 250h9.99v1.08h-9.99v-1.08z"/><path d="m146 243h1.25v15.1h-1.25v-15.1z"/><path d="m154 244h0.446c-0.033 0.518-0.049 1.24-0.049 2.16v6.92c0 0.312 0.018 0.55 0.053 0.708 0.035 0.16 0.097 0.29 0.186 0.39s0.218 0.178 0.385 0.234c0.168 0.058 0.378 0.1 0.632 0.13s0.59 0.05 1.01 0.062v0.59h-5.99v-0.59c0.599-0.028 1.03-0.064 1.28-0.11 0.257-0.046 0.453-0.114 0.588-0.206s0.234-0.222 0.296-0.39 0.093-0.44 0.093-0.818v-6.57c0-0.216-0.038-0.374-0.113-0.474-0.076-0.1-0.187-0.15-0.333-0.15-0.173 0-0.419 0.088-0.737 0.268-0.319 0.178-0.714 0.424-1.18 0.736l-0.356-0.624 3.79-2.26z"/><path d="m160 243 3.23 7.28v0.6l-3.23 7.29-0.868-0.308 2.6-7.28-2.6-7.29 0.868-0.292z"/><path d="m28.4 147h9.99v1.08h-9.99v-1.08z"/><path d="m41.6 141h1.25v15.1h-1.25v-15.1z"/><path d="m49.5 142c-0.373 0-0.685 0.11-0.936 0.332s-0.454 0.54-0.608 0.956c-0.154 0.418-0.263 0.924-0.328 1.52-0.0648 0.598-0.0972 1.27-0.0972 2.02 0 1.76 0.163 3.05 0.49 3.88 0.327 0.824 0.833 1.24 1.52 1.24 0.654 0 1.14-0.388 1.45-1.16 0.316-0.774 0.474-1.98 0.474-3.6 0-1.24-0.081-2.25-0.243-3.02-0.162-0.77-0.388-1.32-0.677-1.66-0.289-0.334-0.639-0.502-1.05-0.502zm0.0406-0.688c1.18 0 2.06 0.456 2.64 1.37 0.578 0.912 0.867 2.29 0.867 4.14 0 1.91-0.309 3.36-0.928 4.34-0.619 0.98-1.52 1.47-2.71 1.47-1.17 0-2.04-0.458-2.61-1.38-0.57-0.918-0.855-2.31-0.855-4.18 0-0.994 0.0878-1.85 0.263-2.58s0.422-1.32 0.738-1.79c0.316-0.474 0.696-0.824 1.14-1.05 0.443-0.228 0.927-0.34 1.45-0.34z"/><path d="m55.8 140 3.23 7.28v0.6l-3.23 7.29-0.867-0.308 2.6-7.28-2.6-7.29 0.867-0.29z"/><path d="m57.9 212h9.99v1.08h-9.99v-1.08z"/><path d="m71 206h1.25v15.1h-1.25v-15.1z"/><path d="m79.9 207h1.15v4.67h4.42v1.08h-4.42v4.67h-1.15v-4.67h-4.42v-1.08h4.42v-4.67z"/><path d="m88.4 205 3.23 7.28v0.6l-3.23 7.29-0.867-0.308 2.6-7.28-2.6-7.29 0.867-0.29z"/><path d="m57.2 78.8h9.99v1.08h-9.99v-1.08z"/><path d="m70.3 72.5h1.25v15.1h-1.25v-15.1z"/><path d="m74.8 78.8h9.99v1.08h-9.99v-1.08z"/><path d="m87.7 71.8 3.23 7.28v0.6l-3.23 7.29-0.867-0.308 2.6-7.28-2.6-7.29 0.867-0.292z"/><path d="m592 141h1.25v15.1h-1.25v-15.1z"/><path d="m600 142c-0.372 0-0.684 0.11-0.936 0.332-0.25 0.222-0.454 0.54-0.608 0.956-0.154 0.418-0.262 0.924-0.328 1.52-0.064 0.598-0.098 1.27-0.098 2.02 0 1.76 0.164 3.05 0.492 3.88 0.326 0.824 0.832 1.24 1.52 1.24 0.652 0 1.14-0.388 1.45-1.16 0.316-0.774 0.474-1.98 0.474-3.6 0-1.24-0.08-2.25-0.242-3.02-0.164-0.77-0.388-1.32-0.678-1.66-0.288-0.334-0.638-0.502-1.05-0.502zm0.042-0.688c1.18 0 2.06 0.456 2.64 1.37 0.578 0.912 0.866 2.29 0.866 4.14 0 1.91-0.308 3.36-0.928 4.34-0.618 0.98-1.52 1.47-2.71 1.47-1.17 0-2.04-0.458-2.61-1.38-0.57-0.918-0.856-2.31-0.856-4.18 0-0.994 0.088-1.85 0.264-2.58s0.422-1.32 0.738-1.79c0.316-0.474 0.696-0.824 1.14-1.05 0.444-0.228 0.926-0.34 1.45-0.34z"/><path d="m606 140 3.23 7.28v0.6l-3.23 7.29-0.868-0.308 2.6-7.28-2.6-7.29 0.868-0.29z"/><path d="m489 30.2h1.25v15.1h-1.25v-15.1z"/><path d="m498 30.6h0.446c-0.032 0.519-0.048 1.24-0.048 2.16v6.92c0 0.313 0.016 0.55 0.052 0.709 0.034 0.159 0.098 0.289 0.186 0.389 0.09 0.1 0.218 0.178 0.386 0.235 0.166 0.0568 0.378 0.1 0.632 0.13 0.254 0.0296 0.588 0.05 1 0.0608v0.592h-5.99v-0.592c0.6-0.0272 1.03-0.0636 1.29-0.11 0.256-0.0458 0.452-0.115 0.588-0.207 0.134-0.0918 0.232-0.222 0.294-0.389 0.064-0.168 0.094-0.44 0.094-0.819v-6.57c0-0.216-0.038-0.374-0.114-0.474s-0.186-0.15-0.332-0.15c-0.172 0-0.418 0.0892-0.738 0.268-0.318 0.178-0.712 0.424-1.18 0.738l-0.358-0.624 3.79-2.26z"/><path d="m504 29.4 3.23 7.28v0.6l-3.23 7.29-0.868-0.308 2.6-7.28-2.6-7.29 0.868-0.292z"/><path d="m558 73h1.25v15.1h-1.25v-15.1z"/><path d="m567 74.6h1.15v4.67h4.42v1.08h-4.42v4.67h-1.15v-4.67h-4.42v-1.08h4.42v-4.67z"/><path d="m575 72.3 3.23 7.28v0.6l-3.23 7.29-0.866-0.308 2.6-7.28-2.6-7.29 0.866-0.292z"/><path d="m558 206h1.25v15.1h-1.25v-15.1z"/><path d="m563 212h9.99v1.08h-9.99v-1.08z"/><path d="m575 205 3.23 7.28v0.598l-3.23 7.29-0.868-0.308 2.6-7.28-2.6-7.29 0.868-0.292z"/><path d="m483 250h9.99v1.08h-9.99v-1.08z"/><path d="m496 243h1.25v15.1h-1.25v-15.1z"/><path d="m504 244h0.446c-0.032 0.518-0.048 1.24-0.048 2.16v6.92c0 0.312 0.016 0.55 0.052 0.708 0.036 0.16 0.098 0.29 0.186 0.39 0.09 0.1 0.218 0.178 0.386 0.234 0.166 0.058 0.378 0.1 0.632 0.13s0.588 0.05 1 0.062v0.59h-5.99v-0.59c0.6-0.028 1.03-0.064 1.29-0.11 0.256-0.046 0.452-0.114 0.588-0.206 0.134-0.092 0.232-0.222 0.294-0.39 0.064-0.168 0.094-0.44 0.094-0.818v-6.57c0-0.216-0.038-0.374-0.114-0.474-0.074-0.1-0.186-0.15-0.332-0.15-0.172 0-0.418 0.088-0.738 0.268-0.318 0.178-0.712 0.424-1.18 0.736l-0.358-0.624 3.79-2.26z"/><path d="m510 243 3.23 7.28v0.6l-3.23 7.29-0.868-0.308 2.6-7.28-2.6-7.29 0.868-0.292z"/><path d="m378 147h9.99v1.08h-9.99v-1.08z"/><path d="m391 141h1.25v15.1h-1.25v-15.1z"/><path d="m399 142c-0.372 0-0.684 0.11-0.936 0.332s-0.454 0.54-0.608 0.956c-0.154 0.418-0.264 0.924-0.328 1.52-0.064 0.598-0.098 1.27-0.098 2.02 0 1.76 0.164 3.05 0.492 3.88 0.326 0.824 0.832 1.24 1.52 1.24 0.654 0 1.14-0.388 1.46-1.16 0.316-0.774 0.474-1.98 0.474-3.6 0-1.24-0.082-2.25-0.244-3.02s-0.386-1.32-0.676-1.66c-0.29-0.334-0.638-0.502-1.05-0.502zm0.04-0.688c1.18 0 2.07 0.456 2.64 1.37 0.578 0.912 0.866 2.29 0.866 4.14 0 1.91-0.308 3.36-0.928 4.34-0.618 0.98-1.52 1.47-2.71 1.47-1.17 0-2.04-0.458-2.61-1.38-0.57-0.918-0.856-2.31-0.856-4.18 0-0.994 0.088-1.85 0.264-2.58s0.422-1.32 0.738-1.79c0.316-0.474 0.694-0.824 1.14-1.05 0.444-0.228 0.926-0.34 1.45-0.34z"/><path d="m406 140 3.23 7.28v0.6l-3.23 7.29-0.868-0.308 2.6-7.28-2.6-7.29 0.868-0.29z"/><path d="m408 212h9.99v1.08h-9.99v-1.08z"/><path d="m421 206h1.25v15.1h-1.25v-15.1z"/><path d="m430 207h1.15v4.67h4.42v1.08h-4.42v4.67h-1.15v-4.67h-4.42v-1.08h4.42v-4.67z"/><path d="m438 205 3.23 7.28v0.6l-3.23 7.29-0.868-0.308 2.6-7.28-2.6-7.29 0.868-0.29z"/><path d="m407 78.8h9.99v1.08h-9.99v-1.08z"/><path d="m420 72.5h1.25v15.1h-1.25v-15.1z"/><path d="m425 78.8h9.99v1.08h-9.99v-1.08z"/><path d="m438 71.8 3.24 7.28v0.6l-3.24 7.29-0.866-0.308 2.6-7.28-2.6-7.29 0.866-0.292z"/></g></g><defs><clipPath id="clip0_4_498"><rect transform="translate(.6 .8)" width="659" height="332" fill="#fff"/></clipPath></defs></svg>
