<svg width="660" height="334" viewBox="0 0 660 334" fill="none" xmlns="http://www.w3.org/2000/svg">
<g clip-path="url(#clip0_4_498)">
<path fill-rule="evenodd" clip-rule="evenodd" d="M7.09998 146.4C7.09998 69.5772 69.3772 7.29999 146.2 7.29999C223.022 7.29999 285.3 69.5772 285.3 146.4C285.3 223.222 223.022 285.5 146.2 285.5C69.3772 285.5 7.09998 223.222 7.09998 146.4Z" stroke="#747474" stroke-width="1.375" stroke-miterlimit="8"/>
<path fill-rule="evenodd" clip-rule="evenodd" d="M279.3 146.6C279.3 143.342 281.986 140.7 285.3 140.7C288.614 140.7 291.3 143.342 291.3 146.6C291.3 149.858 288.614 152.5 285.3 152.5C281.986 152.5 279.3 149.858 279.3 146.6Z" fill="white" stroke="#0070C0" stroke-width="1.375" stroke-miterlimit="8"/>
<path fill-rule="evenodd" clip-rule="evenodd" d="M140.3 7.4C140.3 4.1416 142.942 1.5 146.2 1.5C149.458 1.5 152.1 4.1416 152.1 7.4C152.1 10.6584 149.458 13.3 146.2 13.3C142.942 13.3 140.3 10.6584 140.3 7.4Z" fill="white" stroke="black" stroke-width="1.375" stroke-miterlimit="8"/>
<path fill-rule="evenodd" clip-rule="evenodd" d="M1.29993 146.6C1.29993 143.342 3.94153 140.7 7.19993 140.7C10.4583 140.7 13.0999 143.342 13.0999 146.6C13.0999 149.858 10.4583 152.5 7.19993 152.5C3.94153 152.5 1.29993 149.858 1.29993 146.6Z" fill="white" stroke="black" stroke-width="1.375" stroke-miterlimit="8"/>
<path fill-rule="evenodd" clip-rule="evenodd" d="M140.3 285.6C140.3 282.342 142.942 279.7 146.2 279.7C149.458 279.7 152.1 282.342 152.1 285.6C152.1 288.858 149.458 291.5 146.2 291.5C142.942 291.5 140.3 288.858 140.3 285.6Z" fill="white" stroke="black" stroke-width="1.375" stroke-miterlimit="8"/>
<path fill-rule="evenodd" clip-rule="evenodd" d="M240 50.1C240 46.8414 242.686 44.2 246 44.2C249.314 44.2 252 46.8414 252 50.1C252 53.3584 249.314 56 246 56C242.686 56 240 53.3584 240 50.1Z" fill="#0070C0"/>
<path fill-rule="evenodd" clip-rule="evenodd" d="M240.1 243.2C240.1 239.942 242.786 237.3 246.1 237.3C249.414 237.3 252.1 239.942 252.1 243.2C252.1 246.458 249.414 249.1 246.1 249.1C242.786 249.1 240.1 246.458 240.1 243.2Z" fill="white" stroke="black" stroke-width="1.375" stroke-miterlimit="8"/>
<path fill-rule="evenodd" clip-rule="evenodd" d="M40.2999 50.2C40.2999 46.9416 42.9861 44.3 46.2999 44.3C49.6137 44.3 52.2999 46.9416 52.2999 50.2C52.2999 53.4586 49.6137 56.1 46.2999 56.1C42.9861 56.1 40.2999 53.4586 40.2999 50.2Z" fill="white" stroke="black" stroke-width="1.375" stroke-miterlimit="8"/>
<path fill-rule="evenodd" clip-rule="evenodd" d="M40.2999 243.2C40.2999 239.942 42.9861 237.3 46.2999 237.3C49.6137 237.3 52.2999 239.942 52.2999 243.2C52.2999 246.458 49.6137 249.1 46.2999 249.1C42.9861 249.1 40.2999 246.458 40.2999 243.2Z" fill="white" stroke="black" stroke-width="1.375" stroke-miterlimit="8"/>
<path fill-rule="evenodd" clip-rule="evenodd" d="M358.1 146.4C358.1 69.5772 420.332 7.29999 497.1 7.29999C573.868 7.29999 636.1 69.5772 636.1 146.4C636.1 223.222 573.868 285.5 497.1 285.5C420.332 285.5 358.1 223.222 358.1 146.4Z" stroke="#747474" stroke-width="1.375" stroke-miterlimit="8"/>
<path fill-rule="evenodd" clip-rule="evenodd" d="M630.3 146.6C630.3 143.342 632.942 140.7 636.2 140.7C639.458 140.7 642.1 143.342 642.1 146.6C642.1 149.858 639.458 152.5 636.2 152.5C632.942 152.5 630.3 149.858 630.3 146.6Z" fill="white" stroke="#0070C0" stroke-width="1.375" stroke-miterlimit="8"/>
<path fill-rule="evenodd" clip-rule="evenodd" d="M491.1 7.4C491.1 4.1416 493.786 1.5 497.1 1.5C500.414 1.5 503.1 4.1416 503.1 7.4C503.1 10.6584 500.414 13.3 497.1 13.3C493.786 13.3 491.1 10.6584 491.1 7.4Z" fill="white" stroke="black" stroke-width="1.375" stroke-miterlimit="8"/>
<path fill-rule="evenodd" clip-rule="evenodd" d="M352.1 146.6C352.1 143.342 354.786 140.7 358.1 140.7C361.414 140.7 364.1 143.342 364.1 146.6C364.1 149.858 361.414 152.5 358.1 152.5C354.786 152.5 352.1 149.858 352.1 146.6Z" fill="white" stroke="black" stroke-width="1.375" stroke-miterlimit="8"/>
<path fill-rule="evenodd" clip-rule="evenodd" d="M491.1 285.6C491.1 282.342 493.786 279.7 497.1 279.7C500.414 279.7 503.1 282.342 503.1 285.6C503.1 288.858 500.414 291.5 497.1 291.5C493.786 291.5 491.1 288.858 491.1 285.6Z" fill="white" stroke="black" stroke-width="1.375" stroke-miterlimit="8"/>
<path fill-rule="evenodd" clip-rule="evenodd" d="M591 50.1C591 46.8414 593.642 44.2 596.9 44.2C600.158 44.2 602.8 46.8414 602.8 50.1C602.8 53.3584 600.158 56 596.9 56C593.642 56 591 53.3584 591 50.1Z" fill="#0070C0"/>
<path fill-rule="evenodd" clip-rule="evenodd" d="M591.1 243.2C591.1 239.942 593.742 237.3 597 237.3C600.258 237.3 602.9 239.942 602.9 243.2C602.9 246.458 600.258 249.1 597 249.1C593.742 249.1 591.1 246.458 591.1 243.2Z" fill="white" stroke="black" stroke-width="1.375" stroke-miterlimit="8"/>
<path fill-rule="evenodd" clip-rule="evenodd" d="M391.3 50.2C391.3 46.9416 393.942 44.3 397.2 44.3C400.458 44.3 403.1 46.9416 403.1 50.2C403.1 53.4586 400.458 56.1 397.2 56.1C393.942 56.1 391.3 53.4586 391.3 50.2Z" fill="white" stroke="black" stroke-width="1.375" stroke-miterlimit="8"/>
<path fill-rule="evenodd" clip-rule="evenodd" d="M391.3 243.2C391.3 239.942 393.942 237.3 397.2 237.3C400.458 237.3 403.1 239.942 403.1 243.2C403.1 246.458 400.458 249.1 397.2 249.1C393.942 249.1 391.3 246.458 391.3 243.2Z" fill="white" stroke="black" stroke-width="1.375" stroke-miterlimit="8"/>
<path d="M119.594 319.142C118.653 319.597 117.425 319.825 115.91 319.825C113.933 319.825 112.379 319.244 111.247 318.082C110.115 316.92 109.549 315.371 109.549 313.437C109.549 311.376 110.184 309.705 111.454 308.423C112.73 307.142 114.383 306.501 116.413 306.501C117.671 306.501 118.731 306.66 119.594 306.977V309.771C118.731 309.256 117.749 308.998 116.647 308.998C115.437 308.998 114.461 309.379 113.718 310.139C112.975 310.9 112.604 311.93 112.604 313.23C112.604 314.476 112.954 315.47 113.655 316.213C114.356 316.95 115.299 317.318 116.485 317.318C117.617 317.318 118.653 317.042 119.594 316.491V319.142ZM125.946 319.825C124.412 319.825 123.205 319.396 122.325 318.54C121.45 317.677 121.013 316.509 121.013 315.036C121.013 313.515 121.468 312.326 122.379 311.469C123.289 310.607 124.52 310.175 126.071 310.175C127.599 310.175 128.797 310.607 129.665 311.469C130.534 312.326 130.968 313.461 130.968 314.874C130.968 316.402 130.519 317.608 129.62 318.495C128.728 319.381 127.503 319.825 125.946 319.825ZM126.017 312.35C125.347 312.35 124.826 312.58 124.454 313.041C124.083 313.503 123.897 314.155 123.897 315C123.897 316.767 124.61 317.65 126.035 317.65C127.395 317.65 128.075 316.743 128.075 314.928C128.075 313.209 127.389 312.35 126.017 312.35ZM141.695 319.6H138.865V314.488C138.865 313.062 138.356 312.35 137.338 312.35C136.847 312.35 136.442 312.538 136.125 312.916C135.807 313.293 135.649 313.772 135.649 314.353V319.6H132.81V310.4H135.649V311.855H135.685C136.361 310.735 137.347 310.175 138.641 310.175C140.677 310.175 141.695 311.439 141.695 313.967V319.6ZM143.348 319.357V317.057C143.816 317.339 144.28 317.549 144.741 317.686C145.208 317.824 145.648 317.893 146.062 317.893C146.565 317.893 146.96 317.824 147.248 317.686C147.541 317.549 147.688 317.339 147.688 317.057C147.688 316.878 147.622 316.728 147.49 316.608C147.358 316.488 147.188 316.384 146.978 316.294C146.774 316.204 146.55 316.123 146.304 316.051C146.059 315.979 145.822 315.898 145.594 315.809C145.229 315.671 144.906 315.524 144.624 315.368C144.349 315.207 144.115 315.021 143.923 314.811C143.738 314.602 143.594 314.359 143.492 314.084C143.396 313.808 143.348 313.482 143.348 313.104C143.348 312.589 143.459 312.146 143.681 311.775C143.908 311.403 144.208 311.101 144.579 310.867C144.957 310.628 145.385 310.454 145.864 310.346C146.349 310.232 146.852 310.175 147.373 310.175C147.781 310.175 148.194 310.208 148.613 310.274C149.032 310.334 149.446 310.424 149.853 310.544V312.736C149.494 312.526 149.107 312.371 148.694 312.269C148.287 312.161 147.885 312.107 147.49 312.107C147.304 312.107 147.128 312.125 146.96 312.161C146.798 312.191 146.655 312.239 146.529 312.305C146.403 312.365 146.304 312.445 146.232 312.547C146.16 312.643 146.125 312.754 146.125 312.88C146.125 313.047 146.178 313.191 146.286 313.311C146.394 313.431 146.535 313.536 146.708 313.625C146.882 313.709 147.074 313.787 147.283 313.859C147.499 313.925 147.712 313.994 147.921 314.066C148.299 314.197 148.64 314.341 148.946 314.497C149.251 314.653 149.512 314.835 149.727 315.045C149.949 315.255 150.117 315.5 150.23 315.782C150.35 316.063 150.41 316.399 150.41 316.788C150.41 317.333 150.29 317.8 150.051 318.189C149.817 318.573 149.503 318.887 149.107 319.133C148.718 319.372 148.266 319.546 147.751 319.654C147.242 319.768 146.711 319.825 146.16 319.825C145.148 319.825 144.211 319.669 143.348 319.357ZM157.616 319.492C157.196 319.714 156.564 319.825 155.72 319.825C153.719 319.825 152.719 318.785 152.719 316.707V312.493H151.228V310.4H152.719V308.414L155.549 307.606V310.4H157.616V312.493H155.549V316.213C155.549 317.171 155.929 317.65 156.69 317.65C156.99 317.65 157.298 317.564 157.616 317.39V319.492ZM166.878 319.6H164.192V318.279H164.156C163.539 319.31 162.626 319.825 161.416 319.825C160.523 319.825 159.82 319.573 159.305 319.07C158.795 318.561 158.541 317.884 158.541 317.039C158.541 315.255 159.598 314.224 161.712 313.949L164.21 313.616C164.21 312.61 163.665 312.107 162.575 312.107C161.479 312.107 160.437 312.433 159.448 313.086V310.948C159.844 310.744 160.383 310.565 161.066 310.409C161.754 310.253 162.38 310.175 162.943 310.175C165.567 310.175 166.878 311.484 166.878 314.102V319.6ZM164.21 315.863V315.243L162.539 315.458C161.617 315.578 161.155 315.994 161.155 316.707C161.155 317.03 161.266 317.297 161.488 317.507C161.715 317.71 162.021 317.812 162.404 317.812C162.937 317.812 163.372 317.629 163.707 317.264C164.042 316.893 164.21 316.426 164.21 315.863ZM178.01 319.6H175.18V314.488C175.18 313.062 174.671 312.35 173.653 312.35C173.161 312.35 172.757 312.538 172.44 312.916C172.122 313.293 171.964 313.772 171.964 314.353V319.6H169.125V310.4H171.964V311.855H172C172.676 310.735 173.662 310.175 174.955 310.175C176.992 310.175 178.01 311.439 178.01 313.967V319.6ZM185.826 319.492C185.407 319.714 184.775 319.825 183.931 319.825C181.93 319.825 180.93 318.785 180.93 316.707V312.493H179.439V310.4H180.93V308.414L183.76 307.606V310.4H185.826V312.493H183.76V316.213C183.76 317.171 184.14 317.65 184.901 317.65C185.201 317.65 185.509 317.564 185.826 317.39V319.492Z" fill="black"/>
<path d="M475.805 306.716L471.366 319.6H468.078L463.694 306.716H466.82L469.507 315.683C469.65 316.168 469.737 316.596 469.767 316.968H469.821C469.863 316.566 469.956 316.126 470.1 315.647L472.768 306.716H475.805ZM483.343 319.6H480.656V318.279H480.62C480.003 319.31 479.09 319.825 477.88 319.825C476.988 319.825 476.284 319.573 475.769 319.07C475.26 318.561 475.005 317.884 475.005 317.039C475.005 315.255 476.062 314.224 478.177 313.949L480.674 313.616C480.674 312.61 480.129 312.107 479.039 312.107C477.943 312.107 476.901 312.433 475.913 313.086V310.948C476.308 310.744 476.847 310.565 477.53 310.409C478.219 310.253 478.844 310.175 479.407 310.175C482.031 310.175 483.343 311.484 483.343 314.102V319.6ZM480.674 315.863V315.243L479.003 315.458C478.081 315.578 477.62 315.994 477.62 316.707C477.62 317.03 477.73 317.297 477.952 317.507C478.18 317.71 478.485 317.812 478.868 317.812C479.401 317.812 479.836 317.629 480.171 317.264C480.507 316.893 480.674 316.426 480.674 315.863ZM491.59 312.961C491.249 312.775 490.851 312.682 490.395 312.682C489.778 312.682 489.296 312.91 488.949 313.365C488.601 313.814 488.428 314.428 488.428 315.207V319.6H485.589V310.4H488.428V312.107H488.464C488.913 310.861 489.722 310.238 490.889 310.238C491.189 310.238 491.423 310.274 491.59 310.346V312.961ZM494.429 308.945C493.95 308.945 493.558 308.804 493.252 308.522C492.947 308.235 492.794 307.884 492.794 307.471C492.794 307.046 492.947 306.698 493.252 306.429C493.558 306.159 493.95 306.025 494.429 306.025C494.914 306.025 495.307 306.159 495.606 306.429C495.912 306.698 496.064 307.046 496.064 307.471C496.064 307.902 495.912 308.256 495.606 308.531C495.307 308.807 494.914 308.945 494.429 308.945ZM495.831 319.6H492.992V310.4H495.831V319.6ZM505.875 319.6H503.189V318.279H503.153C502.536 319.31 501.623 319.825 500.413 319.825C499.52 319.825 498.817 319.573 498.302 319.07C497.792 318.561 497.538 317.884 497.538 317.039C497.538 315.255 498.595 314.224 500.709 313.949L503.207 313.616C503.207 312.61 502.662 312.107 501.572 312.107C500.476 312.107 499.434 312.433 498.445 313.086V310.948C498.841 310.744 499.38 310.565 500.063 310.409C500.751 310.253 501.377 310.175 501.94 310.175C504.564 310.175 505.875 311.484 505.875 314.102V319.6ZM503.207 315.863V315.243L501.536 315.458C500.614 315.578 500.152 315.994 500.152 316.707C500.152 317.03 500.263 317.297 500.485 317.507C500.712 317.71 501.018 317.812 501.401 317.812C501.934 317.812 502.369 317.629 502.704 317.264C503.039 316.893 503.207 316.426 503.207 315.863ZM510.997 318.531H510.961V319.6H508.122V305.98H510.961V311.784H510.997C511.697 310.711 512.695 310.175 513.988 310.175C515.174 310.175 516.088 310.583 516.729 311.397C517.369 312.212 517.69 313.326 517.69 314.739C517.69 316.273 517.316 317.504 516.567 318.432C515.818 319.36 514.818 319.825 513.566 319.825C512.434 319.825 511.578 319.393 510.997 318.531ZM510.916 314.65V315.593C510.916 316.186 511.086 316.677 511.428 317.066C511.769 317.456 512.206 317.65 512.739 317.65C513.386 317.65 513.886 317.402 514.24 316.905C514.599 316.402 514.779 315.692 514.779 314.775C514.779 314.015 514.614 313.422 514.285 312.996C513.961 312.565 513.497 312.35 512.892 312.35C512.323 312.35 511.85 312.562 511.473 312.988C511.101 313.413 510.916 313.967 510.916 314.65ZM522.371 319.6H519.532V305.98H522.371V319.6ZM533.026 315.809H527.025C527.12 317.144 527.962 317.812 529.549 317.812C530.561 317.812 531.451 317.573 532.218 317.093V319.142C531.367 319.597 530.262 319.825 528.902 319.825C527.417 319.825 526.264 319.414 525.443 318.594C524.623 317.767 524.213 316.617 524.213 315.144C524.213 313.616 524.656 312.407 525.542 311.514C526.429 310.622 527.519 310.175 528.813 310.175C530.154 310.175 531.19 310.574 531.921 311.37C532.658 312.167 533.026 313.248 533.026 314.614V315.809ZM530.394 314.066C530.394 312.748 529.861 312.089 528.795 312.089C528.339 312.089 527.944 312.278 527.609 312.655C527.279 313.032 527.079 313.503 527.007 314.066H530.394Z" fill="black"/>
<path d="M291.262 146.098H307.762L307.074 146.786V50.3L307.762 50.9874H253.172V49.6124H308.45V147.474H291.262V146.098ZM258.232 55.4114L252.098 50.3L258.232 45.1886C258.524 44.9454 258.958 44.9848 259.2 45.2766C259.444 45.5682 259.404 46.0018 259.112 46.2448L253.612 50.8282V49.7718L259.112 54.3552C259.404 54.5982 259.444 55.0318 259.2 55.3234C258.958 55.6152 258.524 55.6546 258.232 55.4114Z" fill="#0070C0"/>
<path d="M642.062 146.098H658.562L657.874 146.786V50.3L658.562 50.9874H603.972V49.6124H659.25V147.474H642.062V146.098ZM609.032 55.4114L602.898 50.3L609.032 45.1886C609.324 44.9454 609.758 44.9848 610 45.2766C610.244 45.5682 610.204 46.0018 609.912 46.2448L604.412 50.8282V49.7718L609.912 54.3552C610.204 54.5982 610.244 55.0318 610 55.3234C609.758 55.6152 609.324 55.6546 609.032 55.4114Z" fill="#0070C0"/>
<path fill-rule="evenodd" clip-rule="evenodd" d="M242.306 141.002H243.556V156.086H242.306V141.002Z" fill="black"/>
<path fill-rule="evenodd" clip-rule="evenodd" d="M250.172 142.096C249.798 142.096 249.486 142.206 249.236 142.428C248.984 142.65 248.782 142.968 248.628 143.384C248.474 143.802 248.364 144.308 248.3 144.904C248.234 145.502 248.202 146.176 248.202 146.928C248.202 148.688 248.366 149.982 248.692 150.806C249.02 151.63 249.526 152.042 250.212 152.042C250.866 152.042 251.35 151.654 251.666 150.878C251.982 150.104 252.142 148.902 252.142 147.276C252.142 146.032 252.06 145.026 251.898 144.256C251.736 143.486 251.51 142.934 251.222 142.598C250.932 142.264 250.582 142.096 250.172 142.096ZM250.212 141.408C251.396 141.408 252.276 141.864 252.854 142.778C253.432 143.69 253.722 145.07 253.722 146.918C253.722 148.832 253.412 150.278 252.794 151.26C252.174 152.24 251.272 152.73 250.082 152.73C248.916 152.73 248.046 152.272 247.476 151.352C246.906 150.434 246.622 149.04 246.622 147.17C246.622 146.176 246.71 145.316 246.884 144.592C247.06 143.868 247.306 143.27 247.622 142.798C247.938 142.324 248.318 141.974 248.762 141.748C249.204 141.52 249.688 141.408 250.212 141.408Z" fill="black"/>
<path fill-rule="evenodd" clip-rule="evenodd" d="M256.468 140.284L259.702 147.562V148.162L256.468 155.448L255.602 155.14L258.204 147.862L255.602 140.574L256.468 140.284Z" fill="black"/>
<path fill-rule="evenodd" clip-rule="evenodd" d="M139.652 30.1602H140.9V45.2446H139.652V30.1602Z" fill="black"/>
<path fill-rule="evenodd" clip-rule="evenodd" d="M148.157 30.5656H148.603C148.57 31.0844 148.554 31.803 148.554 32.7216V39.6436C148.554 39.957 148.572 40.1936 148.607 40.353C148.642 40.5124 148.704 40.642 148.793 40.742C148.882 40.842 149.011 40.9202 149.178 40.977C149.346 41.0338 149.556 41.077 149.81 41.1068C150.064 41.1364 150.399 41.1568 150.815 41.1676V41.7592H144.826V41.1676C145.425 41.1404 145.854 41.104 146.11 41.058C146.367 41.0122 146.563 40.9432 146.698 40.8514C146.833 40.7596 146.932 40.6298 146.994 40.4624C147.056 40.2948 147.087 40.022 147.087 39.6436V33.0702C147.087 32.854 147.049 32.696 146.973 32.596C146.898 32.496 146.787 32.446 146.641 32.446C146.468 32.446 146.222 32.5352 145.904 32.7136C145.585 32.8918 145.19 33.1376 144.72 33.4512L144.364 32.827L148.157 30.5656Z" fill="black"/>
<path fill-rule="evenodd" clip-rule="evenodd" d="M153.814 29.4414L157.048 36.7202V37.32L153.814 44.6068L152.947 44.2988L155.548 37.02L152.947 29.7332L153.814 29.4414Z" fill="black"/>
<path fill-rule="evenodd" clip-rule="evenodd" d="M208.234 72.9772H209.482V88.0614H208.234V72.9772Z" fill="black"/>
<path fill-rule="evenodd" clip-rule="evenodd" d="M217.128 74.6226H218.278V79.2912H222.696V80.3694H218.278V85.038H217.128V80.3694H212.71V79.2912H217.128V74.6226Z" fill="black"/>
<path fill-rule="evenodd" clip-rule="evenodd" d="M225.604 72.2582L228.838 79.537V80.1368L225.604 87.4236L224.736 87.1156L227.338 79.8368L224.736 72.55L225.604 72.2582Z" fill="black"/>
<path fill-rule="evenodd" clip-rule="evenodd" d="M208.228 206.15H209.476V221.234H208.228V206.15Z" fill="black"/>
<path fill-rule="evenodd" clip-rule="evenodd" d="M212.704 212.464H222.69V213.542H212.704V212.464Z" fill="black"/>
<path fill-rule="evenodd" clip-rule="evenodd" d="M225.598 205.43L228.832 212.71V213.308L225.598 220.596L224.732 220.288L227.332 213.01L224.732 205.722L225.598 205.43Z" fill="black"/>
<path fill-rule="evenodd" clip-rule="evenodd" d="M132.717 249.716H142.703V250.794H132.717V249.716Z" fill="black"/>
<path fill-rule="evenodd" clip-rule="evenodd" d="M145.886 243.402H147.134V258.486H145.886V243.402Z" fill="black"/>
<path fill-rule="evenodd" clip-rule="evenodd" d="M154.391 243.808H154.837C154.804 244.326 154.788 245.044 154.788 245.964V252.886C154.788 253.198 154.806 253.436 154.841 253.594C154.876 253.754 154.938 253.884 155.027 253.984C155.116 254.084 155.245 254.162 155.412 254.218C155.58 254.276 155.79 254.318 156.044 254.348C156.298 254.378 156.634 254.398 157.05 254.41V255H151.06V254.41C151.659 254.382 152.088 254.346 152.344 254.3C152.601 254.254 152.797 254.186 152.932 254.094C153.067 254.002 153.166 253.872 153.228 253.704C153.29 253.536 153.321 253.264 153.321 252.886V246.312C153.321 246.096 153.283 245.938 153.208 245.838C153.132 245.738 153.021 245.688 152.875 245.688C152.702 245.688 152.456 245.776 152.138 245.956C151.819 246.134 151.424 246.38 150.954 246.692L150.598 246.068L154.391 243.808Z" fill="black"/>
<path fill-rule="evenodd" clip-rule="evenodd" d="M160.048 242.684L163.282 249.962V250.562L160.048 257.848L159.18 257.54L161.782 250.262L159.18 242.976L160.048 242.684Z" fill="black"/>
<path fill-rule="evenodd" clip-rule="evenodd" d="M28.4471 147.316H38.4331V148.394H28.4471V147.316Z" fill="black"/>
<path fill-rule="evenodd" clip-rule="evenodd" d="M41.6166 141.002H42.8648V156.086H41.6166V141.002Z" fill="black"/>
<path fill-rule="evenodd" clip-rule="evenodd" d="M49.4811 142.096C49.1083 142.096 48.7961 142.206 48.5449 142.428C48.2937 142.65 48.0911 142.968 47.9369 143.384C47.7829 143.802 47.6735 144.308 47.6087 144.904C47.5439 145.502 47.5115 146.176 47.5115 146.928C47.5115 148.688 47.6749 149.982 48.0019 150.806C48.3287 151.63 48.8353 152.042 49.5217 152.042C50.1755 152.042 50.6605 151.654 50.9765 150.878C51.2927 150.104 51.4507 148.902 51.4507 147.276C51.4507 146.032 51.3697 145.026 51.2075 144.256C51.0455 143.486 50.8199 142.934 50.5307 142.598C50.2417 142.264 49.8917 142.096 49.4811 142.096ZM49.5217 141.408C50.7051 141.408 51.5859 141.864 52.1639 142.778C52.7421 143.69 53.0313 145.07 53.0313 146.918C53.0313 148.832 52.7219 150.278 52.1033 151.26C51.4845 152.24 50.5807 152.73 49.3919 152.73C48.2247 152.73 47.3561 152.272 46.7861 151.352C46.2159 150.434 45.9309 149.04 45.9309 147.17C45.9309 146.176 46.0187 145.316 46.1943 144.592C46.3699 143.868 46.6159 143.27 46.9319 142.798C47.2481 142.324 47.6277 141.974 48.0707 141.748C48.5139 141.52 48.9975 141.408 49.5217 141.408Z" fill="black"/>
<path fill-rule="evenodd" clip-rule="evenodd" d="M55.7785 140.284L59.0125 147.562V148.162L55.7785 155.448L54.9111 155.14L57.5129 147.862L54.9111 140.574L55.7785 140.284Z" fill="black"/>
<path fill-rule="evenodd" clip-rule="evenodd" d="M57.8503 212.144H67.8361V213.222H57.8503V212.144Z" fill="black"/>
<path fill-rule="evenodd" clip-rule="evenodd" d="M71.0195 205.83H72.2679V220.914H71.0195V205.83Z" fill="black"/>
<path fill-rule="evenodd" clip-rule="evenodd" d="M79.9135 207.476H81.0645V212.144H85.4819V213.222H81.0645V217.89H79.9135V213.222H75.4961V212.144H79.9135V207.476Z" fill="black"/>
<path fill-rule="evenodd" clip-rule="evenodd" d="M88.39 205.112L91.624 212.39V212.99L88.39 220.276L87.5226 219.968L90.1244 212.69L87.5226 205.402L88.39 205.112Z" fill="black"/>
<path fill-rule="evenodd" clip-rule="evenodd" d="M57.1761 78.8254H67.1621V79.9034H57.1761V78.8254Z" fill="black"/>
<path fill-rule="evenodd" clip-rule="evenodd" d="M70.3456 72.5112H71.5938V87.5956H70.3456V72.5112Z" fill="black"/>
<path fill-rule="evenodd" clip-rule="evenodd" d="M74.8219 78.8254H84.8079V79.9034H74.8219V78.8254Z" fill="black"/>
<path fill-rule="evenodd" clip-rule="evenodd" d="M87.7157 71.7924L90.9497 79.0712V79.671L87.7157 86.9578L86.8485 86.6498L89.4503 79.371L86.8485 72.0842L87.7157 71.7924Z" fill="black"/>
<path fill-rule="evenodd" clip-rule="evenodd" d="M592.122 141.002H593.37V156.086H592.122V141.002Z" fill="black"/>
<path fill-rule="evenodd" clip-rule="evenodd" d="M599.986 142.096C599.614 142.096 599.302 142.206 599.05 142.428C598.8 142.65 598.596 142.968 598.442 143.384C598.288 143.802 598.18 144.308 598.114 144.904C598.05 145.502 598.016 146.176 598.016 146.928C598.016 148.688 598.18 149.982 598.508 150.806C598.834 151.63 599.34 152.042 600.028 152.042C600.68 152.042 601.166 151.654 601.482 150.878C601.798 150.104 601.956 148.902 601.956 147.276C601.956 146.032 601.876 145.026 601.714 144.256C601.55 143.486 601.326 142.934 601.036 142.598C600.748 142.264 600.398 142.096 599.986 142.096ZM600.028 141.408C601.21 141.408 602.092 141.864 602.67 142.778C603.248 143.69 603.536 145.07 603.536 146.918C603.536 148.832 603.228 150.278 602.608 151.26C601.99 152.24 601.086 152.73 599.898 152.73C598.73 152.73 597.862 152.272 597.292 151.352C596.722 150.434 596.436 149.04 596.436 147.17C596.436 146.176 596.524 145.316 596.7 144.592C596.876 143.868 597.122 143.27 597.438 142.798C597.754 142.324 598.134 141.974 598.576 141.748C599.02 141.52 599.502 141.408 600.028 141.408Z" fill="black"/>
<path fill-rule="evenodd" clip-rule="evenodd" d="M606.284 140.284L609.518 147.562V148.162L606.284 155.448L605.416 155.14L608.018 147.862L605.416 140.574L606.284 140.284Z" fill="black"/>
<path fill-rule="evenodd" clip-rule="evenodd" d="M489.468 30.1602H490.716V45.2446H489.468V30.1602Z" fill="black"/>
<path fill-rule="evenodd" clip-rule="evenodd" d="M497.972 30.5656H498.418C498.386 31.0844 498.37 31.803 498.37 32.7216V39.6436C498.37 39.957 498.386 40.1936 498.422 40.353C498.456 40.5124 498.52 40.642 498.608 40.742C498.698 40.842 498.826 40.9202 498.994 40.977C499.16 41.0338 499.372 41.077 499.626 41.1068C499.88 41.1364 500.214 41.1568 500.63 41.1676V41.7592H494.64V41.1676C495.24 41.1404 495.668 41.104 495.926 41.058C496.182 41.0122 496.378 40.9432 496.514 40.8514C496.648 40.7596 496.746 40.6298 496.808 40.4624C496.872 40.2948 496.902 40.022 496.902 39.6436V33.0702C496.902 32.854 496.864 32.696 496.788 32.596C496.712 32.496 496.602 32.446 496.456 32.446C496.284 32.446 496.038 32.5352 495.718 32.7136C495.4 32.8918 495.006 33.1376 494.536 33.4512L494.178 32.827L497.972 30.5656Z" fill="black"/>
<path fill-rule="evenodd" clip-rule="evenodd" d="M503.63 29.4414L506.864 36.7202V37.32L503.63 44.6068L502.762 44.2988L505.364 37.02L502.762 29.7332L503.63 29.4414Z" fill="black"/>
<path fill-rule="evenodd" clip-rule="evenodd" d="M558.048 72.9772H559.296V88.0614H558.048V72.9772Z" fill="black"/>
<path fill-rule="evenodd" clip-rule="evenodd" d="M566.942 74.6226H568.094V79.2912H572.51V80.3694H568.094V85.038H566.942V80.3694H562.524V79.2912H566.942V74.6226Z" fill="black"/>
<path fill-rule="evenodd" clip-rule="evenodd" d="M575.418 72.2582L578.652 79.537V80.1368L575.418 87.4236L574.552 87.1156L577.154 79.8368L574.552 72.55L575.418 72.2582Z" fill="black"/>
<path fill-rule="evenodd" clip-rule="evenodd" d="M558.044 206.15H559.292V221.234H558.044V206.15Z" fill="black"/>
<path fill-rule="evenodd" clip-rule="evenodd" d="M562.52 212.464H572.506V213.542H562.52V212.464Z" fill="black"/>
<path fill-rule="evenodd" clip-rule="evenodd" d="M575.414 205.43L578.648 212.71V213.308L575.414 220.596L574.546 220.288L577.148 213.01L574.546 205.722L575.414 205.43Z" fill="black"/>
<path fill-rule="evenodd" clip-rule="evenodd" d="M482.532 249.716H492.518V250.794H482.532V249.716Z" fill="black"/>
<path fill-rule="evenodd" clip-rule="evenodd" d="M495.702 243.402H496.95V258.486H495.702V243.402Z" fill="black"/>
<path fill-rule="evenodd" clip-rule="evenodd" d="M504.206 243.808H504.652C504.62 244.326 504.604 245.044 504.604 245.964V252.886C504.604 253.198 504.62 253.436 504.656 253.594C504.692 253.754 504.754 253.884 504.842 253.984C504.932 254.084 505.06 254.162 505.228 254.218C505.394 254.276 505.606 254.318 505.86 254.348C506.114 254.378 506.448 254.398 506.864 254.41V255H500.874V254.41C501.474 254.382 501.902 254.346 502.16 254.3C502.416 254.254 502.612 254.186 502.748 254.094C502.882 254.002 502.98 253.872 503.042 253.704C503.106 253.536 503.136 253.264 503.136 252.886V246.312C503.136 246.096 503.098 245.938 503.022 245.838C502.948 245.738 502.836 245.688 502.69 245.688C502.518 245.688 502.272 245.776 501.952 245.956C501.634 246.134 501.24 246.38 500.77 246.692L500.412 246.068L504.206 243.808Z" fill="black"/>
<path fill-rule="evenodd" clip-rule="evenodd" d="M509.864 242.684L513.098 249.962V250.562L509.864 257.848L508.996 257.54L511.598 250.262L508.996 242.976L509.864 242.684Z" fill="black"/>
<path fill-rule="evenodd" clip-rule="evenodd" d="M378.262 147.316H388.248V148.394H378.262V147.316Z" fill="black"/>
<path fill-rule="evenodd" clip-rule="evenodd" d="M391.432 141.002H392.68V156.086H391.432V141.002Z" fill="black"/>
<path fill-rule="evenodd" clip-rule="evenodd" d="M399.296 142.096C398.924 142.096 398.612 142.206 398.36 142.428C398.108 142.65 397.906 142.968 397.752 143.384C397.598 143.802 397.488 144.308 397.424 144.904C397.36 145.502 397.326 146.176 397.326 146.928C397.326 148.688 397.49 149.982 397.818 150.806C398.144 151.63 398.65 152.042 399.336 152.042C399.99 152.042 400.476 151.654 400.792 150.878C401.108 150.104 401.266 148.902 401.266 147.276C401.266 146.032 401.184 145.026 401.022 144.256C400.86 143.486 400.636 142.934 400.346 142.598C400.056 142.264 399.708 142.096 399.296 142.096ZM399.336 141.408C400.52 141.408 401.402 141.864 401.98 142.778C402.558 143.69 402.846 145.07 402.846 146.918C402.846 148.832 402.538 150.278 401.918 151.26C401.3 152.24 400.396 152.73 399.208 152.73C398.04 152.73 397.172 152.272 396.602 151.352C396.032 150.434 395.746 149.04 395.746 147.17C395.746 146.176 395.834 145.316 396.01 144.592C396.186 143.868 396.432 143.27 396.748 142.798C397.064 142.324 397.442 141.974 397.886 141.748C398.33 141.52 398.812 141.408 399.336 141.408Z" fill="black"/>
<path fill-rule="evenodd" clip-rule="evenodd" d="M405.594 140.284L408.828 147.562V148.162L405.594 155.448L404.726 155.14L407.328 147.862L404.726 140.574L405.594 140.284Z" fill="black"/>
<path fill-rule="evenodd" clip-rule="evenodd" d="M407.666 212.144H417.652V213.222H407.666V212.144Z" fill="black"/>
<path fill-rule="evenodd" clip-rule="evenodd" d="M420.834 205.83H422.084V220.914H420.834V205.83Z" fill="black"/>
<path fill-rule="evenodd" clip-rule="evenodd" d="M429.728 207.476H430.88V212.144H435.298V213.222H430.88V217.89H429.728V213.222H425.312V212.144H429.728V207.476Z" fill="black"/>
<path fill-rule="evenodd" clip-rule="evenodd" d="M438.206 205.112L441.44 212.39V212.99L438.206 220.276L437.338 219.968L439.94 212.69L437.338 205.402L438.206 205.112Z" fill="black"/>
<path fill-rule="evenodd" clip-rule="evenodd" d="M406.992 78.8254H416.978V79.9034H406.992V78.8254Z" fill="black"/>
<path fill-rule="evenodd" clip-rule="evenodd" d="M420.16 72.5112H421.408V87.5956H420.16V72.5112Z" fill="black"/>
<path fill-rule="evenodd" clip-rule="evenodd" d="M424.638 78.8254H434.624V79.9034H424.638V78.8254Z" fill="black"/>
<path fill-rule="evenodd" clip-rule="evenodd" d="M437.53 71.7924L440.766 79.0712V79.671L437.53 86.9578L436.664 86.6498L439.266 79.371L436.664 72.0842L437.53 71.7924Z" fill="black"/>
</g>
<defs>
<clipPath id="clip0_4_498">
<rect width="658.8" height="332.4" fill="white" transform="translate(0.599976 0.799988)"/>
</clipPath>
</defs>
</svg>
